<svg xmlns="http://www.w3.org/2000/svg" viewBox="0 0 80 80" fill="none">
<path d="M24.1973 47.3587C23.98 47.7187 23.672 48.016 23.3053 48.22C22.9373 48.424 22.5227 48.528 22.1027 48.5227C21.6827 48.516 21.2707 48.4 20.9093 48.1853C20.548 47.9707 20.2493 47.6653 20.0413 47.2987C19.6347 46.5773 19.4587 45.5267 18.6467 45.368C17.972 45.2347 17.4213 45.86 16.9133 46.3227C16.3067 46.8707 15.52 47.2653 14.7027 47.2453C13.8853 47.2253 13.0547 46.724 12.804 45.9453C12.4453 44.8347 13.292 43.6907 13.2853 42.5253C13.3013 42.2107 13.1973 41.9027 12.9947 41.6613C12.524 41.1733 11.7187 41.42 11.044 41.356C9.63334 41.2227 8.77734 39.5187 9.124 38.1453C9.47067 36.772 10.6613 35.764 11.924 35.124C13.1867 34.484 14.5773 34.1173 15.8347 33.4613C17.3933 32.644 18.696 31.412 19.6 29.9013C20.304 28.724 20.748 27.4013 21.4947 26.2507C22.828 24.2027 25.0187 22.856 27.2973 21.9747C29.576 21.0933 31.9867 20.6173 34.32 19.896C36.072 19.3547 37.8493 18.6667 39.6747 18.8293C40.884 18.9373 42.1573 19.532 42.608 20.6573L45.7347 21.7573C49.4307 21.9067 52.968 24.176 54.644 27.4747C55.22 28.6053 55.6013 29.8613 56.428 30.824C57.5613 32.144 59.4947 32.8853 59.9587 34.5573C60.5733 36.764 58.1987 38.7333 58.052 41.0187C57.9693 42.3027 58.5853 43.7107 57.9187 44.8107C57.3413 45.76 56.052 46.0173 55.32 46.8547C54.4467 47.852 54.476 49.5413 53.348 50.2373C52.904 50.5107 51.1867 50.8333 50.7147 50.616C48.7787 49.7267 48.5747 50.9267 46.9373 51.0813" fill="rgb(0, 0, 0)" class="head"></path>
<path d="M45.2853 52.3227C45.1333 50.4973 45.472 48.932 46.2667 47.2813C46.4467 46.908 46.8333 46.912 47.216 46.7907C47.556 46.684 47.8893 46.5613 48.2187 46.4227C48.8867 46.1453 49.5173 45.7867 50.0987 45.356C51.248 44.488 52.144 43.2693 52.48 41.856C52.7853 40.5747 52.5707 39.0493 51.1467 38.328C50.1427 37.8213 49.2427 38.0013 47.7133 39.3453L46.5253 39.0453C45.008 38.9533 43.812 37.6253 43.3147 36.1907C42.8173 34.756 42.8493 33.2 42.7387 31.6853C42.6893 31.0093 42.5827 30.2773 42.0933 29.808C41.56 29.2987 40.748 29.26 40.012 29.2493L38.8387 28.8493C38.3867 28.36 37.8333 27.9747 37.2187 27.7173C36.604 27.4613 35.9413 27.34 35.2747 27.3627C34.6093 27.3853 33.956 27.5507 33.36 27.848C32.764 28.1453 32.2387 28.568 31.82 29.0867C31.32 29.7067 30.9427 30.4867 30.22 30.8267C29.4973 31.1667 28.6773 30.9693 27.892 30.984C27.1067 30.9987 26.1707 31.424 26.1507 32.208L25.1827 33.6747C24.3227 35.8867 23.8053 37.884 23.6747 39.0933C23.3453 42.1387 23.96 45.5227 26.2893 47.692C27.5307 48.8467 29.068 49.4147 30.712 49.704C32.4267 50.0067 34.2667 50.2827 35.9307 49.6027C35.8427 50.9907 35.8293 51.9813 35.8933 53.3707" fill="rgb(255, 255, 255)" class="skin"></path>
<path d="M22.1373 49.3267C22.1213 49.3267 22.1067 49.3267 22.0907 49.3267C21.532 49.3187 20.9813 49.164 20.5 48.8774C20.0187 48.592 19.62 48.184 19.344 47.6974C19.2133 47.4654 19.1107 47.224 19.0107 46.992C18.8507 46.6174 18.6707 46.1934 18.492 46.1587C18.3053 46.1214 17.9093 46.4934 17.6467 46.7387C17.58 46.8014 17.5147 46.8627 17.4493 46.9214C16.612 47.672 15.632 48.072 14.6827 48.0507C13.4693 48.0227 12.384 47.26 12.0413 46.196C11.7547 45.3107 12.0067 44.4774 12.2293 43.7414C12.36 43.3067 12.484 42.8974 12.484 42.5307C12.484 42.5174 12.484 42.5027 12.4853 42.4894C12.4907 42.3894 12.4613 42.292 12.404 42.2107C12.3 42.1387 11.9547 42.1534 11.7 42.1627C11.4653 42.172 11.2227 42.1814 10.968 42.1574C10.1613 42.0814 9.43466 41.6427 8.92266 40.92C8.32266 40.0734 8.10266 38.9387 8.34799 37.9574C8.69999 36.5454 9.84132 35.2867 11.5627 34.416C12.2133 34.0867 12.888 33.828 13.54 33.5787C14.2187 33.3187 14.8587 33.0734 15.464 32.7574C16.8947 32.008 18.0907 30.8787 18.9213 29.492C19.2253 28.984 19.4787 28.444 19.7467 27.872C20.068 27.1894 20.3987 26.4827 20.8307 25.816C22.0973 23.8667 24.1787 22.324 27.016 21.2294C28.476 20.6667 29.9933 20.2627 31.46 19.8707C32.328 19.6387 33.2253 19.4 34.0907 19.132C34.3307 19.0574 34.5707 18.9814 34.8107 18.904C36.388 18.3987 38.0187 17.8774 39.7533 18.0334C41.0893 18.1534 42.7387 18.828 43.3573 20.3587C43.5227 20.768 43.3253 21.2347 42.9147 21.4C42.5053 21.5654 42.0387 21.368 41.8733 20.9574C41.524 20.0934 40.436 19.7014 39.6093 19.6267C38.1973 19.5 36.7893 19.9507 35.2973 20.428C35.052 20.5067 34.8067 20.5854 34.5627 20.6614C33.668 20.9374 32.7547 21.1814 31.872 21.4174C30.4453 21.7974 28.9707 22.1907 27.592 22.7227C25.0747 23.6934 23.2507 25.028 22.172 26.688C21.8 27.2614 21.5053 27.888 21.1947 28.552C20.9213 29.1334 20.6387 29.736 20.2933 30.3134C19.312 31.9534 17.8973 33.2894 16.204 34.176C15.516 34.5347 14.8013 34.808 14.1107 35.0734C13.468 35.3187 12.8613 35.552 12.284 35.844C11.5307 36.2254 10.22 37.0574 9.89866 38.3454C9.76532 38.8787 9.89466 39.5267 10.2267 39.996C10.3947 40.2334 10.6867 40.5254 11.1173 40.5654C11.2653 40.58 11.4453 40.572 11.636 40.5654C12.208 40.5427 12.9907 40.512 13.5693 41.112C13.5813 41.1254 13.5933 41.1374 13.6053 41.152C13.936 41.544 14.1053 42.04 14.084 42.552C14.08 43.148 13.9107 43.7094 13.76 44.2054C13.5827 44.7907 13.4307 45.2947 13.564 45.7054C13.6973 46.1187 14.1933 46.44 14.72 46.452C15.2627 46.4614 15.848 46.2094 16.3787 45.7334C16.4347 45.6827 16.4947 45.6267 16.556 45.5694C17.0867 45.0734 17.8147 44.3934 18.8027 44.5894C19.812 44.7867 20.2 45.6987 20.484 46.3654C20.5707 46.5667 20.6507 46.7574 20.7387 46.912C20.876 47.156 21.076 47.36 21.3173 47.5027C21.5587 47.6454 21.8333 47.724 22.1133 47.728C22.3947 47.732 22.6707 47.6627 22.916 47.5267C23.1613 47.3907 23.3667 47.192 23.512 46.952C23.74 46.5734 24.232 46.452 24.6107 46.68C24.9893 46.908 25.1107 47.4 24.8827 47.7787C24.5933 48.2574 24.1827 48.6534 23.6933 48.9254C23.2173 49.188 22.68 49.3267 22.1373 49.3267Z" fill="rgb(0, 0, 0)" class="stroke"></path>
<path d="M46.944 51.8827C46.536 51.8827 46.188 51.572 46.148 51.1574C46.1067 50.7174 46.4293 50.3267 46.8693 50.2854C47.3333 50.2414 47.6373 50.092 47.9893 49.9174C48.692 49.5707 49.4867 49.1774 51.0293 49.8774C51.3853 49.952 52.6507 49.7187 52.9387 49.5547C53.3427 49.3054 53.548 48.7547 53.7867 48.1187C54.0053 47.5334 54.2533 46.8694 54.7267 46.328C55.1413 45.8547 55.668 45.544 56.1347 45.272C56.616 44.9894 57.032 44.7454 57.244 44.396C57.5293 43.924 57.448 43.2694 57.3547 42.5107C57.2933 42.0134 57.2293 41.4987 57.2627 40.968C57.3373 39.8067 57.8653 38.7894 58.376 37.8054C58.9573 36.6854 59.46 35.7174 59.1973 34.7734C58.9747 33.9694 58.2467 33.404 57.404 32.7507C56.86 32.328 56.2987 31.892 55.8293 31.3467C55.176 30.5867 54.7867 29.704 54.408 28.8507C54.252 28.4974 54.104 28.1627 53.9387 27.8387C52.4027 24.816 49.096 22.6947 45.7093 22.5574C45.268 22.54 44.924 22.1667 44.9427 21.7254C44.96 21.284 45.336 20.9414 45.7747 20.9587C49.7827 21.12 53.548 23.536 55.3653 27.1134C55.5493 27.4747 55.7133 27.8454 55.872 28.2027C56.2173 28.984 56.544 29.7227 57.044 30.304C57.4067 30.7267 57.8827 31.096 58.3853 31.4867C59.3173 32.2107 60.3733 33.0307 60.7387 34.344C61.1707 35.8947 60.44 37.3014 59.796 38.5427C59.3413 39.4187 58.912 40.2454 58.8587 41.0707C58.8347 41.4507 58.8867 41.8694 58.9413 42.3134C59.056 43.2347 59.1853 44.2787 58.6107 45.2254C58.188 45.9214 57.5267 46.3094 56.9427 46.6507C56.5467 46.8827 56.1733 47.1014 55.9293 47.3814C55.648 47.7027 55.472 48.176 55.284 48.6774C54.9867 49.4747 54.6493 50.3787 53.7747 50.9187C53.1973 51.2734 51.184 51.7107 50.3867 51.3427C49.52 50.944 49.2627 51.072 48.6973 51.352C48.288 51.5547 47.7773 51.8067 47.02 51.8787C46.9947 51.8814 46.9693 51.8827 46.944 51.8827Z" fill="rgb(0, 0, 0)" class="stroke"></path>
<path d="M26.1387 33.0094C26.132 33.0094 26.1253 33.0094 26.1173 33.0094C25.676 32.9987 25.3267 32.6307 25.3373 32.1894C25.3693 30.9187 26.6627 30.208 27.864 30.1854C28.1173 30.18 28.3613 30.1947 28.5973 30.208C29.0987 30.2374 29.532 30.2614 29.8667 30.104C30.2067 29.944 30.4707 29.572 30.7747 29.14C30.904 28.9574 31.036 28.7694 31.1853 28.5854C31.6787 27.9734 32.2867 27.4854 32.9907 27.1334C33.6947 26.7827 34.4507 26.5907 35.236 26.564C36.0227 26.5374 36.7893 26.6774 37.5147 26.98C38.24 27.2827 38.88 27.7294 39.4133 28.3067C39.7133 28.6307 39.6933 29.1374 39.3693 29.4374C39.0453 29.7374 38.5387 29.7174 38.2387 29.3934C37.8613 28.9854 37.4107 28.6707 36.8973 28.4574C36.3853 28.244 35.8427 28.144 35.2893 28.164C34.7347 28.1827 34.2013 28.3174 33.704 28.5654C33.2067 28.8134 32.7787 29.1587 32.4293 29.5907C32.3133 29.7347 32.2 29.8947 32.0813 30.064C31.7013 30.6027 31.2707 31.212 30.548 31.552C29.8467 31.8827 29.1347 31.8414 28.5067 31.8054C28.2907 31.7934 28.0867 31.7814 27.8947 31.7854C27.3947 31.7947 26.9427 32.0414 26.9387 32.2294C26.928 32.664 26.572 33.0094 26.1387 33.0094Z" fill="rgb(0, 0, 0)" class="stroke"></path>
<path d="M46.5147 39.8414C46.4987 39.8414 46.4813 39.8414 46.4653 39.84C45.1733 39.7614 43.3707 38.8267 42.5467 36.4494C42.1173 35.2107 42.0507 33.9334 41.9853 32.6974C41.9693 32.3814 41.952 32.056 41.9293 31.74C41.8893 31.196 41.8133 30.656 41.528 30.3814C41.2213 30.0867 40.624 30.0547 39.9893 30.0454C39.548 30.0387 39.1947 29.676 39.2013 29.2334C39.208 28.792 39.572 28.4387 40.0133 28.4454C40.744 28.456 41.8493 28.472 42.636 29.2267C43.3133 29.8774 43.4667 30.8027 43.5267 31.624C43.5507 31.9547 43.568 32.2894 43.5853 32.6134C43.6467 33.7894 43.7053 34.9014 44.06 35.9254C44.4413 37.0267 45.364 38.1707 46.5627 38.244C47.004 38.2707 47.34 38.6494 47.3133 39.0907C47.2867 39.5147 46.9333 39.8414 46.5147 39.8414Z" fill="rgb(0, 0, 0)" class="stroke"></path>
<path d="M45.2787 52.3187C44.868 52.3187 44.5173 52.004 44.4827 51.5854C44.3133 49.5774 44.704 48.6587 45.5333 46.9307C45.8373 46.3 46.412 46.1614 46.756 46.0787C46.8307 46.06 46.9013 46.044 46.9627 46.024C47.28 45.924 47.5933 45.8094 47.896 45.6814C48.508 45.428 49.0827 45.1014 49.6107 44.7094C50.6747 43.9054 51.416 42.824 51.6907 41.6667C51.832 41.084 52.024 39.668 50.7747 39.0374C50.2293 38.7614 49.6947 38.6534 48.2293 39.9414C47.8973 40.2334 47.392 40.2 47.1 39.868C46.808 39.536 46.8413 39.0307 47.1733 38.7387C49.2773 36.8894 50.4933 37.1027 51.4947 37.608C53.0467 38.392 53.7173 40.0894 53.2453 42.0387C52.8853 43.5534 51.9347 44.9574 50.5693 45.988C49.932 46.4614 49.2413 46.8534 48.5133 47.1547C48.168 47.3 47.8067 47.4334 47.4427 47.5467C47.332 47.5814 47.2253 47.608 47.132 47.6307C47.0733 47.6454 46.9973 47.6627 46.948 47.6787C46.1813 49.2787 45.944 49.88 46.0773 51.448C46.1147 51.888 45.788 52.2747 45.348 52.312C45.324 52.3174 45.3013 52.3187 45.2787 52.3187Z" fill="rgb(0, 0, 0)" class="stroke"></path>
<path d="M35.8853 53.4987C35.46 53.4987 35.1067 53.164 35.0867 52.7347C35.044 51.796 35.0347 51.324 35.0613 50.68C33.4587 50.9894 31.8267 50.7054 30.568 50.4854C28.5347 50.1267 26.9547 49.4027 25.7373 48.2707C23.5 46.1867 22.456 42.808 22.872 38.9987C23.028 37.5867 23.6093 35.4854 24.4293 33.3774C24.5893 32.9654 25.0533 32.7614 25.4653 32.9214C25.8773 33.0814 26.0813 33.5454 25.9213 33.9574C25.012 36.296 24.572 38.1854 24.4627 39.1734C24.1013 42.4734 24.9627 45.3627 26.828 47.0987C27.8253 48.0267 29.1013 48.6014 30.844 48.908C32.6253 49.2187 34.216 49.428 35.6213 48.8534C35.876 48.7494 36.1667 48.784 36.3907 48.944C36.6147 49.1054 36.74 49.3694 36.7227 49.644C36.6373 50.9854 36.6227 51.2814 36.6867 52.6574C36.7067 53.0987 36.3653 53.4734 35.924 53.4934C35.9093 53.4987 35.8973 53.4987 35.8853 53.4987Z" fill="rgb(0, 0, 0)" class="stroke"></path>
<path d="M29.124 37.3467C29.6394 37.3467 30.0573 36.8393 30.0573 36.2134C30.0573 35.5874 29.6394 35.08 29.124 35.08C28.6085 35.08 28.1906 35.5874 28.1906 36.2134C28.1906 36.8393 28.6085 37.3467 29.124 37.3467Z" fill="black"></path>
<path d="M33.6573 37.66C34.1728 37.66 34.5907 37.1526 34.5907 36.5267C34.5907 35.9008 34.1728 35.3934 33.6573 35.3934C33.1419 35.3934 32.724 35.9008 32.724 36.5267C32.724 37.1526 33.1419 37.66 33.6573 37.66Z" fill="black"></path>
</svg>