<svg xmlns="http://www.w3.org/2000/svg" viewBox="0 0 80 80" fill="none">
<path d="M26.0587 31.6613C26.8227 29.3427 28.6947 27.528 30.7987 26.2867C32.9947 24.992 35.7653 24.244 38.0867 25.2973C37.7533 25.9973 38.1507 27.2027 38.9467 27.4707L40.1053 28.3787C40.8253 28.0307 41.7267 28.2453 42.3453 28.7533C42.964 29.2613 43.3373 30.0067 43.5813 30.768C44.08 32.3213 44.1027 33.9853 44.0187 35.6147C43.9707 36.5107 43.8987 37.4427 44.2293 38.2813C44.56 39.12 44.7987 39.288 44.4507 39.8293L45.284 49.3053C47.0253 50.34 47.9387 51.9587 48.896 52.1667C50.5773 52.5333 52.136 50.356 52.672 50.0333C53.9533 49.2667 55.844 50.504 57.012 49.5747C58.0627 48.7373 57.496 47.088 57.0387 45.824C54.788 39.596 57.5853 31.992 54.0187 26.412C53.1733 25.1147 52.0347 24.032 50.696 23.2547C49.3573 22.476 47.8533 22.0227 46.308 21.9293L42.5333 20.248C41.6507 18.8347 39.7227 18.4467 38.0773 18.712C36.432 18.9773 34.908 19.7427 33.284 20.116C32.3307 20.3347 31.3467 20.416 30.4067 20.6893C28.6667 21.2 27.164 22.3267 25.8773 23.6C22.5333 26.9333 20.356 31.3867 19.68 36.0547C19.004 40.7227 19.8133 45.58 21.852 49.8333C22.4293 51.0333 23.132 52.2253 24.2067 53.0133C25.2813 53.8013 26.804 54.1027 27.9613 53.4413C28.732 53 29.4107 52.148 30.2867 52.296C30.724 52.3707 31.0747 52.6893 31.4867 52.8627C32.324 53.2173 33.3227 52.908 34.02 52.3293L35.8667 51.8507L35.944 49.6027" fill="rgb(0, 0, 0)" class="head"></path>
<path d="M45.2987 52.1947C45.1453 50.3707 45.4813 48.9373 46.2747 47.2867C46.4533 46.9133 46.8413 46.9173 47.224 46.796C47.5627 46.6893 47.8987 46.5667 48.2267 46.428C48.8947 46.1507 49.5253 45.792 50.1067 45.3613C51.256 44.4933 52.1507 43.2747 52.488 41.8613C52.7933 40.58 52.5787 39.0547 51.148 38.3333C50.1453 37.8267 49.2453 38.0067 47.716 39.3507L46.316 39.6C45.444 39.812 44.5613 39.116 44.2293 38.2827C43.8973 37.4493 43.9707 36.516 44.0187 35.616C44.1027 33.9867 44.08 32.3227 43.5813 30.7693C43.3373 30.008 42.964 29.2613 42.3453 28.7547C41.7267 28.248 40.8253 28.032 40.1053 28.38L38.9467 27.4707C38.1467 27.204 37.7533 25.9987 38.0867 25.2987C35.7653 24.2453 32.9947 24.9933 30.7987 26.288C28.6947 27.528 26.8227 29.344 26.0587 31.6627L25.3333 33.4667C24.5333 34.6667 24.4 36.1333 24 37.6C24 38.0213 22.3787 43.712 26.1333 47.4667C27.4667 48.8 29.2 49.3333 31 49.7333C32.6147 49.9827 34.3787 50.2333 35.9333 49.6C35.844 50.988 35.8307 51.9787 35.8947 53.368" fill="rgb(255, 255, 255)" class="skin"></path>
<path d="M26.5267 54.6C25.5773 54.6 24.5813 54.28 23.7347 53.6587C22.4627 52.7253 21.676 51.3093 21.132 50.18C19 45.732 18.204 40.6747 18.8893 35.94C19.5987 31.0387 21.8814 26.456 25.3134 23.0333C26.9414 21.4227 28.532 20.4053 30.1827 19.9213C30.7773 19.748 31.3747 19.648 31.9507 19.552C32.352 19.4853 32.732 19.4213 33.1067 19.336C33.78 19.1813 34.436 18.9547 35.1307 18.7147C36.0307 18.404 36.9627 18.0813 37.952 17.9227C39.6587 17.6467 42.0627 17.98 43.2134 19.8253C43.448 20.2 43.3334 20.6933 42.9587 20.928C42.584 21.1627 42.0907 21.048 41.856 20.6733C41.36 19.8787 40.0387 19.208 38.2054 19.504C37.3534 19.6413 36.5267 19.9267 35.652 20.2293C34.948 20.472 34.22 20.724 33.464 20.8987C33.0427 20.9947 32.6214 21.0653 32.2147 21.1333C31.6587 21.2267 31.1347 21.3133 30.6307 21.46C29.244 21.8667 27.8733 22.7547 26.4413 24.1707C23.2533 27.348 21.1334 31.6107 20.4734 36.172C19.8334 40.596 20.5787 45.3267 22.5747 49.4907C23.0653 50.5107 23.7 51.652 24.6814 52.3707C25.596 53.0413 26.7827 53.1973 27.5667 52.7493C27.7494 52.6453 27.9413 52.4987 28.1453 52.3453C28.732 51.9013 29.4627 51.348 30.4214 51.5107C30.8374 51.5813 31.172 51.7787 31.4413 51.9373C31.5693 52.0133 31.6907 52.084 31.7987 52.1293C32.356 52.3653 33.06 52.092 33.5107 51.7173C33.8507 51.436 34.3547 51.4827 34.6374 51.8227C34.92 52.1627 34.872 52.6667 34.532 52.9493C33.5267 53.784 32.208 54.0413 31.176 53.604C30.972 53.5173 30.7907 53.4107 30.6307 53.3173C30.4507 53.2107 30.28 53.1107 30.1547 53.0893C29.8774 53.0427 29.5054 53.324 29.1107 53.6227C28.876 53.8 28.632 53.984 28.3614 54.14C27.8134 54.4467 27.1813 54.6 26.5267 54.6Z" fill="rgb(0, 0, 0)" class="stroke"></path>
<path d="M49.2933 53.0067C49.108 53.0067 48.92 52.988 48.7267 52.9453C47.5067 52.68 46.1773 50.8587 46.3533 48.9947C46.3947 48.5547 46.7867 48.232 47.2253 48.2733C47.6653 48.3147 47.988 48.7053 47.9467 49.1453C47.8547 50.1133 48.5987 51.28 49.0667 51.3813C49.92 51.5667 50.9467 50.5573 51.56 49.9533C51.8453 49.6733 52.0507 49.4707 52.26 49.344C53.116 48.832 54.0613 48.952 54.8973 49.0573C55.6907 49.1573 56.1947 49.2 56.5133 48.9453C57.0907 48.4853 56.7187 47.284 56.2867 46.092C55.244 43.2067 55.236 40.0733 55.228 37.044C55.2187 33.2947 55.2093 29.7547 53.3453 26.8387C52.576 25.6573 51.52 24.6533 50.2947 23.9413C49.0693 23.2293 47.6747 22.808 46.2613 22.724C45.82 22.6973 45.484 22.3187 45.5107 21.8773C45.5373 21.436 45.916 21.1 46.3573 21.1267C48.02 21.2267 49.66 21.7213 51.1 22.5587C52.54 23.396 53.7813 24.576 54.6907 25.972C56.8093 29.2853 56.8187 33.228 56.8293 37.0413C56.8373 39.9333 56.8453 42.9253 57.7933 45.5493C58.2587 46.8333 59.036 48.984 57.5133 50.1973C56.644 50.892 55.5653 50.756 54.6987 50.6467C54.064 50.5667 53.4653 50.4907 53.0867 50.7173C53.028 50.7573 52.8373 50.9453 52.6853 51.0947C51.9333 51.8307 50.7387 53.0067 49.2933 53.0067Z" fill="rgb(0, 0, 0)" class="stroke"></path>
<path d="M45.9947 40.4373C44.8733 40.4373 43.876 39.564 43.4853 38.5747C43.108 37.6173 43.164 36.6053 43.212 35.7133L43.22 35.572C43.292 34.1613 43.3027 32.5147 42.82 31.012C42.576 30.2493 42.2547 29.7133 41.8373 29.3707C41.5 29.0933 41.0813 29.072 40.596 29.3067C40.1987 29.4987 39.72 29.332 39.528 28.9347C39.336 28.5373 39.5027 28.0587 39.9 27.8667C40.9507 27.3587 42.0267 27.456 42.8533 28.1347C43.5147 28.6773 44.0027 29.4587 44.344 30.524C44.9053 32.272 44.8987 34.0987 44.8187 35.656L44.8107 35.8C44.7667 36.6 44.7253 37.356 44.9747 37.988C45.164 38.468 45.684 38.9293 46.128 38.8213C46.5573 38.7173 46.9893 38.98 47.0947 39.4093C47.1987 39.8387 46.936 40.2707 46.5067 40.376C46.3333 40.4173 46.1627 40.4373 45.9947 40.4373Z" fill="rgb(0, 0, 0)" class="stroke"></path>
<path d="M26.0587 32.4613C25.976 32.4613 25.892 32.448 25.808 32.4213C25.388 32.2827 25.16 31.8307 25.2987 31.4107C26.248 28.5267 28.5933 26.6573 30.392 25.5973C33.236 23.92 36.1613 23.5453 38.4173 24.5693C38.6133 24.6587 38.764 24.8213 38.8387 25.024C38.9133 25.2267 38.9013 25.448 38.8093 25.6427C38.716 25.84 38.7013 26.076 38.772 26.2427C38.8147 26.3427 38.88 26.4013 38.984 26.436C39.4027 26.576 39.6293 27.0293 39.4893 27.448C39.3493 27.8667 38.896 28.0933 38.4773 27.9533C37.9387 27.7733 37.5213 27.388 37.3 26.868C37.16 26.5373 37.1053 26.1667 37.1373 25.7973C34.7787 25.1107 32.244 26.364 31.2053 26.976C28.996 28.2773 27.4387 30.0307 26.8187 31.912C26.708 32.248 26.3947 32.4613 26.0587 32.4613Z" fill="rgb(0, 0, 0)" class="stroke"></path>
<path d="M45.2787 52.3187C44.868 52.3187 44.5173 52.0027 44.4827 51.5853C44.3133 49.5773 44.704 48.6573 45.5333 46.9307C45.8373 46.3 46.412 46.1613 46.756 46.0787C46.8307 46.06 46.9013 46.044 46.9627 46.024C47.28 45.924 47.5933 45.8093 47.896 45.6813C48.508 45.428 49.0827 45.1013 49.6107 44.7093C50.6747 43.9053 51.416 42.8227 51.6907 41.6667C51.832 41.084 52.024 39.668 50.7747 39.0373C50.2293 38.7613 49.6947 38.6533 48.2293 39.9413C47.8973 40.2333 47.392 40.2 47.1 39.868C46.808 39.536 46.8413 39.0307 47.1733 38.7387C49.2773 36.8893 50.4947 37.1027 51.4947 37.608C53.0467 38.392 53.7173 40.0893 53.2453 42.0387C52.8853 43.5533 51.9347 44.9573 50.5693 45.988C49.932 46.4613 49.2413 46.8533 48.5133 47.1547C48.168 47.3 47.8067 47.4333 47.4427 47.5467C47.332 47.5813 47.2253 47.608 47.132 47.6307C47.0733 47.6453 46.9973 47.6627 46.948 47.6787C46.1813 49.2787 45.944 49.88 46.0773 51.448C46.1147 51.888 45.788 52.276 45.348 52.312C45.324 52.3173 45.3013 52.3187 45.2787 52.3187Z" fill="rgb(0, 0, 0)" class="stroke"></path>
<path d="M35.884 53.4987C35.4587 53.4987 35.1053 53.164 35.0853 52.7347C35.0427 51.796 35.0333 51.324 35.06 50.68C33.4573 50.9893 31.8253 50.7053 30.5667 50.4853C28.5333 50.1267 26.9533 49.4027 25.736 48.2707C23.4987 46.1867 22.4547 42.808 22.8707 38.9987C23.0267 37.5867 23.608 35.4853 24.428 33.3773C24.588 32.9653 25.052 32.7613 25.464 32.9213C25.876 33.0813 26.08 33.5453 25.92 33.9573C25.0107 36.296 24.5707 38.1853 24.4613 39.1733C24.1 42.4733 24.9613 45.3627 26.8267 47.0987C27.824 48.0267 29.1 48.6013 30.8427 48.908C32.624 49.2187 34.2133 49.428 35.62 48.8533C35.8747 48.7493 36.1653 48.784 36.3893 48.944C36.6133 49.1053 36.7387 49.3693 36.7213 49.644C36.636 50.9853 36.6213 51.2813 36.6853 52.6573C36.7053 53.0987 36.364 53.4733 35.9227 53.4933C35.9093 53.4987 35.8973 53.4987 35.884 53.4987Z" fill="rgb(0, 0, 0)" class="stroke"></path>
<path d="M29.124 37.3467C29.6395 37.3467 30.0573 36.8393 30.0573 36.2134C30.0573 35.5874 29.6395 35.08 29.124 35.08C28.6085 35.08 28.1907 35.5874 28.1907 36.2134C28.1907 36.8393 28.6085 37.3467 29.124 37.3467Z" fill="black"></path>
<path d="M33.6573 37.66C34.1728 37.66 34.5907 37.1526 34.5907 36.5267C34.5907 35.9008 34.1728 35.3933 33.6573 35.3933C33.1419 35.3933 32.724 35.9008 32.724 36.5267C32.724 37.1526 33.1419 37.66 33.6573 37.66Z" fill="black"></path>
</svg>