<svg xmlns="http://www.w3.org/2000/svg" viewBox="0 0 80 80" fill="none">
<path d="M45.3333 52.2667C45.18 50.4427 45.4813 48.9373 46.2746 47.2867C46.4533 46.9133 46.8413 46.9173 47.224 46.796C47.5626 46.6893 47.8986 46.5667 48.2266 46.428C48.8946 46.1507 49.5253 45.792 50.1066 45.3613C51.256 44.4933 52.1506 43.2747 52.488 41.8613C52.7933 40.58 52.5786 39.0547 51.148 38.3333C50.1453 37.8267 49.2453 38.0067 47.716 39.3507L46.316 39.6C45.444 39.812 44.5613 39.116 44.2293 38.2827C43.8973 37.4493 43.9706 36.516 44.0186 35.616C44.1026 33.9867 44.08 32.3227 43.5813 30.7693C43.3373 30.008 42.964 29.2613 42.3453 28.7547C41.7266 28.248 40.8253 28.032 40.1053 28.38L39.1 27.1267C38.3 26.86 37.7533 25.9987 38.0866 25.2987C35.7653 24.2453 32.9946 24.9933 30.7986 26.288C28.6946 27.528 26.8226 29.344 26.0586 31.6627L25.3333 33.4667C24.5333 34.6667 24.4 36.1333 24 37.6C24 38.0213 22.3786 43.712 26.1333 47.4667C27.4666 48.8 29.2 49.3333 31 49.7333C32.6146 49.9827 34.3786 50.2333 35.9333 49.6C35.844 50.988 35.8693 52.2107 35.9333 53.6" fill="rgb(255, 255, 255)" class="skin"></path>
<path d="M20.1333 62.6667C19.7333 54.0533 19.6 45.572 19.7333 36.9613C19.7347 36.8547 19.744 36.748 19.7587 36.6413C20.4133 32.0733 21.2253 27.0227 25.0573 23.8507C25.1907 23.7427 25.312 23.6213 25.4187 23.488C25.4813 23.4067 25.54 23.3267 25.6013 23.2467C25.732 23.0747 25.8853 22.92 26.0573 22.7867C27.8507 21.412 29.7693 20.4227 31.924 20.4C31.9733 20.4 32.0214 20.4 32.0707 20.4C34.1414 20.256 35.964 19.4893 37.908 18.9627C37.968 18.9467 38.0254 18.9267 38.084 18.9067C39.7574 18.3027 41.888 18.6787 42.7907 20.304C42.8747 20.4613 42.9734 20.6093 43.0867 20.748C43.4334 21.1573 43.8733 21.4773 44.3693 21.68C44.8653 21.8827 45.404 21.964 45.9387 21.916H45.948C46.1747 21.9067 46.4027 21.928 46.624 21.9787C51.1307 23.0093 54.456 27.1333 55.92 31.5467C57.4254 36.08 57.36 40.9533 57.528 45.7253C57.7027 50.6493 58.14 55.56 58.6107 60.4653C58.6653 61.056 58.508 61.6467 58.1654 62.1307C57.8227 62.6147 57.3187 62.9613 56.744 63.1067C53.708 63.8813 50.5747 64.208 47.444 64.0747C46.8027 64.044 46.1987 63.768 45.7573 63.3013C45.316 62.8347 45.0734 62.216 45.0787 61.5747C45.092 59.044 45.1814 56.516 45.3454 53.9907L45.2907 52.6C45.1373 50.776 45.4734 48.9427 46.2667 47.292C46.4454 46.9187 46.8334 46.9227 47.216 46.8013C47.5547 46.6947 47.8907 46.572 48.2187 46.4333C48.8867 46.156 49.5173 45.7973 50.0987 45.3667C51.248 44.4987 52.1427 43.28 52.48 41.8667C52.7854 40.5853 52.5707 39.06 51.14 38.3387C50.1373 37.832 49.2374 38.012 47.708 39.356L46.5 39.4133C45.848 39.1027 45.176 38.7773 44.704 38.2293C43.9134 37.3133 43.8494 35.984 43.96 34.7787C44.0707 33.5733 44.3107 32.3387 43.992 31.1787C43.548 29.556 41.94 28.3307 40.2587 28.332L39.2307 26.884C38.3627 26.7827 37.7187 25.7907 37.98 24.956C36.2774 24.3907 34.372 24.7013 32.7547 25.4787C31.1374 26.256 29.7707 27.468 28.5107 28.7467C27.548 29.724 26.6134 30.7813 26.1254 32.0627L25.3333 33.4667C24.5333 34.6667 24.4 36.1333 24 37.6C24 38.0213 22.3787 43.712 26.1333 47.4667C27.4667 48.8 29.2 49.3333 31 49.7333C32.6147 49.9827 34.3787 50.2333 35.9334 49.6C35.8414 51.0147 35.86 51.184 35.9334 52.6C35.376 52.4453 34.6134 52.6773 34.0667 52.8667C33.5814 53.0373 32.848 53.86 32.3334 53.8493C31.6134 53.8333 31.3987 53.7133 30.6854 53.8173C30.036 53.912 29.636 54.576 29.052 54.8747C28.252 55.2867 27.2373 54.9427 26.3853 55.236C25.804 55.436 25.3587 55.9027 25.0067 56.4107C24.8107 56.6907 24.6067 57.008 24.28 57.104C24.0507 57.172 23.8013 57.116 23.5667 57.164C23.2587 57.2267 23.0133 57.4573 22.804 57.6907C21.56 59.0773 20.9027 60.8747 20.1333 62.6667Z" fill="rgb(0, 0, 0)" class="head"></path>
<path d="M46.508 40.1973C46.392 40.1973 46.276 40.172 46.164 40.12C45.5094 39.808 44.696 39.42 44.1067 38.736C43.3134 37.816 43.008 36.4933 43.172 34.6907C43.1934 34.4587 43.2187 34.2267 43.2454 33.9933C43.3494 33.0573 43.448 32.1733 43.2294 31.3733C42.8747 30.0773 41.928 29.3347 40.632 29.3347C40.1907 29.3347 39.832 28.976 39.832 28.5347C39.832 28.0933 40.1907 27.7347 40.632 27.7347C42.6427 27.7347 44.2294 28.968 44.772 30.952C45.0707 32.0467 44.9507 33.1267 44.8347 34.1707C44.8094 34.3933 44.7854 34.6147 44.7654 34.836C44.6427 36.1827 44.824 37.1173 45.3187 37.692C45.688 38.1213 46.28 38.4027 46.8534 38.676C47.252 38.8667 47.4214 39.344 47.2307 39.7427C47.0934 40.0293 46.8067 40.1973 46.508 40.1973Z" fill="rgb(0, 0, 0)" class="stroke"></path>
<path d="M26.1334 32.8467C26.0387 32.8467 25.9427 32.8293 25.8494 32.7947C25.436 32.6373 25.2294 32.1747 25.3867 31.7627C25.9267 30.3427 26.9374 29.1973 27.9494 28.1707C29.0627 27.04 30.5774 25.6293 32.416 24.744C34.3934 23.7907 36.4614 23.592 38.2414 24.1827C38.6574 24.3213 38.8854 24.768 38.752 25.1853C38.652 25.5 38.704 25.7493 38.78 25.8667C38.8147 25.9213 38.8654 25.9733 38.9934 25.988C39.432 26.0387 39.7467 26.436 39.6947 26.8747C39.6427 27.3133 39.2467 27.628 38.8067 27.576C38.228 27.508 37.7414 27.2093 37.4334 26.732C37.2134 26.3907 37.1 25.9747 37.096 25.5373C35.8654 25.3147 34.448 25.5387 33.1094 26.184C31.5027 26.9587 30.1747 28.1907 29.088 29.2933C28.1987 30.196 27.316 31.1893 26.88 32.332C26.76 32.6507 26.456 32.8467 26.1334 32.8467Z" fill="rgb(0, 0, 0)" class="stroke"></path>
<path d="M48.7894 64.8947C47.5227 64.8947 46.256 64.8213 45.0027 64.6747C44.604 64.628 44.3014 64.292 44.296 63.8907C44.2507 60.5853 44.3374 57.2347 44.5547 53.932C44.584 53.4907 44.9667 53.1587 45.4054 53.1867C45.8467 53.216 46.18 53.596 46.1507 54.0373C45.952 57.0613 45.8627 60.1267 45.8867 63.1587C49.9267 63.5387 54.0694 63.1173 57.9494 61.932C57.4374 56.6387 56.9227 51.1813 56.7294 45.7467C56.708 45.1253 56.6894 44.504 56.672 43.8813C56.5547 39.8227 56.4334 35.6253 55.1614 31.792C53.5147 26.8307 50.2427 23.4373 46.4094 22.716C45.9747 22.6347 45.6894 22.216 45.7707 21.7813C45.852 21.3467 46.2707 21.0613 46.7054 21.1427C49.0867 21.592 51.2134 22.832 53.0267 24.828C54.5827 26.5427 55.8467 28.776 56.68 31.2867C58.0267 35.3427 58.1507 39.6587 58.2707 43.8333C58.288 44.4533 58.3067 45.072 58.328 45.6893C58.5267 51.2947 59.0734 56.9507 59.604 62.42C59.64 62.792 59.4134 63.14 59.0574 63.2573C55.7627 64.3427 52.2707 64.8947 48.7894 64.8947Z" fill="rgb(0, 0, 0)" class="stroke"></path>
<path d="M20.1334 63.4667C19.708 63.4667 19.3547 63.132 19.3347 62.704C18.9307 53.9627 18.8 45.4853 18.9334 36.788C18.9334 36.7547 18.936 36.72 18.9414 36.6867C19.584 32.188 20.3827 26.592 24.6614 23.14C24.7427 23.0547 24.8134 22.96 24.8934 22.8533C25.0027 22.7067 25.128 22.5413 25.3014 22.368C25.324 22.3453 25.348 22.324 25.3734 22.304C27.712 20.4667 29.8107 19.6067 31.9747 19.6C33.3814 19.508 34.672 19.1067 36.0387 18.68C36.5947 18.5067 37.1694 18.328 37.7547 18.1707C39.796 17.4067 42.5227 17.912 43.588 20.092C43.7827 20.4894 43.6174 20.968 43.2214 21.1627C42.824 21.3574 42.3454 21.192 42.1507 20.796C41.48 19.4254 39.66 19.152 38.2867 19.68C38.26 19.6907 38.2334 19.6987 38.2054 19.7067C37.6387 19.8574 37.0667 20.036 36.5134 20.208C35.1094 20.6453 33.6573 21.0974 32.0493 21.1987C32.0333 21.2 32.016 21.2 32 21.2C30.216 21.2 28.436 21.94 26.4027 23.5293C26.3227 23.6147 26.2534 23.7067 26.1734 23.8134C26.064 23.96 25.9387 24.1254 25.7654 24.2987C25.744 24.32 25.7227 24.3387 25.7 24.3573C21.8974 27.4 21.1667 32.4213 20.5334 36.8627C20.4014 45.5093 20.532 53.9373 20.9334 62.6293C20.9534 63.0707 20.612 63.4453 20.1707 63.4653C20.1574 63.4667 20.1454 63.4667 20.1334 63.4667Z" fill="rgb(0, 0, 0)" class="stroke"></path>
<path d="M45.2787 52.3187C44.868 52.3187 44.5174 52.0027 44.4827 51.5853C44.3134 49.5773 44.704 48.6573 45.5334 46.9307C45.8374 46.3 46.412 46.1613 46.756 46.0787C46.8307 46.06 46.9014 46.044 46.9627 46.024C47.28 45.924 47.5934 45.8093 47.896 45.6813C48.508 45.428 49.0827 45.1013 49.6107 44.7093C50.6747 43.9053 51.416 42.8227 51.6907 41.6667C51.832 41.084 52.024 39.668 50.7747 39.0373C50.2294 38.7613 49.6947 38.6533 48.2294 39.9413C47.8974 40.2333 47.392 40.2 47.1 39.868C46.808 39.536 46.8414 39.0307 47.1734 38.7387C49.2774 36.8893 50.4947 37.1027 51.4947 37.608C53.0467 38.392 53.7174 40.0893 53.2454 42.0387C52.8854 43.5533 51.9347 44.9573 50.5694 45.988C49.932 46.4613 49.2414 46.8533 48.5134 47.1547C48.168 47.3 47.8067 47.4333 47.4427 47.5467C47.332 47.5813 47.2254 47.608 47.132 47.6307C47.0734 47.6453 46.9974 47.6627 46.948 47.6787C46.1814 49.2787 45.944 49.88 46.0774 51.448C46.1147 51.888 45.788 52.276 45.348 52.312C45.324 52.3173 45.3014 52.3187 45.2787 52.3187Z" fill="rgb(0, 0, 0)" class="stroke"></path>
<path d="M35.884 53.4987C35.4587 53.4987 35.1053 53.164 35.0853 52.7347C35.0427 51.796 35.0333 51.324 35.06 50.68C33.4573 50.9893 31.8253 50.7053 30.5667 50.4853C28.5333 50.1267 26.9533 49.4027 25.736 48.2707C23.4987 46.1867 22.4547 42.808 22.8707 38.9987C23.0267 37.5867 23.608 35.4853 24.428 33.3773C24.588 32.9653 25.052 32.7613 25.464 32.9213C25.876 33.0813 26.08 33.5453 25.92 33.9573C25.0107 36.296 24.5707 38.1853 24.4613 39.1733C24.1 42.4733 24.9613 45.3627 26.8267 47.0987C27.824 48.0267 29.1 48.6013 30.8427 48.908C32.624 49.2187 34.2133 49.428 35.62 48.8533C35.8747 48.7493 36.1653 48.784 36.3893 48.944C36.6133 49.1053 36.7387 49.3693 36.7213 49.644C36.636 50.9853 36.6213 51.2813 36.6853 52.6573C36.7053 53.0987 36.364 53.4733 35.9227 53.4933C35.9093 53.4987 35.8973 53.4987 35.884 53.4987Z" fill="rgb(0, 0, 0)" class="stroke"></path>
<path d="M29.124 37.3467C29.6395 37.3467 30.0573 36.8393 30.0573 36.2134C30.0573 35.5874 29.6395 35.08 29.124 35.08C28.6085 35.08 28.1907 35.5874 28.1907 36.2134C28.1907 36.8393 28.6085 37.3467 29.124 37.3467Z" fill="black"></path>
<path d="M33.6573 37.66C34.1728 37.66 34.5907 37.1526 34.5907 36.5267C34.5907 35.9008 34.1728 35.3933 33.6573 35.3933C33.1419 35.3933 32.724 35.9008 32.724 36.5267C32.724 37.1526 33.1419 37.66 33.6573 37.66Z" fill="black"></path>
</svg>