<svg xmlns="http://www.w3.org/2000/svg" viewBox="0 0 80 80" fill="none">
<path d="M34.6667 51.388C33.968 51.9693 32.9693 52.2787 32.1333 51.9213C31.7253 51.748 31.3733 51.4293 30.9333 51.3547C30.0573 51.2067 29.3787 52.0587 28.608 52.5C27.4507 53.1667 25.928 52.86 24.8533 52.072C23.7787 51.284 23.076 50.0933 22.5 48.892C20.4587 44.6387 19.652 39.7827 20.3267 35.1133C21.0013 30.444 23.1813 25.988 26.5333 22.6667C27.8187 21.3907 29.3147 20.2587 31.056 19.7533C31.9893 19.4867 32.9787 19.3987 33.932 19.18C35.556 18.8067 37.08 18.0413 38.7253 17.776C40.3707 17.5107 42.2987 17.8987 43.1827 19.312L46.9627 20.9907C48.5067 21.084 50.008 21.5373 51.3467 22.3147C52.684 23.092 53.8213 24.172 54.6667 25.4667C58.2333 31.0467 55.4347 38.6507 57.6867 44.8787C58.1427 46.1427 58.7107 47.792 57.6587 48.6293C56.492 49.5627 54.6 48.3213 53.3187 49.088C52.7853 49.4093 51.224 51.5867 49.5427 51.2213C48.5867 51.0133 46.8387 50.7347 46.96 49.468L34.6667 51.388Z" fill="rgb(0, 0, 0)" class="head"></path>
<path d="M35.8853 53.3653C35.82 51.976 35.8333 50.9853 35.9227 49.5973C34.58 50.148 32.9773 49.808 31.5787 49.5667C30.2213 49.5013 29.0213 48.968 27.8213 48.4347C26.2213 47.6347 25.0213 46.168 24.3547 44.568C22.888 40.8347 24.6667 36.1333 25.8667 32.5333C32.5333 34.1333 39.2 30.1333 42.356 24.368C45.8613 33.412 43.2133 35.6347 46.96 38.356L47.8227 39.0013C49.352 37.6573 50.3107 37.9173 51.3147 38.424C52.744 39.1453 52.6267 40.5587 52.468 41.852C52.132 43.2653 51.396 44.456 50.2467 45.324C49.6667 45.7547 49.0347 46.1133 48.3667 46.3907C48.0387 46.5293 47.704 46.652 47.364 46.7587C46.9813 46.88 46.5947 46.876 46.4147 47.2493C45.6227 48.9 45.312 50.6067 45.4667 52.432L35.8853 53.3653Z" fill="rgb(255, 255, 255)" class="skin"></path>
<path d="M46.96 39.156C46.7973 39.156 46.632 39.1067 46.4907 39.0027C44.1773 37.3227 43.992 35.7227 43.712 33.3027C43.5173 31.6214 43.26 29.4014 42.172 26.2C40.5413 28.596 38.3253 30.5947 35.8 31.9214C32.536 33.636 29.036 34.1173 25.68 33.312C25.2507 33.2093 24.9853 32.7774 25.0893 32.348C25.192 31.9187 25.624 31.6533 26.0533 31.7573C29.0267 32.4707 32.14 32.0387 35.056 30.5067C37.7973 29.0667 40.1413 26.7507 41.6547 23.9867C41.804 23.7133 42.0973 23.5533 42.4093 23.572C42.72 23.592 42.9907 23.7907 43.1027 24.0813C44.7467 28.3227 45.068 31.096 45.3013 33.1214C45.5653 35.4027 45.6853 36.444 47.4307 37.7107C47.788 37.9707 47.868 38.4707 47.608 38.828C47.4507 39.0413 47.2067 39.156 46.96 39.156Z" fill="rgb(0, 0, 0)" class="stroke"></path>
<path d="M27.1813 53.664C26.232 53.664 25.236 53.344 24.3893 52.7227C23.1147 51.788 22.3293 50.3733 21.788 49.244C19.656 44.7973 18.8587 39.74 19.544 35.004C20.256 30.0893 22.5387 25.5053 25.9707 22.0987C27.5947 20.48 29.1853 19.46 30.832 18.9827C31.424 18.8107 32.02 18.7107 32.5973 18.6147C32.9987 18.548 33.3787 18.484 33.752 18.3987C34.4253 18.244 35.0813 18.0173 35.776 17.7773C36.676 17.4667 37.608 17.144 38.5973 16.9853C40.304 16.7107 42.7067 17.0427 43.86 18.8867C44.0947 19.2613 43.98 19.7547 43.6053 19.9893C43.2307 20.224 42.7373 20.1093 42.5027 19.7347C42.0053 18.9387 40.6827 18.2693 38.8507 18.564C37.9987 18.7013 37.172 18.9867 36.2973 19.2893C35.5933 19.532 34.8653 19.784 34.108 19.9587C33.6867 20.0547 33.2653 20.1253 32.8587 20.1933C32.3027 20.2867 31.7787 20.3733 31.276 20.52C29.8933 20.9213 28.5267 21.8093 27.0973 23.2347C23.908 26.4 21.788 30.6613 21.1253 35.2347C20.4853 39.66 21.232 44.3893 23.228 48.5533C23.7173 49.5733 24.3507 50.7133 25.3333 51.4347C26.248 52.1053 27.4347 52.2613 28.2187 51.8133C28.4013 51.7093 28.5933 51.5627 28.7973 51.4093C29.384 50.9653 30.116 50.412 31.0733 50.5747C31.4907 50.6453 31.8267 50.8427 32.096 51.0013C32.224 51.076 32.344 51.148 32.4507 51.192C33.0053 51.428 33.7107 51.1547 34.1627 50.78C34.5027 50.4987 35.0067 50.5453 35.2893 50.8853C35.5707 51.2253 35.524 51.7293 35.184 52.012C34.176 52.8467 32.8587 53.1027 31.828 52.6653C31.6253 52.58 31.444 52.4733 31.2853 52.38C31.104 52.2733 30.9333 52.1733 30.8067 52.1507C30.5307 52.104 30.1573 52.3853 29.764 52.684C29.5293 52.8613 29.2853 53.0453 29.0147 53.2013C28.468 53.5107 27.836 53.664 27.1813 53.664Z" fill="rgb(0, 0, 0)" class="stroke"></path>
<path d="M49.9387 52.064C49.7533 52.064 49.5653 52.0453 49.372 52.0027C48.14 51.7347 46.0907 50.3627 45.1187 48.8214C44.8827 48.448 44.9947 47.9533 45.3693 47.7174C45.7427 47.4814 46.2373 47.5934 46.4733 47.968C47.2213 49.156 48.928 50.268 49.712 50.4387C50.5667 50.624 51.592 49.6147 52.2053 49.0107C52.4907 48.7307 52.696 48.528 52.9053 48.4014C53.7613 47.8894 54.708 48.0093 55.5427 48.1147C56.336 48.2147 56.84 48.2573 57.1587 48.0027C57.736 47.5427 57.364 46.34 56.9333 45.148C55.8893 42.2627 55.8813 39.1294 55.8733 36.1C55.864 32.352 55.8547 28.812 53.9907 25.896C53.2213 24.716 52.1653 23.7134 50.9413 23.0027C49.7173 22.292 48.324 21.8707 46.9107 21.7854C46.4693 21.7587 46.1333 21.38 46.16 20.9387C46.1867 20.4974 46.5653 20.1614 47.0067 20.188C48.668 20.288 50.3067 20.7827 51.7453 21.6187C53.184 22.4547 54.4253 23.6334 55.3347 25.028C57.4533 28.3414 57.4627 32.284 57.4733 36.096C57.4813 38.9893 57.488 41.9814 58.4373 44.6054C58.9013 45.8907 59.6773 48.0427 58.1547 49.2547C57.2867 49.9494 56.208 49.8133 55.34 49.7027C54.7053 49.6227 54.1067 49.5467 53.7267 49.7733C53.668 49.8147 53.4773 50.0014 53.3253 50.1507C52.58 50.888 51.384 52.064 49.9387 52.064Z" fill="rgb(0, 0, 0)" class="stroke"></path>
<path d="M45.2787 52.3187C44.868 52.3187 44.5173 52.0027 44.4827 51.5853C44.3133 49.5773 44.704 48.6573 45.5333 46.9307C45.8373 46.3 46.412 46.1613 46.756 46.0787C46.8307 46.06 46.9013 46.044 46.9627 46.024C47.28 45.924 47.5933 45.8093 47.896 45.6813C48.508 45.428 49.0827 45.1013 49.6107 44.7093C50.6747 43.9053 51.416 42.8227 51.6907 41.6667C51.832 41.084 52.024 39.668 50.7747 39.0373C50.2293 38.7613 49.6947 38.6533 48.2293 39.9413C47.8973 40.2333 47.392 40.2 47.1 39.868C46.808 39.536 46.8413 39.0307 47.1733 38.7387C49.2773 36.8893 50.4947 37.1027 51.4947 37.608C53.0467 38.392 53.7173 40.0893 53.2453 42.0387C52.8853 43.5533 51.9347 44.9573 50.5693 45.988C49.932 46.4613 49.2413 46.8533 48.5133 47.1547C48.168 47.3 47.8067 47.4333 47.4427 47.5467C47.332 47.5813 47.2253 47.608 47.132 47.6307C47.0733 47.6453 46.9973 47.6627 46.948 47.6787C46.1813 49.2787 45.944 49.88 46.0773 51.448C46.1147 51.888 45.788 52.276 45.348 52.312C45.324 52.3173 45.3013 52.3187 45.2787 52.3187Z" fill="rgb(0, 0, 0)" class="stroke"></path>
<path d="M35.884 53.4987C35.4587 53.4987 35.1053 53.164 35.0853 52.7347C35.0427 51.796 35.0333 51.324 35.06 50.68C33.4573 50.9893 31.8253 50.7053 30.5667 50.4853C28.5333 50.1267 26.9533 49.4027 25.736 48.2707C23.4987 46.1867 22.4547 42.808 22.8707 38.9987C23.0267 37.5867 23.608 35.4853 24.428 33.3773C24.588 32.9653 25.052 32.7613 25.464 32.9213C25.876 33.0813 26.08 33.5453 25.92 33.9573C25.0107 36.296 24.5707 38.1853 24.4613 39.1733C24.1 42.4733 24.9613 45.3627 26.8267 47.0987C27.824 48.0267 29.1 48.6013 30.8427 48.908C32.624 49.2187 34.2133 49.428 35.62 48.8533C35.8747 48.7493 36.1653 48.784 36.3893 48.944C36.6133 49.1053 36.7387 49.3693 36.7213 49.644C36.636 50.9853 36.6213 51.2813 36.6853 52.6573C36.7053 53.0987 36.364 53.4733 35.9227 53.4933C35.9093 53.4987 35.8973 53.4987 35.884 53.4987Z" fill="rgb(0, 0, 0)" class="stroke"></path>
<path d="M29.124 37.3467C29.6395 37.3467 30.0573 36.8393 30.0573 36.2134C30.0573 35.5874 29.6395 35.08 29.124 35.08C28.6085 35.08 28.1907 35.5874 28.1907 36.2134C28.1907 36.8393 28.6085 37.3467 29.124 37.3467Z" fill="black"></path>
<path d="M33.6573 37.66C34.1728 37.66 34.5907 37.1526 34.5907 36.5267C34.5907 35.9008 34.1728 35.3933 33.6573 35.3933C33.1419 35.3933 32.724 35.9008 32.724 36.5267C32.724 37.1526 33.1419 37.66 33.6573 37.66Z" fill="black"></path>
</svg>