<svg xmlns="http://www.w3.org/2000/svg" viewBox="0 0 80 80" fill="none">
<path d="M34.908 51.4666C28.7093 51.8986 22.4987 50.8307 16.8 48.352C16.9107 43.86 17.4867 39.392 18.52 35.0187C19.0787 32.6507 19.78 30.2893 20.976 28.128C22.0427 26.2093 23.4693 24.484 24.956 22.8187C26.4427 21.1533 28.0067 19.5227 29.916 18.272C35.1387 14.8507 42.5973 14.8373 48.1387 17.812L50.7533 18.7693C53.6747 19.448 55.1707 22.3693 55.9933 25.02C58.56 33.2773 58.4373 42.004 58.296 50.5853C54.584 51.5707 50.7307 51.9106 46.9027 51.5906L34.908 51.4666Z" fill="rgb(0, 0, 0)" class="head"></path>
<path d="M35.8853 53.4C35.8213 52.0107 35.8347 51.2867 35.9227 49.8987C34.2587 50.5787 32.4187 50.2987 30.704 50C29.06 49.7107 27.5227 49.1427 26.2813 47.988C23.952 45.8187 23.3333 42.4347 23.6667 39.3893C23.8 38.18 24.3147 36.1827 25.1747 33.9707L26.7853 31.616C34.0173 34.7227 40.0773 35.8227 40.2227 35.0693C40.2667 35.2267 45.1373 28.568 45.212 28.4347C45.2213 28.4213 45.252 28.424 45.248 28.4347C43.0893 37.796 45.5973 38.6893 46.4267 39.448L47.7013 39.6333C49.2307 38.2893 50.1307 38.1093 51.1347 38.616C52.564 39.3373 52.7787 40.8627 52.468 42.144C52.132 43.5573 51.236 44.776 50.0867 45.644C49.5067 46.0747 48.8747 46.4333 48.2067 46.7107C47.8787 46.8493 47.544 46.972 47.204 47.0787C46.8213 47.2 46.4347 47.196 46.2547 47.5693C45.4627 49.22 45.1253 50.3867 45.28 52.2107" fill="rgb(255, 255, 255)" class="skin"></path>
<path d="M46.4266 39.9467C46.2333 39.9467 46.04 39.8773 45.8866 39.7373C45.8346 39.6893 45.76 39.632 45.6746 39.564C45.1386 39.1413 44.24 38.4347 43.824 36.6213C43.5173 35.288 43.5133 33.5667 43.8146 31.4053C43.612 31.68 43.456 31.8907 43.3866 31.984C42.6973 32.9147 42.1106 33.696 41.6893 34.2453C41.4386 34.572 41.24 34.8253 41.0973 35C41.0186 35.0973 40.9413 35.192 40.8586 35.276C40.7666 35.4093 40.64 35.52 40.484 35.6027C39.812 35.9587 38.12 35.8027 35.452 35.1387C32.7146 34.4587 29.5253 33.36 26.4693 32.048C26.064 31.8733 25.876 31.4027 26.0506 30.9973C26.2253 30.592 26.696 30.404 27.1013 30.5787C33.5186 33.336 38.5986 34.3187 39.6666 34.192C39.692 34.168 39.7173 34.1453 39.7453 34.1253C40.3453 33.444 44.1786 28.2347 44.5346 27.7067C44.5413 27.696 44.5493 27.684 44.5573 27.6733C44.796 27.3347 45.252 27.2253 45.6186 27.42C45.9426 27.592 46.108 27.964 46.0266 28.3133C44.1746 36.3467 45.856 37.6707 46.664 38.3067C46.7706 38.3907 46.8706 38.4693 46.9666 38.5573C47.292 38.856 47.3146 39.3613 47.0173 39.688C46.8586 39.8587 46.6426 39.9467 46.4266 39.9467ZM45.8653 28.592C45.86 28.6013 45.8533 28.6107 45.8453 28.62C45.8533 28.612 45.86 28.6027 45.8653 28.592ZM44.5333 27.7107C44.524 27.7253 44.5173 27.7373 44.5146 27.7427C44.52 27.732 44.5266 27.7213 44.5333 27.7107Z" fill="rgb(0, 0, 0)" class="stroke"></path>
<path d="M49.708 52.5053C48.752 52.5053 47.796 52.4653 46.8373 52.3853C46.3973 52.348 46.0693 51.9613 46.1066 51.5213C46.144 51.0813 46.5306 50.7533 46.9706 50.7907C50.516 51.0867 54.0573 50.8067 57.508 49.9587C57.6413 41.7347 57.7186 33.256 55.2306 25.2547C54.204 21.9453 52.6373 20.0253 50.5733 19.5453C50.1426 19.4453 49.8746 19.016 49.9746 18.5853C50.0746 18.1547 50.504 17.8867 50.9346 17.9867C53.5906 18.604 55.5506 20.8893 56.7573 24.78C59.3813 33.224 59.236 42.0547 59.096 50.596C59.0906 50.9533 58.8466 51.264 58.5013 51.356C55.62 52.12 52.672 52.5053 49.708 52.5053Z" fill="rgb(0, 0, 0)" class="stroke"></path>
<path d="M32.248 52.3587C26.8413 52.3587 21.4413 51.2427 16.4813 49.0853C16.1826 48.956 15.992 48.6573 16.0013 48.332C16.1133 43.7933 16.6986 39.252 17.7426 34.8347C18.2533 32.668 18.9546 30.1307 20.2773 27.74C21.4186 25.688 22.9133 23.9053 24.36 22.2853C26.0773 20.3627 27.604 18.8293 29.4786 17.6027C32.136 15.8627 35.3906 14.908 38.8946 14.844C42.264 14.7827 45.684 15.5853 48.5186 17.108C48.908 17.3173 49.0546 17.8027 48.8453 18.1907C48.636 18.58 48.152 18.7267 47.7626 18.5173C42.34 15.6067 35.1826 15.78 30.3573 18.9413C28.6293 20.0733 27.188 21.5227 25.556 23.352C24.1706 24.904 22.7426 26.6027 21.6786 28.5173C20.4506 30.736 19.788 33.1427 19.3026 35.2027C18.3253 39.3373 17.76 43.5827 17.62 47.8307C23.044 50.0973 28.9906 51.0773 34.8573 50.6693C35.2973 50.6373 35.68 50.9707 35.7106 51.412C35.7413 51.8533 35.4093 52.2347 34.968 52.2653C34.06 52.328 33.1533 52.3587 32.248 52.3587Z" fill="rgb(0, 0, 0)" class="stroke"></path>
<path d="M45.2787 52.3187C44.868 52.3187 44.5173 52.004 44.4827 51.5853C44.3133 49.5773 44.704 48.6587 45.5333 46.9307C45.8373 46.3 46.412 46.1613 46.756 46.0787C46.8307 46.06 46.9013 46.044 46.9627 46.024C47.28 45.924 47.5933 45.8093 47.896 45.6813C48.508 45.428 49.0827 45.1013 49.6107 44.7093C50.6747 43.9053 51.416 42.824 51.6907 41.6667C51.832 41.084 52.024 39.668 50.7747 39.0373C50.2293 38.7613 49.6947 38.6533 48.2293 39.9413C47.8973 40.2333 47.392 40.2 47.1 39.868C46.808 39.536 46.8413 39.0307 47.1733 38.7387C49.2773 36.8893 50.4933 37.1027 51.4947 37.608C53.0467 38.392 53.7173 40.0893 53.2453 42.0387C52.8853 43.5533 51.9347 44.9573 50.5693 45.988C49.932 46.4613 49.2413 46.8533 48.5133 47.1547C48.168 47.3 47.8067 47.4333 47.4427 47.5467C47.332 47.5813 47.2253 47.608 47.132 47.6307C47.0733 47.6453 46.9973 47.6627 46.948 47.6787C46.1813 49.2787 45.944 49.88 46.0773 51.448C46.1147 51.888 45.788 52.2747 45.348 52.312C45.324 52.3173 45.3013 52.3187 45.2787 52.3187Z" fill="rgb(0, 0, 0)" class="stroke"></path>
<path d="M35.8853 53.4987C35.46 53.4987 35.1067 53.164 35.0867 52.7347C35.044 51.796 35.0347 51.324 35.0613 50.68C33.4587 50.9893 31.8267 50.7053 30.568 50.4853C28.5347 50.1267 26.9547 49.4027 25.7373 48.2707C23.5 46.1867 22.456 42.808 22.872 38.9987C23.028 37.5867 23.6093 35.4853 24.4293 33.3773C24.5893 32.9653 25.0533 32.7613 25.4653 32.9213C25.8773 33.0813 26.0813 33.5453 25.9213 33.9573C25.012 36.296 24.572 38.1853 24.4627 39.1733C24.1013 42.4733 24.9627 45.3627 26.828 47.0987C27.8253 48.0267 29.1013 48.6013 30.844 48.908C32.6253 49.2187 34.216 49.428 35.6213 48.8533C35.876 48.7493 36.1667 48.784 36.3907 48.944C36.6147 49.1053 36.74 49.3693 36.7227 49.644C36.6373 50.9853 36.6227 51.2813 36.6867 52.6573C36.7067 53.0987 36.3653 53.4733 35.924 53.4933C35.9093 53.4987 35.8973 53.4987 35.8853 53.4987Z" fill="rgb(0, 0, 0)" class="stroke"></path>
<path d="M29.124 37.3467C29.6395 37.3467 30.0573 36.8393 30.0573 36.2134C30.0573 35.5874 29.6395 35.08 29.124 35.08C28.6085 35.08 28.1907 35.5874 28.1907 36.2134C28.1907 36.8393 28.6085 37.3467 29.124 37.3467Z" fill="black"></path>
<path d="M33.6573 37.66C34.1728 37.66 34.5907 37.1526 34.5907 36.5267C34.5907 35.9008 34.1728 35.3933 33.6573 35.3933C33.1419 35.3933 32.724 35.9008 32.724 36.5267C32.724 37.1526 33.1419 37.66 33.6573 37.66Z" fill="black"></path>
</svg>