<svg xmlns="http://www.w3.org/2000/svg" viewBox="0 0 80 80" fill="none">
<path d="M47.8307 49.1467C49.492 49.444 51.2373 49.0373 52.696 48.1893C55.9907 46.276 57.68 42.3227 57.8427 38.5213C58.0053 34.72 56.876 30.9827 55.692 27.3627C55.5587 26.9627 55.432 26.5213 55.6067 26.14C55.8573 25.588 56.572 25.4733 57.1667 25.364C58.4387 25.12 59.62 24.5373 60.588 23.6787C61.556 22.82 62.2747 21.7147 62.668 20.4813C63.0613 19.248 63.1147 17.932 62.824 16.6707C62.532 15.4093 61.9053 14.2507 61.0107 13.3147C59.2773 11.5107 56.6827 10.72 54.1827 10.7667C51.8973 10.808 49.5613 11.54 47.9093 13.12C46.2573 14.7 45.4147 17.2 46.1333 19.3733L44.9573 19.752C41.0733 18.1827 36.648 17.92 32.648 19.1667C28.648 20.4133 25.1173 23.1853 23.088 26.8507C21.932 28.9387 21.2653 31.2707 20.9187 33.632C20.6013 35.7973 21.9413 39.5093 23.5867 40.956L26.7453 32.876C28.816 33.212 30.9267 32.6987 32.9253 32.0613C36.62 30.8827 40.4267 29.04 42.2587 25.6227C41.6173 27.4053 41.636 29.1907 41.7747 30.94C41.908 32.5813 42.1467 34.248 42.872 35.7267C43.5973 37.2053 44.872 38.4853 46.4787 38.864" fill="rgb(0, 0, 0)" class="head"></path>
<path d="M45.2667 52.4C45.1147 50.5747 45.472 48.932 46.2667 47.2813C46.4467 46.908 46.8334 46.912 47.216 46.7907C47.556 46.684 47.8894 46.5613 48.2187 46.4227C48.8867 46.1453 49.5174 45.7867 50.0987 45.356C51.248 44.488 52.144 43.2693 52.48 41.856C52.7854 40.5747 52.5707 39.0493 51.1467 38.328C50.1427 37.8213 49.2427 38.0013 47.7134 39.3453L46.488 38.8653C44.888 38.4867 43.6067 37.2067 42.8814 35.728C42.156 34.2493 41.9147 32.5827 41.784 30.9413C41.6507 29.192 41.6267 27.4067 42.268 25.624C40.432 29.0413 36.6254 30.884 32.9347 32.0627C30.9347 32.7 28.8254 33.2133 26.7547 32.8773L25.1907 33.6773C24.3307 35.8893 23.8134 37.8867 23.6827 39.096C23.3534 42.1413 23.968 45.5253 26.2974 47.6947C27.5387 48.8493 29.076 49.4173 30.72 49.7067C32.4347 50.0093 34.2747 50.2853 35.9387 49.6053C35.8507 50.9933 35.8374 51.984 35.9014 53.3733" fill="rgb(255, 255, 255)" class="skin"></path>
<path d="M46.476 39.6613C46.4147 39.6613 46.3534 39.6547 46.2907 39.64C44.596 39.2387 43.048 37.9067 42.1507 36.076C41.3387 34.4187 41.1 32.58 40.9747 31C40.9174 30.24 40.8774 29.456 40.9054 28.6587C39.104 30.368 36.544 31.7413 33.1667 32.82C31.208 33.444 28.8974 34.0333 26.6147 33.6627C26.1787 33.592 25.8827 33.1813 25.9534 32.7453C26.024 32.3093 26.436 32.0133 26.8707 32.084C28.8147 32.3987 30.812 31.892 32.68 31.2973C37.3067 29.82 40.1254 27.896 41.552 25.2427C41.7507 24.8733 42.2 24.72 42.5827 24.8907C42.9654 25.0613 43.152 25.4987 43.0094 25.892C42.448 27.4507 42.428 29.0133 42.5707 30.8773C42.684 32.304 42.8947 33.9573 43.588 35.372C44.2774 36.7773 45.4267 37.7907 46.66 38.0827C47.0894 38.184 47.356 38.616 47.2547 39.0453C47.168 39.4133 46.8387 39.6613 46.476 39.6613Z" fill="rgb(0, 0, 0)" class="stroke"></path>
<path d="M22.312 40.5653C22.124 40.5653 21.936 40.5 21.784 40.3667C20.216 38.988 19.656 36.684 20.1214 33.516C20.5147 30.8347 21.276 28.4627 22.3827 26.4627C24.4814 22.6707 28.1347 19.7333 32.404 18.4027C36.5334 17.116 41.096 17.3307 45.2507 19.0107C45.66 19.176 45.8587 19.6427 45.6934 20.052C45.528 20.4613 45.0614 20.66 44.652 20.4947C40.8387 18.9547 36.6587 18.7533 32.88 19.9307C29 21.14 25.684 23.804 23.7814 27.2387C22.768 29.0693 22.0694 31.2587 21.704 33.7493C21.324 36.3453 21.7054 38.168 22.8414 39.1653C23.1734 39.4573 23.2054 39.9627 22.9134 40.2947C22.7547 40.4733 22.5334 40.5653 22.312 40.5653Z" fill="rgb(0, 0, 0)" class="stroke"></path>
<path d="M48.9507 50.044C48.528 50.044 48.108 50.008 47.6974 49.9347C47.2627 49.8573 46.9734 49.4413 47.0507 49.0067C47.128 48.572 47.544 48.2827 47.9787 48.36C49.38 48.6107 50.916 48.304 52.3014 47.4987C55.6014 45.5827 56.9187 41.588 57.0507 38.488C57.2054 34.8787 56.14 31.284 54.9387 27.612C54.8014 27.1947 54.572 26.4933 54.8867 25.808C55.296 24.9053 56.288 24.7187 56.944 24.5947L57.024 24.58C58.152 24.3627 59.204 23.8453 60.064 23.0813C60.924 22.3173 61.564 21.3347 61.9134 20.24C62.2627 19.144 62.3107 17.9733 62.052 16.852C61.7934 15.732 61.236 14.7 60.44 13.8693C58.9934 12.36 56.7227 11.5227 54.2054 11.568C51.932 11.6093 49.8414 12.3853 48.4707 13.6987C46.944 15.1613 46.3107 17.3427 46.8947 19.1253C47.032 19.5453 46.804 19.9973 46.384 20.1347C45.964 20.272 45.512 20.044 45.3747 19.624C44.6027 17.268 45.4027 14.4227 47.364 12.544C49.0467 10.932 51.4654 10.0173 54.176 9.96801C57.1374 9.91334 59.8414 10.9307 61.596 12.7627C62.5907 13.8013 63.2867 15.0907 63.6107 16.492C63.9347 17.8933 63.8747 19.3573 63.4387 20.7267C63.0014 22.096 62.2027 23.324 61.1267 24.2787C60.052 25.2333 58.7374 25.88 57.3254 26.152L57.24 26.168C56.9494 26.2227 56.4094 26.324 56.3427 26.4733C56.288 26.592 56.4134 26.9733 56.46 27.116C57.708 30.9333 58.816 34.68 58.6494 38.5587C58.4574 43.0533 56.3334 47.0093 53.1054 48.884C51.7894 49.6453 50.3507 50.044 48.9507 50.044Z" fill="rgb(0, 0, 0)" class="stroke"></path>
<path d="M45.2787 52.3187C44.868 52.3187 44.5174 52.004 44.4827 51.5853C44.3134 49.5773 44.704 48.6587 45.5334 46.9307C45.8374 46.3 46.412 46.1613 46.756 46.0787C46.8307 46.06 46.9014 46.044 46.9627 46.024C47.28 45.924 47.5934 45.8093 47.896 45.6813C48.508 45.428 49.0827 45.1013 49.6107 44.7093C50.6747 43.9053 51.416 42.824 51.6907 41.6667C51.832 41.084 52.024 39.668 50.7747 39.0373C50.2294 38.7613 49.6947 38.6533 48.2294 39.9413C47.8974 40.2333 47.392 40.2 47.1 39.868C46.808 39.536 46.8414 39.0307 47.1734 38.7387C49.2774 36.8893 50.4934 37.1027 51.4947 37.608C53.0467 38.392 53.7174 40.0893 53.2454 42.0387C52.8854 43.5533 51.9347 44.9573 50.5694 45.988C49.932 46.4613 49.2414 46.8533 48.5134 47.1547C48.168 47.3 47.8067 47.4333 47.4427 47.5467C47.332 47.5813 47.2254 47.608 47.132 47.6307C47.0734 47.6453 46.9974 47.6627 46.948 47.6787C46.1814 49.2787 45.944 49.88 46.0774 51.448C46.1147 51.888 45.788 52.2747 45.348 52.312C45.324 52.3173 45.3014 52.3187 45.2787 52.3187Z" fill="rgb(0, 0, 0)" class="stroke"></path>
<path d="M35.8854 53.4987C35.46 53.4987 35.1067 53.164 35.0867 52.7347C35.044 51.796 35.0347 51.324 35.0614 50.68C33.4587 50.9893 31.8267 50.7053 30.568 50.4853C28.5347 50.1267 26.9547 49.4027 25.7374 48.2707C23.5 46.1867 22.456 42.808 22.872 38.9987C23.028 37.5867 23.6094 35.4853 24.4294 33.3773C24.5894 32.9653 25.0534 32.7613 25.4654 32.9213C25.8774 33.0813 26.0814 33.5453 25.9214 33.9573C25.012 36.296 24.572 38.1853 24.4627 39.1733C24.1014 42.4733 24.9627 45.3627 26.828 47.0987C27.8254 48.0267 29.1014 48.6013 30.844 48.908C32.6254 49.2187 34.216 49.428 35.6214 48.8533C35.876 48.7493 36.1667 48.784 36.3907 48.944C36.6147 49.1053 36.74 49.3693 36.7227 49.644C36.6374 50.9853 36.6227 51.2813 36.6867 52.6573C36.7067 53.0987 36.3654 53.4733 35.924 53.4933C35.9094 53.4987 35.8974 53.4987 35.8854 53.4987Z" fill="rgb(0, 0, 0)" class="stroke"></path>
<path d="M29.124 37.3467C29.6395 37.3467 30.0573 36.8393 30.0573 36.2134C30.0573 35.5874 29.6395 35.08 29.124 35.08C28.6085 35.08 28.1907 35.5874 28.1907 36.2134C28.1907 36.8393 28.6085 37.3467 29.124 37.3467Z" fill="black"></path>
<path d="M33.6573 37.66C34.1728 37.66 34.5907 37.1526 34.5907 36.5267C34.5907 35.9008 34.1728 35.3933 33.6573 35.3933C33.1419 35.3933 32.724 35.9008 32.724 36.5267C32.724 37.1526 33.1419 37.66 33.6573 37.66Z" fill="black"></path>
</svg>