<svg xmlns="http://www.w3.org/2000/svg" viewBox="0 0 80 80" fill="none">
<path d="M46.744 39.084C44.376 38.0693 42.8 35.692 42.1654 33.2C41.748 31.5587 41.6854 29.86 41.7654 28.2067C41.772 28.0493 41.7294 27.8947 41.644 27.7613C41.5587 27.6293 41.4347 27.5267 41.2894 27.4667C41.144 27.4067 40.9827 27.3947 40.8294 27.4293C40.676 27.464 40.5374 27.5467 40.432 27.6627C37.6667 30.712 33.9347 32.7133 29.8667 33.3333C28.604 33.5173 27.1894 33.524 26.2014 32.716L23.7147 42.4493L22.648 41.916C21.1947 40.916 20.908 38.9067 20.904 37.1413C20.8907 32.1453 22.2454 26.8747 25.888 23.456C29.3014 20.256 34.2134 19.1467 38.892 19.1C39.948 19.0893 41.0254 19.1293 42.028 19.4533C43.1774 19.824 44.2307 20.5613 45.4374 20.6267L47.26 21.208C51.292 21.2747 54.716 24.62 55.9907 28.4453C57.2654 32.2707 54.736 37.1507 55.9174 40.3907C56.9267 43.16 61.6067 42.604 62.584 45.3867C63.5614 48.1693 62.744 51.4707 60.644 53.54C58.544 55.6093 55.2814 56.3787 52.4547 55.54C51.9774 55.3973 51.4947 55.2027 51.1547 54.8373C50.8147 54.472 50.6534 53.9707 50.5187 53.4853C50.052 51.8013 51.228 49.0467 49.6347 48.3267C48.716 47.912 47.7894 49.2267 46.7867 49.1067L45.5587 49.24" fill="rgb(0, 0, 0)" class="head"></path>
<path d="M45.2854 52.1893C45.1334 50.364 45.472 48.932 46.2667 47.2813C46.4467 46.908 46.8333 46.912 47.216 46.7907C47.556 46.684 47.8894 46.5613 48.2187 46.4227C48.8867 46.1453 49.5187 45.7867 50.0987 45.356C51.248 44.488 52.144 43.2693 52.48 41.856C52.7853 40.5747 52.5707 39.0493 51.1467 38.328C50.1427 37.8213 49.2427 38.0013 47.7133 39.3453L46.756 39.088C44.376 38.0693 42.8 35.692 42.1653 33.2C41.748 31.5587 41.6853 29.86 41.7653 28.2067C41.772 28.0493 41.7293 27.8947 41.644 27.7613C41.5587 27.6293 41.4347 27.5267 41.2894 27.4667C41.144 27.408 40.9827 27.3947 40.8293 27.4293C40.676 27.464 40.5373 27.5467 40.432 27.6627C37.6667 30.712 33.9347 32.7133 29.8667 33.3333C28.604 33.5173 27.1893 33.524 26.2013 32.716L25.1733 33.668C24.3133 35.88 23.796 37.8773 23.6653 39.0867C23.336 42.132 23.9507 45.516 26.28 47.6853C27.5213 48.84 29.0587 49.408 30.7027 49.6973C32.4173 50 34.2573 50.276 35.9213 49.596C35.8333 50.984 35.82 51.9747 35.884 53.364" fill="rgb(255, 255, 255)" class="skin"></path>
<path d="M46.744 39.884C46.6386 39.884 46.532 39.8627 46.4293 39.8187C44.0373 38.7933 42.1533 36.3933 41.3906 33.3973C41.0093 31.8973 40.872 30.2653 40.9626 28.2707C38.0866 31.4067 34.1933 33.484 29.988 34.124C28.0853 34.4013 26.684 34.1427 25.696 33.3347C25.3546 33.0547 25.304 32.5507 25.5826 32.2093C25.8626 31.868 26.3666 31.8173 26.708 32.096C27.328 32.604 28.324 32.7493 29.752 32.5413C33.6213 31.952 37.2066 30.028 39.84 27.1253C40.0546 26.888 40.336 26.7227 40.6506 26.6493C40.9653 26.576 41.2906 26.6027 41.5906 26.7253C41.8906 26.8467 42.1413 27.056 42.316 27.328C42.4906 27.6 42.5773 27.9147 42.564 28.2373C42.4733 30.1227 42.592 31.6347 42.94 33.0013C43.5813 35.5187 45.12 37.5173 47.0586 38.3467C47.4653 38.5213 47.6533 38.9907 47.4786 39.3973C47.3493 39.7027 47.0546 39.884 46.744 39.884Z" fill="rgb(0, 0, 0)" class="stroke"></path>
<path d="M22.644 42.7173C22.488 42.7173 22.3293 42.672 22.1906 42.576C20.784 41.608 20.1 39.8307 20.1 37.1427C20.084 31.1253 21.944 26.0573 25.3373 22.8733C29.2893 19.1667 34.884 18.34 38.88 18.3013C39.9746 18.2907 41.1426 18.3307 42.2693 18.6933C42.7186 18.84 43.14 19.0293 43.5466 19.212C44.2146 19.512 44.8453 19.796 45.476 19.8293C45.9173 19.8533 46.256 20.2307 46.232 20.672C46.208 21.1133 45.8306 21.4493 45.3893 21.428C44.4613 21.3773 43.6626 21.0187 42.8906 20.672C42.5053 20.4987 42.1413 20.336 41.776 20.216C40.868 19.924 39.8546 19.892 38.8946 19.9013C35.1826 19.9387 30.0066 20.6867 26.4293 24.0413C22.2933 27.9213 21.6893 33.9147 21.6986 37.1413C21.6986 39.2653 22.156 40.612 23.096 41.2587C23.46 41.5093 23.552 42.0067 23.3013 42.3707C23.1493 42.596 22.8986 42.7173 22.644 42.7173Z" fill="rgb(0, 0, 0)" class="stroke"></path>
<path d="M54.8066 56.68C53.94 56.68 53.0693 56.5587 52.2253 56.308C51.7106 56.1547 51.0573 55.9107 50.5666 55.384C50.1013 54.884 49.8986 54.2533 49.7453 53.7013C49.5346 52.9387 49.5946 52.084 49.6533 51.256C49.7373 50.0613 49.7586 49.264 49.3026 49.0573C49.176 49 48.7973 49.212 48.5213 49.3667C48.0266 49.644 47.4106 49.988 46.6893 49.9027C46.2506 49.8507 45.9373 49.452 45.9906 49.0133C46.0426 48.5747 46.4413 48.2613 46.88 48.3147C47.084 48.34 47.4173 48.152 47.74 47.972C48.3133 47.6507 49.1 47.2107 49.9626 47.6C51.468 48.28 51.348 49.9933 51.2506 51.3693C51.2013 52.0613 51.1506 52.7773 51.2893 53.2747C51.396 53.6613 51.52 54.0587 51.74 54.2947C51.968 54.5387 52.364 54.68 52.684 54.776C55.244 55.536 58.2173 54.8107 60.0826 52.9733C61.9706 51.112 62.6893 48.1027 61.8293 45.6547C61.4613 44.6053 60.3013 44.152 58.96 43.6267C57.476 43.0453 55.7933 42.388 55.1666 40.6667C54.5213 38.896 54.8386 36.848 55.1746 34.68C55.4946 32.6147 55.8253 30.4787 55.2333 28.7C54.6333 26.9013 53.5333 25.24 52.136 24.0227C50.656 22.7347 48.9666 22.0387 47.2493 22.0093C46.808 22.0027 46.4546 21.6373 46.4626 21.196C46.4693 20.7547 46.8373 20.4013 47.276 20.4093C51.3506 20.4773 55.248 23.6773 56.752 28.1933C57.4666 30.34 57.1053 32.6707 56.756 34.924C56.452 36.8827 56.1653 38.732 56.6706 40.1173C57.0506 41.1587 58.2066 41.6107 59.544 42.1347C61.0373 42.7187 62.728 43.3813 63.34 45.1227C64.4146 48.1827 63.5573 51.7947 61.2066 54.1107C59.516 55.7733 57.176 56.68 54.8066 56.68Z" fill="rgb(0, 0, 0)" class="stroke"></path>
<path d="M45.2786 52.3187C44.868 52.3187 44.5173 52.004 44.4826 51.5853C44.3133 49.5773 44.704 48.6587 45.5333 46.9307C45.8373 46.3 46.412 46.1613 46.756 46.0787C46.8306 46.06 46.9013 46.044 46.9626 46.024C47.28 45.924 47.5933 45.8093 47.896 45.6813C48.508 45.428 49.0826 45.1013 49.6106 44.7093C50.6746 43.9053 51.416 42.824 51.6906 41.6667C51.832 41.084 52.024 39.668 50.7746 39.0373C50.2293 38.7613 49.6946 38.6533 48.2293 39.9413C47.8973 40.2333 47.392 40.2 47.1 39.868C46.808 39.536 46.8413 39.0307 47.1733 38.7387C49.2773 36.8893 50.4933 37.1027 51.4946 37.608C53.0466 38.392 53.7173 40.0893 53.2453 42.0387C52.8853 43.5533 51.9346 44.9573 50.5693 45.988C49.932 46.4613 49.2413 46.8533 48.5133 47.1547C48.168 47.3 47.8066 47.4333 47.4426 47.5467C47.332 47.5813 47.2253 47.608 47.132 47.6307C47.0733 47.6453 46.9973 47.6627 46.948 47.6787C46.1813 49.2787 45.944 49.88 46.0773 51.448C46.1146 51.888 45.788 52.2747 45.348 52.312C45.324 52.3173 45.3013 52.3187 45.2786 52.3187Z" fill="rgb(0, 0, 0)" class="stroke"></path>
<path d="M35.8853 53.4986C35.46 53.4986 35.1066 53.164 35.0866 52.7347C35.044 51.796 35.0346 51.324 35.0613 50.68C33.4586 50.9893 31.8266 50.7053 30.568 50.4853C28.5346 50.1267 26.9546 49.4027 25.7373 48.2707C23.5 46.1867 22.456 42.808 22.872 38.9986C23.028 37.5866 23.6093 35.4853 24.4293 33.3773C24.5893 32.9653 25.0533 32.7613 25.4653 32.9213C25.8773 33.0813 26.0813 33.5453 25.9213 33.9573C25.012 36.296 24.572 38.1853 24.4626 39.1733C24.1013 42.4733 24.9626 45.3626 26.828 47.0986C27.8253 48.0267 29.1013 48.6013 30.844 48.908C32.6253 49.2187 34.216 49.428 35.6213 48.8533C35.876 48.7493 36.1666 48.784 36.3906 48.944C36.6146 49.1053 36.74 49.3693 36.7226 49.644C36.6373 50.9853 36.6226 51.2813 36.6866 52.6573C36.7066 53.0987 36.3653 53.4733 35.924 53.4933C35.9093 53.4987 35.8973 53.4986 35.8853 53.4986Z" fill="rgb(0, 0, 0)" class="stroke"></path>
<path d="M29.124 37.3467C29.6395 37.3467 30.0573 36.8393 30.0573 36.2134C30.0573 35.5874 29.6395 35.08 29.124 35.08C28.6085 35.08 28.1907 35.5874 28.1907 36.2134C28.1907 36.8393 28.6085 37.3467 29.124 37.3467Z" fill="black"></path>
<path d="M33.6573 37.66C34.1728 37.66 34.5907 37.1526 34.5907 36.5267C34.5907 35.9008 34.1728 35.3933 33.6573 35.3933C33.1419 35.3933 32.724 35.9008 32.724 36.5267C32.724 37.1526 33.1419 37.66 33.6573 37.66Z" fill="black"></path>
</svg>