<svg xmlns="http://www.w3.org/2000/svg" viewBox="0 0 80 80" fill="none">
<path d="M26.4774 32.832C27.1987 33.0307 27.9427 33.136 28.6907 33.1467C34.4174 33.3307 40.1041 29.9067 42.6214 24.7587C41.9894 27.328 41.8401 29.9933 42.1827 32.6173C42.3414 33.9333 42.6107 35.26 43.2387 36.428C43.8667 37.596 44.8974 38.5973 46.1721 38.948L45.9707 49.7653C46.5974 49.6107 47.1587 49.26 47.5707 48.7627C47.4081 52.1627 47.3041 55.6813 48.5614 58.8427C49.0614 60.0947 49.8227 61.3147 51.0054 61.9613C52.5934 62.828 54.5814 62.4747 56.2414 61.756C57.3627 61.2707 58.4387 60.6107 59.1987 59.6547C60.7774 57.6707 60.6721 54.7053 59.4467 52.4853C58.2214 50.2653 56.0734 48.6947 53.8121 47.552C55.2694 46.0227 56.3601 44.1813 56.9974 42.1667C57.6361 40.152 57.8067 38.0187 57.4974 35.9293C57.0974 33.368 55.98 30.9827 54.8774 28.6373C54.2187 27.2373 53.5294 25.796 52.3721 24.7707C50.6534 23.2453 48.1761 22.872 46.3347 21.4987L42.6681 20.4427C42.0187 19.092 40.3041 18.584 38.8134 18.728C37.3227 18.872 35.9241 19.5067 34.4587 19.816C33.1574 20.092 31.8081 20.112 30.5187 20.444C26.1494 21.568 23.4827 25.896 21.5534 29.9747C19.9534 33.3467 18.5241 36.9347 18.6201 40.664C18.7161 44.3933 20.7094 48.296 24.2001 49.608C22.3641 50.6093 20.8467 52.1067 19.8201 53.928C19.3947 54.6867 19.0534 55.536 19.1241 56.4027C19.1947 57.2693 19.6961 58.0933 20.3241 58.7227C22.3147 60.716 25.7534 61.04 28.0827 59.4547C30.4121 57.8693 31.3681 54.5493 30.1001 51.7707C31.9401 52.0547 33.8227 51.8267 35.5427 51.1133" fill="rgb(0, 0, 0)" class="head"></path>
<path d="M35.8854 53.3653C35.8214 51.976 35.8347 50.9853 35.9227 49.5973C34.2587 50.2773 32.4187 49.9973 30.7041 49.6987C29.0601 49.4093 27.5227 48.8413 26.2814 47.6867C23.9521 45.5173 23.3334 42.1333 23.6667 39.088C23.8001 37.8787 24.3147 35.8813 25.1747 33.6693L26.4774 32.832C27.1987 33.0307 27.9427 33.136 28.6907 33.1467C34.4174 33.3307 40.1041 29.9067 42.6214 24.7587C41.9894 27.328 41.8414 29.9933 42.1827 32.6173C42.3414 33.9333 42.6107 35.26 43.2387 36.428C43.8667 37.596 44.8974 38.5973 46.1721 38.948L47.6974 39.3413C49.2267 37.9973 50.1267 37.8173 51.1307 38.324C52.5601 39.0453 52.7747 40.5707 52.4641 41.852C52.1281 43.2653 51.2321 44.484 50.0827 45.352C49.5027 45.7827 48.8707 46.1413 48.2027 46.4187C47.8747 46.5573 47.5401 46.68 47.2001 46.7867C46.8174 46.908 46.4307 46.904 46.2507 47.2773C45.4587 48.928 45.1214 50.3613 45.2761 52.1853" fill="rgb(255, 255, 255)" class="skin"></path>
<path d="M24.7 61.2587C22.884 61.2587 21.0653 60.584 19.7667 59.284C18.9227 58.4387 18.4147 57.4373 18.3347 56.464C18.2613 55.564 18.5133 54.632 19.1307 53.5333C19.9893 52.0093 21.1627 50.7013 22.5707 49.6907C21.3347 48.9347 20.2733 47.8333 19.456 46.4453C18.4587 44.7533 17.88 42.7067 17.828 40.6813C17.7267 36.756 19.2147 33.0493 20.8387 29.628C22.724 25.6413 25.508 20.9053 30.328 19.6653C31.0867 19.4693 31.852 19.3773 32.592 19.2867C33.1867 19.2147 33.7493 19.1467 34.3013 19.0293C34.8533 18.9133 35.396 18.7467 35.9693 18.572C36.8547 18.3013 37.7707 18.0213 38.744 17.928C40.4627 17.7627 42.5667 18.3667 43.396 20.092C43.588 20.4907 43.42 20.968 43.0213 21.16C42.624 21.352 42.1453 21.184 41.9533 20.7853C41.4613 19.7613 40.024 19.412 38.896 19.52C38.0813 19.5987 37.2813 19.8427 36.4347 20.1013C35.852 20.2787 35.2507 20.4627 34.6293 20.5933C34.0093 20.7253 33.3853 20.8 32.7813 20.8733C32.0613 20.9613 31.38 21.044 30.7227 21.2133C26.5467 22.288 24.0173 26.64 22.2813 30.3107C20.7427 33.5533 19.332 37.048 19.424 40.6373C19.5027 43.708 21.12 47.588 24.4853 48.8533C24.7787 48.964 24.98 49.2347 25.0013 49.5467C25.0227 49.8587 24.8613 50.1547 24.5867 50.3053C22.88 51.236 21.4747 52.6227 20.5213 54.316C20.0693 55.1227 19.8787 55.764 19.9253 56.3333C19.9733 56.9213 20.3267 57.584 20.8947 58.1533C22.608 59.868 25.632 60.1533 27.6373 58.7893C29.688 57.3933 30.452 54.4547 29.3773 52.0987C29.2547 51.8307 29.2893 51.5187 29.4667 51.284C29.644 51.0493 29.936 50.932 30.2267 50.976C31.9227 51.2373 33.656 51.028 35.2413 50.3707C35.6493 50.2013 36.1173 50.3947 36.2867 50.8027C36.456 51.2107 36.2627 51.6787 35.8547 51.848C34.3973 52.4533 32.832 52.7333 31.2667 52.6787C31.9573 55.476 30.9027 58.5027 28.5387 60.112C27.4067 60.884 26.0547 61.2587 24.7 61.2587Z" fill="rgb(0, 0, 0)" class="stroke"></path>
<path d="M53.1587 63.2627C52.228 63.2627 51.3734 63.0627 50.632 62.66C49.444 62.0107 48.5014 60.8253 47.8267 59.1347C46.736 56.4053 46.612 53.5173 46.712 50.3587C46.536 50.432 46.3547 50.492 46.1694 50.5373C45.74 50.6427 45.3067 50.3813 45.2014 49.952C45.096 49.5227 45.3574 49.0893 45.7867 48.984C46.244 48.8707 46.6614 48.6093 46.9627 48.2467C47.1827 47.9813 47.5467 47.8867 47.868 48.012C48.1894 48.136 48.3947 48.452 48.3774 48.796C48.204 52.4147 48.1547 55.6453 49.312 58.5413C49.8454 59.8773 50.5467 60.7907 51.3974 61.2547C52.936 62.0893 54.8987 61.464 55.932 61.0173C57.128 60.5 57.9947 59.8893 58.5814 59.152C59.8494 57.5613 59.92 54.9773 58.7547 52.8667C57.7747 51.0907 55.9934 49.5413 53.46 48.2613C53.2347 48.1467 53.076 47.9333 53.032 47.6827C52.9894 47.4333 53.0667 47.1787 53.2414 46.9947C54.608 45.5613 55.6454 43.8067 56.244 41.92C56.8427 40.032 57.0054 38 56.7147 36.0413C56.3294 33.5813 55.228 31.2387 54.1614 28.972C53.5427 27.6573 52.9014 26.2973 51.8494 25.364C51.024 24.6307 49.9707 24.1827 48.856 23.7067C47.8414 23.2747 46.7934 22.8267 45.864 22.1347C45.5094 21.8707 45.4374 21.3693 45.7014 21.0147C45.9654 20.6613 46.4667 20.588 46.8214 20.852C47.5974 21.4307 48.5134 21.8213 49.484 22.2347C50.668 22.7387 51.8907 23.2613 52.912 24.1667C54.2107 25.3187 54.9547 26.8973 55.6107 28.2907C56.724 30.6587 57.876 33.108 58.2974 35.8C58.624 38.004 58.4414 40.2853 57.7707 42.4027C57.204 44.1893 56.2854 45.8707 55.092 47.3187C57.4427 48.6547 59.1454 50.2573 60.1574 52.092C61.6494 54.7947 61.52 58.032 59.8347 60.1467C59.0814 61.0947 58.0134 61.8587 56.5694 62.484C55.3734 63.0027 54.2174 63.2627 53.1587 63.2627Z" fill="rgb(0, 0, 0)" class="stroke"></path>
<path d="M46.176 39.748C46.1054 39.748 46.0347 39.7387 45.964 39.7187C44.5707 39.3373 43.3227 38.2747 42.536 36.804C41.7907 35.408 41.532 33.884 41.392 32.712C41.1987 31.2333 41.156 29.748 41.2627 28.272C40.148 29.5773 38.804 30.7147 37.272 31.6373C34.6067 33.2427 31.6334 34.0413 28.672 33.9453C27.8587 33.9333 27.0494 33.8187 26.2654 33.6027C25.8387 33.4853 25.5894 33.0453 25.7067 32.6187C25.824 32.1933 26.264 31.9427 26.6907 32.06C27.3467 32.24 28.0227 32.3373 28.7027 32.3467C28.708 32.3467 28.7134 32.3467 28.7174 32.3467C34.1094 32.5213 39.532 29.2573 41.908 24.4067C42.088 24.04 42.5147 23.8667 42.9 24.0067C43.284 24.1467 43.5014 24.5533 43.404 24.9493C42.7934 27.4333 42.652 29.9773 42.9814 32.5133C43.1667 34.056 43.4654 35.144 43.9494 36.0507C44.528 37.1347 45.4174 37.9093 46.388 38.176C46.8147 38.2933 47.0654 38.7333 46.948 39.1587C46.8507 39.5147 46.528 39.748 46.176 39.748Z" fill="rgb(0, 0, 0)" class="stroke"></path>
<path d="M45.2787 52.3187C44.868 52.3187 44.5174 52.0027 44.4827 51.5853C44.3134 49.5773 44.704 48.6573 45.5334 46.9307C45.8374 46.3 46.412 46.1613 46.756 46.0787C46.8307 46.06 46.9014 46.044 46.9627 46.024C47.28 45.924 47.5934 45.8093 47.896 45.6813C48.508 45.428 49.0827 45.1013 49.6107 44.7093C50.6747 43.9053 51.416 42.8227 51.6907 41.6667C51.832 41.084 52.024 39.668 50.7747 39.0373C50.2294 38.7613 49.6947 38.6533 48.2294 39.9413C47.8974 40.2333 47.392 40.2 47.1 39.868C46.808 39.536 46.8414 39.0307 47.1734 38.7387C49.2774 36.8893 50.4947 37.1027 51.4947 37.608C53.0467 38.392 53.7174 40.0893 53.2454 42.0387C52.8854 43.5533 51.9347 44.9573 50.5694 45.988C49.932 46.4613 49.2414 46.8533 48.5134 47.1547C48.168 47.3 47.8067 47.4333 47.4427 47.5467C47.332 47.5813 47.2254 47.608 47.132 47.6307C47.0734 47.6453 46.9974 47.6627 46.948 47.6787C46.1814 49.2787 45.944 49.88 46.0774 51.448C46.1147 51.888 45.788 52.276 45.348 52.312C45.324 52.3173 45.3014 52.3187 45.2787 52.3187Z" fill="rgb(0, 0, 0)" class="stroke"></path>
<path d="M35.884 53.4987C35.4587 53.4987 35.1053 53.164 35.0853 52.7347C35.0427 51.796 35.0333 51.324 35.06 50.68C33.4573 50.9893 31.8253 50.7053 30.5667 50.4853C28.5333 50.1267 26.9533 49.4027 25.736 48.2707C23.4987 46.1867 22.4547 42.808 22.8707 38.9987C23.0267 37.5867 23.608 35.4853 24.428 33.3773C24.588 32.9653 25.052 32.7613 25.464 32.9213C25.876 33.0813 26.08 33.5453 25.92 33.9573C25.0107 36.296 24.5707 38.1853 24.4613 39.1733C24.1 42.4733 24.9613 45.3627 26.8267 47.0987C27.824 48.0267 29.1 48.6013 30.8427 48.908C32.624 49.2187 34.2133 49.428 35.62 48.8533C35.8747 48.7493 36.1653 48.784 36.3893 48.944C36.6133 49.1053 36.7387 49.3693 36.7213 49.644C36.636 50.9853 36.6213 51.2813 36.6853 52.6573C36.7053 53.0987 36.364 53.4733 35.9227 53.4933C35.9093 53.4987 35.8973 53.4987 35.884 53.4987Z" fill="rgb(0, 0, 0)" class="stroke"></path>
<path d="M29.124 37.3467C29.6395 37.3467 30.0573 36.8393 30.0573 36.2134C30.0573 35.5874 29.6395 35.08 29.124 35.08C28.6085 35.08 28.1907 35.5874 28.1907 36.2134C28.1907 36.8393 28.6085 37.3467 29.124 37.3467Z" fill="black"></path>
<path d="M33.6573 37.66C34.1728 37.66 34.5907 37.1526 34.5907 36.5267C34.5907 35.9008 34.1728 35.3933 33.6573 35.3933C33.1419 35.3933 32.724 35.9008 32.724 36.5267C32.724 37.1526 33.1419 37.66 33.6573 37.66Z" fill="black"></path>
</svg>