<svg xmlns="http://www.w3.org/2000/svg" viewBox="0 0 80 80" fill="none">
<path d="M35.8853 53.3653C35.8213 51.976 35.8347 50.9853 35.9227 49.5973C34.2587 50.2773 32.4187 49.9973 30.704 49.6987C29.06 49.4093 27.5227 48.8413 26.2813 47.6867C23.952 45.5173 23.3333 42.1333 23.6667 39.088C23.8 37.8787 24.3147 35.8813 25.1747 33.6693L25.6653 31.292C26.048 27.888 28.3733 24.88 31.3547 23.1947C34.336 21.5093 37.888 21.0413 41.3027 21.3667C45.1027 21.7293 48.9867 23.1733 51.3547 26.1667C53.7227 29.16 54.0653 33.9 51.424 36.656L47.7013 39.3427C49.2307 37.9987 50.1307 37.8187 51.1347 38.3253C52.564 39.0467 52.7787 40.572 52.468 41.8533C52.132 43.2667 51.236 44.4853 50.0867 45.3533C49.5067 45.784 48.8747 46.1427 48.2067 46.42C47.8787 46.5587 47.544 46.6813 47.204 46.788C46.8213 46.9093 46.4347 46.9053 46.2547 47.2787C45.4627 48.9293 45.1253 50.3627 45.28 52.1867" fill="rgb(255, 255, 255)" class="skin"></path>
<path d="M45.0853 20.108C45.532 19.3213 46.1653 18.6573 46.9293 18.1733C47.6933 17.6893 48.564 17.4013 49.4667 17.3333C53.0667 17.0667 56.8 18.6667 58.5333 22C59.7333 24.2667 60.5333 26.5333 60.6667 28.9333C60.8227 30.532 60.7773 32.1453 60.5333 33.7333C60.1333 36.8 59.0667 39.4667 58.1333 42.4C57.3333 45.2 57.3333 48.2667 58.8 50.8C58.9333 50.9333 58.9333 51.2 58.9333 51.3333C59.2 52 59.7333 52.6667 59.7333 53.4667C58.4 55.2 55.8667 54 54.4 52.9333C52.6667 51.7333 51.4667 50.1333 50.6667 48.2667C50.4 47.3333 49.8667 46.2667 50.4 45.3333C50.8 44.5333 51.8667 44.2667 52.1333 43.3333C52.4 42.4 52.9333 41.6 52.8 40.5333C52.5333 39.3333 52 38.1333 50.6667 37.8667C50.24 37.8053 49.804 37.86 49.4053 38.024C49.0067 38.188 48.6587 38.456 48.4 38.8C48.2667 38.9333 48.1333 38.8 48 38.9333C47.0667 40.1333 45.2 41.0667 44 39.8667C42.9333 38.6667 43.3333 37.0667 43.6 35.7333C44 32.2667 41.3333 27.7333 37.4667 28.2667C36.8 28.4 36.1333 28.6667 35.4667 28.5333C33.2973 27.8987 30.9707 28.0893 28.9333 29.0667C28.6667 29.3333 28.4 29.4667 28 29.7333C27.2 30.2667 26.6667 30.9333 26.1333 31.7333C25.7333 32.4 25.3333 32.8 24.9333 33.4667C24.5333 34.2667 24.8 35.2 24.5333 35.972C24.5307 35.8947 24.5533 35.82 24.596 35.756C24.5893 35.8307 24.568 35.9053 24.5333 35.972C24.4333 35.856 24 35.4293 24.08 35.264C24.2293 34.948 24.5773 35.776 24.5333 35.972C23.3027 34.3547 23.3653 32.2253 23.7893 30.3373C24.2667 28.2667 24.9333 26.1333 26.6667 24.5333C28.2667 23.0667 30.2667 22.5333 32.1333 21.4667C32.4 21.3333 32.5333 21.0667 32.8 20.9333C36.6667 19.0667 40.9333 19.0667 44.8733 20.304L45.0853 20.108Z" fill="rgb(0, 0, 0)" class="head"></path>
<path d="M45.3653 41.0427C45.06 41.0427 44.7547 41.0027 44.456 40.9213C44.008 40.792 43.6067 40.5573 43.284 40.2373C42.9613 39.9173 42.724 39.5173 42.596 39.0827C42.5933 39.0733 42.5907 39.0627 42.588 39.0533C42.4293 38.4267 42.5387 37.8347 42.6347 37.312C42.6493 37.2293 42.6653 37.148 42.6787 37.0667C42.8893 35.7533 42.7587 34.3893 42.3027 33.1307C41.8467 31.872 41.072 30.7427 40.0627 29.8627C39.4973 29.3813 38.632 28.8227 37.7627 28.924C37.5427 28.9493 37.3013 29.0213 37.0467 29.096C36.648 29.2133 36.196 29.3507 35.692 29.3427C35.1067 29.3373 34.5893 29.1467 34.132 28.9773C33.8507 28.8733 33.584 28.7747 33.3347 28.732C32.552 28.596 31.6907 28.956 30.728 29.404C28.9547 30.2293 27.3053 31.092 26.6093 32.5533C26.42 32.952 25.9413 33.1213 25.5427 32.932C25.144 32.7427 24.9747 32.2653 25.164 31.8653C26.088 29.924 28.0027 28.9067 30.0507 27.9533C30.9853 27.5187 32.264 26.9227 33.608 27.156C34 27.2253 34.348 27.3533 34.684 27.4773C35.0507 27.6133 35.3973 27.74 35.7053 27.7427C35.9653 27.7467 36.272 27.656 36.592 27.5613C36.8853 27.4747 37.2187 27.376 37.5747 27.3347C38.716 27.2013 39.9373 27.6573 41.104 28.6507C42.324 29.7147 43.256 31.072 43.804 32.5853C44.352 34.0987 44.508 35.7387 44.2547 37.328C44.2387 37.4253 44.2213 37.5147 44.2053 37.604C44.1333 37.9933 44.0653 38.3613 44.1333 38.6467C44.1867 38.8187 44.2827 38.9773 44.4107 39.104C44.5427 39.2347 44.7067 39.3307 44.884 39.3827C45.3093 39.4973 45.7747 39.4547 46.1813 39.2573C46.58 39.0653 47.0573 39.232 47.2493 39.6307C47.4413 40.028 47.2747 40.5067 46.876 40.6987C46.4027 40.9253 45.8853 41.0427 45.3653 41.0427Z" fill="rgb(0, 0, 0)" class="stroke"></path>
<path d="M24.1053 36.2787C23.7973 36.2787 23.5027 36.1 23.372 35.7986C21.8373 32.2866 23.3587 28.4533 24.404 26.48C25.02 25.316 26.032 23.6706 27.7093 22.8386C28.0613 22.664 28.4133 22.5387 28.7533 22.4173C28.9867 22.3347 29.2067 22.256 29.416 22.1653C30.0147 21.9067 30.5733 21.5333 31.1653 21.1373C31.5133 20.904 31.8733 20.664 32.2493 20.4427C34.304 19.2387 36.848 18.6373 39.6067 18.7013C41.7787 18.7533 44.096 19.1946 46.8973 20.0893C47.3187 20.224 47.5507 20.6747 47.416 21.0947C47.2813 21.516 46.832 21.748 46.4107 21.6133C43.7573 20.7653 41.584 20.348 39.568 20.3C37.1067 20.2413 34.8547 20.768 33.0587 21.8213C32.724 22.0187 32.3987 22.236 32.0547 22.4653C31.4293 22.884 30.7827 23.316 30.0493 23.6333C29.792 23.744 29.5373 23.8346 29.2907 23.9226C28.98 24.0333 28.6853 24.1386 28.4187 24.2706C27.4587 24.7466 26.632 25.6867 25.8173 27.2267C24.908 28.9453 23.572 32.26 24.8373 35.156C25.0147 35.5613 24.8293 36.032 24.4253 36.2093C24.3213 36.2573 24.2133 36.2787 24.1053 36.2787Z" fill="rgb(0, 0, 0)" class="stroke"></path>
<path d="M52.852 42.6667C52.5107 42.6667 52.1933 42.4466 52.088 42.1026C51.9573 41.68 52.1947 41.232 52.616 41.1026C54.2147 40.6093 54.8347 38.56 55.0267 37.7026C55.9133 33.7573 54.6107 29.3893 51.7093 26.5746C51.392 26.2666 51.384 25.76 51.692 25.444C52 25.1266 52.5053 25.1186 52.8227 25.4266C56.116 28.6213 57.5933 33.5773 56.588 38.0533C56.052 40.4413 54.776 42.1106 53.088 42.632C53.0093 42.656 52.9293 42.6667 52.852 42.6667Z" fill="rgb(0, 0, 0)" class="stroke"></path>
<path d="M58.4987 54.9893C58.448 54.9893 58.396 54.988 58.3427 54.9867C56.044 54.8933 53.7613 53.712 52.0747 51.7453C50.6827 50.1213 49.8413 48.3493 49.2613 45.82C49.1627 45.3893 49.432 44.96 49.8627 44.8613C50.2933 44.7627 50.7227 45.032 50.8213 45.4627C51.34 47.724 52.0787 49.2907 53.2907 50.7053C54.688 52.336 56.5533 53.3133 58.4067 53.3893C58.856 53.4067 58.9573 53.3067 58.9573 53.3067C58.9693 53.2587 58.9613 53.0653 58.5587 52.4293C57.1747 50.2267 56.5733 47.592 56.8613 45.0093C57.0507 43.3467 57.5987 41.78 58.128 40.2653C58.3093 39.7453 58.4973 39.208 58.6653 38.6813C60.6147 32.5613 60.1547 26.4813 57.4027 21.9973C56.8587 21.1133 56.3427 20.4827 55.776 20.0107C54.932 19.3093 53.7867 18.8053 52.1707 18.4267C51.18 18.1947 49.888 17.9653 48.6893 18.2467C48.076 18.3947 47.508 18.668 47.004 19.0573C46.5 19.4467 46.0933 19.928 45.792 20.488C45.5827 20.8773 45.0973 21.0227 44.708 20.8133C44.3187 20.604 44.1733 20.1187 44.3827 19.7293C44.7907 18.9693 45.344 18.3173 46.0267 17.7893C46.7093 17.2613 47.4813 16.892 48.3187 16.6893C49.8453 16.3307 51.3747 16.596 52.536 16.868C53.712 17.144 55.432 17.6413 56.8 18.78C57.504 19.3653 58.1293 20.1213 58.7667 21.1587C61.7627 26.04 62.2813 32.6027 60.1907 39.1653C60.016 39.7133 59.824 40.2613 59.64 40.792C59.116 42.2893 58.6227 43.704 58.4533 45.1867C58.2053 47.4093 58.724 49.6787 59.9147 51.5747C60.228 52.0707 60.9667 53.2387 60.2613 54.236C59.896 54.7373 59.3053 54.9893 58.4987 54.9893Z" fill="rgb(0, 0, 0)" class="stroke"></path>
<path d="M45.2787 52.3187C44.868 52.3187 44.5173 52.0027 44.4827 51.5853C44.3133 49.5773 44.704 48.6573 45.5333 46.9307C45.8373 46.3 46.412 46.1613 46.756 46.0787C46.8307 46.06 46.9013 46.044 46.9627 46.024C47.28 45.924 47.5933 45.8093 47.896 45.6813C48.508 45.428 49.0827 45.1013 49.6107 44.7093C50.6747 43.9053 51.416 42.8227 51.6907 41.6667C51.832 41.084 52.024 39.668 50.7747 39.0373C50.2293 38.7613 49.6947 38.6533 48.2293 39.9413C47.8973 40.2333 47.392 40.2 47.1 39.868C46.808 39.536 46.8413 39.0307 47.1733 38.7387C49.2773 36.8893 50.4947 37.1027 51.4947 37.608C53.0467 38.392 53.7173 40.0893 53.2453 42.0387C52.8853 43.5533 51.9347 44.9573 50.5693 45.988C49.932 46.4613 49.2413 46.8533 48.5133 47.1547C48.168 47.3 47.8067 47.4333 47.4427 47.5467C47.332 47.5813 47.2253 47.608 47.132 47.6307C47.0733 47.6453 46.9973 47.6627 46.948 47.6787C46.1813 49.2787 45.944 49.88 46.0773 51.448C46.1147 51.888 45.788 52.276 45.348 52.312C45.324 52.3173 45.3013 52.3187 45.2787 52.3187Z" fill="rgb(0, 0, 0)" class="stroke"></path>
<path d="M35.884 53.4986C35.4587 53.4986 35.1053 53.164 35.0853 52.7347C35.0427 51.796 35.0333 51.324 35.06 50.68C33.4573 50.9893 31.8253 50.7053 30.5667 50.4853C28.5333 50.1267 26.9533 49.4027 25.736 48.2707C23.4987 46.1867 22.4547 42.808 22.8707 38.9986C23.0267 37.5866 23.608 35.4853 24.428 33.3773C24.588 32.9653 25.052 32.7613 25.464 32.9213C25.876 33.0813 26.08 33.5453 25.92 33.9573C25.0107 36.296 24.5707 38.1853 24.4613 39.1733C24.1 42.4733 24.9613 45.3626 26.8267 47.0986C27.824 48.0267 29.1 48.6013 30.8427 48.908C32.624 49.2187 34.2133 49.428 35.62 48.8533C35.8747 48.7493 36.1653 48.784 36.3893 48.944C36.6133 49.1053 36.7387 49.3693 36.7213 49.644C36.636 50.9853 36.6213 51.2813 36.6853 52.6573C36.7053 53.0987 36.364 53.4733 35.9227 53.4933C35.9093 53.4987 35.8973 53.4986 35.884 53.4986Z" fill="rgb(0, 0, 0)" class="stroke"></path>
<path d="M29.124 37.3467C29.6395 37.3467 30.0573 36.8393 30.0573 36.2134C30.0573 35.5874 29.6395 35.08 29.124 35.08C28.6085 35.08 28.1907 35.5874 28.1907 36.2134C28.1907 36.8393 28.6085 37.3467 29.124 37.3467Z" fill="black"></path>
<path d="M33.6573 37.66C34.1728 37.66 34.5907 37.1526 34.5907 36.5267C34.5907 35.9008 34.1728 35.3933 33.6573 35.3933C33.1419 35.3933 32.724 35.9008 32.724 36.5267C32.724 37.1526 33.1419 37.66 33.6573 37.66Z" fill="black"></path>
</svg>