<svg xmlns="http://www.w3.org/2000/svg" viewBox="0 0 80 80" fill="none">
<path d="M45.2667 52.3333C45.1147 50.508 45.472 48.932 46.2667 47.2813C46.4467 46.908 46.8333 46.912 47.216 46.7907C47.556 46.684 47.8893 46.5613 48.2187 46.4227C48.8867 46.1453 49.5187 45.7867 50.0987 45.356C51.248 44.488 52.144 43.2693 52.48 41.856C52.7853 40.5747 52.5707 39.0493 51.1467 38.328C50.1427 37.8213 49.2427 38.0013 47.7133 39.3453L46.5973 38.5733C46.0973 38.916 45.4387 38.392 45.1773 37.8453C44.504 36.436 44.8373 34.7787 45.184 33.2533C44.384 34.116 42.928 34.2533 41.984 33.5547C41.332 33.0707 40.964 32.2787 40.828 31.4787C40.692 30.6787 40.7627 29.8587 40.84 29.0507C40.0293 30.6 38.5667 31.6347 36.9813 31.8093C36.1853 31.8893 35.3813 31.7693 34.6427 31.4613C33.904 31.1533 33.2533 30.6667 32.7493 30.0453C32.5533 30.6 32.2293 31.1013 31.8067 31.5107C31.3827 31.92 30.8707 32.224 30.3093 32.4C29.748 32.576 29.1533 32.62 28.572 32.528C27.9907 32.436 27.4387 32.2093 26.96 31.8667L26.7173 32.308L25.176 33.6667C24.316 35.8787 23.7987 37.876 23.668 39.0853C23.3387 42.1307 23.9533 45.5147 26.2827 47.684C27.524 48.8387 29.0613 49.4067 30.7053 49.696C32.42 49.9987 34.26 50.2747 35.924 49.5947C35.836 50.9827 35.86 52.2107 35.924 53.6" fill="rgb(255, 255, 255)" class="skin"></path>
<path d="M46.4 49.7773C47.2 50 48 50.6667 48.1333 51.4667C48.5333 54.6667 48.4 57.7333 48 60.9333C47.7333 63.4667 47.2 63.972 47.0667 66.5053C46.8 68.2387 47.04 68.7027 47.3067 70.5693C47.5733 72.3027 48.1067 73.9027 49.1733 75.3693C50.64 77.236 52.24 78.036 54.7733 78.036C56.3733 77.1027 55.44 76.436 54.7733 75.236C54.1307 73.6627 54.084 71.908 54.64 70.3027C55.7067 66.836 56.9387 66.9333 57.2053 63.3333C57.344 62.0747 57.208 60.8013 56.8053 59.6C56.4053 58.8 56.272 58 55.7387 57.2C54.9387 56.2667 54.4053 55.3333 53.7387 54.2667C53.072 53.2 52.5387 52.1333 52.672 50.9333C52.9387 49.3333 54.272 48.2667 55.3387 46.9333C55.7693 46.3773 56.1707 45.7987 56.5387 45.2C56.672 44.9333 56.8053 44.5333 56.9387 44.2667C57.2053 43.6 57.3387 42.8 57.472 42.1333C57.472 39.0667 57.6053 36 56.672 33.0667C55.7387 30.2667 54.272 27.8667 52.5387 25.4667C52.1387 24.9333 51.7387 24.5333 51.3387 24C50.672 23.4667 49.872 22.8 49.072 22.4C47.7387 21.8667 46.4053 22.1333 45.072 21.8667C44.4053 21.6 43.7387 21.4667 43.3387 20.9333C42.5387 19.8667 41.872 18.5333 40.5387 18.4C39.7387 18.4 39.072 18.2667 38.272 18.4C35.872 19.0667 33.6053 19.8667 31.2053 20C27.872 20.1333 25.072 22.5333 23.6053 25.4667L23.2053 25.8667C21.872 28.6667 20.0053 31.3333 19.7387 34.4C19.472 36.9333 19.3387 39.7333 21.072 41.8667C22.0053 42.4 22.9387 42.9333 23.9373 43.5467C23.4787 41.4853 23.4653 43.268 23.9373 43.5467C23.496 41.48 23.5053 39.3427 23.9667 37.28C24.1933 36.2467 24.5133 35.236 24.9227 34.26C25.16 33.6947 25.3787 33.4987 25.8307 33.1013C26.2827 32.704 26.6733 32.4027 26.964 31.8747C28.9853 33.3067 31.9147 32.3787 32.744 30.0467C34.3853 32.1093 37.4467 32.3907 39.4667 30.7387C40.032 30.2747 40.4973 29.7 40.8347 29.052C40.6933 30.5293 40.588 32.3333 41.8133 33.4213C42.7467 34.2547 44.324 34.1813 45.1773 33.2547C44.9413 34.292 44.708 35.364 44.8013 36.4347C44.8 37.4667 45.4667 38.8 46.8 38.6667C47.2 38.6667 47.3333 39.2 47.7333 39.3333C47.8667 39.3333 48 39.0667 48.1333 38.9333C48.8 38.4 49.6 38 50.5333 38.1333C51.044 38.1907 51.52 38.42 51.884 38.7827C52.248 39.1467 52.476 39.6227 52.5333 40.1333C52.9333 42.8 51.0667 44.9333 48.9333 46.1333C48.6667 46.2667 48.2667 46.4 48 46.5333C47.4667 46.6667 46.9333 46.6667 46.5333 46.9333C45.8667 47.4667 45.8667 48.2667 45.592 49.092L46.4 49.7773Z" fill="rgb(0, 0, 0)" class="head"></path>
<path d="M54.4187 78.876C53.9453 78.876 53.5173 78.7133 53.1507 78.544C50.368 77.2707 48.312 76.144 47.2213 73.24C46.2027 70.5307 45.8 68.7133 46.264 65.7187C46.4187 64.7227 46.5667 64.244 46.7107 63.7827C46.8413 63.3613 46.9653 62.964 47.1053 62.112C47.588 59.164 47.5187 56.1293 47.4507 53.1933C47.436 52.5613 47.4213 51.908 47.2067 51.3827C47.0253 50.9373 46.6627 50.6053 46.3253 50.5747C45.8853 50.5333 45.5613 50.144 45.6027 49.704C45.6427 49.264 46.032 48.9413 46.4733 48.9813C47.4227 49.0693 48.2707 49.7573 48.688 50.7773C49.0147 51.576 49.0333 52.416 49.0493 53.156C49.1187 56.164 49.1893 59.276 48.6827 62.3693C48.5253 63.332 48.3787 63.8013 48.2373 64.256C48.1053 64.6813 47.98 65.084 47.844 65.9613C47.432 68.62 47.7813 70.1813 48.7187 72.6747C49.596 75.0107 51.3067 75.9387 53.8173 77.0867C54.0347 77.1867 54.3053 77.296 54.4813 77.268C54.608 77.248 54.7253 77.236 54.832 77.228C54.7293 76.9 54.56 76.568 54.384 76.2227C54.2453 75.9507 54.1013 75.668 53.9787 75.3667C53.4027 73.9507 53.3387 72.216 53.7947 70.3493C54.0947 69.1227 54.5707 67.96 55.0307 66.836C55.156 66.532 55.28 66.228 55.4013 65.9227L55.5987 65.4307C56.7373 62.584 56.9427 62.072 55.8027 59.1987C55.38 58.1333 54.7307 57.1733 54.0427 56.156C53.364 55.152 52.6613 54.1133 52.1773 52.944C51.7293 51.8613 51.872 50.4867 52.2427 49.6893C52.692 48.728 53.3587 47.94 54.004 47.1787C54.316 46.8107 54.6093 46.4627 54.8787 46.1C55.3507 45.4613 55.84 44.8027 56.1413 44.1053C56.7373 42.728 56.6813 41.056 56.6307 39.5827C56.564 37.5733 56.4947 35.496 55.9387 33.5653C55.3867 31.6467 54.3133 29.8107 53.2627 28.0947C52.46 26.7867 51.6533 25.532 50.62 24.5507C49.508 23.4947 48.232 22.892 47.0267 22.8507C46.5853 22.836 46.2387 22.4653 46.2533 22.024C46.268 21.5827 46.64 21.236 47.08 21.252C48.6773 21.3053 50.3253 22.0653 51.7213 23.3893C52.896 24.504 53.7667 25.856 54.6267 27.2573C55.736 29.068 56.868 31.0107 57.476 33.1213C58.0867 35.244 58.16 37.4227 58.2293 39.528C58.2853 41.1707 58.348 43.0333 57.6093 44.74C57.2347 45.6067 56.6907 46.3413 56.1653 47.052C55.8667 47.4573 55.5413 47.8413 55.2267 48.2133C54.6227 48.9267 54.052 49.6 53.6947 50.3667C53.5053 50.772 53.388 51.6813 53.6573 52.3333C54.08 53.3533 54.7067 54.28 55.3693 55.2613C56.0747 56.3053 56.804 57.384 57.2907 58.6107C58.6667 62.076 58.268 63.072 57.0853 66.028L56.8907 66.516C56.768 66.8253 56.6413 67.136 56.5133 67.4453C56.0547 68.564 55.6213 69.62 55.3507 70.7307C55.0893 71.8027 54.896 73.3733 55.4627 74.764C55.56 75.004 55.6827 75.244 55.812 75.4987C56.0853 76.036 56.368 76.5907 56.484 77.2547C56.524 77.48 56.616 78.0093 56.2827 78.416C55.968 78.7987 55.528 78.808 55.2053 78.816C55.0587 78.8187 54.9067 78.8227 54.736 78.8493C54.6267 78.868 54.5213 78.876 54.4187 78.876Z" fill="rgb(0, 0, 0)" class="stroke"></path>
<path d="M46.2373 39.4773C46.108 39.4773 45.976 39.46 45.844 39.4253C45.1693 39.2453 44.68 38.6707 44.4467 38.1933C43.908 37.0667 43.9107 35.8427 44.0667 34.7293C43.1853 34.9107 42.2333 34.7413 41.496 34.1947C40.736 33.6307 40.2147 32.7133 40.028 31.6107C40.0133 31.5213 40 31.432 39.9893 31.3427C39.1467 32.04 38.1347 32.484 37.0573 32.6027C36.124 32.696 35.1813 32.556 34.3227 32.1987C33.8267 31.992 33.3627 31.7147 32.9467 31.3773C32.772 31.6307 32.5733 31.868 32.352 32.0813C31.8427 32.5733 31.2173 32.9453 30.544 33.1587C29.8693 33.372 29.1427 33.4267 28.4453 33.3173C28.02 33.2507 27.6027 33.1227 27.212 32.9413C26.9667 33.1347 26.62 33.1747 26.3293 33.0147C25.9427 32.8013 25.8013 32.3147 26.0133 31.928L26.256 31.4867C26.3653 31.2867 26.556 31.144 26.7787 31.092C27.0013 31.0413 27.2347 31.088 27.42 31.22C27.796 31.4867 28.236 31.6653 28.692 31.7373C29.148 31.8093 29.6213 31.7733 30.0613 31.6333C30.5013 31.4947 30.9093 31.2507 31.24 30.9307C31.572 30.6107 31.8293 30.2107 31.9827 29.776C32.08 29.5027 32.316 29.304 32.6013 29.2547C32.8853 29.2053 33.176 29.3147 33.3587 29.54C33.7773 30.0573 34.324 30.4653 34.9387 30.7213C35.5533 30.9773 36.2267 31.0773 36.8893 31.0107C38.2013 30.8667 39.4413 29.972 40.1187 28.6773C40.296 28.3387 40.688 28.172 41.056 28.2813C41.4227 28.3907 41.6613 28.744 41.624 29.124C41.5427 29.9693 41.4907 30.6693 41.604 31.3413C41.672 31.744 41.8733 32.4827 42.448 32.9093C43.0627 33.3653 44.0613 33.2707 44.584 32.7067C44.8307 32.4413 45.224 32.3747 45.544 32.5427C45.864 32.712 46.0307 33.0747 45.9507 33.428C45.596 34.9867 45.3467 36.368 45.8853 37.4973C45.9733 37.6773 46.124 37.8133 46.212 37.8613C46.568 37.6747 47.0147 37.7813 47.2453 38.1213C47.4933 38.4867 47.3973 38.984 47.032 39.232C46.796 39.3933 46.5213 39.4773 46.2373 39.4773Z" fill="rgb(0, 0, 0)" class="stroke"></path>
<path d="M22.052 43.2347C21.9707 43.2347 21.888 43.2227 21.8053 43.196C20.3827 42.736 19.4213 41.3227 19.0267 39.1093C18.616 36.816 18.6693 34.6827 19.1827 32.7693C19.5733 31.3187 20.2133 30.0027 20.9467 28.5547C21.9387 26.5773 22.9653 24.5293 24.4573 22.7787C26.184 20.7533 28.3187 19.4707 30.468 19.1667C31.0133 19.088 31.5533 19.0693 32.076 19.0533C32.556 19.0373 33.0093 19.0227 33.452 18.9627C34.2627 18.852 35.0547 18.5867 35.8933 18.3053C36.6293 18.0587 37.392 17.8027 38.1907 17.6507C40.0747 17.2933 42.428 17.7333 43.4373 19.524C43.6547 19.9093 43.5173 20.3973 43.1333 20.6133C42.748 20.8307 42.26 20.6933 42.044 20.3093C41.428 19.216 39.7693 18.98 38.4907 19.2227C37.7987 19.3533 37.1213 19.5813 36.404 19.8227C35.532 20.116 34.6307 20.4187 33.6693 20.548C33.1467 20.6187 32.6307 20.636 32.132 20.652C31.6307 20.668 31.1573 20.684 30.6987 20.7507C28.9333 21 27.152 22.0893 25.68 23.816C24.3133 25.4187 23.3307 27.3787 22.3813 29.2747C21.6867 30.6453 21.084 31.8827 20.7333 33.184C20.2813 34.868 20.2387 36.7667 20.6067 38.8267C20.8053 39.94 21.2613 41.336 22.3027 41.6733C22.7227 41.8093 22.9533 42.26 22.8173 42.68C22.704 43.02 22.3893 43.2347 22.052 43.2347Z" fill="rgb(0, 0, 0)" class="stroke"></path>
<path d="M45.2787 52.3187C44.868 52.3187 44.5173 52.0027 44.4827 51.5853C44.3133 49.5773 44.704 48.6573 45.5333 46.9307C45.8373 46.3 46.412 46.1613 46.756 46.0787C46.8307 46.06 46.9013 46.044 46.9627 46.024C47.28 45.924 47.5933 45.8093 47.896 45.6813C48.508 45.428 49.0827 45.1013 49.6107 44.7093C50.6747 43.9053 51.416 42.8227 51.6907 41.6667C51.832 41.084 52.024 39.668 50.7747 39.0373C50.2293 38.7613 49.6947 38.6533 48.2293 39.9413C47.8973 40.2333 47.392 40.2 47.1 39.868C46.808 39.536 46.8413 39.0307 47.1733 38.7387C49.2773 36.8893 50.4947 37.1027 51.4947 37.608C53.0467 38.392 53.7173 40.0893 53.2453 42.0387C52.8853 43.5533 51.9347 44.9573 50.5693 45.988C49.932 46.4613 49.2413 46.8533 48.5133 47.1547C48.168 47.3 47.8067 47.4333 47.4427 47.5467C47.332 47.5813 47.2253 47.608 47.132 47.6307C47.0733 47.6453 46.9973 47.6627 46.948 47.6787C46.1813 49.2787 45.944 49.88 46.0773 51.448C46.1147 51.888 45.788 52.276 45.348 52.312C45.324 52.3173 45.3013 52.3187 45.2787 52.3187Z" fill="rgb(0, 0, 0)" class="stroke"></path>
<path d="M35.884 53.4987C35.4587 53.4987 35.1053 53.164 35.0853 52.7347C35.0427 51.796 35.0333 51.324 35.06 50.68C33.4573 50.9893 31.8253 50.7053 30.5667 50.4853C28.5333 50.1267 26.9533 49.4027 25.736 48.2707C23.4987 46.1867 22.4547 42.808 22.8707 38.9987C23.0267 37.5867 23.608 35.4853 24.428 33.3773C24.588 32.9653 25.052 32.7613 25.464 32.9213C25.876 33.0813 26.08 33.5453 25.92 33.9573C25.0107 36.296 24.5707 38.1853 24.4613 39.1733C24.1 42.4733 24.9613 45.3627 26.8267 47.0987C27.824 48.0267 29.1 48.6013 30.8427 48.908C32.624 49.2187 34.2133 49.428 35.62 48.8533C35.8747 48.7493 36.1653 48.784 36.3893 48.944C36.6133 49.1053 36.7387 49.3693 36.7213 49.644C36.636 50.9853 36.6213 51.2813 36.6853 52.6573C36.7053 53.0987 36.364 53.4733 35.9227 53.4933C35.9093 53.4987 35.8973 53.4987 35.884 53.4987Z" fill="rgb(0, 0, 0)" class="stroke"></path>
<path d="M29.124 37.3467C29.6395 37.3467 30.0573 36.8393 30.0573 36.2134C30.0573 35.5874 29.6395 35.08 29.124 35.08C28.6085 35.08 28.1907 35.5874 28.1907 36.2134C28.1907 36.8393 28.6085 37.3467 29.124 37.3467Z" fill="black"></path>
<path d="M33.6573 37.66C34.1728 37.66 34.5907 37.1526 34.5907 36.5267C34.5907 35.9008 34.1728 35.3933 33.6573 35.3933C33.1419 35.3933 32.724 35.9008 32.724 36.5267C32.724 37.1526 33.1419 37.66 33.6573 37.66Z" fill="black"></path>
</svg>