<svg xmlns="http://www.w3.org/2000/svg" viewBox="0 0 80 80" fill="none">
<path d="M35.9227 53.4667C35.8587 52.0773 35.8347 51.128 35.9227 49.74C34.2587 50.42 32.4187 50.14 30.704 49.8413C29.06 49.552 27.5227 48.984 26.2813 47.8293C23.952 45.66 23.3333 42.276 23.6667 39.2307C23.8 38.0214 24.3147 35.8813 25.1747 33.6693L26.524 32.9733C27.3653 33.2053 28.256 33.192 29.0893 32.9333C29.9227 32.6747 30.6653 32.1827 31.2267 31.5147C31.5 31.1787 31.7533 30.7814 32.16 30.6467C32.8067 30.4347 33.428 30.968 34.0147 31.3134C35.428 32.144 37.272 31.9187 38.7213 31.1507C40.1707 30.3827 41.3107 29.1507 42.4107 27.9333C42.072 29.5453 41.8 30.9 41.528 32.2533C41.4027 32.8733 41.2787 33.5187 41.4267 34.1347C41.5747 34.7507 42.0747 35.3347 42.708 35.352C42.8973 35.3587 43.1187 35.328 43.2413 35.4693C43.3133 35.5747 43.348 35.7013 43.3413 35.8293C43.452 37.5133 44.8373 39.0293 46.504 39.296L47.692 39.4907C49.2213 38.1467 50.1213 37.9667 51.1253 38.4733C52.5547 39.1947 52.7693 40.72 52.4587 42.0014C52.1227 43.4147 51.2267 44.6334 50.0773 45.5014C49.4973 45.932 48.8653 46.2907 48.1973 46.568C47.8693 46.7067 47.5347 46.8293 47.1947 46.936C46.812 47.0573 46.4253 47.0534 46.2453 47.4267C45.4533 49.0774 45.116 50.5107 45.2707 52.3347" fill="rgb(255, 255, 255)" class="skin"></path>
<path d="M29.1773 65.1227C29.616 63.5213 28.732 62.312 28.0773 60.7707C26.6059 57.2987 28.7981 53.4129 31.0885 50.0691L33.5357 50.1208C35.2868 53.1898 33.7981 55.5525 34.0187 58.66C34.2787 62.324 33.7587 65.8333 30.7227 68.2973C30.1253 68.7853 29.1147 69.868 28.5907 69.3133C28.4427 69.1387 28.3547 68.9293 28.34 68.7107C28.1907 67.4493 28.8373 66.3547 29.1773 65.1227Z" fill="rgb(0, 0, 0)" class="head"></path>
<path d="M45.5146 48.9693C46 48.1333 46.2666 47.2 47.0666 46.9333C49.4666 46.1333 51.6 44.8 52.5333 42.5333C53.0666 41.4667 52.9333 40.2667 52.2666 39.2C51.7333 38.2667 50.5333 37.8667 49.6 38.2667C48.5333 38.5333 47.6 39.7333 46.2666 39.4667C45.7586 39.3387 45.2826 39.108 44.8706 38.7853C44.4573 38.464 44.116 38.06 43.8666 37.6C43.4666 36.9333 43.6 36 43.2 35.3333C41.6 35.2 41.0666 33.6 41.3333 32.2667C41.6 30.6667 42.1333 29.2 42.416 27.7907C42.26 27.9947 42.1866 28.2507 42.212 28.5067C42.32 28.2813 42.3893 28.0387 42.416 27.7907C40.5333 30.5333 36.5333 33.3333 33.4666 30.6667C32 30 31.0666 31.4667 30.1333 32.4C29.2 33.2 27.8666 32.9333 26.8 32.9333C25.4666 32.9333 24.9333 34.1333 24.6666 35.2C23.7333 37.7333 23.3333 40.4 23.9173 42.9907C22.5333 42 21.8666 40.2667 21.7333 38.6667C21.4666 34.6667 22.5333 30.8 24.8 27.3333C25.8666 25.8667 26.9333 24.5333 28.5333 23.7333L28.9333 23.3333C30.1826 22.4293 31.5826 21.752 33.0666 21.3333C36.4 20.5333 40 19.3333 43.2 20.9333C43.6 21.2 43.8666 21.7333 44.4 21.8667C47.2 22.6667 49.8666 23.6 52 25.7333C53.7333 27.6 55.0666 29.7333 55.4666 32.2667C55.7333 34.4 55.7333 36.4 55.7333 38.5333C56 41.0667 56.9333 43.6 55.8666 46C55.6 46.6667 55.0666 47.2 54.5333 47.6C53.6 48.2667 52.8093 48.9467 51.7 49.4867C51.7493 49.4587 51.736 49.52 51.7 49.4867C53.8666 52 54.4 55.3333 53.7333 58.5333C53.2 60.6667 52.2666 62.6667 52 64.8C51.8666 66.1333 52.2666 67.3333 52.6666 68.5333C53.0666 69.8667 53.2 72 51.3333 72.1333C48.9333 71.2 47.3333 69.0667 46.2666 66.8C44.2666 62.6667 44.9333 58 46.2666 53.7333L46.4 53.2C46.8 51.8667 47.3333 50.6667 48.4786 49.9173C48.1573 50.104 47.6786 50.2653 48.4786 49.9173C48.0733 50.0867 47.6293 50.136 47.1973 50.0613C46.7653 49.9867 46.3626 49.7907 46.0373 49.496L45.5146 48.9693Z" fill="rgb(0, 0, 0)" class="head"></path>
<path d="M28.944 70.2667C28.4627 70.2667 28.1507 70.012 28.0094 69.8613C28 69.852 27.992 69.8427 27.984 69.8333C27.7267 69.5333 27.5734 69.1707 27.5427 68.7867C27.4214 67.7173 27.752 66.8 28.0734 65.912C28.1974 65.568 28.3147 65.244 28.4067 64.9107C28.6774 63.924 28.2774 63.0853 27.772 62.024C27.6294 61.7253 27.4827 61.416 27.3414 61.0853C25.8046 57.4601 27.7673 53.5172 29.9506 50.2L30.8 50L32.4 49.936L33.6 50.2L34.7106 50.6C35.4248 52.429 35.2087 54.0733 34.9974 55.68C34.8734 56.6213 34.7454 57.596 34.8174 58.604C35.2627 64.8747 32.9814 67.4933 31.2267 68.9173C31.1387 68.9893 31.04 69.076 30.9334 69.1693C30.6027 69.46 30.2267 69.7893 29.8254 70.0107C29.488 70.1987 29.1934 70.2667 28.944 70.2667ZM32.4 50.6602C32.0766 50.6181 31.5669 50.6602 31.5669 50.6602C31.5669 50.6602 27.5192 57.4046 28.8147 60.46C28.9414 60.7573 29.0814 61.052 29.216 61.336C29.7867 62.5347 30.3774 63.7733 29.9494 65.3347C29.8414 65.728 29.708 66.0973 29.5787 66.4547C29.3027 67.22 29.0627 67.884 29.1294 68.5693C29.3694 68.416 29.6974 68.128 29.8787 67.968C30 67.8613 30.1147 67.7613 30.2174 67.6773C32.5987 65.7453 33.524 62.9827 33.2214 58.7187C33.1387 57.548 33.2774 56.4933 33.4107 55.472C33.6288 53.807 33.0578 50.8 33.0578 50.8C33.0578 50.8 32.6663 50.6949 32.4 50.6602Z" fill="rgb(0, 0, 0)" class="stroke"></path>
<path d="M51.58 72.8827C50.7534 72.8827 50.0414 72.3987 49.76 72.208C46.852 70.2267 44.8467 66.6653 44.3934 62.6827C44.0254 59.4413 44.604 55.8307 46.1147 51.9507C46.272 51.5453 46.4454 51.1387 46.6574 50.7587C46.2294 50.624 45.8334 50.3987 45.4987 50.0933C45.172 49.796 45.1467 49.2907 45.444 48.9627C45.7414 48.636 46.2467 48.612 46.5747 48.908C46.7867 49.1013 47.0494 49.2293 47.332 49.2773C47.6147 49.3267 47.904 49.2933 48.1694 49.1827C48.5587 49.02 49.008 49.188 49.1947 49.5667C49.3814 49.9453 49.2427 50.404 48.8774 50.6147C48.3134 50.94 47.9614 51.6147 47.6067 52.5293C46.1907 56.1653 45.6454 59.52 45.984 62.5C46.3854 66.028 48.1334 69.1613 50.6614 70.884C51.1627 71.2253 51.5294 71.3467 51.748 71.2453C51.964 71.1453 52.1067 70.72 52.092 70.2107C52.0734 69.492 51.8774 68.7707 51.6694 68.0067C51.4694 67.2707 51.2627 66.5093 51.204 65.7013C51.0774 63.9893 51.6294 62.4013 52.1614 60.8653C52.3587 60.2987 52.544 59.7627 52.6987 59.2187C53.6854 55.7453 53.0734 52.2227 51.1014 50.0253C50.948 49.8547 50.876 49.628 50.9014 49.4C50.9267 49.172 51.0494 48.968 51.236 48.836C51.584 48.5907 51.9387 48.36 52.2814 48.136C53.432 47.3853 54.52 46.6747 55.072 45.6453C55.7974 44.292 55.536 42.6293 55.2574 40.8693C55.1854 40.4133 55.1107 39.94 55.056 39.476C54.932 38.404 54.916 37.3267 54.9 36.2853C54.8814 35.004 54.864 33.7947 54.6614 32.5987C53.9387 28.336 50.6734 24.632 46.536 23.3813C46.1134 23.2533 45.8734 22.8067 46.0014 22.384C46.1294 21.9613 46.576 21.7227 46.9987 21.8493C51.704 23.2707 55.4174 27.4827 56.2387 32.3307C56.4614 33.648 56.4814 34.976 56.5 36.2613C56.516 37.3093 56.5294 38.2987 56.6454 39.2893C56.6974 39.7213 56.7654 40.1573 56.8387 40.62C57.1454 42.564 57.4627 44.5747 56.4827 46.4013C55.7374 47.7907 54.4254 48.6467 53.156 49.4747C53.06 49.5373 52.9614 49.6013 52.864 49.6653C54.7427 52.268 55.2747 56.0027 54.2374 59.6533C54.0707 60.2413 53.868 60.824 53.672 61.3867C53.1707 62.8333 52.696 64.1987 52.7987 65.5827C52.8467 66.2373 53.024 66.892 53.212 67.5853C53.4347 68.4067 53.6654 69.256 53.6894 70.1653C53.7214 71.3653 53.2467 72.312 52.4174 72.696C52.1347 72.8307 51.852 72.8827 51.58 72.8827Z" fill="rgb(0, 0, 0)" class="stroke"></path>
<path d="M23.6667 43.4666C23.4947 43.4666 23.3227 43.412 23.176 43.2986C21.412 41.9253 21.0507 40.0333 20.9334 38.5373C20.7854 36.648 21.2 34.7747 21.6014 33.1667C21.936 31.816 22.332 30.3773 22.956 29.0253C24.3667 25.9627 26.9587 23.3587 30.2547 21.692C33.1467 20.2307 36.6267 19.4747 40.3147 19.508C43.4774 19.5267 44.356 20.7707 44.6454 21.18C44.9 21.5413 44.8147 22.04 44.4534 22.2947C44.092 22.5507 43.5934 22.464 43.3387 22.1027C42.872 21.4427 41.8787 21.1173 40.3027 21.108C36.8667 21.0773 33.6414 21.7733 30.976 23.1213C28.0014 24.6253 25.668 26.96 24.408 29.696C23.8387 30.928 23.468 32.2786 23.152 33.5533C22.7814 35.04 22.3974 36.764 22.5267 38.4133C22.6667 40.1946 23.1387 41.244 24.156 42.036C24.5054 42.308 24.568 42.8093 24.296 43.1586C24.14 43.36 23.904 43.4666 23.6667 43.4666Z" fill="rgb(0, 0, 0)" class="stroke"></path>
<path d="M46.5147 39.9467C46.4734 39.9467 46.4307 39.9427 46.3867 39.936C44.4227 39.6213 42.828 37.952 42.5774 35.9947C41.6774 35.9093 40.8974 35.1747 40.6574 34.1707C40.4654 33.3667 40.624 32.5787 40.752 31.9453C40.8587 31.4067 40.9667 30.8653 41.0814 30.3C40.488 30.8293 39.832 31.324 39.104 31.708C37.2427 32.6933 35.1414 32.748 33.6174 31.8533C33.504 31.7867 33.3894 31.7133 33.2734 31.64C32.968 31.4453 32.588 31.2013 32.4174 31.2573C32.2987 31.296 32.1254 31.5213 31.9854 31.7027C31.944 31.7573 31.9014 31.8107 31.86 31.864C31.856 31.8693 31.8507 31.8747 31.8467 31.88C31.1854 32.6667 30.316 33.244 29.3347 33.548C28.3534 33.852 27.3094 33.868 26.3187 33.5947C25.8934 33.4773 25.6427 33.036 25.7614 32.6107C25.8787 32.1853 26.32 31.936 26.7454 32.0533C27.44 32.2453 28.172 32.2347 28.86 32.0213C29.5454 31.8093 30.152 31.4067 30.6147 30.86C30.6494 30.8173 30.6827 30.7733 30.7174 30.728C30.9774 30.3907 31.3334 29.928 31.9214 29.7373C32.8107 29.4453 33.576 29.936 34.136 30.2933C34.2347 30.356 34.332 30.4187 34.4294 30.476C35.6827 31.212 37.2787 30.8653 38.356 30.296C39.6294 29.6213 40.6387 28.5627 41.8267 27.2493C42.0694 26.9813 42.4614 26.9093 42.7827 27.0733C43.1054 27.2373 43.2774 27.5973 43.2027 27.9507C42.8534 29.6133 42.5814 30.9427 42.3227 32.2613C42.22 32.7693 42.104 33.3413 42.2147 33.8027C42.2907 34.1227 42.5347 34.3987 42.7467 34.4067C42.7707 34.408 42.7947 34.408 42.8187 34.4067H42.82C43.0427 34.4067 43.504 34.4067 43.8467 34.7893C43.8707 34.816 43.892 34.844 43.912 34.8733C44.0694 35.1053 44.1534 35.384 44.1507 35.6653C44.2534 36.972 45.34 38.152 46.6387 38.36C47.0747 38.4293 47.372 38.84 47.3027 39.276C47.24 39.6667 46.9 39.9467 46.5147 39.9467Z" fill="rgb(0, 0, 0)" class="stroke"></path>
<path d="M45.2787 52.3187C44.868 52.3187 44.5174 52.004 44.4827 51.5867C44.3134 49.5787 44.704 48.6587 45.5334 46.932C45.8374 46.3013 46.412 46.1627 46.756 46.0787C46.8307 46.0613 46.9014 46.044 46.9627 46.024C47.28 45.924 47.5934 45.8093 47.896 45.6813C48.508 45.4267 49.0827 45.1013 49.6107 44.7093C50.6747 43.9053 51.416 42.824 51.6907 41.6667C51.832 41.084 52.024 39.668 50.7747 39.0373C50.2294 38.7613 49.6947 38.6533 48.2294 39.9413C47.8974 40.2333 47.392 40.2 47.1 39.868C46.808 39.536 46.8414 39.0307 47.1734 38.7387C49.2774 36.8893 50.4934 37.1027 51.4947 37.608C53.0467 38.392 53.7174 40.0893 53.2454 42.0387C52.8854 43.5533 51.9347 44.9573 50.568 45.988C49.9307 46.4613 49.24 46.8533 48.512 47.1547C48.168 47.3 47.8054 47.4333 47.4427 47.5467C47.3307 47.5827 47.2254 47.608 47.132 47.6307C47.072 47.6453 46.9974 47.6627 46.948 47.6787C46.1814 49.2787 45.944 49.88 46.0774 51.448C46.1147 51.888 45.788 52.276 45.348 52.312C45.324 52.3173 45.3014 52.3187 45.2787 52.3187Z" fill="rgb(0, 0, 0)" class="stroke"></path>
<path d="M35.8854 53.4987C35.46 53.4987 35.1067 53.164 35.0867 52.7347C35.044 51.796 35.0347 51.324 35.0614 50.68C33.4587 50.9893 31.8267 50.7053 30.568 50.4853C28.5347 50.128 26.9547 49.4027 25.7374 48.2707C23.5 46.1867 22.456 42.8067 22.872 38.9987C23.028 37.5867 23.6094 35.4853 24.4294 33.3773C24.5894 32.9653 25.0534 32.7613 25.4654 32.9213C25.8774 33.0813 26.0814 33.5453 25.9214 33.9573C25.012 36.296 24.572 38.1853 24.4627 39.1733C24.1014 42.4733 24.9627 45.3627 26.828 47.0987C27.8254 48.0267 29.1014 48.6013 30.844 48.908C32.6254 49.2187 34.2147 49.428 35.6214 48.8547C35.876 48.7507 36.1667 48.7853 36.3907 48.9453C36.6147 49.1067 36.74 49.3707 36.7227 49.6453C36.6374 50.9867 36.6227 51.2827 36.6867 52.6587C36.7067 53.1 36.3654 53.4747 35.924 53.4947C35.9094 53.4987 35.8974 53.4987 35.8854 53.4987Z" fill="rgb(0, 0, 0)" class="stroke"></path>
<path d="M29.124 37.3467C29.6395 37.3467 30.0573 36.8393 30.0573 36.2134C30.0573 35.5874 29.6395 35.08 29.124 35.08C28.6085 35.08 28.1907 35.5874 28.1907 36.2134C28.1907 36.8393 28.6085 37.3467 29.124 37.3467Z" fill="black"></path>
<path d="M33.6573 37.66C34.1728 37.66 34.5907 37.1526 34.5907 36.5267C34.5907 35.9008 34.1728 35.3933 33.6573 35.3933C33.1419 35.3933 32.724 35.9008 32.724 36.5267C32.724 37.1526 33.1419 37.66 33.6573 37.66Z" fill="black"></path>
</svg>