<svg xmlns="http://www.w3.org/2000/svg" viewBox="0 0 80 80" fill="none">
<path d="M22.376 39.312C21.1573 38.7627 20.4093 37.5053 19.9827 36.2453C18.804 32.756 19.548 28.7987 21.4333 25.6347C23.3187 22.4707 26.2453 20.0347 29.4333 18.18C31.9013 16.744 34.6333 15.6053 37.4907 15.5627C40.348 15.52 43.3387 16.74 44.852 19.1627L46.744 20.8293C49.144 20.4627 51.4813 21.7973 53.324 23.3787C55.5907 25.32 57.48 27.7467 58.5467 30.5333C59.6133 33.32 59.8147 36.476 58.844 39.2973C57.9613 41.8587 55.6907 44.2653 52.9893 44.0573" fill="rgb(0, 0, 0)" class="head"></path>
<path d="M35.8853 53.3654C35.8213 51.976 35.8347 50.9854 35.9227 49.5974C34.2587 50.2774 32.4187 49.9974 30.704 49.6987C29.06 49.4094 27.5227 48.8414 26.2813 47.6867C23.952 45.5174 23.3333 42.1334 23.6667 39.088C23.8 37.8787 24.3147 35.8814 25.1747 33.6694L26.196 32.2187C27.196 30.5734 28.448 29.0534 30.0293 27.952C31.6107 26.8507 33.5453 26.2027 35.4627 26.364C35.996 26.4094 36.5467 26.5227 36.9947 26.8227C37.4427 27.1227 37.776 27.6374 37.7373 28.1747L39.7533 29.3374C40.6107 28.752 41.872 29.204 42.4667 30.0614C43.0613 30.9187 43.1427 32.0174 43.1067 33.056C43.0707 34.0947 42.9373 35.1507 43.18 36.16C43.3893 36.9747 43.828 37.712 44.4453 38.284C45.0627 38.856 45.8307 39.2387 46.6587 39.3854L47.7013 39.3347C49.2307 37.9907 50.1307 37.8107 51.1347 38.3174C52.564 39.0387 52.7787 40.564 52.468 41.8454C52.132 43.2587 51.236 44.4774 50.0867 45.3454C49.5067 45.776 48.8747 46.1347 48.2067 46.412C47.8787 46.5507 47.544 46.6734 47.204 46.78C46.8213 46.9014 46.4347 46.8974 46.2547 47.2707C45.4627 48.9214 45.1253 50.488 45.28 52.312" fill="rgb(255, 255, 255)" class="skin"></path>
<path d="M46.66 40.192C46.6133 40.192 46.5667 40.188 46.5187 40.18C45.5373 40.0053 44.632 39.5547 43.9013 38.8773C43.1707 38.2 42.6533 37.3307 42.4053 36.3653C42.1827 35.4373 42.2307 34.5347 42.2773 33.66C42.288 33.4507 42.3 33.2427 42.3067 33.0347C42.3347 32.24 42.3027 31.236 41.8093 30.524C41.4653 30.028 40.672 29.6853 40.204 30.0053C39.8387 30.2547 39.3413 30.16 39.092 29.796C38.8427 29.4307 38.9373 28.9333 39.3013 28.684C40.3427 27.9733 42.1267 28.176 43.1227 29.6133C43.8853 30.712 43.9413 32.0493 43.9053 33.092C43.8973 33.3107 43.8867 33.5293 43.8747 33.748C43.832 34.5427 43.792 35.292 43.9573 35.9813C44.1253 36.6373 44.4827 37.2373 44.988 37.7067C45.4933 38.176 46.1187 38.4867 46.7973 38.608C47.232 38.6853 47.5227 39.1013 47.4453 39.536C47.3773 39.92 47.04 40.192 46.66 40.192Z" fill="rgb(0, 0, 0)" class="stroke"></path>
<path d="M26.1907 33.024C26.0493 33.024 25.9067 32.9867 25.7773 32.908C25.4 32.6787 25.2787 32.1867 25.508 31.8093C26.6813 29.8733 28.0467 28.356 29.5693 27.3C31.4173 26.0173 33.5333 25.404 35.5253 25.572C36.324 25.64 36.9307 25.8267 37.4333 26.1627C38.156 26.644 38.5867 27.4587 38.5307 28.2387C38.4987 28.68 38.1173 29.0107 37.6747 28.9787C37.2347 28.9467 36.9027 28.564 36.9347 28.1227C36.9493 27.9187 36.7867 27.6547 36.5467 27.4947C36.2813 27.3173 35.9027 27.2107 35.3907 27.168C33.7667 27.0307 32.0227 27.5453 30.48 28.616C29.144 29.544 27.9307 30.8973 26.8747 32.64C26.7253 32.8867 26.4613 33.024 26.1907 33.024Z" fill="rgb(0, 0, 0)" class="stroke"></path>
<path d="M53.3147 44.864C53.184 44.864 53.0547 44.8587 52.924 44.8493C52.484 44.816 52.1533 44.4307 52.188 43.9907C52.2213 43.5507 52.6067 43.2213 53.0467 43.2547C55.3387 43.432 57.3147 41.264 58.084 39.032C58.956 36.4973 58.8533 33.5787 57.796 30.8147C56.844 28.3293 55.1173 25.9653 52.8 23.9813C50.6507 22.1373 48.6533 21.3413 46.8613 21.6147C46.424 21.6813 46.016 21.3813 45.9493 20.9453C45.8827 20.5093 46.1827 20.1 46.6187 20.0333C48.8933 19.6853 51.3227 20.6053 53.84 22.7667C56.3573 24.9227 58.2427 27.508 59.2893 30.2427C60.4813 33.3573 60.5907 36.6627 59.596 39.5533C59.092 41.0147 58.2147 42.3493 57.124 43.312C55.9653 44.3307 54.656 44.8627 53.3147 44.864Z" fill="rgb(0, 0, 0)" class="stroke"></path>
<path d="M22.376 40.1053C22.2667 40.1053 22.1573 40.0827 22.0507 40.036C20.7933 39.476 19.8173 38.252 19.2253 36.4933C18.0427 33.0053 18.6107 28.7893 20.7427 25.2173C22.512 22.2533 25.3 19.6507 29.0267 17.4813C32.1107 15.6867 34.8733 14.796 37.4747 14.756C40.8707 14.704 43.9627 16.2267 45.5267 18.732C45.7613 19.1067 45.6467 19.6 45.272 19.8347C44.8973 20.0693 44.404 19.9547 44.1693 19.58C42.9187 17.5787 40.3027 16.3147 37.4987 16.356C35.18 16.392 32.672 17.212 29.832 18.8653C26.3413 20.8973 23.7453 23.3107 22.116 26.0387C20.22 29.2133 19.7053 32.9307 20.74 35.9827C21.0507 36.9067 21.6427 38.104 22.7013 38.576C23.1053 38.756 23.2867 39.228 23.1067 39.632C22.9747 39.928 22.6813 40.1053 22.376 40.1053Z" fill="rgb(0, 0, 0)" class="stroke"></path>
<path d="M45.2787 52.3187C44.868 52.3187 44.5173 52.004 44.4827 51.5853C44.3133 49.5773 44.704 48.6587 45.5333 46.9307C45.8373 46.3 46.412 46.1613 46.756 46.0787C46.8307 46.06 46.9013 46.044 46.9627 46.024C47.28 45.924 47.5933 45.8093 47.896 45.6813C48.508 45.428 49.0827 45.1013 49.6107 44.7093C50.6747 43.9053 51.416 42.824 51.6907 41.6667C51.832 41.084 52.024 39.668 50.7747 39.0373C50.2293 38.7613 49.6947 38.6533 48.2293 39.9413C47.8973 40.2333 47.392 40.2 47.1 39.868C46.808 39.536 46.8413 39.0307 47.1733 38.7387C49.2773 36.8893 50.4933 37.1027 51.4947 37.608C53.0467 38.392 53.7173 40.0893 53.2453 42.0387C52.8853 43.5533 51.9347 44.9573 50.5693 45.988C49.932 46.4613 49.2413 46.8533 48.5133 47.1547C48.168 47.3 47.8067 47.4333 47.4427 47.5467C47.332 47.5813 47.2253 47.608 47.132 47.6307C47.0733 47.6453 46.9973 47.6627 46.948 47.6787C46.1813 49.2787 45.944 49.88 46.0773 51.448C46.1147 51.888 45.788 52.2747 45.348 52.312C45.324 52.3173 45.3013 52.3187 45.2787 52.3187Z" fill="rgb(0, 0, 0)" class="stroke"></path>
<path d="M35.8853 53.4987C35.46 53.4987 35.1067 53.164 35.0867 52.7347C35.044 51.796 35.0347 51.324 35.0613 50.68C33.4587 50.9893 31.8267 50.7053 30.568 50.4853C28.5347 50.1267 26.9547 49.4027 25.7373 48.2707C23.5 46.1867 22.456 42.808 22.872 38.9987C23.028 37.5867 23.6093 35.4853 24.4293 33.3773C24.5893 32.9653 25.0533 32.7613 25.4653 32.9213C25.8773 33.0813 26.0813 33.5453 25.9213 33.9573C25.012 36.296 24.572 38.1853 24.4627 39.1733C24.1013 42.4733 24.9627 45.3627 26.828 47.0987C27.8253 48.0267 29.1013 48.6013 30.844 48.908C32.6253 49.2187 34.216 49.428 35.6213 48.8533C35.876 48.7493 36.1667 48.784 36.3907 48.944C36.6147 49.1053 36.74 49.3693 36.7227 49.644C36.6373 50.9853 36.6227 51.2813 36.6867 52.6573C36.7067 53.0987 36.3653 53.4733 35.924 53.4933C35.9093 53.4987 35.8973 53.4987 35.8853 53.4987Z" fill="rgb(0, 0, 0)" class="stroke"></path>
<path d="M29.124 37.3467C29.6395 37.3467 30.0573 36.8393 30.0573 36.2134C30.0573 35.5874 29.6395 35.08 29.124 35.08C28.6085 35.08 28.1907 35.5874 28.1907 36.2134C28.1907 36.8393 28.6085 37.3467 29.124 37.3467Z" fill="black"></path>
<path d="M33.6573 37.66C34.1728 37.66 34.5907 37.1526 34.5907 36.5266C34.5907 35.9007 34.1728 35.3933 33.6573 35.3933C33.1419 35.3933 32.724 35.9007 32.724 36.5266C32.724 37.1526 33.1419 37.66 33.6573 37.66Z" fill="black"></path>
</svg>