<svg xmlns="http://www.w3.org/2000/svg" viewBox="0 0 80 80" fill="none">
<path d="M35.744 50.3547C34.172 51.9693 32.0373 52.9133 29.7853 52.992C29.9973 53.5587 30.016 54.1787 29.8373 54.7573C29.6586 55.3347 29.2946 55.8373 28.8 56.1853C29.9866 57.5293 29.72 59.8827 28.2666 60.928C28.7093 61.876 29.1586 62.8467 29.2586 63.8867C29.3586 64.9267 29.0453 66.0707 28.208 66.6973C28.9066 67.8973 28.844 69.42 28.3626 70.7213C27.8813 72.0227 27.0293 73.148 26.18 74.2427L25.568 71.5333C25.3573 72.1547 24.964 72.6973 24.44 73.0907C24.0506 72.0653 23.8666 70.972 23.9013 69.876C23.936 68.78 24.1866 67.7 24.64 66.7013C23.8173 66.192 23.4186 65.148 23.5226 64.1867C23.6266 63.2253 24.1653 62.3493 24.856 61.6733C23.4226 60.34 23.7266 57.624 25.4213 56.6373C24.276 55.0373 24.328 52.6787 25.232 50.7507C23.98 51.4747 22.2906 50.7733 21.452 49.5947C20.6133 48.416 20.4146 46.9133 20.2693 45.4747C19.8693 41.4747 19.6746 37.3933 20.4573 33.444C21.24 29.4947 23.0666 25.6493 26.152 23.0667C28.612 20.9987 30.7626 20.6507 33.7786 19.54C35.204 19.0147 37.7693 18.348 39.2733 18.5653C40.9133 18.8013 42.1653 19.232 43.3106 20.432L46.1226 21.4627C47.9493 21.2227 49.8 22.0387 51.152 23.2907C52.504 24.5427 53.4186 26.1933 54.1733 27.8733C55.8386 31.584 56.828 35.5613 57.0946 39.62C57.1973 41.1973 57.1853 42.8093 56.7146 44.3173C56.3373 45.4947 55.6946 46.5693 54.836 47.46C53.9773 48.3507 52.9266 49.032 51.764 49.452C53.5813 50.824 53.8586 53.812 52.3253 55.4947C54.3546 56.3267 54.8813 59.476 53.232 60.9213C55.0986 62.308 55.0986 65.532 53.2493 66.9293C55.7906 69.8547 55.2493 74.9093 52.1453 77.2293L51.052 74.9627C50.9026 75.2693 50.6826 75.536 50.4093 75.74C50.136 75.944 49.8173 76.08 49.4813 76.136C48.884 74.7747 48.6533 73.2787 48.8146 71.8C48.976 70.3213 49.5226 68.9107 50.4 67.7107C48.3693 66.644 47.676 63.6507 49.0266 61.7933C47.536 60.4013 47.28 57.88 48.46 56.2173C47.0266 54.848 46.624 52.516 47.4266 50.624L46.1066 50.1573L46.1706 38.948C44.892 38.5973 43.8613 37.596 43.2373 36.428C42.6133 35.26 42.34 33.9333 42.1813 32.6173C41.84 29.9933 41.988 27.328 42.62 24.7587C40.104 29.9067 34.4173 33.3333 28.6906 33.1467C27.9426 33.136 27.1986 33.0307 26.4773 32.832" fill="rgb(0, 0, 0)" class="head"></path>
<path d="M35.8853 53.4987C35.8213 52.1093 35.8347 50.9853 35.9227 49.5973C34.2587 50.2773 32.4187 49.9973 30.704 49.6987C29.06 49.4093 27.5227 48.8413 26.2813 47.6867C23.952 45.5173 23.3333 42.1333 23.6667 39.088C23.8 37.8787 24.3147 35.8813 25.1747 33.6693L26.4773 32.832C27.1987 33.0307 27.9427 33.136 28.6907 33.1467C34.4173 33.3307 40.104 29.9067 42.6213 24.7587C41.9893 27.328 41.8413 29.9933 42.1827 32.6173C42.3413 33.9333 42.6107 35.26 43.2387 36.428C43.8667 37.596 44.8973 38.5973 46.172 38.948L47.6973 39.3413C49.2267 37.9973 50.1267 37.8173 51.1307 38.324C52.56 39.0453 52.7747 40.5707 52.464 41.852C52.128 43.2653 51.232 44.484 50.0827 45.352C49.5027 45.7827 48.8707 46.1413 48.2027 46.4187C47.8747 46.5573 47.54 46.68 47.2 46.7867C46.8173 46.908 46.4307 46.904 46.2507 47.2773C45.4587 48.928 45.1213 50.4947 45.276 52.3187" fill="rgb(255, 255, 255)" class="skin"></path>
<path d="M46.176 39.748C46.1054 39.748 46.0347 39.7387 45.964 39.7187C44.572 39.3373 43.3227 38.2747 42.536 36.804C41.7907 35.408 41.5334 33.884 41.392 32.712C41.1987 31.2333 41.156 29.748 41.2627 28.272C40.148 29.5773 38.804 30.7147 37.272 31.6373C34.6067 33.2427 31.6347 34.04 28.672 33.9453C27.8587 33.9333 27.0494 33.8187 26.2654 33.6027C25.84 33.4853 25.5894 33.0453 25.7067 32.6187C25.824 32.1933 26.264 31.9427 26.6907 32.06C27.3467 32.24 28.0227 32.3373 28.7027 32.3453C28.708 32.3453 28.7134 32.3453 28.7174 32.3453C34.1107 32.5213 39.532 29.256 41.908 24.4053C42.088 24.0387 42.516 23.8653 42.9 24.0053C43.284 24.1453 43.5014 24.552 43.404 24.948C42.7934 27.432 42.652 29.976 42.9814 32.512C43.168 34.0547 43.4654 35.1427 43.9494 36.0493C44.5294 37.1333 45.4174 37.908 46.388 38.1747C46.8147 38.292 47.0654 38.732 46.948 39.1573C46.8507 39.5147 46.528 39.748 46.176 39.748Z" fill="rgb(0, 0, 0)" class="stroke"></path>
<path d="M52.1454 78.024C52.0814 78.024 52.0187 78.016 51.956 78.0013C51.724 77.944 51.5294 77.7867 51.4254 77.572L50.8587 76.3987C50.4907 76.6667 50.06 76.8467 49.612 76.9213C49.2507 76.9813 48.896 76.788 48.748 76.4533C48.096 74.9667 47.844 73.3267 48.02 71.712C48.1667 70.3733 48.6027 69.0813 49.2934 67.932C48.4987 67.276 47.9214 66.332 47.6654 65.2373C47.3907 64.0627 47.5254 62.8773 48.028 61.8933C46.792 60.352 46.5614 58.0747 47.464 56.3173C46.3307 54.916 45.9334 52.936 46.4134 51.116L45.8374 50.912C45.4214 50.7653 45.2027 50.308 45.3494 49.8907C45.496 49.4733 45.9534 49.256 46.3707 49.4027L47.6907 49.8693C47.8987 49.9427 48.0667 50.0987 48.156 50.3013C48.2454 50.504 48.2467 50.7333 48.16 50.936C47.48 52.54 47.836 54.5187 49.0094 55.6387C49.296 55.9133 49.3387 56.356 49.1094 56.68C48.1614 58.016 48.372 60.0893 49.5694 61.208C49.864 61.484 49.908 61.936 49.6707 62.2627C49.1627 62.9613 48.9987 63.912 49.2227 64.8707C49.4454 65.8253 50.0094 66.6013 50.7694 67.0013C50.9747 67.1093 51.124 67.3013 51.176 67.528C51.2294 67.7547 51.18 67.9933 51.0427 68.1813C50.2507 69.2667 49.7534 70.5467 49.608 71.884C49.4907 72.964 49.604 74.0573 49.936 75.0867C50.1014 74.96 50.2374 74.7947 50.328 74.608C50.4614 74.332 50.7414 74.1573 51.048 74.1573H51.0494C51.356 74.1573 51.636 74.3333 51.7694 74.6093L52.4 75.916C53.2867 74.9533 53.8614 73.652 54.016 72.216C54.2094 70.4133 53.7094 68.676 52.6427 67.448C52.4974 67.2813 52.428 67.06 52.4507 66.84C52.4734 66.62 52.5867 66.4187 52.764 66.2853C53.436 65.7773 53.8347 64.8893 53.8307 63.9093C53.8267 62.936 53.4227 62.0573 52.752 61.5573C52.5574 61.4133 52.44 61.1893 52.4294 60.948C52.4187 60.7067 52.52 60.4733 52.7014 60.3147C53.2574 59.828 53.512 58.9813 53.3654 58.1053C53.2187 57.2293 52.7027 56.5107 52.0174 56.2293C51.776 56.1307 51.5974 55.92 51.54 55.6653C51.4827 55.4107 51.5534 55.144 51.7294 54.9507C52.3094 54.3147 52.5894 53.3947 52.5 52.4253C52.4107 51.4573 51.964 50.604 51.2774 50.0853C51.0427 49.908 50.924 49.6173 50.968 49.328C51.012 49.0373 51.2107 48.7947 51.4867 48.6947C52.528 48.3173 53.4854 47.6973 54.2547 46.9C55.024 46.1027 55.6094 45.1227 55.948 44.068C56.4094 42.5893 56.3747 40.9387 56.292 39.6667C56.0307 35.6907 55.0707 31.8307 53.4387 28.196C52.8307 26.8427 51.9587 25.128 50.604 23.8733C49.3027 22.668 47.6654 22.0613 46.2227 22.252C45.7854 22.3093 45.3827 22.0013 45.3254 21.5627C45.268 21.124 45.576 20.7227 46.0147 20.6653C47.924 20.4147 50.0454 21.1747 51.692 22.7C53.2587 24.152 54.2294 26.0493 54.9 27.5413C56.6107 31.352 57.616 35.396 57.8894 39.564C57.9814 40.9747 58.0174 42.8147 57.4747 44.552C57.06 45.8453 56.3454 47.0387 55.408 48.012C54.7494 48.696 53.9774 49.272 53.1347 49.7147C53.668 50.4333 54.0054 51.3227 54.0934 52.28C54.192 53.3493 53.972 54.3893 53.4774 55.252C54.236 55.8547 54.764 56.7707 54.9427 57.844C55.128 58.9587 54.904 60.0347 54.336 60.864C55.0267 61.6627 55.4254 62.748 55.4294 63.9053C55.4347 65.088 55.0294 66.1987 54.32 67.0107C55.3507 68.5067 55.816 70.424 55.6054 72.3893C55.3654 74.632 54.276 76.6293 52.62 77.8667C52.484 77.9693 52.316 78.024 52.1454 78.024Z" fill="rgb(0, 0, 0)" class="stroke"></path>
<path d="M26.18 75.0427C26.1227 75.0427 26.064 75.036 26.0067 75.024C25.704 74.9573 25.468 74.7213 25.4 74.42L25.1934 73.5066C25.1067 73.5853 25.0147 73.66 24.92 73.7306C24.7187 73.8813 24.4587 73.9293 24.2174 73.86C23.976 73.7907 23.7814 73.6107 23.692 73.376C23.2627 72.2453 23.064 71.06 23.1014 69.852C23.132 68.852 23.3254 67.876 23.6734 66.9453C22.98 66.2373 22.6107 65.1706 22.7267 64.1026C22.8174 63.26 23.192 62.4107 23.796 61.656C23.2894 60.9 23.06 59.9333 23.1694 58.9413C23.28 57.9547 23.7134 57.0653 24.368 56.4387C23.7094 55.124 23.5787 53.468 23.9934 51.844C22.7387 51.7973 21.5 51.0467 20.7987 50.0613C19.8614 48.744 19.6294 47.1133 19.472 45.5573C19.1014 41.856 18.836 37.5053 19.6707 33.2906C20.5654 28.7746 22.684 24.9266 25.636 22.456C27.6534 20.76 29.4774 20.1533 31.5894 19.4506C32.1974 19.248 32.8267 19.0386 33.4987 18.792C34.8494 18.2946 37.6094 17.52 39.384 17.776C40.884 17.992 42.468 18.396 43.8854 19.8826C44.1907 20.2026 44.1787 20.7093 43.8587 21.0133C43.5387 21.3186 43.032 21.3066 42.728 20.9866C41.7027 19.912 40.6 19.568 39.156 19.36C37.956 19.1866 35.6307 19.712 34.052 20.2933C33.3547 20.5493 32.7134 20.7626 32.0934 20.9693C30.056 21.6466 28.448 22.1813 26.6627 23.6813C23.988 25.92 22.0627 29.4426 21.2374 33.6013C20.4427 37.6093 20.7027 41.8133 21.06 45.3973C21.2014 46.7947 21.3867 48.1333 22.0987 49.1333C22.696 49.972 23.9627 50.56 24.8267 50.06C25.1294 49.8853 25.5107 49.9267 25.768 50.1627C26.0254 50.3987 26.1 50.7747 25.952 51.092C25.1187 52.8707 25.164 54.912 26.068 56.1733C26.1987 56.356 26.2467 56.5866 26.2 56.8066C26.1534 57.0266 26.0147 57.2173 25.82 57.3307C25.2414 57.668 24.844 58.336 24.756 59.1187C24.6694 59.8987 24.908 60.636 25.396 61.0893C25.556 61.2387 25.648 61.4467 25.6507 61.6653C25.6534 61.884 25.5667 62.0947 25.4107 62.2467C24.7774 62.8667 24.388 63.5867 24.3134 64.2747C24.236 64.9853 24.5414 65.704 25.056 66.0227C25.3974 66.2347 25.5294 66.6667 25.364 67.0333C24.952 67.9413 24.728 68.9067 24.6974 69.9027C24.6827 70.384 24.712 70.8613 24.788 71.3307C24.7947 71.3133 24.8 71.296 24.8067 71.2787C24.9214 70.94 25.248 70.7187 25.6067 70.7373C25.964 70.756 26.2654 71.0107 26.3454 71.36L26.5734 72.3693C26.9814 71.7693 27.36 71.1213 27.6094 70.4466C28.06 69.2293 28.024 67.9786 27.5134 67.1026C27.3094 66.752 27.4 66.3027 27.7254 66.06C28.2547 65.664 28.5427 64.8413 28.4587 63.9667C28.3707 63.0533 27.948 62.1467 27.5387 61.2693C27.376 60.9213 27.484 60.5066 27.796 60.2813C28.3067 59.9146 28.644 59.2946 28.7254 58.5813C28.8054 57.868 28.6134 57.1893 28.1974 56.7173C28.0467 56.5467 27.976 56.32 28.0027 56.0947C28.0294 55.8693 28.1507 55.6653 28.336 55.5333C28.684 55.288 28.944 54.9293 29.0694 54.5227C29.1947 54.116 29.1814 53.6733 29.032 53.2747C28.9414 53.0333 28.9734 52.764 29.116 52.5493C29.2587 52.3346 29.496 52.2026 29.7534 52.1946C31.8094 52.1226 33.732 51.272 35.1667 49.7986C35.4747 49.4826 35.9814 49.476 36.2974 49.784C36.6134 50.092 36.62 50.5986 36.312 50.916C34.808 52.46 32.8587 53.436 30.7454 53.716C30.7747 54.1467 30.7254 54.5813 30.5974 54.9946C30.4467 55.4813 30.1907 55.932 29.852 56.3093C30.2454 57.0253 30.412 57.8827 30.3134 58.7587C30.2094 59.6787 29.8267 60.5133 29.2374 61.1347C29.6054 61.9493 29.9574 62.8453 30.0494 63.812C30.1627 64.988 29.8347 66.1053 29.176 66.8746C29.6614 68.0853 29.6427 69.5533 29.108 71C28.6054 72.3587 27.768 73.4947 26.8067 74.7347C26.6587 74.9307 26.424 75.0427 26.18 75.0427Z" fill="rgb(0, 0, 0)" class="stroke"></path>
<path d="M45.2787 52.3187C44.868 52.3187 44.5174 52.004 44.4827 51.5867C44.3134 49.5787 44.704 48.6587 45.5334 46.932C45.8374 46.3013 46.412 46.1627 46.756 46.0787C46.8307 46.0613 46.9014 46.044 46.9627 46.024C47.28 45.924 47.5934 45.8093 47.896 45.6813C48.508 45.4267 49.0827 45.1013 49.6107 44.7093C50.6747 43.9053 51.416 42.824 51.6907 41.6667C51.832 41.084 52.024 39.668 50.7747 39.0373C50.2294 38.7613 49.6947 38.6533 48.2294 39.9413C47.8974 40.2333 47.392 40.2 47.1 39.868C46.808 39.536 46.8414 39.0307 47.1734 38.7387C49.2774 36.8893 50.4934 37.1027 51.4947 37.608C53.0467 38.392 53.7174 40.0893 53.2454 42.0387C52.8854 43.5533 51.9347 44.9573 50.568 45.988C49.9307 46.4613 49.24 46.8533 48.512 47.1547C48.168 47.3 47.8054 47.4333 47.4427 47.5467C47.3307 47.5827 47.2254 47.608 47.132 47.6307C47.072 47.6453 46.9974 47.6627 46.948 47.6787C46.1814 49.2787 45.944 49.88 46.0774 51.448C46.1147 51.888 45.788 52.276 45.348 52.312C45.324 52.3173 45.3014 52.3187 45.2787 52.3187Z" fill="rgb(0, 0, 0)" class="stroke"></path>
<path d="M35.8854 53.4987C35.46 53.4987 35.1067 53.164 35.0867 52.7347C35.044 51.796 35.0347 51.324 35.0614 50.68C33.4587 50.9893 31.8267 50.7053 30.568 50.4853C28.5347 50.128 26.9547 49.4027 25.7374 48.2707C23.5 46.1867 22.456 42.8067 22.872 38.9987C23.028 37.5867 23.6094 35.4853 24.4294 33.3773C24.5894 32.9653 25.0534 32.7613 25.4654 32.9213C25.8774 33.0813 26.0814 33.5453 25.9214 33.9573C25.012 36.296 24.572 38.1853 24.4627 39.1733C24.1014 42.4733 24.9627 45.3627 26.828 47.0987C27.8254 48.0267 29.1014 48.6013 30.844 48.908C32.6254 49.2187 34.2147 49.428 35.6214 48.8547C35.876 48.7507 36.1667 48.7853 36.3907 48.9453C36.6147 49.1067 36.74 49.3707 36.7227 49.6453C36.6374 50.9867 36.6227 51.2827 36.6867 52.6587C36.7067 53.1 36.3654 53.4747 35.924 53.4947C35.9094 53.4987 35.8974 53.4987 35.8854 53.4987Z" fill="rgb(0, 0, 0)" class="stroke"></path>
<path d="M29.124 37.3467C29.6395 37.3467 30.0573 36.8393 30.0573 36.2134C30.0573 35.5874 29.6395 35.08 29.124 35.08C28.6085 35.08 28.1907 35.5874 28.1907 36.2134C28.1907 36.8393 28.6085 37.3467 29.124 37.3467Z" fill="black"></path>
<path d="M33.6573 37.66C34.1728 37.66 34.5907 37.1526 34.5907 36.5267C34.5907 35.9008 34.1728 35.3933 33.6573 35.3933C33.1419 35.3933 32.724 35.9008 32.724 36.5267C32.724 37.1526 33.1419 37.66 33.6573 37.66Z" fill="black"></path>
</svg>