<svg xmlns="http://www.w3.org/2000/svg" viewBox="0 0 80 80" fill="none">
<path d="M35.9373 49.6027C35.848 50.9907 35.8347 51.9813 35.8987 53.3707L45.2987 52.184C45.1453 50.36 45.4813 48.9267 46.2747 47.276C46.4533 46.9027 46.8413 46.9067 47.224 46.7853C47.56 46.684 47.8987 46.5507 48.2267 46.4173C48.8947 46.14 49.5253 45.7813 50.1067 45.3507C51.256 44.4827 52.1507 43.264 52.488 41.8507C52.7933 40.5693 52.5787 39.044 51.148 38.3227C50.1453 37.816 49.2453 37.996 47.716 39.34L47.4667 37.8667L45.2667 36.3333L47.224 26.8667C45.6387 29.3107 42.24 34.2 41.3333 34.2C38.2 34.2 30.156 31.4 27.212 30.2C26.772 30.7693 26.3933 31.3787 26.1373 32.0493L25.3373 33.4693C24.5373 34.6693 24.404 36.136 24.004 37.6027C24.004 38.024 22.3827 43.7147 26.1373 47.4693C27.4707 48.8027 29.204 49.336 31.004 49.736C32.6147 49.988 34.3787 50.2387 35.9373 49.6027Z" fill="rgb(255, 255, 255)" class="skin"></path>
<path d="M20.1333 61.8667C18.9333 58.8 18.5333 55.6 18 52.2667C16.8 45.6 17.0667 39.2 19.0667 32.9333C20.5333 28.4 23.1867 25.3773 26.7867 22.044C29.32 19.7773 31.9 17.8867 35.3667 18.02C36.3 18.1533 37.42 18.3747 38.3533 18.3747C40.68 18.5987 45.9613 18.8547 48.5333 21.7333C48.9333 22.2667 49.6 22.5333 50.2667 22.8C50.6973 23.068 51.1 23.3813 51.4667 23.7333C52 24.4 52.4 25.2 52.8 25.8667C54.6667 29.4667 55.6 33.0667 56.6667 36.9333C59.6813 48.812 58.9453 56.9627 57.7187 74.5253C57.2573 74.5187 55.088 74.5333 54.5333 74.5333C52.9333 74.5333 51.2 74.4 49.6 74.4C47.8667 74.2667 47.804 74.6293 46.204 73.9627C45.9373 73.8293 46.0707 73.296 45.9373 73.0293C45.6707 66.7627 45.3333 51.3333 45.3333 51.3333C45.2 49.8667 45.6 48.5333 46.2667 47.2C47.6 46.5333 49.2 46.2667 50.4 45.2C50.6667 44.9333 50.8 44.6667 51.0667 44.5333C52.2667 43.3333 52.8 41.7333 52.4 40C52.2667 39.0667 51.7333 38.4 50.7733 38.1707C49.6053 37.7827 48.532 38.612 47.7067 39.3413C47.5933 38.86 47.528 38.3293 47.3587 37.8653C47.128 37.236 46.1587 36.7467 45.5827 36.4427C45.5013 36.4 45.24 36.32 45.1907 36.2507C45.1413 36.1813 45.1907 35.9933 45.2107 35.8747C45.2573 35.5893 45.304 35.3053 45.352 35.0227C45.452 34.44 45.5587 33.8573 45.6693 33.2773C46.1133 30.9853 46.6533 28.7147 47.288 26.468C45.6 29.0667 44.4 31.8667 41.7333 33.8667C40.8 34.4 39.8667 34.1333 38.9333 33.8667C34.8 32.9333 31.0667 31.6 27.2 30C26.8227 30.2573 26.5413 30.632 26.4 31.0667C24.9333 33.7333 23.8667 36.4 23.6 39.3333C23.4667 41.0667 23.4667 42.8 24.1333 44.4C24.2667 44.6667 24.4 45.0667 24.5333 45.3333C25.4667 47.6 27.7333 49.0667 30.176 49.6C32.0173 50 34.124 50.336 35.9227 49.6C35.8467 50.6827 35.8587 51.7693 35.9587 52.8493C34.5707 52.34 33.0173 52.5213 31.6 52.9467C26.884 54.3587 20.2667 61.8667 20.1333 61.8667Z" fill="rgb(0, 0, 0)" class="head"></path>
<path d="M47.3094 38.5027C47.1094 38.5027 46.9094 38.428 46.7547 38.2787C46.1867 37.732 45.5347 37.2893 44.8174 36.964C44.4894 36.816 44.3013 36.468 44.3573 36.112C44.6187 34.4253 44.936 32.7387 45.3027 31.064C44.5613 32.068 43.8 32.9747 42.9974 33.8107C42.7227 34.1227 42.4013 34.3853 42.04 34.592C42.0293 34.5987 42.0173 34.604 42.0067 34.6107C41.1747 35.036 40.2694 34.9053 39.4854 34.748C35.3507 33.9347 31.3107 32.6453 27.468 30.9133L26.5747 32.2027C26.3227 32.5653 25.824 32.656 25.4614 32.4053C25.0987 32.1533 25.008 31.656 25.2587 31.292L26.5333 29.452C26.7547 29.132 27.1747 29.0173 27.528 29.1827C31.4374 31.0013 35.564 32.3467 39.796 33.1787C40.3347 33.2867 40.888 33.3747 41.2613 33.1933C41.4653 33.0733 41.648 32.9227 41.8027 32.744C41.8107 32.7347 41.82 32.724 41.8293 32.7147C43.528 30.948 45.0387 28.8387 46.5813 26.0787C46.78 25.724 47.2107 25.5747 47.5854 25.7293C47.96 25.8853 48.16 26.296 48.0493 26.6867C47.2053 29.6653 46.5267 32.72 46.028 35.78C46.6973 36.1427 47.312 36.5933 47.864 37.1253C48.1827 37.432 48.192 37.9387 47.8854 38.256C47.728 38.42 47.5187 38.5027 47.3094 38.5027Z" fill="rgb(0, 0, 0)" class="stroke"></path>
<path d="M49.7573 75.4133C48.8893 75.4133 47.9853 75.3427 46.7373 75.076C46.3693 75.0253 46.024 74.8733 45.7387 74.6347C45.7133 74.6133 45.6893 74.5907 45.6667 74.5667C45.256 74.128 45.2293 73.5613 45.216 73.2573C44.932 67.536 44.7293 61.3507 44.6147 54.8787C44.6067 54.4373 44.9587 54.072 45.4 54.064C45.4053 54.064 45.4093 54.064 45.4147 54.064C45.8493 54.064 46.2067 54.4133 46.2147 54.8493C46.3293 61.3053 46.532 67.4733 46.8147 73.18C46.8213 73.308 46.8293 73.4 46.8413 73.4547C46.88 73.4733 46.9227 73.4867 46.9667 73.492C46.992 73.4947 47.0173 73.4987 47.0427 73.504C48.772 73.876 49.7413 73.832 51.084 73.772C51.6813 73.7453 52.3587 73.716 53.188 73.7173C53.6293 73.7187 53.9867 74.0787 53.9853 74.52C53.984 74.9613 53.6267 75.3173 53.1853 75.3173C53.1533 75.3147 53.1213 75.3173 53.0893 75.3173C52.3387 75.3173 51.7107 75.3453 51.1547 75.3707C50.6693 75.3933 50.2187 75.4133 49.7573 75.4133Z" fill="rgb(0, 0, 0)" class="stroke"></path>
<path d="M57.1347 75.3147C56.472 75.3147 55.9187 75.3013 55.092 75.2427C54.6507 75.212 54.3187 74.8293 54.3507 74.388C54.3813 73.9467 54.764 73.616 55.2053 73.6453C55.9227 73.696 56.412 73.7107 56.9813 73.712C57.0627 70.6747 57.2693 67.624 57.4693 64.6667C57.9933 56.9267 58.488 49.6173 56.9933 42.2053C55.832 36.4533 54.5973 32.148 52.9907 28.2467C52.3 26.5707 51.476 24.86 50.1373 23.7133C49.8013 23.4253 49.7627 22.9213 50.0507 22.5853C50.3387 22.2507 50.8427 22.2107 51.1787 22.4987C52.7747 23.8653 53.704 25.776 54.4707 27.6373C56.1173 31.6373 57.38 36.0333 58.5613 41.8893C60.0973 49.512 59.5733 57.2707 59.0653 64.7747C58.8493 67.968 58.6253 71.2693 58.5627 74.5253C58.5547 74.9587 58.2013 75.3067 57.768 75.3093C57.54 75.3133 57.332 75.3147 57.1347 75.3147Z" fill="rgb(0, 0, 0)" class="stroke"></path>
<path d="M20.2253 62.696C20.22 62.696 20.216 62.696 20.2107 62.696C19.968 62.692 19.376 62.592 19.14 61.7307C16.504 52.1467 15.8867 44.0467 17.2493 36.9667C18.8653 28.5773 23.6787 22.1267 31.172 18.312C33.3013 17.232 35.0493 16.9787 36.5147 17.5387C36.928 17.696 37.1347 18.1587 36.976 18.572C36.8187 18.9853 36.356 19.192 35.9427 19.0333C34.9227 18.644 33.5987 18.8747 31.896 19.7387C24.86 23.32 20.3387 29.3827 18.82 37.2693C17.524 43.996 18.0947 51.7213 20.564 60.872C20.6227 60.8947 20.68 60.924 20.7347 60.96C21.0733 61.1867 21.2213 61.6347 21.0907 62.0493C20.972 62.4387 20.624 62.696 20.2253 62.696Z" fill="rgb(0, 0, 0)" class="stroke"></path>
<path d="M48.8027 22.844C48.584 22.844 48.368 22.756 48.2094 22.5813C47.3347 21.616 46.3253 20.8347 45.2067 20.2573C42.512 18.8653 39.9227 19.0307 39.0707 19.0853C38.628 19.112 38.2494 18.7787 38.2214 18.3373C38.1934 17.896 38.528 17.516 38.9693 17.488C39.9293 17.4267 42.852 17.2413 45.9414 18.836C47.2294 19.5013 48.392 20.4 49.3947 21.508C49.6907 21.836 49.6667 22.3413 49.3387 22.6387C49.1867 22.776 48.9947 22.844 48.8027 22.844Z" fill="rgb(0, 0, 0)" class="stroke"></path>
<path d="M45.2787 52.3187C44.868 52.3187 44.5174 52.004 44.4827 51.5867C44.3134 49.5787 44.704 48.6587 45.5334 46.932C45.8374 46.3013 46.412 46.1627 46.756 46.0787C46.8307 46.0613 46.9014 46.044 46.9627 46.024C47.28 45.924 47.5934 45.8093 47.896 45.6813C48.508 45.4267 49.0827 45.1013 49.6107 44.7093C50.6747 43.9053 51.416 42.824 51.6907 41.6667C51.832 41.084 52.024 39.668 50.7747 39.0373C50.2294 38.7613 49.6947 38.6533 48.2294 39.9413C47.8974 40.2333 47.392 40.2 47.1 39.868C46.808 39.536 46.8414 39.0307 47.1734 38.7387C49.2774 36.8893 50.4934 37.1027 51.4947 37.608C53.0467 38.392 53.7174 40.0893 53.2454 42.0387C52.8854 43.5533 51.9347 44.9573 50.568 45.988C49.9307 46.4613 49.24 46.8533 48.512 47.1547C48.168 47.3 47.8054 47.4333 47.4427 47.5467C47.3307 47.5827 47.2254 47.608 47.132 47.6307C47.072 47.6453 46.9974 47.6627 46.948 47.6787C46.1814 49.2787 45.944 49.88 46.0774 51.448C46.1147 51.888 45.788 52.276 45.348 52.312C45.324 52.3173 45.3014 52.3187 45.2787 52.3187Z" fill="rgb(0, 0, 0)" class="stroke"></path>
<path d="M35.8854 53.4987C35.46 53.4987 35.1067 53.164 35.0867 52.7347C35.044 51.796 35.0347 51.324 35.0614 50.68C33.4587 50.9893 31.8267 50.7053 30.568 50.4853C28.5347 50.128 26.9547 49.4027 25.7374 48.2707C23.5 46.1867 22.456 42.8067 22.872 38.9987C23.028 37.5867 23.6094 35.4853 24.4294 33.3773C24.5894 32.9653 25.0534 32.7613 25.4654 32.9213C25.8774 33.0813 26.0814 33.5453 25.9214 33.9573C25.012 36.296 24.572 38.1853 24.4627 39.1733C24.1014 42.4733 24.9627 45.3627 26.828 47.0987C27.8254 48.0267 29.1014 48.6013 30.844 48.908C32.6254 49.2187 34.2147 49.428 35.6214 48.8547C35.876 48.7507 36.1667 48.7853 36.3907 48.9453C36.6147 49.1067 36.74 49.3707 36.7227 49.6453C36.6374 50.9867 36.6227 51.2827 36.6867 52.6587C36.7067 53.1 36.3654 53.4747 35.924 53.4947C35.9094 53.4987 35.8974 53.4987 35.8854 53.4987Z" fill="rgb(0, 0, 0)" class="stroke"></path>
<path d="M29.124 37.3467C29.6395 37.3467 30.0573 36.8393 30.0573 36.2134C30.0573 35.5874 29.6395 35.08 29.124 35.08C28.6085 35.08 28.1907 35.5874 28.1907 36.2134C28.1907 36.8393 28.6085 37.3467 29.124 37.3467Z" fill="black"></path>
<path d="M33.6573 37.66C34.1728 37.66 34.5907 37.1526 34.5907 36.5267C34.5907 35.9008 34.1728 35.3933 33.6573 35.3933C33.1419 35.3933 32.724 35.9008 32.724 36.5267C32.724 37.1526 33.1419 37.66 33.6573 37.66Z" fill="black"></path>
</svg>