<svg xmlns="http://www.w3.org/2000/svg" viewBox="0 0 80 80" fill="none">
<path d="M35.8853 53.4987C35.8213 52.1093 35.8347 50.9853 35.9227 49.5973C34.2587 50.2773 32.4187 49.9973 30.704 49.6987C29.06 49.4093 27.5227 48.8413 26.2813 47.6867C23.952 45.5173 23.3333 42.1333 23.6667 39.088C23.8 37.8787 24.3147 35.8813 25.1747 33.6693L25.6653 31.292C26.048 27.888 28.3733 24.88 31.3547 23.1947C34.336 21.5093 37.888 21.0413 41.3027 21.3667C45.1027 21.7293 48.9867 23.1733 51.3547 26.1667C53.7227 29.16 54.0653 33.9 51.424 36.656L47.7013 39.3427C49.2307 37.9987 50.1307 37.8187 51.1347 38.3253C52.564 39.0467 52.7787 40.572 52.468 41.8533C52.132 43.2667 51.236 44.4853 50.0867 45.3533C49.5067 45.784 48.8747 46.1427 48.2067 46.42C47.8787 46.5587 47.544 46.6813 47.204 46.788C46.8213 46.9093 46.4347 46.9053 46.2547 47.2787C45.4627 48.9293 45.1253 50.496 45.28 52.32" fill="rgb(255, 255, 255)" class="skin"></path>
<path d="M60 48.9333C59.3333 47.7333 58.6667 46.6667 58.5333 45.3333C58.2667 42.6667 59.0667 40.1333 59.4667 37.4667V35.6C59.2 34.2667 58.9333 33.0667 58.4 31.8667C57.8667 30.5333 57.0667 29.2 56.2667 27.8667C56 27.2 55.6 26.5333 55.0667 25.7333L54.6667 25.3333C52.5333 21.8667 48.9333 20 45.4667 18.5333C44.4 18 43.3333 17.6 42.2667 17.4667C40.8 17.3333 39.3333 17.0667 37.8667 17.2C34.2667 17.4667 29.7333 18.2667 28.4 22.1333C26.2667 23.3333 24.1333 24.8 22.9333 27.0667C22.2693 28.436 22.1267 30 22.5333 31.4667C22.6907 31.7667 22.824 32.0787 22.9333 32.4C23.0667 32.9333 23.4667 33.4667 23.8093 33.8093L25.0373 34.3933C24.9333 34.1333 25.2 33.7333 25.3333 33.4667C25.3333 31.3333 26.4 29.3333 27.8667 27.8667C28.5333 27.2 28.9333 26.4 29.4667 25.6C29.7453 25.3347 30.0587 25.1107 30.4 24.9333C31.4667 24.5333 32.6667 24.4 33.8667 24.4C34.4 24.4 34.9333 24.6667 35.4667 24.6667C37.2 25.0667 38.6667 25.4667 40.2667 26.1333C41.336 26.6467 42.288 27.372 43.0667 28.2667C43.244 28.608 43.468 28.9227 43.7333 29.2C45.2 31.3333 45.6 33.7333 45.8667 36.1333C46 38.4 46.1333 40.5333 46.4 42.8C46.5333 44.2253 47.0173 45.4773 47.6333 46.68C47.5 46.7093 47.3547 46.7453 47.2093 46.7907C46.8267 46.912 46.44 46.908 46.26 47.2813C45.472 48.916 45.136 50.0653 45.284 51.8733C46.0093 51.824 46.736 52.6307 47.3907 52.948C48.0453 53.2653 48.6067 53.748 49.0173 54.348C49.2987 54.7693 49.504 55.244 49.8493 55.6133C49.8707 55.6373 49.8933 55.6613 49.9173 55.684C49.4227 57.1147 48.648 58.516 48.0027 59.8667C47.58 60.7853 47.4853 61.82 47.736 62.8C48.136 64 49.2027 64.8 49.8693 65.8667C50.8027 67.6 49.336 69.2 49.6027 70.9333C49.8693 72.5333 51.4693 73.7333 53.0693 73.8667C55.336 73.8667 57.336 74.5333 59.336 75.6C61.0693 76.4 62.936 74.9333 63.2027 73.2C63.336 71.7333 63.0693 70.4 62.536 69.0667C62.136 67.8667 62.0027 66.6667 61.8693 65.4667C61.8693 63.2 63.2027 61.4667 63.736 59.3333C64.8 55.3333 61.8667 52.1333 60 48.9333Z" fill="rgb(0, 0, 0)" class="head"></path>
<path d="M51.2147 73.8667C51.1027 73.8667 50.9893 73.8427 50.8813 73.7933C50.184 73.4733 49.6027 72.9587 49.2 72.3053C48.7987 71.652 48.6013 70.9013 48.6293 70.1347C48.6293 70.1293 48.6293 70.1253 48.6307 70.12C48.6653 69.5067 48.8427 68.9507 49.0133 68.4147C49.1987 67.8333 49.3747 67.2827 49.304 66.7947C49.22 66.2053 48.7947 65.6893 48.3027 65.092C47.8293 64.5173 47.34 63.924 47.0733 63.16C46.4427 61.3453 47.3413 59.596 48.1333 58.0533C48.1867 57.948 48.2413 57.844 48.2933 57.7413C49.2707 55.808 50.2053 53.0267 49.0947 50.7613C48.8707 50.3013 48.564 49.8707 48.2413 49.4133C48.0613 49.1587 47.8747 48.8947 47.6987 48.62C45.8093 45.6733 45.5133 42.1547 45.228 38.7507C45.188 38.28 45.1493 37.812 45.1053 37.3467C44.7973 34.048 44.0747 29.9787 41.1973 27.7653C40.2253 27.0187 39.0053 26.4707 37.2413 25.992C36.3627 25.7533 35.4613 25.5587 34.564 25.412C34.128 25.3413 33.832 24.9307 33.9027 24.4947C33.9733 24.0587 34.3853 23.7613 34.82 23.8333C35.772 23.988 36.728 24.1947 37.66 24.448C39.636 24.984 41.028 25.616 42.172 26.496C45.54 29.0853 46.36 33.5747 46.6987 37.1973C46.7427 37.668 46.7827 38.1413 46.8227 38.6173C47.092 41.8267 47.3707 45.144 49.0453 47.756C49.2013 48 49.3693 48.236 49.5467 48.488C49.892 48.976 50.2507 49.4813 50.532 50.056C51.932 52.912 50.8627 56.204 49.72 58.4627C49.6653 58.5693 49.612 58.676 49.556 58.7827C48.8787 60.1013 48.1787 61.4653 48.584 62.6333C48.756 63.128 49.136 63.5867 49.536 64.0747C50.1 64.7587 50.7387 65.5333 50.8867 66.5667C51.0107 67.4187 50.7587 68.2067 50.5373 68.9013C50.3907 69.36 50.252 69.7947 50.228 70.2027C50.212 70.6493 50.328 71.088 50.5627 71.468C50.7987 71.8507 51.1387 72.1533 51.548 72.34C51.9493 72.524 52.1253 72.9987 51.9413 73.4013C51.8067 73.6933 51.5173 73.8667 51.2147 73.8667Z" fill="rgb(0, 0, 0)" class="stroke"></path>
<path d="M23.8107 34.6093C23.5493 34.6093 23.2933 34.4813 23.14 34.2453C21.828 32.232 21.376 30.2147 21.796 28.2467C22.2667 26.044 23.8387 24.0253 26.344 22.4093C26.716 22.1707 27.2107 22.2773 27.4493 22.648C27.688 23.02 27.5813 23.5147 27.2107 23.7533C25.0707 25.1333 23.74 26.8013 23.36 28.58C23.032 30.116 23.4093 31.728 24.4787 33.372C24.72 33.7427 24.6147 34.2373 24.2453 34.4787C24.1107 34.568 23.96 34.6093 23.8107 34.6093Z" fill="rgb(0, 0, 0)" class="stroke"></path>
<path d="M28.4787 22.7307C28.3907 22.7307 28.3013 22.716 28.2133 22.6853C27.796 22.5387 27.5773 22.0827 27.724 21.6653C28.54 19.3413 30.8547 18.1173 32.6533 17.5C36.7627 16.0893 41.6787 16.248 46.496 17.9467C46.9133 18.0933 47.132 18.5507 46.9853 18.9667C46.8387 19.384 46.3813 19.6027 45.9653 19.456C41.4867 17.8773 36.944 17.72 33.1733 19.0147C31.7093 19.5173 29.8373 20.4773 29.2333 22.196C29.1173 22.5253 28.8093 22.7307 28.4787 22.7307Z" fill="rgb(0, 0, 0)" class="stroke"></path>
<path d="M60.3547 76.64C60.288 76.64 60.2213 76.6373 60.156 76.632C59.308 76.5653 58.6013 76.156 57.9787 75.796C57.8347 75.712 57.6907 75.6293 57.5453 75.5507C56.2467 74.852 54.7827 74.548 53.3107 74.672C52.8693 74.708 52.4827 74.3827 52.4453 73.9427C52.408 73.5027 52.7347 73.1147 53.1747 73.0773C54.956 72.9267 56.7307 73.2947 58.304 74.1427C58.464 74.2293 58.6213 74.32 58.7787 74.412C59.3013 74.7147 59.7947 75 60.2787 75.0373C61.1867 75.1027 62.02 74.2107 62.2667 73.3413C62.5813 72.2373 62.312 70.988 62.008 69.912C61.948 69.7 61.8853 69.4867 61.8227 69.2747C61.5027 68.192 61.172 67.0733 61.1613 65.8773C61.1453 64.32 61.672 62.888 62.1813 61.5027C62.64 60.256 63.0733 59.0773 63.1053 57.8693C63.172 55.6627 61.9293 53.7133 60.6147 51.648C59.48 49.8653 58.3067 48.0213 57.9173 45.892C57.4093 43.092 57.8173 41.5693 58.212 40.0973C58.5773 38.7373 58.9213 37.4533 58.4867 35.0133C58.2787 33.8813 57.7853 32.772 57.2547 31.6427C56.1773 29.3547 54.9867 26.948 53.3253 24.8693C51.7187 22.86 50.4867 21.4867 48.1093 20.7427C47.688 20.6107 47.4533 20.1613 47.584 19.74C47.716 19.3187 48.1653 19.084 48.5867 19.2147C51.3867 20.0907 52.8933 21.768 54.5747 23.868C56.3453 26.0827 57.5853 28.5853 58.7027 30.96C59.28 32.1893 59.8187 33.4013 60.0613 34.7267C60.5587 37.5213 60.152 39.0413 59.7573 40.5107C59.392 41.872 59.0467 43.1587 59.4907 45.6053C59.8227 47.4267 60.8627 49.06 61.9627 50.788C63.3493 52.9667 64.784 55.2187 64.7027 57.9147C64.6627 59.384 64.164 60.7413 63.6813 62.0547C63.2 63.3627 62.7467 64.5973 62.76 65.8627C62.7693 66.836 63.0547 67.8013 63.356 68.8227C63.42 69.0413 63.4853 69.26 63.5467 69.4787C63.912 70.7707 64.2293 72.2933 63.8053 73.7827C63.2667 75.6747 61.668 76.64 60.3547 76.64Z" fill="rgb(0, 0, 0)" class="stroke"></path>
<path d="M45.2787 52.3187C44.868 52.3187 44.5174 52.004 44.4827 51.5853C44.3134 49.5773 44.704 48.6573 45.5334 46.9307C45.8374 46.3 46.412 46.1613 46.756 46.0773C46.8307 46.06 46.9014 46.0427 46.9627 46.0227C47.384 45.8893 47.8334 46.1227 47.9667 46.544C48.1 46.9653 47.8667 47.4147 47.4454 47.548C47.332 47.584 47.2254 47.6093 47.132 47.632C47.072 47.6467 46.9974 47.664 46.948 47.68C46.1814 49.28 45.944 49.8813 46.0774 51.4493C46.1147 51.8893 45.788 52.2773 45.348 52.3133C45.324 52.3173 45.3014 52.3187 45.2787 52.3187Z" fill="rgb(0, 0, 0)" class="stroke"></path>
<path d="M35.884 53.4987C35.4587 53.4987 35.1054 53.164 35.0854 52.7347C35.0427 51.796 35.0334 51.324 35.06 50.68C33.4574 50.9893 31.8254 50.7053 30.5667 50.4853C28.5334 50.128 26.9534 49.4027 25.736 48.2707C23.4987 46.1867 22.4534 42.808 22.8707 38.9987C23.0267 37.5867 23.608 35.4853 24.428 33.3773C24.588 32.9653 25.052 32.7613 25.464 32.9213C25.876 33.0813 26.08 33.5453 25.92 33.9573C25.0107 36.296 24.5707 38.1853 24.4614 39.1733C24.1 42.4733 24.9614 45.3627 26.8267 47.0987C27.824 48.0267 29.1 48.6013 30.8427 48.908C32.624 49.2187 34.2134 49.428 35.62 48.8547C35.8747 48.7507 36.1654 48.7853 36.3894 48.9453C36.6134 49.1067 36.7387 49.3707 36.7214 49.6453C36.636 50.9867 36.6214 51.2827 36.6854 52.6587C36.7054 53.1 36.364 53.4747 35.9227 53.4947C35.9094 53.4987 35.8974 53.4987 35.884 53.4987Z" fill="rgb(0, 0, 0)" class="stroke"></path>
<path d="M25.6013 32.4053C25.564 32.4053 25.5253 32.4027 25.4867 32.3973C25.0493 32.3347 24.7453 31.9293 24.808 31.492C25.12 29.3213 25.9027 28.52 26.7027 27.9787C27.3067 27.5693 27.408 27.3667 27.656 26.8773C27.752 26.6867 27.8627 26.4693 28.0173 26.2067C28.4107 25.54 28.9453 24.9813 29.5653 24.5933C30.0987 24.2587 30.6853 24.04 31.308 23.9453C31.7427 23.8787 32.1533 24.1773 32.22 24.6147C32.2867 25.052 31.988 25.46 31.5507 25.5267C31.1453 25.5893 30.7627 25.7307 30.416 25.9493C30.012 26.2027 29.66 26.572 29.396 27.02C29.268 27.2387 29.1747 27.4227 29.084 27.6C28.796 28.1693 28.5467 28.6613 27.6013 29.3027C27.0987 29.644 26.628 30.0853 26.392 31.72C26.336 32.1173 25.9933 32.4053 25.6013 32.4053Z" fill="rgb(0, 0, 0)" class="stroke"></path>
<path d="M29.124 37.3467C29.6395 37.3467 30.0573 36.8393 30.0573 36.2134C30.0573 35.5874 29.6395 35.08 29.124 35.08C28.6085 35.08 28.1907 35.5874 28.1907 36.2134C28.1907 36.8393 28.6085 37.3467 29.124 37.3467Z" fill="black"></path>
<path d="M33.6573 37.66C34.1728 37.66 34.5907 37.1526 34.5907 36.5267C34.5907 35.9008 34.1728 35.3933 33.6573 35.3933C33.1419 35.3933 32.724 35.9008 32.724 36.5267C32.724 37.1526 33.1419 37.66 33.6573 37.66Z" fill="black"></path>
</svg>