<svg xmlns="http://www.w3.org/2000/svg" viewBox="0 0 80 80" fill="none">
<path d="M35.8854 53.3653C35.8214 51.976 35.8347 50.9853 35.9227 49.5973C34.2587 50.2773 32.4187 49.9973 30.7041 49.6987C29.0601 49.4093 27.5227 48.8413 26.2814 47.6867C23.9521 45.5173 23.3334 42.1333 23.6667 39.088C23.8001 37.8787 24.3147 35.8813 25.1747 33.6693L25.6654 31.292C26.0481 27.888 28.3734 24.88 31.3547 23.1947C34.3361 21.5093 37.8881 21.0413 41.3027 21.3667C45.1027 21.7293 48.9867 23.1733 51.3547 26.1667C53.7227 29.16 54.0654 33.9 51.4241 36.656L47.7014 39.3427C49.2307 37.9987 50.1307 37.8187 51.1347 38.3253C52.5641 39.0467 52.7787 40.572 52.4681 41.8533C52.1321 43.2667 51.2361 44.4853 50.0867 45.3533C49.5067 45.784 48.8747 46.1427 48.2067 46.42C47.8787 46.5587 47.5441 46.6813 47.2041 46.788C46.8214 46.9093 46.4347 46.9053 46.2547 47.2787C45.4627 48.9293 45.1121 50.4427 45.2667 52.2667" fill="rgb(255, 255, 255)" class="skin"></path>
<path d="M58.5733 44.4827C58.6387 47.0373 59.992 49.1973 61.3253 51.2827L61.352 51.3253C62.612 53.3093 63.972 55.448 63.904 57.8867C63.8253 60.7707 61.7987 63.252 61.9707 66.1707C62.1333 68.936 64.5653 72.516 62.2227 74.9707C61.1733 76.0693 59.8893 75.9493 58.648 75.252C57.3 74.4947 55.9587 73.932 54.3907 73.8493C54.008 73.8293 53.624 73.8347 53.2413 73.868L51.2147 73.068C50.6627 72.8147 50.1987 72.4027 49.88 71.8853C49.5627 71.368 49.4053 70.768 49.4293 70.1613C49.496 68.972 50.2667 67.8547 50.096 66.676C49.8853 65.204 48.3187 64.2947 47.8293 62.892C47.2733 61.2907 48.2387 59.6093 49.0067 58.0987C49.5293 57.092 49.9253 56.024 50.1827 54.92C50.0933 54.888 50.0133 54.836 49.948 54.768C49.788 54.604 49.6933 54.3827 49.5307 54.22C49.216 53.9013 48.7107 53.8547 48.3533 53.588C48.1347 53.4227 47.9853 53.1827 47.796 52.9827C47.4733 52.6573 47.0507 51.7813 46.5947 51.7213C46.1387 51.6613 45.6773 51.7533 45.28 51.984C45.124 50.1387 45.4613 48.9507 46.2587 47.2787C46.4387 46.9053 46.8253 46.9093 47.252 46.8093C47.3467 46.7467 47.4453 46.688 47.5467 46.632C46.3013 43.7627 46.1933 40.4333 45.9013 37.268C45.5507 33.5133 44.6733 29.4253 41.684 27.1267C40.448 26.176 38.9533 25.624 37.4493 25.216C36.1493 24.8627 34.824 24.6067 33.4853 24.4507L32.1173 24.6893C31.3667 24.6667 30.6253 24.8693 29.9893 25.268C29.3533 25.668 28.8493 26.248 28.5427 26.9347L27.1093 28.5C25.8987 29.8813 25.2666 31.6747 25.3413 33.5093C24.3133 35.8827 23.7987 37.88 23.6653 39.0893C23.332 42.1347 23.9506 45.5187 26.2786 47.6867C27.52 48.8413 29.0573 49.4093 30.7013 49.6987C32.416 49.9973 34.256 50.2773 35.92 49.5973C35.832 50.984 35.7226 50.86 35.6653 52.268C35.5666 52.6427 35.0653 53.1667 32.8653 52.6507C30.6653 52.1347 29.7987 53.852 28.7987 55.3347C27.7987 56.8173 26.9626 57.328 26.1346 57.664C24.4293 58.3587 24.184 60.7707 22.668 61.8773C22.6173 60.1107 23.296 58.4147 23.7346 56.7027C24.1733 54.9907 24.3453 53.0493 23.3866 51.564C22.7346 50.548 21.644 49.888 20.9586 48.8973C20.084 47.6333 19.9786 45.992 20.068 44.46C20.1573 42.928 20.408 41.3733 20.132 39.8613C20 37.8667 19.2 35.7333 19.6 33.4667C20.2666 29.0667 22.5333 24.8 26.2587 22.4227L28 21.2773C28.5946 20.276 29.4453 19.452 30.4627 18.8867C31.48 18.3213 32.6307 18.0373 33.7947 18.0613L35.1413 17.7453C39.6933 17.1427 44.3187 17.9933 48.3573 20.1773C52.396 22.3613 55.6413 25.7667 57.6293 29.9053C58.3387 31.384 58.8867 32.9787 58.9027 34.6187C58.9267 37.22 57.6187 39.808 58.208 42.3413L58.5733 44.4827Z" fill="rgb(0, 0, 0)" class="head"></path>
<path d="M51.2146 73.8666C51.1026 73.8666 50.9893 73.8426 50.8813 73.7933C50.184 73.4733 49.6026 72.9586 49.2 72.3053C48.7986 71.652 48.6013 70.9013 48.6293 70.1346C48.6293 70.1293 48.6293 70.1253 48.6306 70.12C48.6653 69.5066 48.8426 68.9506 49.0133 68.4146C49.1986 67.8333 49.3746 67.2826 49.304 66.7946C49.22 66.2053 48.7946 65.6893 48.3026 65.092C47.8293 64.5186 47.34 63.924 47.0733 63.16C46.4426 61.3453 47.3413 59.596 48.1333 58.0533C48.1866 57.948 48.2413 57.844 48.2933 57.7413C49.2706 55.808 50.2053 53.0266 49.0946 50.7613C48.8706 50.3013 48.564 49.8706 48.2413 49.4133C48.0613 49.1586 47.8746 48.8946 47.6986 48.62C45.8093 45.6733 45.5133 42.1546 45.228 38.7506C45.188 38.28 45.1493 37.812 45.1053 37.3466C44.7973 34.048 44.0746 29.9773 41.1973 27.7653C40.2253 27.0186 39.0053 26.4706 37.2413 25.992C35.9826 25.6506 34.688 25.4 33.3946 25.2493C32.956 25.1986 32.6413 24.8013 32.6933 24.3613C32.744 23.9226 33.1426 23.608 33.5813 23.66C34.9546 23.82 36.3266 24.0853 37.6626 24.448C39.6386 24.984 41.0306 25.616 42.1746 26.496C45.5426 29.0853 46.3626 33.5746 46.7013 37.1973C46.7453 37.668 46.7853 38.1413 46.8253 38.6173C47.0946 41.8266 47.3733 45.144 49.048 47.756C49.204 48 49.372 48.236 49.5493 48.488C49.8946 48.976 50.2533 49.4813 50.5346 50.056C51.9346 52.912 50.8653 56.204 49.7226 58.4626C49.668 58.5693 49.6146 58.676 49.5586 58.7826C48.8813 60.1013 48.1813 61.4653 48.5866 62.6333C48.7586 63.128 49.1386 63.5866 49.5386 64.0746C50.1026 64.7586 50.7413 65.5333 50.8893 66.5666C51.0133 67.4186 50.7613 68.2066 50.54 68.9013C50.3933 69.36 50.2546 69.7946 50.2306 70.2026C50.2146 70.6493 50.3306 71.088 50.5653 71.468C50.8013 71.8506 51.1413 72.1533 51.5506 72.34C51.952 72.524 52.128 72.9986 51.944 73.4013C51.8066 73.6933 51.5173 73.8666 51.2146 73.8666Z" fill="rgb(0, 0, 0)" class="stroke"></path>
<path d="M22.6693 62.676C22.2386 62.676 21.8826 62.3333 21.8706 61.8986C21.8293 60.4426 22.228 59.0706 22.6146 57.7453C22.7333 57.3373 22.8573 56.9146 22.9613 56.504C23.4706 54.5146 23.3906 53.0413 22.716 51.996C22.4293 51.5493 22.02 51.1626 21.5866 50.7533C21.14 50.332 20.6786 49.896 20.3026 49.3507C19.212 47.7747 19.192 45.7773 19.2706 44.412C19.292 44.0453 19.3226 43.6747 19.352 43.3173C19.448 42.156 19.5386 41.0586 19.3466 40.004C19.3413 39.9746 19.3373 39.944 19.336 39.9133C19.2933 39.2707 19.1746 38.6013 19.048 37.8933C18.804 36.5187 18.5266 34.96 18.8106 33.3373C19.572 28.332 22.1293 24.1093 25.828 21.748C26.2 21.5106 26.6946 21.62 26.9333 21.992C27.1706 22.364 27.0613 22.8586 26.6893 23.0973C23.4253 25.18 21.0706 29.1013 20.3906 33.5866C20.3893 33.5933 20.388 33.6 20.388 33.6053C20.1506 34.952 20.3906 36.3053 20.6226 37.6133C20.748 38.3187 20.8773 39.0466 20.928 39.7613C21.148 41.0093 21.0453 42.2493 20.9466 43.4493C20.9173 43.7973 20.888 44.1573 20.868 44.5053C20.7626 46.3 21.0013 47.5506 21.6173 48.4413C21.9 48.8493 22.2813 49.2093 22.6853 49.5906C23.1693 50.048 23.6693 50.5213 24.0613 51.1307C24.9893 52.5693 25.1373 54.4573 24.5106 56.9013C24.3986 57.3373 24.272 57.772 24.1493 58.1933C23.7813 59.456 23.4333 60.6493 23.468 61.8533C23.4813 62.2946 23.1333 62.6627 22.6906 62.676C22.684 62.676 22.676 62.676 22.6693 62.676Z" fill="rgb(0, 0, 0)" class="stroke"></path>
<path d="M27.9986 22.0773C27.86 22.0773 27.7186 22.0413 27.5893 21.964C27.2093 21.7373 27.0853 21.2467 27.312 20.8667C27.9786 19.7467 28.9346 18.82 30.0746 18.188C31.2146 17.556 32.5093 17.2373 33.8106 17.264C34.252 17.2733 34.6026 17.6387 34.5933 18.0813C34.584 18.5227 34.2213 18.872 33.776 18.864C32.7573 18.8413 31.7426 19.092 30.8493 19.588C29.956 20.084 29.208 20.808 28.6853 21.6853C28.5373 21.9387 28.272 22.0773 27.9986 22.0773Z" fill="rgb(0, 0, 0)" class="stroke"></path>
<path d="M58.064 42.0987C57.6413 42.0987 57.2867 41.7667 57.2653 41.3387C57.2027 40.096 57.452 38.8707 57.692 37.6867C57.908 36.6253 58.112 35.6227 58.1027 34.6293C58.0907 33.3347 57.7 31.904 56.908 30.2547C54.9813 26.2413 51.8933 23.0013 47.9773 20.884C44.0613 18.7667 39.66 17.956 35.2467 18.5413C34.8093 18.5987 34.4067 18.2907 34.348 17.8533C34.2893 17.416 34.5987 17.0133 35.036 16.9547C39.7853 16.3253 44.524 17.1973 48.7387 19.476C52.9533 21.7547 56.2773 25.2427 58.3507 29.5613C59.2453 31.4267 59.688 33.0787 59.7027 34.6133C59.7133 35.776 59.4827 36.9093 59.26 38.0053C59.0293 39.1427 58.8107 40.216 58.8627 41.2573C58.8853 41.6987 58.5453 42.0747 58.104 42.0973C58.0907 42.0987 58.0773 42.0987 58.064 42.0987Z" fill="rgb(0, 0, 0)" class="stroke"></path>
<path d="M60.4293 76.5933C59.744 76.5933 59.012 76.3827 58.2573 75.9573C56.7493 75.1107 55.5813 74.7213 54.3493 74.656C54.004 74.6373 53.6547 74.644 53.3107 74.6733C52.8733 74.7147 52.4827 74.3853 52.4453 73.9453C52.4067 73.5053 52.7333 73.1173 53.1733 73.08C53.5907 73.044 54.0147 73.0373 54.4333 73.06C56.3093 73.1587 57.8147 73.876 59.04 74.564C60.4827 75.3747 61.2173 74.8733 61.644 74.4267C62.9333 73.0773 62.3867 71.188 61.808 69.188C61.5227 68.2027 61.228 67.184 61.172 66.2253C61.0707 64.5133 61.6347 62.9853 62.1813 61.508C62.6387 60.268 63.072 59.0973 63.1053 57.8733C63.1653 55.684 61.9067 53.6973 60.6893 51.7773L60.6507 51.716C59.336 49.648 57.8467 47.304 57.7747 44.508C57.764 44.0667 58.112 43.6987 58.5533 43.688C58.9933 43.6787 59.3627 44.0253 59.3733 44.4667C59.4333 46.8187 60.7387 48.872 62.0013 50.8573L62.04 50.9187C63.324 52.9427 64.7787 55.2373 64.704 57.9147C64.664 59.4027 64.164 60.7533 63.6827 62.06C63.172 63.444 62.6893 64.7507 62.7707 66.1293C62.816 66.9093 63.0747 67.7987 63.3467 68.7413C63.9947 70.9787 64.728 73.5147 62.8027 75.5293C62.1267 76.2373 61.3173 76.5933 60.4293 76.5933Z" fill="rgb(0, 0, 0)" class="stroke"></path>
<path d="M45.2787 52.3187C44.868 52.3187 44.5173 52.004 44.4827 51.5853C44.3133 49.5773 44.704 48.6573 45.5333 46.9307C45.8373 46.3 46.412 46.1613 46.756 46.0773C46.8307 46.06 46.9013 46.0427 46.9627 46.0227C47.384 45.8893 47.8333 46.1227 47.9667 46.544C48.1 46.9653 47.8667 47.4147 47.4453 47.548C47.332 47.584 47.2253 47.6093 47.132 47.632C47.072 47.6467 46.9973 47.664 46.948 47.68C46.1813 49.28 45.944 49.8813 46.0773 51.4493C46.1147 51.8893 45.788 52.2773 45.348 52.3133C45.324 52.3173 45.3013 52.3187 45.2787 52.3187Z" fill="rgb(0, 0, 0)" class="stroke"></path>
<path d="M35.884 53.4987C35.4587 53.4987 35.1053 53.164 35.0853 52.7347C35.0427 51.796 35.0333 51.324 35.06 50.68C33.4573 50.9893 31.8253 50.7053 30.5666 50.4853C28.5333 50.128 26.9533 49.4027 25.736 48.2707C23.4986 46.1867 22.4533 42.808 22.8706 38.9987C23.0266 37.5867 23.608 35.4853 24.428 33.3773C24.588 32.9653 25.052 32.7613 25.464 32.9213C25.876 33.0813 26.08 33.5453 25.92 33.9573C25.0106 36.296 24.5706 38.1853 24.4613 39.1733C24.1 42.4733 24.9613 45.3627 26.8266 47.0987C27.824 48.0267 29.1 48.6013 30.8427 48.908C32.624 49.2187 34.2133 49.428 35.62 48.8547C35.8746 48.7507 36.1653 48.7853 36.3893 48.9453C36.6133 49.1053 36.7387 49.3707 36.7213 49.6453C36.636 50.9867 36.6213 51.2827 36.6853 52.6587C36.7053 53.1 36.364 53.4747 35.9227 53.4947C35.9093 53.4987 35.8973 53.4987 35.884 53.4987Z" fill="rgb(0, 0, 0)" class="stroke"></path>
<path d="M25.6013 32.4053C25.564 32.4053 25.5253 32.4027 25.4866 32.3973C25.0493 32.3347 24.7453 31.9293 24.808 31.492C25.12 29.3213 25.9026 28.52 26.7026 27.9787C27.3066 27.5693 27.408 27.3667 27.656 26.8773C27.752 26.6867 27.8626 26.4693 28.0173 26.2067C28.4106 25.54 28.9453 24.9813 29.5653 24.5933C30.0986 24.2587 30.6853 24.04 31.308 23.9453C31.744 23.8787 32.1533 24.1773 32.22 24.6147C32.2866 25.052 31.988 25.46 31.5506 25.5267C31.1453 25.5893 30.7626 25.7307 30.416 25.9493C30.012 26.2027 29.66 26.572 29.396 27.02C29.268 27.2387 29.1746 27.4227 29.084 27.6C28.796 28.1693 28.5466 28.6613 27.6013 29.3027C27.0986 29.644 26.628 30.0853 26.392 31.72C26.336 32.1173 25.9933 32.4053 25.6013 32.4053Z" fill="rgb(0, 0, 0)" class="stroke"></path>
<path d="M29.124 37.3467C29.6395 37.3467 30.0573 36.8393 30.0573 36.2134C30.0573 35.5874 29.6395 35.08 29.124 35.08C28.6085 35.08 28.1907 35.5874 28.1907 36.2134C28.1907 36.8393 28.6085 37.3467 29.124 37.3467Z" fill="black"></path>
<path d="M33.6573 37.66C34.1728 37.66 34.5907 37.1526 34.5907 36.5267C34.5907 35.9008 34.1728 35.3933 33.6573 35.3933C33.1419 35.3933 32.724 35.9008 32.724 36.5267C32.724 37.1526 33.1419 37.66 33.6573 37.66Z" fill="black"></path>
</svg>