<svg xmlns="http://www.w3.org/2000/svg" viewBox="0 0 80 80" fill="none">
<path d="M35.8854 53.3653C35.8214 51.976 35.8347 50.9853 35.9227 49.5973C34.2587 50.2773 32.4187 49.9973 30.7041 49.6987C29.0601 49.4093 27.5227 48.8413 26.2814 47.6867C23.9521 45.5173 23.3334 42.1333 23.6667 39.088C23.8001 37.8787 24.3147 35.8813 25.1747 33.6693L25.6654 31.292C26.0481 27.888 28.3734 24.88 31.3547 23.1947C34.3361 21.5093 37.8881 21.0413 41.3027 21.3667C45.1027 21.7293 48.9867 23.1733 51.3547 26.1667C53.7227 29.16 54.0654 33.9 51.4241 36.656L47.7014 39.3427C49.2307 37.9987 50.1307 37.8187 51.1347 38.3253C52.5641 39.0467 52.7787 40.572 52.4681 41.8533C52.1321 43.2667 51.2361 44.4853 50.0867 45.3533C49.5067 45.784 48.8747 46.1427 48.2067 46.42C47.8787 46.5587 47.5441 46.6813 47.2041 46.788C46.8214 46.9093 46.4347 46.9053 46.2547 47.2787C45.4627 48.9293 44.8454 50.4427 45.0001 52.2667" fill="rgb(255, 255, 255)" class="skin"></path>
<path d="M69.2 65.7333C68.852 65.276 68.4174 64.864 68.224 64.3227C67.9987 63.6947 68.136 63.004 68.2094 62.3427C68.4227 60.3787 68.0507 58.396 67.1427 56.6413C66.5494 55.5027 65.7267 54.4573 65.424 53.2107C64.624 49.9387 67.6307 46.572 66.684 43.344C65.8547 40.5107 62.3507 39.1347 61.46 36.3187C60.8054 34.244 61.7614 31.9547 61.2787 29.8333C60.932 28.3093 59.8894 27.056 59.1547 25.6773C58.028 23.564 57.608 21.112 56.3427 19.0787C55.0774 17.0453 52.4134 15.4947 50.304 16.6347C46.9534 14.068 44.272 12.8693 41.556 12.5667C38.84 12.264 36.0894 12.792 33.5014 13.6707C30.6667 14.6333 27.9307 16.056 25.848 18.204C23.7654 20.352 22.392 23.3 22.5627 26.288L22.6214 26.3707C19.608 30.8507 17.9107 36.7107 18.8654 42.104C19.1187 43.5333 19.6654 44.8707 20.0214 46.2747C20.324 47.4973 20.3614 48.7693 20.1307 50.008C19.7214 52.3587 18.6507 54.5867 18.5134 56.9867C18.4334 58.3053 18.7707 59.616 19.48 60.7307C20.28 62.02 21.1734 63.144 21.364 64.7L21.3574 64.66C21.3414 64.7387 21.356 64.82 21.3987 64.8893C21.4414 64.9573 21.508 65.0067 21.5854 65.0267C22.1 64.7333 22.1454 64.0253 22.1774 63.4333C22.272 61.7213 22.9494 59.8333 24.52 59.148C25.2067 58.8467 26.0414 58.7813 26.5454 58.2267C27.1987 57.508 26.5027 55.6587 27.3414 55.1667C27.972 54.7973 28.8427 55.1147 29.4667 54.7333C29.9707 54.4267 30.2 53.3667 30.6 52.9333C31.7334 51.712 34.4134 52.9333 35.76 52.5027C35.8507 51.264 35.876 50.4293 35.9294 49.5973C34.7147 50.0933 33.3787 50.0773 32.0974 49.916C30.28 49.7333 28.4134 49.3333 26.8134 48.1333C22.28 44.5333 23.08 38.1333 25.3467 33.6C25.3467 31.2 26.1467 28.2667 28.772 27.548C29.3467 29.2 31.2134 30.1333 32.9467 29.8667C34.5467 29.4667 35.48 28.1333 36.68 27.0667C37.2134 26.6667 37.7467 27.4667 37.88 28C38.0134 29.2 38.28 30.6667 39.6134 31.2C40.4134 31.4667 41.3467 31.2 42.1467 31.6C43.08 32.2667 43.2134 33.4667 44.1467 34C44.8134 34.2667 45.7467 34.5333 46.1467 35.0667C47.2134 36.6667 46.28 38.4 46.5467 40.1333C46.68 40.5333 46.8134 40.8 46.9467 41.2C47.88 42.9333 49.28 43.4 49.68 45.4C49.7014 45.524 49.6694 45.5467 49.68 45.6667C49.1627 45.916 48.64 46.272 48.08 46.4C47.364 46.56 46.7654 47.2 46.3414 47.7987C46.1827 48.052 46.0707 48.332 46.012 48.6253C45.776 49.5333 45.56 50.4453 45.3627 51.364C45.276 51.7733 45.4134 52.2 45.504 52.3227C45.5947 52.4453 46.5467 52.4667 46.5467 52.4667C46.5467 52.4667 47.6094 52.6733 48.1387 52.5653C48.06 53.8453 48.5707 55.1213 49.0827 56.2747C49.4827 57.3413 49.7494 58.5413 49.216 59.7413C48.6827 60.808 48.1494 61.8747 48.016 63.0747C47.8827 64.5413 48.816 65.7413 49.216 67.0747C49.4827 68.808 49.0827 70.408 49.616 72.1413C49.8827 73.208 50.4827 74.3413 51.7494 74.104L52.7147 74.2907C53.272 74.2893 53.824 74.388 54.3454 74.5827C56.4947 76.1053 59.5614 76.2813 61.9067 75.0013C62.8707 74.468 63.7267 73.7227 64.78 73.412C65.4654 73.2107 66.196 73.2093 66.8894 73.0307C69.804 72.2747 71.02 68.1333 69.2 65.7333Z" fill="rgb(0, 0, 0)" class="head"></path>
<path d="M21.3493 65.5C20.9507 65.5 20.6053 65.2027 20.556 64.7973C20.42 63.688 19.8573 62.8173 19.2053 61.8093C19.0653 61.5933 18.9253 61.376 18.7867 61.1533C17.988 59.896 17.6107 58.4373 17.7013 56.9413C17.7867 55.4466 18.2067 54.0333 18.6133 52.6653C18.8987 51.7066 19.1667 50.8026 19.3293 49.8733C19.5413 48.7306 19.508 47.5893 19.232 46.4693C19.0973 45.9386 18.9267 45.3947 18.7627 44.868C18.5 44.028 18.228 43.1586 18.0653 42.2453C17.14 37.0146 18.5907 30.9146 21.9453 25.9253C22.192 25.5586 22.6893 25.4613 23.056 25.708C23.4227 25.9546 23.52 26.452 23.2733 26.8186C20.144 31.472 18.7867 37.1346 19.6413 41.9666C19.7853 42.7786 20.0307 43.5613 20.2893 44.3893C20.4613 44.936 20.6373 45.5026 20.784 46.08C21.1173 47.4266 21.1573 48.7973 20.904 50.156C20.728 51.168 20.4333 52.16 20.148 53.12C19.7507 54.4586 19.3747 55.7227 19.3 57.0333C19.2293 58.1933 19.5213 59.3213 20.1427 60.3C20.28 60.5213 20.416 60.7307 20.5493 60.9387C21.2453 62.0147 21.964 63.1267 22.1453 64.6013C22.1987 65.04 21.8867 65.4387 21.448 65.492C21.4147 65.4987 21.3827 65.5 21.3493 65.5Z" fill="rgb(0, 0, 0)" class="stroke"></path>
<path d="M58.464 76.6427C56.8227 76.6427 55.1787 76.1587 53.828 75.208C53.4667 74.9533 53.38 74.4547 53.6347 74.0933C53.8893 73.732 54.388 73.6453 54.7493 73.9C56.7 75.2733 59.4147 75.428 61.5053 74.288C61.812 74.1213 62.1107 73.9267 62.4267 73.7213C63.0693 73.3027 63.7347 72.8693 64.536 72.6333C64.9587 72.5093 65.3733 72.4533 65.7733 72.4C66.092 72.3573 66.3933 72.3173 66.6733 72.2453C67.7093 71.9787 68.5747 71.1053 68.9907 69.9107C69.448 68.5973 69.2773 67.1827 68.5466 66.2187C68.4666 66.1133 68.3773 66.0067 68.2827 65.8933C67.984 65.5333 67.644 65.1267 67.4547 64.5933C67.1987 63.88 67.2867 63.1693 67.364 62.5427C67.376 62.4467 67.388 62.352 67.3987 62.256C67.5947 60.444 67.256 58.6293 66.4173 57.0107C66.2467 56.6827 66.0533 56.36 65.8493 56.0187C65.368 55.2133 64.8693 54.3813 64.632 53.4C64.1867 51.5773 64.756 49.8147 65.3053 48.1093C65.824 46.5 66.3147 44.9787 65.9013 43.5693C65.544 42.3413 64.548 41.384 63.4947 40.3693C62.3587 39.2773 61.1853 38.148 60.6827 36.56C60.2893 35.312 60.4013 34.0547 60.5093 32.8387C60.5987 31.836 60.684 30.8893 60.484 30.0107C60.2733 29.088 59.752 28.244 59.1987 27.3507C58.94 26.9333 58.6733 26.5013 58.4333 26.0533C57.8933 25.04 57.5107 23.9653 57.1413 22.9253C56.704 21.6973 56.292 20.5373 55.648 19.5013C54.2987 17.328 51.9853 16.6293 50.672 17.34C50.3947 17.4893 50.0547 17.4627 49.8053 17.272C46.656 14.86 44.0813 13.6547 41.456 13.364C39.1373 13.1067 36.6147 13.456 33.7467 14.4307C30.6493 15.48 28.1813 16.9373 26.4107 18.764C24.3173 20.9227 23.2013 23.6507 23.3493 26.2453C23.3747 26.6867 23.0373 27.064 22.596 27.0893C22.1573 27.1147 21.7773 26.7773 21.752 26.336C21.5787 23.2947 22.8573 20.1293 25.2613 17.6493C27.2107 15.6387 29.892 14.0467 33.232 12.9147C36.3267 11.864 39.0747 11.4907 41.632 11.7733C44.4533 12.0853 47.1707 13.304 50.3947 15.712C52.8013 14.8013 55.6333 16.4453 57.0067 18.6573C57.7413 19.84 58.2027 21.136 58.648 22.3907C59.0147 23.4213 59.36 24.3947 59.8453 25.3027C60.06 25.7053 60.3027 26.096 60.5587 26.5107C61.156 27.476 61.7747 28.4747 62.044 29.6573C62.3 30.7813 62.2 31.9013 62.1027 32.9827C62.004 34.0907 61.9107 35.136 62.208 36.0787C62.5867 37.2773 63.5667 38.22 64.6027 39.2173C65.7613 40.332 66.9613 41.4853 67.436 43.1213C67.9867 45.0013 67.3973 46.832 66.8267 48.6013C66.3227 50.1627 65.848 51.6387 66.1853 53.0227C66.3667 53.768 66.7813 54.4627 67.2213 55.1973C67.428 55.544 67.6427 55.9013 67.836 56.2733C68.8213 58.1747 69.2187 60.304 68.988 62.4307C68.9773 62.5347 68.964 62.6373 68.9507 62.74C68.8893 63.2333 68.832 63.6987 68.96 64.0547C69.0547 64.3213 69.2773 64.588 69.512 64.8693C69.6133 64.9907 69.7173 65.1173 69.82 65.2507C70.8707 66.636 71.132 68.6227 70.5013 70.436C69.9093 72.1373 68.6267 73.3933 67.072 73.7947C66.7 73.8907 66.3373 73.9387 65.9867 73.9867C65.6307 74.0347 65.2933 74.08 64.9893 74.1693C64.4133 74.3387 63.8733 74.6907 63.3027 75.0627C62.9747 75.276 62.6347 75.4973 62.272 75.6933C61.1067 76.3293 59.7853 76.6427 58.464 76.6427Z" fill="rgb(0, 0, 0)" class="stroke"></path>
<path d="M51.7413 74.86C51.204 74.86 50.6773 74.684 50.1973 74.3413C49.352 73.7373 48.7267 72.656 48.5653 71.52C48.4667 70.8213 48.488 70.136 48.5093 69.4747C48.5333 68.732 48.556 68.0293 48.408 67.3773C48.304 66.9213 48.112 66.4667 47.908 65.984C47.5853 65.22 47.2507 64.4307 47.216 63.5213C47.1733 62.4 47.5933 61.4213 48 60.4747C48.34 59.684 48.66 58.936 48.66 58.1973C48.66 57.4893 48.364 56.7747 48.0507 56.0187C47.7347 55.2573 47.408 54.4693 47.3307 53.5827C47.204 52.1493 47.748 50.8627 48.2747 49.6187C48.768 48.4533 49.2333 47.3533 49.0693 46.2827C48.92 45.308 48.2573 44.4427 47.5573 43.5267C46.7453 42.464 45.9053 41.3653 45.7267 39.94C45.64 39.2547 45.7067 38.5453 45.7693 37.8587C45.8907 36.548 45.9347 35.7253 45.3453 35.34C45.1867 35.236 44.956 35.164 44.7133 35.0867C44.4133 34.992 44.0733 34.8853 43.7467 34.6867C43.1267 34.308 42.748 33.72 42.4133 33.2027C42.1053 32.724 41.8387 32.3107 41.4867 32.196C41.2893 32.132 41.012 32.1493 40.72 32.1667C40.564 32.176 40.404 32.1853 40.2347 32.1853C39.0853 32.1813 37.592 31.428 36.9427 27.888C35.6547 29.3307 34.5213 30.204 33.5667 30.484C31.3787 31.1267 29.044 29.8573 28.3613 27.6547C28.2307 27.232 28.4667 26.784 28.8893 26.6533C29.3107 26.5227 29.76 26.7587 29.8907 27.18C30.324 28.576 31.7413 29.352 33.1173 28.948C33.7747 28.7547 34.772 27.9373 35.8533 26.7053C36.04 26.4907 36.2853 26.332 36.5613 26.2507C36.836 26.168 37.128 26.1667 37.4053 26.244C37.6827 26.3213 37.9307 26.476 38.1227 26.6893C38.316 26.904 38.4427 27.1667 38.4907 27.4493C38.616 28.1827 39.116 30.5813 40.2387 30.5853C40.3573 30.5853 40.488 30.5773 40.6253 30.5693C41.0333 30.5453 41.4973 30.5173 41.98 30.6733C42.876 30.9627 43.3453 31.692 43.76 32.336C44.024 32.7467 44.2733 33.1333 44.5813 33.3213C44.7413 33.4187 44.9613 33.488 45.1947 33.5613C45.5147 33.6613 45.8787 33.776 46.2227 34.0013C47.6493 34.9347 47.492 36.6387 47.3653 38.0067C47.3093 38.608 47.252 39.228 47.316 39.7413C47.4413 40.7387 48.116 41.6213 48.8307 42.556C49.6227 43.5907 50.4413 44.6613 50.6533 46.0413C50.8867 47.5613 50.3093 48.9253 49.7507 50.244C49.28 51.3573 48.8347 52.408 48.9267 53.4427C48.984 54.084 49.2493 54.7267 49.532 55.408C49.892 56.276 50.264 57.1733 50.264 58.1987C50.264 59.2653 49.8627 60.2013 49.4747 61.1067C49.1227 61.9267 48.7907 62.7013 48.82 63.4613C48.8427 64.0787 49.1067 64.7027 49.3867 65.3613C49.6093 65.8867 49.8387 66.4293 49.9733 67.024C50.1667 67.876 50.14 68.7147 50.1133 69.5267C50.0933 70.148 50.0747 70.736 50.1533 71.2973C50.252 71.992 50.6453 72.6933 51.1307 73.0413C51.3933 73.2293 51.652 73.296 51.9173 73.2453C52.352 73.1627 52.7707 73.4467 52.8533 73.8813C52.936 74.3147 52.652 74.7347 52.2173 74.8173C52.056 74.8453 51.8973 74.86 51.7413 74.86Z" fill="rgb(0, 0, 0)" class="stroke"></path>
<path d="M35.884 53.4986C35.4587 53.4986 35.1053 53.164 35.0853 52.7346C35.0427 51.796 35.0333 51.324 35.06 50.68C33.4573 50.9893 31.8253 50.7053 30.5666 50.4853C28.5333 50.128 26.9533 49.4026 25.736 48.2706C23.4986 46.1866 22.4533 42.808 22.8706 38.9986C23.036 37.5026 23.6413 35.4547 24.536 33.3533C24.4826 31.2613 25.012 29.6947 26.2413 28.292C26.532 27.96 27.0386 27.9267 27.3706 28.2173C27.7026 28.508 27.736 29.0133 27.4453 29.3467C26.46 30.472 26.0693 31.7053 26.1426 33.4733C26.148 33.5933 26.1253 33.7133 26.0773 33.824C25.216 35.812 24.612 37.812 24.4626 39.1733C24.1013 42.4733 24.9626 45.3626 26.828 47.0986C27.8253 48.0266 29.1013 48.6013 30.844 48.908C32.6253 49.2186 34.2147 49.428 35.6213 48.8546C35.876 48.7506 36.1666 48.7853 36.3906 48.9453C36.6146 49.1053 36.74 49.3707 36.7227 49.6453C36.6373 50.9867 36.6226 51.2826 36.6866 52.6586C36.7066 53.1 36.3653 53.4746 35.924 53.4946C35.9093 53.4986 35.8973 53.4986 35.884 53.4986Z" fill="rgb(0, 0, 0)" class="stroke"></path>
<path d="M45.2787 52.3187C44.868 52.3187 44.5173 52.004 44.4827 51.5853C44.3133 49.5773 44.704 48.6573 45.5333 46.9307C45.8373 46.3 46.412 46.1613 46.756 46.0773C46.8307 46.06 46.9013 46.0427 46.9627 46.0227C47.384 45.8893 47.8333 46.1227 47.9667 46.544C48.1 46.9653 47.8667 47.4147 47.4453 47.548C47.332 47.584 47.2253 47.6093 47.132 47.632C47.072 47.6467 46.9973 47.664 46.948 47.68C46.1813 49.28 45.944 49.8813 46.0773 51.4493C46.1147 51.8893 45.788 52.2773 45.348 52.3133C45.324 52.3173 45.3013 52.3187 45.2787 52.3187Z" fill="rgb(0, 0, 0)" class="stroke"></path>
<path d="M29.124 37.3467C29.6395 37.3467 30.0573 36.8393 30.0573 36.2134C30.0573 35.5874 29.6395 35.08 29.124 35.08C28.6085 35.08 28.1907 35.5874 28.1907 36.2134C28.1907 36.8393 28.6085 37.3467 29.124 37.3467Z" fill="black"></path>
<path d="M33.6573 37.66C34.1728 37.66 34.5907 37.1526 34.5907 36.5267C34.5907 35.9008 34.1728 35.3933 33.6573 35.3933C33.1419 35.3933 32.724 35.9008 32.724 36.5267C32.724 37.1526 33.1419 37.66 33.6573 37.66Z" fill="black"></path>
</svg>