<svg xmlns="http://www.w3.org/2000/svg" viewBox="0 0 80 80" fill="none">
<path d="M46.8346 38.4987C47.7586 37.4107 47.472 35.5267 46.2666 34.7654C45.8346 34.4907 45.288 34.32 45.052 33.8667C44.7853 33.3667 45.0266 32.768 45.1666 32.2214C45.1666 32.204 45.176 32.1854 45.1813 32.168C45.5813 30.52 43.6973 29.2974 42.3253 30.2947C40.612 31.54 38.6653 32.428 36.6013 32.9067C35.5346 33.152 34.224 33.2 33.5653 32.328C33.176 31.8107 33.0826 31.0294 32.0986 31.1027C31.812 31.1267 31.536 31.2267 31.2986 31.3907C29.5373 32.5787 27.5226 33.3347 25.4146 33.6C24.8253 33.6734 24.2146 33.7067 23.6453 33.5374C22.0106 33.0507 21.268 30.9694 21.7613 29.3374C22.2546 27.7054 23.648 26.4987 25.12 25.6347C26.032 25.1014 27.048 24.6107 27.5973 23.7054C27.92 23.172 28.0466 22.5373 28.3706 22.0053C28.6946 21.4733 29.2013 21.072 29.7173 20.7094C32.4973 18.7854 35.8213 17.8067 39.2 17.9147C41.2 17.984 43.5506 18.788 43.9826 20.7374L47.0493 22.0294C49.4093 22.392 51.8093 23.1867 53.48 24.8934C55.1506 26.6 55.88 29.388 54.68 31.4534C54.5226 31.72 54.328 32.0027 54.336 32.3174C54.3466 32.7174 54.6813 33.032 54.9586 33.328C55.444 33.8534 55.8133 34.4747 56.0413 35.152C56.2693 35.8294 56.352 36.5467 56.284 37.2587C56.2213 37.8774 56.0173 38.5174 55.5533 38.9267C55.0893 39.336 54.2986 39.42 53.86 38.98L47.2066 40L46.8346 38.4987Z" fill="rgb(0, 0, 0)" class="head"></path>
<path d="M25.1747 33.6694C24.3147 35.8814 23.7974 37.8787 23.6667 39.088C23.3374 42.1334 23.952 45.5174 26.2814 47.6867C27.5227 48.8414 29.06 49.4094 30.704 49.6987C32.4187 50.0014 34.2587 50.2774 35.9227 49.5974C35.8347 50.9854 35.8214 51.976 35.8854 53.3654L45.2854 52.3227C45.1334 50.4974 45.472 48.932 46.2667 47.2814C46.4467 46.908 46.8334 46.912 47.216 46.7907C47.556 46.684 47.8894 46.5614 48.2187 46.4227C48.8867 46.1454 49.5174 45.7867 50.0987 45.356C51.248 44.488 52.144 43.2694 52.48 41.856C52.7854 40.5747 52.5707 39.0494 51.1467 38.328C50.1427 37.8214 49.2427 38.0014 47.7134 39.3454L46.8467 38.5027C47.7707 37.4147 47.484 35.5307 46.2787 34.7694C45.8467 34.4947 45.3 34.324 45.064 33.8707C44.7974 33.3707 45.0387 32.772 45.1787 32.2254C45.1787 32.208 45.188 32.1894 45.1934 32.172C45.5934 30.524 43.7094 29.3014 42.3374 30.2987C40.624 31.544 38.6774 32.432 36.6134 32.9107C35.5467 33.156 34.236 33.204 33.5774 32.332C33.188 31.8147 33.0947 31.0334 32.1107 31.1067C31.824 31.1307 31.548 31.2307 31.3107 31.3947C29.5454 32.5827 27.5254 33.3374 25.4147 33.6" fill="rgb(255, 255, 255)" class="skin"></path>
<path d="M54.6293 40.0773C54.1293 40.0773 53.644 39.9 53.2893 39.5453C52.9773 39.232 52.9786 38.7253 53.2906 38.4133C53.604 38.1013 54.1106 38.1027 54.4226 38.4147C54.5226 38.5147 54.836 38.4893 55.02 38.3267C55.2666 38.1093 55.4306 37.7013 55.484 37.1773C55.5413 36.5773 55.4733 35.9813 55.2786 35.4067C55.0853 34.832 54.7786 34.316 54.3666 33.8707L54.2986 33.7987C53.9826 33.4653 53.5493 33.0093 53.532 32.3387C53.5186 31.8253 53.76 31.424 53.936 31.1307L53.9866 31.0467C55.048 29.2187 54.2226 26.7987 52.904 25.4533C51.5933 24.1147 49.5813 23.2293 46.924 22.82C46.4866 22.7533 46.188 22.344 46.2546 21.908C46.3213 21.472 46.7306 21.172 47.1666 21.2387C50.1746 21.7013 52.4893 22.7427 54.048 24.3333C54.9933 25.2987 55.664 26.5573 55.936 27.8773C56.2306 29.3053 56.0293 30.7173 55.368 31.856L55.308 31.956C55.2466 32.0573 55.1453 32.2253 55.1333 32.2947C55.1613 32.384 55.348 32.58 55.46 32.6987L55.5386 32.7813C56.108 33.3973 56.5293 34.1067 56.796 34.896C57.0626 35.6853 57.156 36.5053 57.0773 37.3347C56.9813 38.2787 56.6373 39.0347 56.08 39.5267C55.6626 39.8933 55.1386 40.0773 54.6293 40.0773Z" fill="rgb(0, 0, 0)" class="stroke"></path>
<path d="M46.8346 39.2987C46.652 39.2987 46.468 39.236 46.3173 39.108C45.98 38.8213 45.94 38.3173 46.2253 37.98C46.512 37.6427 46.636 37.1373 46.5586 36.628C46.4813 36.12 46.212 35.676 45.84 35.4413C45.748 35.3827 45.64 35.3253 45.5253 35.264C45.1266 35.052 44.6293 34.7867 44.3426 34.236C43.9693 33.536 44.176 32.7987 44.328 32.2587C44.3466 32.192 44.3653 32.1253 44.3826 32.06C44.3906 32.0173 44.4013 31.9787 44.412 31.9467C44.5426 31.3387 44.1253 31.004 43.992 30.9147C43.7 30.7187 43.2333 30.624 42.7973 30.94C40.9866 32.256 38.964 33.1787 36.784 33.684C35.004 34.0933 33.6706 33.7907 32.9293 32.808C32.7973 32.6333 32.7 32.4547 32.6146 32.2973C32.388 31.8813 32.38 31.8813 32.16 31.8987C32.02 31.9107 31.8786 31.9613 31.7573 32.0453C29.892 33.3027 27.7373 34.112 25.5173 34.3907C24.8906 34.4693 24.152 34.5187 23.42 34.3013C22.5546 34.044 21.82 33.4227 21.3506 32.5533C20.7906 31.5133 20.6586 30.224 20.9973 29.1027C21.48 27.5067 22.7306 26.1067 24.7173 24.9413C24.84 24.8693 24.9626 24.8 25.0866 24.7293C25.8373 24.3013 26.5453 23.8973 26.916 23.2867C27.04 23.0827 27.136 22.832 27.2386 22.5667C27.3626 22.2453 27.4906 21.9133 27.6906 21.5853C28.0933 20.9227 28.684 20.456 29.26 20.0507C32.1653 18.04 35.7026 16.9987 39.228 17.1107C41.448 17.188 44.2293 18.1373 44.7666 20.56C44.8626 20.992 44.5906 21.4187 44.1586 21.5147C43.728 21.6093 43.3 21.3387 43.204 20.9067C42.8866 19.4747 40.952 18.772 39.1746 18.7107C35.992 18.6067 32.7946 19.5507 30.1746 21.364C29.744 21.6667 29.3066 22.0067 29.056 22.4187C28.9306 22.624 28.8333 22.876 28.7306 23.1427C28.608 23.4613 28.4813 23.7907 28.284 24.116C27.6986 25.0813 26.732 25.6333 25.8786 26.1187C25.76 26.1867 25.6426 26.2533 25.5253 26.3213C23.8986 27.276 22.8906 28.368 22.528 29.5653C22.3133 30.2773 22.4013 31.1307 22.7586 31.7933C22.9466 32.1413 23.292 32.5933 23.8746 32.7667C24.324 32.9 24.856 32.86 25.3173 32.8027C27.2893 32.5547 29.204 31.836 30.8533 30.724C31.196 30.4867 31.6066 30.3387 32.0333 30.3027C33.2986 30.2067 33.768 31.0693 34.02 31.532C34.0853 31.652 34.1466 31.7653 34.2066 31.844C34.6653 32.452 35.9106 32.2427 36.424 32.124C38.3933 31.668 40.2213 30.8333 41.8573 29.644C42.7653 28.984 43.9533 28.96 44.884 29.5827C45.7986 30.1947 46.2213 31.2827 45.9613 32.352C45.9573 32.368 45.9533 32.3827 45.948 32.3987C45.948 32.4 45.948 32.4013 45.9466 32.4013C45.9453 32.4053 45.944 32.4107 45.944 32.4147C45.9213 32.504 45.896 32.5947 45.8706 32.6867C45.788 32.98 45.6866 33.3453 45.7613 33.4853C45.8226 33.604 46.056 33.728 46.2813 33.848C46.4173 33.92 46.5573 33.9947 46.7 34.0853C47.468 34.5707 47.9946 35.408 48.144 36.3813C48.2933 37.3573 48.04 38.316 47.4493 39.0107C47.2866 39.2027 47.0613 39.2987 46.8346 39.2987Z" fill="rgb(0, 0, 0)" class="stroke"></path>
<path d="M45.2787 52.3187C44.868 52.3187 44.5173 52.004 44.4827 51.5853C44.3133 49.5773 44.704 48.6587 45.5333 46.9307C45.8373 46.3 46.412 46.1613 46.756 46.0787C46.8307 46.06 46.9013 46.044 46.9627 46.024C47.28 45.924 47.5933 45.8093 47.896 45.6813C48.508 45.428 49.0827 45.1013 49.6107 44.7093C50.6747 43.9053 51.416 42.824 51.6907 41.6667C51.832 41.084 52.024 39.668 50.7747 39.0373C50.2293 38.7613 49.6947 38.6533 48.2293 39.9413C47.8973 40.2333 47.392 40.2 47.1 39.868C46.808 39.536 46.8413 39.0307 47.1733 38.7387C49.2773 36.8893 50.4933 37.1027 51.4947 37.608C53.0467 38.392 53.7173 40.0893 53.2453 42.0387C52.8853 43.5533 51.9347 44.9573 50.5693 45.988C49.932 46.4613 49.2413 46.8533 48.5133 47.1547C48.168 47.3 47.8067 47.4333 47.4427 47.5467C47.332 47.5813 47.2253 47.608 47.132 47.6307C47.0733 47.6453 46.9973 47.6627 46.948 47.6787C46.1813 49.2787 45.944 49.88 46.0773 51.448C46.1147 51.888 45.788 52.2747 45.348 52.312C45.324 52.3173 45.3013 52.3187 45.2787 52.3187Z" fill="rgb(0, 0, 0)" class="stroke"></path>
<path d="M35.8853 53.4987C35.46 53.4987 35.1067 53.164 35.0867 52.7347C35.044 51.796 35.0347 51.324 35.0613 50.68C33.4587 50.9893 31.8267 50.7053 30.568 50.4853C28.5347 50.1267 26.9547 49.4027 25.7373 48.2707C23.5 46.1867 22.456 42.808 22.872 38.9987C23.028 37.5867 23.6093 35.4853 24.4293 33.3773C24.5893 32.9653 25.0533 32.7613 25.4653 32.9213C25.8773 33.0813 26.0813 33.5453 25.9213 33.9573C25.012 36.296 24.572 38.1853 24.4627 39.1733C24.1013 42.4733 24.9627 45.3627 26.828 47.0987C27.8253 48.0267 29.1013 48.6013 30.844 48.908C32.6253 49.2187 34.216 49.428 35.6213 48.8533C35.876 48.7493 36.1667 48.784 36.3907 48.944C36.6147 49.1053 36.74 49.3693 36.7227 49.644C36.6373 50.9853 36.6227 51.2813 36.6867 52.6573C36.7067 53.0987 36.3653 53.4733 35.924 53.4933C35.9093 53.4987 35.8973 53.4987 35.8853 53.4987Z" fill="rgb(0, 0, 0)" class="stroke"></path>
<path d="M29.124 37.3467C29.6395 37.3467 30.0573 36.8393 30.0573 36.2134C30.0573 35.5874 29.6395 35.08 29.124 35.08C28.6085 35.08 28.1907 35.5874 28.1907 36.2134C28.1907 36.8393 28.6085 37.3467 29.124 37.3467Z" fill="black"></path>
<path d="M33.6573 37.66C34.1728 37.66 34.5907 37.1526 34.5907 36.5266C34.5907 35.9007 34.1728 35.3933 33.6573 35.3933C33.1419 35.3933 32.724 35.9007 32.724 36.5266C32.724 37.1526 33.1419 37.66 33.6573 37.66Z" fill="black"></path>
</svg>