<svg xmlns="http://www.w3.org/2000/svg" viewBox="0 0 80 80" fill="none">
<path d="M47.2653 39.4427C46.2667 39.3694 45.6987 38.196 45.76 37.1987C45.8213 36.2014 46.2933 35.2707 46.4413 34.2814C46.7813 32.0614 45.2693 29.7054 43.108 29.0907C42.5173 28.9227 41.884 28.868 41.3467 28.5707C40.8987 28.3214 40.5253 27.904 40.0227 27.816C39.096 27.6454 38.3333 28.616 37.396 28.72C36.152 28.8534 35.1907 27.428 33.9387 27.4307C32.6453 27.4307 31.7507 28.94 30.46 29.0014C29.5947 29.0427 28.8213 28.4134 27.956 28.3707C26.8373 28.3174 25.908 29.2547 25.4013 30.2534C24.8947 31.252 24.644 32.38 24.02 33.3107C23.4493 34.1614 22.2573 34.8174 21.4253 34.22C20.8507 33.8094 20.74 33.004 20.7813 32.3C20.8653 30.856 21.3653 29.4667 22.22 28.3C22.4867 27.9454 22.7827 27.596 22.8787 27.1667C23.012 26.5347 22.6867 25.9067 22.5587 25.272C22.2773 23.872 23.144 22.3307 24.4867 21.8427C25.1213 21.6134 25.8307 21.596 26.4253 21.2774C27.02 20.9587 27.4413 20.3547 27.8547 19.8027C30.0427 16.88 33.548 14.488 37.14 15.136C39.344 15.536 41.2733 17.02 44.0147 17.536C45.9227 16.1187 48.8627 16.336 50.532 18.0334C52.688 20.2147 52.604 24.0814 55.0653 25.916C55.4573 26.2094 55.9133 26.4494 56.1813 26.8574C56.7507 27.724 56.2373 28.9014 56.4813 29.9107C56.6947 30.7867 57.4387 31.4107 57.992 32.1227C58.5453 32.8347 58.9 33.9134 58.3093 34.5947C58.052 34.8907 57.6693 35.0414 57.3667 35.2894C56.6227 35.8974 56.4747 36.98 56.5667 37.936C56.6587 38.892 56.9893 40.1067 56.8 40.8C56.0387 43.6174 54.2773 42.8987 53.4413 43.3334" fill="rgb(0, 0, 0)" class="head"></path>
<path d="M25.3333 33.4667C24.5333 34.6667 24.4 36.1333 24 37.6C24 38.0213 22.3786 43.712 26.1333 47.4667C27.4666 48.8 29.2 49.3333 31 49.7333C32.6146 49.9827 34.3786 50.2333 35.9333 49.6C35.844 50.988 35.8306 51.9787 35.8946 53.368L45.2666 52.4C45.1133 50.576 45.4773 48.9347 46.2706 47.284C46.4493 46.9107 46.8373 46.9147 47.22 46.7933C47.5586 46.6867 47.8947 46.564 48.2227 46.4253C48.8907 46.148 49.5213 45.7893 50.1026 45.3587C51.252 44.4907 52.1467 43.272 52.484 41.8587C52.7893 40.5773 52.5746 39.052 51.144 38.3307C50.1413 37.824 49.2413 38.004 47.712 39.348L47.2613 39.444C46.2626 39.3707 45.6947 38.1973 45.756 37.2C45.8173 36.2027 46.2893 35.272 46.4373 34.2827C46.7773 32.0627 45.2653 29.7067 43.104 29.092C42.5133 28.924 41.88 28.8693 41.3426 28.572C40.8946 28.3227 40.5213 27.9053 40.0187 27.8173C39.092 27.6467 38.3293 28.6173 37.392 28.7213C36.148 28.8547 35.1866 27.4293 33.9346 27.432C32.6413 27.432 31.7466 28.9413 30.456 29.0027C29.5906 29.044 28.8173 28.4147 27.952 28.372C26.8333 28.3187 25.904 29.256 25.3973 30.2547C24.8906 31.2533 24.64 32.3813 24.016 33.312" fill="rgb(255, 255, 255)" class="skin"></path>
<path d="M53.4414 44.1333C53.152 44.1333 52.8734 43.976 52.7307 43.7026C52.5267 43.3106 52.68 42.828 53.072 42.624C53.4134 42.4466 53.7814 42.3986 54.1374 42.3533C54.956 42.248 55.6027 42.1653 56.028 40.5906C56.1134 40.2773 56 39.572 55.9094 39.0066C55.856 38.676 55.8014 38.3346 55.7707 38.0133C55.6294 36.548 56.016 35.36 56.8614 34.6706C57.02 34.54 57.184 34.4373 57.3294 34.348C57.484 34.2506 57.6307 34.16 57.7067 34.0706C57.9654 33.772 57.7347 33.0946 57.3614 32.6146C57.2307 32.4466 57.084 32.2786 56.9294 32.1013C56.4507 31.556 55.9094 30.9373 55.7054 30.1C55.576 29.564 55.6094 29.0306 55.64 28.5586C55.6734 28.0346 55.7014 27.5826 55.5147 27.2973C55.3987 27.1213 55.1627 26.9586 54.912 26.7866C54.8027 26.712 54.6934 26.636 54.588 26.5573C53.084 25.436 52.4414 23.728 51.82 22.076C51.32 20.7453 50.8467 19.4893 49.9654 18.596C48.584 17.192 46.0787 17.0013 44.4947 18.1786C44.316 18.312 44.0894 18.364 43.8694 18.3226C42.3427 18.0346 41.0427 17.4613 39.8974 16.9546C38.8987 16.5133 37.956 16.0973 37 15.9226C34.7707 15.52 31.364 16.4533 28.4974 20.2813L28.4067 20.4026C27.988 20.9653 27.5134 21.6013 26.8054 21.9813C26.356 22.2226 25.8827 22.324 25.464 22.412C25.2107 22.4666 24.9707 22.5173 24.76 22.5933C23.7894 22.9453 23.1414 24.1 23.344 25.1133C23.376 25.2693 23.4254 25.4386 23.4787 25.6173C23.628 26.1213 23.7974 26.6906 23.6627 27.3306C23.5374 27.892 23.2254 28.3013 22.9494 28.6626L22.8614 28.7786C22.1014 29.816 21.6574 31.0506 21.5814 32.344C21.5454 32.9546 21.6587 33.4 21.892 33.5666C21.96 33.616 22.0734 33.6746 22.288 33.636C22.6574 33.5693 23.0974 33.252 23.3574 32.8626C23.6787 32.384 23.8947 31.8186 24.124 31.22C24.292 30.7826 24.4654 30.3306 24.6894 29.8893C25.2827 28.72 26.464 27.496 27.996 27.5693C28.5307 27.596 29.004 27.7786 29.42 27.9386C29.8027 28.0866 30.1307 28.2146 30.424 28.2C30.8254 28.1813 31.2547 27.8786 31.7107 27.5573C32.3294 27.1213 33.0294 26.628 33.9414 26.628H33.9467C34.772 26.628 35.44 27.0386 36.0294 27.4013C36.5174 27.7013 36.9387 27.9613 37.3134 27.9213C37.56 27.8933 37.8547 27.728 38.168 27.552C38.7014 27.252 39.3654 26.8786 40.1707 27.0266C40.676 27.1146 41.064 27.3973 41.376 27.624C41.5054 27.7173 41.6267 27.8066 41.7387 27.8693C42.0014 28.0146 42.3454 28.0893 42.7107 28.1693C42.9107 28.2133 43.1187 28.2586 43.3294 28.3186C45.8854 29.0453 47.6374 31.7733 47.2347 34.4C47.1614 34.892 47.0214 35.3533 46.8867 35.8C46.7334 36.3053 46.5894 36.7826 46.5614 37.2453C46.524 37.8626 46.8494 38.6066 47.3267 38.6426C47.7667 38.6746 48.0987 39.0586 48.0654 39.4986C48.0334 39.9386 47.6494 40.2706 47.2094 40.2373C45.712 40.128 44.8774 38.548 44.964 37.1466C45.004 36.4973 45.1827 35.9066 45.3547 35.336C45.4787 34.9266 45.5947 34.54 45.652 34.16C45.932 32.332 44.668 30.3626 42.8907 29.8573C42.7267 29.8106 42.552 29.772 42.368 29.732C41.928 29.636 41.4307 29.5266 40.9614 29.268C40.7627 29.1573 40.588 29.0306 40.4334 28.9186C40.228 28.7693 40.0334 28.628 39.8867 28.6026C39.6454 28.5586 39.324 28.7386 38.952 28.948C38.5334 29.184 38.06 29.4506 37.4854 29.5133C36.5654 29.612 35.8347 29.1626 35.1894 28.7653C34.7414 28.4893 34.3174 28.2293 33.9427 28.2293H33.9414C33.5347 28.2293 33.116 28.524 32.6307 28.8666C32.0374 29.284 31.3654 29.7586 30.4987 29.7986C29.8707 29.8293 29.324 29.6173 28.8427 29.432C28.5094 29.3026 28.1934 29.1813 27.9174 29.168C27.148 29.1306 26.4654 29.924 26.116 30.6133C25.9294 30.9813 25.7787 31.3746 25.6187 31.7933C25.368 32.448 25.108 33.1253 24.6867 33.7546C24.18 34.5093 23.3707 35.0666 22.572 35.2106C21.9787 35.3173 21.4214 35.1986 20.96 34.868C20.4667 34.5146 19.8947 33.7733 19.984 32.2506C20.0774 30.6493 20.628 29.1186 21.576 27.8253L21.6774 27.692C21.8707 27.4386 22.0534 27.2 22.1 26.9893C22.1494 26.756 22.0547 26.4386 21.9454 26.0706C21.884 25.8653 21.8214 25.6546 21.776 25.4266C21.42 23.652 22.5134 21.7053 24.2147 21.0866C24.5294 20.9733 24.8347 20.908 25.1294 20.8453C25.4734 20.772 25.7987 20.7026 26.0494 20.568C26.4427 20.3573 26.788 19.8933 27.1227 19.444L27.216 19.3186C29.3814 16.4266 33.1627 13.6013 37.284 14.344C38.428 14.552 39.4547 15.0053 40.5427 15.4866C41.572 15.9413 42.6334 16.4106 43.844 16.68C46.068 15.26 49.248 15.5813 51.104 17.468C52.224 18.6013 52.78 20.0786 53.3174 21.508C53.8827 23.0106 54.416 24.4293 55.5454 25.2706C55.6347 25.3373 55.7267 25.4 55.8187 25.464C56.168 25.704 56.564 25.976 56.852 26.4146C57.3334 27.1466 57.2827 27.9493 57.2374 28.656C57.212 29.0493 57.1894 29.42 57.2614 29.7186C57.372 30.1733 57.7414 30.5946 58.1334 31.0426C58.2974 31.2293 58.4654 31.4226 58.6254 31.628C59.4054 32.6306 59.7974 34.0986 58.916 35.1146C58.6814 35.384 58.4147 35.5506 58.1787 35.6986C58.064 35.7706 57.956 35.8373 57.876 35.904C57.292 36.3813 57.324 37.428 57.3654 37.8546C57.392 38.1266 57.44 38.4293 57.4907 38.748C57.6174 39.5413 57.7494 40.3613 57.5734 41.0053C56.8694 43.612 55.2867 43.8133 54.3414 43.9346C54.1347 43.9613 53.9 43.9906 53.8107 44.0373C53.692 44.104 53.5667 44.1333 53.4414 44.1333Z" fill="rgb(0, 0, 0)" class="stroke"></path>
<path d="M45.2787 52.3186C44.868 52.3186 44.5174 52.0026 44.4827 51.5853C44.3134 49.5773 44.704 48.6573 45.5334 46.9306C45.8374 46.3 46.412 46.1613 46.756 46.0786C46.8307 46.06 46.9014 46.044 46.9627 46.024C47.28 45.924 47.5934 45.8093 47.896 45.6813C48.508 45.428 49.0827 45.1013 49.6107 44.7093C50.6747 43.9053 51.416 42.8226 51.6907 41.6666C51.832 41.084 52.024 39.668 50.7747 39.0373C50.2294 38.7613 49.6947 38.6533 48.2294 39.9413C47.8974 40.2333 47.392 40.2 47.1 39.868C46.808 39.536 46.8414 39.0306 47.1734 38.7386C49.2774 36.8893 50.4947 37.1026 51.4947 37.608C53.0467 38.392 53.7174 40.0893 53.2454 42.0386C52.8854 43.5533 51.9347 44.9573 50.5694 45.988C49.932 46.4613 49.2414 46.8533 48.5134 47.1546C48.168 47.3 47.8067 47.4333 47.4427 47.5466C47.332 47.5813 47.2254 47.608 47.132 47.6306C47.0734 47.6453 46.9974 47.6626 46.948 47.6786C46.1814 49.2786 45.944 49.88 46.0774 51.448C46.1147 51.888 45.788 52.276 45.348 52.312C45.324 52.3173 45.3014 52.3186 45.2787 52.3186Z" fill="rgb(0, 0, 0)" class="stroke"></path>
<path d="M35.884 53.4986C35.4587 53.4986 35.1054 53.164 35.0854 52.7346C35.0427 51.796 35.0334 51.324 35.06 50.68C33.4574 50.9893 31.8254 50.7053 30.5667 50.4853C28.5334 50.1266 26.9534 49.4026 25.736 48.2706C23.4987 46.1866 22.4547 42.808 22.8707 38.9986C23.0267 37.5866 23.608 35.4853 24.428 33.3773C24.588 32.9653 25.052 32.7613 25.464 32.9213C25.876 33.0813 26.08 33.5453 25.92 33.9573C25.0107 36.296 24.5707 38.1853 24.4614 39.1733C24.1 42.4733 24.9614 45.3626 26.8267 47.0986C27.824 48.0266 29.1 48.6013 30.8427 48.908C32.624 49.2186 34.2134 49.428 35.62 48.8533C35.8747 48.7493 36.1654 48.784 36.3894 48.944C36.6134 49.104 36.7387 49.3693 36.7214 49.644C36.636 50.9853 36.6214 51.2813 36.6854 52.6573C36.7054 53.0986 36.364 53.4733 35.9227 53.4933C35.9094 53.4986 35.8974 53.4986 35.884 53.4986Z" fill="rgb(0, 0, 0)" class="stroke"></path>
<path d="M29.124 37.3467C29.6395 37.3467 30.0573 36.8393 30.0573 36.2134C30.0573 35.5874 29.6395 35.08 29.124 35.08C28.6085 35.08 28.1907 35.5874 28.1907 36.2134C28.1907 36.8393 28.6085 37.3467 29.124 37.3467Z" fill="black"></path>
<path d="M33.6573 37.66C34.1728 37.66 34.5907 37.1526 34.5907 36.5266C34.5907 35.9007 34.1728 35.3933 33.6573 35.3933C33.1419 35.3933 32.724 35.9007 32.724 36.5266C32.724 37.1526 33.1419 37.66 33.6573 37.66Z" fill="black"></path>
</svg>