<svg xmlns="http://www.w3.org/2000/svg" viewBox="0 0 80 80" fill="none">
<path d="M50.2667 46.2146C50.5334 47.0333 51.7814 46.7133 52.4574 46.1773C55.6787 43.6213 57.5934 39.548 57.6867 35.436C57.78 31.324 56.1014 27.2347 53.2787 24.244C51.592 22.4587 49.3174 20.9893 46.8654 21.1147L42.9334 19.1653C42.388 17.9533 40.9467 17.3973 39.62 17.3333C38.2934 17.2693 36.9667 17.5707 35.64 17.5107C34.5827 17.4627 33.54 17.1866 32.4827 17.216C30.0254 17.2826 27.9214 18.9573 26.2027 20.716C23.3134 23.672 20.8174 27.4053 20.8254 31.54C20.8254 33.884 21.492 36.6626 19.7587 38.244C19.5347 38.4493 19.2507 38.7107 19.3587 38.9947C19.3974 39.0693 19.4494 39.136 19.5147 39.1893C19.58 39.2427 19.6547 39.2827 19.7347 39.3053C21.184 39.8933 23.0414 39.0547 23.5574 37.572L26.168 32.6467C27.0427 31.3133 28.8534 30.9213 30.4414 31.084C32.0294 31.2467 33.552 31.836 35.1427 31.9787C36.4227 32.0827 37.7107 31.8987 38.9107 31.44C40.1107 30.9813 41.192 30.2573 42.076 29.324L42.876 29.54C43.6414 29.9187 44.2867 30.504 44.74 31.228C45.192 31.9533 45.4347 32.7893 45.4387 33.644C45.4307 34.52 45.172 35.3706 45.028 36.236C44.884 37.1013 44.8854 38.0427 45.348 38.7867C45.8107 39.5307 46.864 39.9547 47.604 39.484" fill="rgb(0, 0, 0)" class="head"></path>
<path d="M45.28 52.1853C45.1266 50.3613 45.4813 48.9373 46.2746 47.2866C46.4533 46.9133 46.8413 46.9173 47.224 46.796C47.5626 46.6893 47.8986 46.5666 48.2266 46.428C48.8946 46.1506 49.5253 45.792 50.1066 45.3613C51.256 44.4933 52.1506 43.2746 52.488 41.8613C52.7933 40.58 52.5786 39.0546 51.148 38.3333C50.1453 37.8266 49.2453 38.0066 47.716 39.3506L47.608 39.4933C46.868 39.964 45.8133 39.5413 45.352 38.796C44.8906 38.0506 44.892 37.1106 45.032 36.2453C45.172 35.38 45.432 34.5293 45.4426 33.6533C45.4386 32.7986 45.196 31.9626 44.744 31.2373C44.292 30.512 43.6466 29.928 42.88 29.5493L42.08 29.3333C41.196 30.2666 40.1146 30.9893 38.9146 31.4493C37.7146 31.9093 36.4266 32.0933 35.1466 31.988C33.556 31.8453 32.0333 31.2573 30.4453 31.0933C28.8573 30.9293 27.0466 31.32 26.172 32.656L25.3333 33.4666C24.5333 34.6666 24.4 36.1333 24 37.6C24 38.0213 22.3786 43.712 26.1333 47.4666C27.4666 48.8 29.2 49.3333 31 49.7333C32.6146 49.9826 34.3786 50.2333 35.9333 49.6C35.844 50.988 35.8586 52.2093 35.9226 53.5986" fill="rgb(255, 255, 255)" class="skin"></path>
<path d="M51.0374 47.5107C50.8534 47.5107 50.672 47.488 50.4987 47.436C50.0147 47.2907 49.66 46.9467 49.5014 46.4667C49.3627 46.0467 49.5907 45.5947 50.0094 45.456C50.412 45.3227 50.844 45.5267 51.0014 45.9133C51.1747 45.932 51.6094 45.824 51.956 45.5507C54.9494 43.176 56.7907 39.388 56.8814 35.4187C56.968 31.58 55.4414 27.708 52.6907 24.7933C51.6227 23.6627 49.448 21.7853 46.9 21.9133C46.4587 21.9373 46.0827 21.596 46.06 21.1547C46.0374 20.7133 46.3774 20.3373 46.8187 20.3147C49.184 20.1933 51.6814 21.3933 53.8547 23.6933C56.892 26.9107 58.5773 31.1973 58.4813 35.4533C58.3813 39.892 56.312 44.1347 52.9494 46.8027C52.4707 47.1813 51.732 47.5107 51.0374 47.5107Z" fill="rgb(0, 0, 0)" class="stroke"></path>
<path d="M46.9053 40.4867C46.7307 40.4867 46.5533 40.4667 46.376 40.4267C45.684 40.2693 45.048 39.816 44.6733 39.2147C44.1707 38.4067 44.0307 37.3907 44.244 36.1107C44.292 35.8213 44.352 35.5373 44.4093 35.264C44.528 34.6987 44.64 34.164 44.644 33.6427C44.64 32.948 44.44 32.2573 44.0667 31.6573C43.692 31.0587 43.16 30.576 42.5267 30.2627C42.1307 30.0667 41.968 29.5867 42.164 29.1907C42.36 28.7947 42.84 28.632 43.236 28.828C44.136 29.2733 44.892 29.9587 45.424 30.8093C45.956 31.6613 46.2387 32.6413 46.244 33.6453C46.2373 34.336 46.104 34.9733 45.9747 35.5907C45.9187 35.8613 45.864 36.116 45.8227 36.3733C45.6787 37.2413 45.7493 37.9133 46.0333 38.3707C46.1813 38.6093 46.456 38.804 46.732 38.868C46.8547 38.896 47.0333 38.9093 47.18 38.816C47.5533 38.5787 48.0467 38.6893 48.284 39.0613C48.5213 39.4347 48.4107 39.928 48.0387 40.1653C47.7027 40.3773 47.312 40.4867 46.9053 40.4867Z" fill="rgb(0, 0, 0)" class="stroke"></path>
<path d="M26.1667 33.452C26.016 33.452 25.864 33.4093 25.728 33.3213C25.3587 33.0787 25.256 32.5827 25.4973 32.2133C26.4347 30.7853 28.3133 30.068 30.5213 30.2933C31.3493 30.3787 32.1493 30.5693 32.9213 30.7533C33.7107 30.9413 34.456 31.12 35.212 31.1867C36.3587 31.28 37.5413 31.112 38.6227 30.6973C39.704 30.2827 40.696 29.62 41.4933 28.7787C41.7973 28.4573 42.304 28.444 42.624 28.748C42.9453 29.052 42.9587 29.5587 42.6547 29.8787C41.6947 30.892 40.4987 31.692 39.1947 32.1907C37.8907 32.6893 36.4667 32.8933 35.0747 32.78C34.1973 32.7013 33.3587 32.5013 32.5493 32.308C31.7933 32.128 31.08 31.9573 30.3573 31.884C29.12 31.7573 27.544 32.008 26.8347 33.0893C26.6827 33.3253 26.428 33.452 26.1667 33.452Z" fill="rgb(0, 0, 0)" class="stroke"></path>
<path d="M20.7293 40.2933C20.2933 40.2933 19.864 40.216 19.4667 40.0587C19.2973 40.004 19.1427 39.9187 19.0053 39.804C18.856 39.68 18.7347 39.5293 18.6467 39.3573C18.6334 39.332 18.6213 39.3053 18.612 39.2773C18.3107 38.4853 18.9467 37.9013 19.2187 37.652C20.2973 36.668 20.196 34.9573 20.0893 33.1467C20.0587 32.616 20.0253 32.0667 20.0253 31.5373C20.0187 27.7973 21.904 23.9667 25.6307 20.1547C27.1627 18.5867 29.5374 16.4933 32.4614 16.4147C33.132 16.396 33.776 16.4853 34.3987 16.572C34.8427 16.6333 35.2613 16.692 35.6773 16.7107C36.2827 16.7373 36.8973 16.6827 37.548 16.624C38.2307 16.5627 38.9374 16.4987 39.66 16.5333C41.1267 16.604 42.9494 17.2467 43.664 18.836C43.8454 19.2387 43.6654 19.712 43.2627 19.8933C42.86 20.0747 42.3867 19.8947 42.2054 19.492C41.7867 18.5613 40.576 18.1787 39.5827 18.1307C38.9707 18.1013 38.3494 18.1573 37.692 18.216C37.0174 18.2773 36.3174 18.34 35.6054 18.308C35.116 18.2853 34.64 18.22 34.18 18.156C33.596 18.0747 33.0454 17.9987 32.5067 18.0133C30.164 18.0773 28.1147 19.904 26.776 21.2733C23.3534 24.776 21.62 28.2293 21.6267 31.536C21.6267 32.02 21.656 32.5213 21.688 33.052C21.8027 34.9907 21.932 37.1773 20.464 38.6747C20.852 38.728 21.272 38.664 21.668 38.484C22.216 38.236 22.6293 37.8067 22.804 37.3067C22.9493 36.8893 23.4053 36.668 23.8227 36.8147C24.24 36.96 24.46 37.416 24.316 37.8333C23.9987 38.7453 23.2747 39.5147 22.3293 39.9427C21.812 40.1773 21.2653 40.2933 20.7293 40.2933Z" fill="rgb(0, 0, 0)" class="stroke"></path>
<path d="M45.2787 52.3187C44.868 52.3187 44.5174 52.0027 44.4827 51.5853C44.3134 49.5773 44.704 48.6573 45.5334 46.9307C45.8374 46.3 46.412 46.1613 46.756 46.0787C46.8307 46.06 46.9014 46.044 46.9627 46.024C47.28 45.924 47.5934 45.8093 47.896 45.6813C48.508 45.428 49.0827 45.1013 49.6107 44.7093C50.6747 43.9053 51.416 42.8227 51.6907 41.6667C51.832 41.084 52.024 39.668 50.7747 39.0373C50.2294 38.7613 49.6947 38.6533 48.2294 39.9413C47.8974 40.2333 47.392 40.2 47.1 39.868C46.808 39.536 46.8414 39.0307 47.1734 38.7387C49.2774 36.8893 50.4947 37.1027 51.4947 37.608C53.0467 38.392 53.7174 40.0893 53.2454 42.0387C52.8854 43.5533 51.9347 44.9573 50.5694 45.988C49.932 46.4613 49.2414 46.8533 48.5134 47.1547C48.168 47.3 47.8067 47.4333 47.4427 47.5467C47.332 47.5813 47.2254 47.608 47.132 47.6307C47.0734 47.6453 46.9974 47.6627 46.948 47.6787C46.1814 49.2787 45.944 49.88 46.0774 51.448C46.1147 51.888 45.788 52.276 45.348 52.312C45.324 52.3173 45.3014 52.3187 45.2787 52.3187Z" fill="rgb(0, 0, 0)" class="stroke"></path>
<path d="M35.884 53.4987C35.4587 53.4987 35.1053 53.164 35.0853 52.7347C35.0427 51.796 35.0333 51.324 35.06 50.68C33.4573 50.9893 31.8253 50.7053 30.5667 50.4853C28.5333 50.1267 26.9533 49.4027 25.736 48.2707C23.4987 46.1867 22.4547 42.808 22.8707 38.9987C23.0267 37.5867 23.608 35.4853 24.428 33.3773C24.588 32.9653 25.052 32.7613 25.464 32.9213C25.876 33.0813 26.08 33.5453 25.92 33.9573C25.0107 36.296 24.5707 38.1853 24.4613 39.1733C24.1 42.4733 24.9613 45.3627 26.8267 47.0987C27.824 48.0267 29.1 48.6013 30.8427 48.908C32.624 49.2187 34.2133 49.428 35.62 48.8533C35.8747 48.7493 36.1653 48.784 36.3893 48.944C36.6133 49.104 36.7387 49.3693 36.7213 49.644C36.636 50.9853 36.6213 51.2813 36.6853 52.6573C36.7053 53.0987 36.364 53.4733 35.9227 53.4933C35.9093 53.4987 35.8973 53.4987 35.884 53.4987Z" fill="rgb(0, 0, 0)" class="stroke"></path>
<path d="M29.124 37.3467C29.6395 37.3467 30.0573 36.8393 30.0573 36.2134C30.0573 35.5874 29.6395 35.08 29.124 35.08C28.6085 35.08 28.1907 35.5874 28.1907 36.2134C28.1907 36.8393 28.6085 37.3467 29.124 37.3467Z" fill="black"></path>
<path d="M33.6573 37.66C34.1728 37.66 34.5907 37.1526 34.5907 36.5266C34.5907 35.9007 34.1728 35.3933 33.6573 35.3933C33.1419 35.3933 32.724 35.9007 32.724 36.5266C32.724 37.1526 33.1419 37.66 33.6573 37.66Z" fill="black"></path>
</svg>