<svg xmlns="http://www.w3.org/2000/svg" viewBox="0 0 80 80" fill="none">
<path d="M36.2453 28.2213C35.24 27.9853 34.3626 27.384 33.3973 27.0213C31.0226 26.1133 28.1333 26.8 26.4133 28.6666L25.3333 33.4666C24.5333 34.6666 24.4 36.1333 24 37.6C24 38.0213 22.3786 43.712 26.1333 47.4667C27.4666 48.8 29.2 49.3333 31 49.7333C32.6146 49.9826 34.3786 50.2333 35.9333 49.6C35.844 50.988 35.8306 51.9787 35.8946 53.368L45.2946 52.4C45.1413 50.576 45.4773 48.9347 46.2706 47.284C46.4493 46.9107 46.8373 46.9147 47.22 46.7933C47.5586 46.6867 47.8947 46.564 48.2227 46.4253C48.8907 46.148 49.5213 45.7893 50.1026 45.3587C51.252 44.4907 52.1467 43.272 52.484 41.8587C52.7893 40.5773 52.5746 39.052 51.144 38.3307C50.1413 37.824 49.2413 38.004 47.712 39.348L47.0533 39.5507C46.232 39.776 45.4266 39.0013 45.2253 38.1733C45.024 37.3453 45.2253 36.4813 45.276 35.6307C45.372 34.02 44.8933 32.352 43.828 31.14C42.7626 29.928 41.0906 29.228 39.496 29.4746" fill="rgb(255, 255, 255)" class="skin"></path>
<path d="M45 20.7333C48.4293 20.696 53.412 22.816 54.956 25.8733C56.2613 28.4546 56.3547 31.6293 58.1653 33.8853C58.8787 34.7733 59.832 35.4746 60.3933 36.4653C60.9547 37.456 60.9453 38.936 59.9653 39.516C59.1107 40.0226 57.864 39.6493 57.1547 40.3453C56.7547 40.728 56.672 41.3133 56.5547 41.848C56.384 42.628 56.0707 43.4386 55.404 43.8773C54.7373 44.316 53.652 44.16 53.4893 43.344C53.4893 43.344 52 42.5 52.5 41C52.8325 40.0024 52.5572 39.1343 51.5 38.5C49 37 48.7923 39.1363 47.0573 39.544C46.236 39.7693 45.4307 38.9946 45.2293 38.1667C45.028 37.3386 45.2293 36.4746 45.28 35.624C45.376 34.0133 44.8973 32.3453 43.832 31.1333C41.7333 29.2666 39.2 29.6666 37.4667 28.8666C37.4667 28.8666 40.708 27.5826 41.7333 26.3333C42.4853 25.4213 45 20.7333 45 20.7333Z" fill="rgb(0, 0, 0)" class="head"></path>
<path d="M44.2293 21.8666C43.4147 23.5213 42.5747 25.2093 41.26 26.504C39.9453 27.7986 38.0413 28.6453 36.2453 28.224C35.24 27.988 34.3627 27.3866 33.3973 27.024C31.0227 26.1133 28.1333 26.8 26.4133 28.6666C25.3467 29.8333 25.5267 31.6026 24.6667 32.9333C24.0053 33.956 22.4093 34.616 21.4667 35.3866C21.0933 35.6906 20.652 35.9853 20.1733 35.9333C19.0413 35.8093 19.0147 34.172 19.3213 33.0746L16.2133 32.816C15.9733 32.8146 15.736 32.756 15.5227 32.6453C14.884 32.2453 15.256 31.1626 15.9227 30.82C16.5893 30.4773 17.4027 30.5533 18.1373 30.3706C20.3867 29.8133 21.288 27.204 22.292 25.1146C25.092 19.2866 31.5493 15.4226 38.0093 15.704C41.0667 15.836 46.2133 17.8373 44.2293 21.8666Z" fill="rgb(0, 0, 0)" class="head"></path>
<path d="M46.7693 40.388C46.408 40.388 46.044 40.2866 45.708 40.088C45.0947 39.7253 44.6253 39.0786 44.4507 38.36C44.272 37.6226 44.348 36.92 44.42 36.24C44.444 36.0106 44.468 35.7946 44.48 35.5813C44.568 34.0973 44.1133 32.6706 43.2293 31.6666C42.4573 30.788 41.6427 30.56 40.12 30.7946C39.684 30.8613 39.2747 30.5626 39.208 30.1253C39.1413 29.6893 39.44 29.28 39.8773 29.2133C41.3987 28.9786 43.004 28.9853 44.432 30.6106C45.5907 31.9293 46.1906 33.776 46.0773 35.6773C46.0626 35.9266 46.036 36.1733 46.0106 36.4106C45.9493 36.98 45.892 37.516 46.0053 37.9853C46.076 38.2786 46.284 38.5706 46.5227 38.712C46.7013 38.8173 46.8107 38.788 46.8467 38.7786C47.2733 38.6626 47.712 38.9146 47.828 39.3413C47.944 39.768 47.692 40.2066 47.2653 40.3226C47.104 40.3653 46.9373 40.388 46.7693 40.388Z" fill="rgb(0, 0, 0)" class="stroke"></path>
<path d="M20.288 36.74C20.2226 36.74 20.1546 36.736 20.0866 36.7293C19.5426 36.6693 19.0946 36.3986 18.788 35.9466C18.3893 35.3573 18.304 34.5506 18.376 33.8L16.1746 33.6173C15.82 33.6106 15.4666 33.52 15.152 33.356C15.1333 33.3466 15.1146 33.336 15.0973 33.324C14.6253 33.028 14.368 32.5213 14.3933 31.932C14.424 31.1946 14.9026 30.4453 15.556 30.1093C16.1 29.8293 16.6786 29.7666 17.188 29.7093C17.46 29.68 17.716 29.6506 17.944 29.5946C19.528 29.2026 20.3653 27.3786 21.176 25.6146C21.308 25.328 21.4386 25.0426 21.5706 24.768C24.5026 18.6653 31.2786 14.6093 38.044 14.904C40.0786 14.992 43.5933 15.9453 44.9373 18.2133C45.432 19.0466 45.8346 20.4186 44.948 22.22C44.1533 23.836 43.2506 25.6666 41.8226 27.0733C40.164 28.7066 37.9573 29.4466 36.064 29.0026C35.3693 28.84 34.7586 28.5386 34.1666 28.2493C33.8053 28.072 33.464 27.904 33.1173 27.7733C31.064 26.9853 28.4946 27.5906 27.0026 29.2093C26.576 29.676 26.4293 30.4013 26.2733 31.1706C26.1133 31.9586 25.9493 32.7733 25.4733 33.5093C24.956 34.3106 24.0546 34.7973 23.1826 35.2693C22.7186 35.52 22.2786 35.7573 21.9746 36.0066C21.5453 36.3546 20.9773 36.74 20.288 36.74ZM15.9933 31.9786C16.0653 32.0026 16.1413 32.016 16.2173 32.016C16.2386 32.016 16.2586 32.0173 16.28 32.0186L19.388 32.2773C19.6253 32.2973 19.8426 32.4213 19.9786 32.6173C20.1146 32.8133 20.156 33.06 20.092 33.2893C19.9 33.9746 19.9106 34.748 20.1146 35.0493C20.156 35.1106 20.188 35.1293 20.2613 35.1373C20.48 35.1613 20.8426 34.8626 20.9626 34.7653C21.384 34.4213 21.9106 34.136 22.4213 33.86C23.116 33.484 23.8346 33.096 24.1293 32.6386C24.44 32.1573 24.5693 31.5226 24.7053 30.8506C24.888 29.9466 25.096 28.9213 25.824 28.1253C27.7746 26.008 31.0066 25.248 33.6853 26.276C34.1 26.432 34.4933 26.6253 34.8733 26.812C35.408 27.0746 35.912 27.3226 36.4293 27.444C38.0586 27.8253 39.704 26.9133 40.7 25.9333C41.936 24.716 42.7373 23.088 43.5133 21.5133C43.9773 20.5706 43.9933 19.7573 43.5626 19.0293C42.692 17.5613 40.04 16.592 37.9773 16.5026C31.828 16.2346 25.6786 19.9186 23.016 25.46C22.888 25.7266 22.7613 26.0026 22.6333 26.2813C21.7106 28.2906 20.664 30.568 18.3333 31.1453C18.0026 31.228 17.68 31.2626 17.368 31.2973C16.96 31.3426 16.5733 31.3853 16.292 31.5293C16.1226 31.6173 16.0066 31.852 15.9933 31.9786Z" fill="rgb(0, 0, 0)" class="stroke"></path>
<path d="M54.58 44.9173C54.2933 44.9173 54.008 44.864 53.748 44.756C53.1986 44.5266 52.8173 44.0693 52.7053 43.5013C52.6187 43.068 52.9 42.6466 53.3333 42.56C53.7667 42.4733 54.188 42.7546 54.2747 43.188C54.28 43.2146 54.2867 43.2453 54.3653 43.2786C54.5347 43.3493 54.7973 43.3186 54.964 43.2093C55.336 42.964 55.6013 42.4626 55.7733 41.6773C55.7866 41.62 55.7986 41.5613 55.8106 41.5026C55.9253 40.9573 56.068 40.2786 56.6026 39.7666C57.184 39.196 57.9547 39.1133 58.5733 39.0466C58.9587 39.0053 59.3226 38.9666 59.5573 38.8266C60.0866 38.5133 60.0667 37.512 59.6973 36.8586C59.404 36.3413 58.96 35.892 58.4907 35.416C58.172 35.0933 57.8413 34.7586 57.5413 34.3853C56.3733 32.9306 55.8707 31.172 55.3853 29.4706C55.056 28.316 54.744 27.2266 54.2413 26.2333C52.8187 23.4146 49.9693 21.6066 46.9667 21.6066C46.94 21.6066 46.912 21.6066 46.8853 21.6066C46.8827 21.6066 46.88 21.6066 46.876 21.6066C46.4387 21.6066 46.0813 21.2546 46.076 20.816C46.0707 20.3746 46.4253 20.012 46.8667 20.008C46.9 20.008 46.932 20.008 46.9653 20.008C50.5666 20.008 53.9747 22.16 55.668 25.5133C56.2387 26.6413 56.5853 27.8573 56.9213 29.0333C57.384 30.6533 57.8213 32.1826 58.7867 33.3853C59.036 33.6946 59.3227 33.9853 59.6267 34.2933C60.1493 34.8226 60.6893 35.3693 61.0867 36.0706C61.452 36.7146 61.62 37.4986 61.5507 38.2213C61.4653 39.1 61.0466 39.804 60.3693 40.204C59.836 40.52 59.2533 40.5826 58.74 40.6373C58.2906 40.6853 57.9026 40.7266 57.712 40.9146C57.528 41.0906 57.4533 41.4493 57.3733 41.8293C57.36 41.892 57.3467 41.9546 57.3333 42.0173C57.068 43.2306 56.58 44.0573 55.8413 44.544C55.472 44.7906 55.0227 44.9173 54.58 44.9173Z" fill="rgb(0, 0, 0)" class="stroke"></path>
<path d="M45.2787 52.3186C44.868 52.3186 44.5173 52.0026 44.4827 51.5853C44.3133 49.5773 44.704 48.6573 45.5333 46.9306C45.8373 46.3 46.412 46.1613 46.756 46.0786C46.8307 46.06 46.9013 46.044 46.9627 46.024C47.28 45.924 47.5933 45.8093 47.896 45.6813C48.508 45.428 49.0827 45.1013 49.6107 44.7093C50.6747 43.9053 51.416 42.8226 51.6907 41.6666C51.832 41.084 52.024 39.668 50.7747 39.0373C50.2293 38.7613 49.6947 38.6533 48.2293 39.9413C47.8973 40.2333 47.392 40.2 47.1 39.868C46.808 39.536 46.8413 39.0306 47.1733 38.7386C49.2773 36.8893 50.4947 37.1026 51.4947 37.608C53.0467 38.392 53.7173 40.0893 53.2453 42.0386C52.8853 43.5533 51.9347 44.9573 50.5693 45.988C49.932 46.4613 49.2413 46.8533 48.5133 47.1546C48.168 47.3 47.8067 47.4333 47.4427 47.5466C47.332 47.5813 47.2253 47.608 47.132 47.6306C47.0733 47.6453 46.9973 47.6626 46.948 47.6786C46.1813 49.2786 45.944 49.88 46.0773 51.448C46.1147 51.888 45.788 52.276 45.348 52.312C45.324 52.3173 45.3013 52.3186 45.2787 52.3186Z" fill="rgb(0, 0, 0)" class="stroke"></path>
<path d="M35.884 53.4986C35.4586 53.4986 35.1053 53.164 35.0853 52.7346C35.0426 51.796 35.0333 51.324 35.06 50.68C33.4573 50.9893 31.8253 50.7053 30.5666 50.4853C28.5333 50.1266 26.9533 49.4026 25.736 48.2706C23.4986 46.1866 22.4546 42.808 22.8706 38.9986C23.0266 37.5866 23.608 35.4853 24.428 33.3773C24.588 32.9653 25.052 32.7613 25.464 32.9213C25.876 33.0813 26.08 33.5453 25.92 33.9573C25.0106 36.296 24.5706 38.1853 24.4613 39.1733C24.1 42.4733 24.9613 45.3626 26.8266 47.0986C27.824 48.0266 29.1 48.6013 30.8426 48.908C32.624 49.2186 34.2133 49.428 35.62 48.8533C35.8746 48.7493 36.1653 48.784 36.3893 48.944C36.6133 49.104 36.7386 49.3693 36.7213 49.644C36.636 50.9853 36.6213 51.2813 36.6853 52.6573C36.7053 53.0986 36.364 53.4733 35.9226 53.4933C35.9093 53.4986 35.8973 53.4986 35.884 53.4986Z" fill="rgb(0, 0, 0)" class="stroke"></path>
<path d="M29.124 37.3467C29.6395 37.3467 30.0573 36.8393 30.0573 36.2134C30.0573 35.5874 29.6395 35.08 29.124 35.08C28.6085 35.08 28.1907 35.5874 28.1907 36.2134C28.1907 36.8393 28.6085 37.3467 29.124 37.3467Z" fill="black"></path>
<path d="M33.6573 37.66C34.1728 37.66 34.5907 37.1526 34.5907 36.5266C34.5907 35.9007 34.1728 35.3933 33.6573 35.3933C33.1419 35.3933 32.724 35.9007 32.724 36.5266C32.724 37.1526 33.1419 37.66 33.6573 37.66Z" fill="black"></path>
</svg>