<svg xmlns="http://www.w3.org/2000/svg" viewBox="0 0 80 80" fill="none">
<path d="M50.056 36.8C49.9413 36.0533 49.2279 35.564 48.5586 35.2147C47.8893 34.8653 47.1413 34.5067 46.8333 33.816C46.2573 32.5267 47.5746 30.9573 46.9919 29.6707C46.7319 29.096 46.1333 28.7373 45.5173 28.5947C44.9013 28.452 44.2613 28.5133 43.6319 28.5693L41.9773 27.7053C40.8693 25.936 38.4506 25.372 36.4119 25.828C34.3733 26.284 32.6239 27.548 30.9333 28.7773L25.6386 32.6373C24.7773 33.2653 23.56 33.8947 22.7373 33.216C21.5106 32.2053 23.004 29.8933 21.952 28.7067C21.7 28.424 21.34 28.264 21.052 28.0173C20.252 27.3267 20.152 26.1187 20.264 25.064C20.6973 20.9933 23.3866 17.2987 27.0013 15.3773C30.6159 13.456 35.0413 13.264 38.9159 14.5773C41.1399 15.3347 43.4253 16.8947 43.7026 19.2267L45.1813 19.708C46.9973 18.108 49.7693 18.4653 52.1013 19.096C53.7746 19.548 55.4413 20.1067 56.9013 21.0387C58.3613 21.9707 59.6133 23.3173 60.156 24.964C60.4906 25.9773 60.5559 27.0973 61.1386 27.996C61.5159 28.58 62.0786 29.02 62.4933 29.5773C63.684 31.1773 63.3093 33.7213 61.7066 34.9107C60.9319 35.4853 59.8933 35.8147 59.4613 36.6787C59.0999 37.4027 59.2653 38.344 58.768 38.9813C58.044 39.908 56.368 39.6387 55.7346 40.6293C55.56 40.9027 55.4946 41.24 55.2879 41.4893C55.0813 41.7387 54.6213 41.8347 54.4626 41.5547L50.5506 41.7333L50.056 36.8Z" fill="rgb(0, 0, 0)" class="head"></path>
<path d="M25.1747 33.6693C24.3147 35.8813 23.7974 37.8786 23.6667 39.088C23.3374 42.1333 23.952 45.5173 26.2814 47.6866C27.5227 48.8413 29.06 49.4093 30.704 49.6986C32.4187 50.0013 34.2587 50.2773 35.9227 49.5973C35.8347 50.9853 35.8214 51.8426 35.8854 53.232L45.2667 52.2666C45.1147 50.4413 45.472 48.932 46.2667 47.2813C46.4467 46.908 46.8334 46.912 47.216 46.7906C47.556 46.684 47.8894 46.5613 48.2187 46.4226C48.8867 46.1453 49.5187 45.7866 50.0987 45.356C51.248 44.488 52.144 43.2693 52.48 41.856C52.7854 40.5746 52.5707 39.0493 51.1467 38.328C50.1427 37.8213 49.2427 38.0013 47.7134 39.3453L50.068 36.812C49.9534 36.0653 49.24 35.576 48.5707 35.2266C47.9014 34.8773 47.1534 34.5186 46.8454 33.828C46.2694 32.5386 47.5867 30.9693 47.004 29.6826C46.744 29.108 46.1454 28.7493 45.5294 28.6066C44.9134 28.464 44.2734 28.5253 43.644 28.5813L41.9894 27.7173C40.8814 25.948 38.4627 25.384 36.424 25.84C34.3854 26.296 32.624 27.548 30.9334 28.7773L25.6387 32.6373" fill="rgb(255, 255, 255)" class="skin"></path>
<path d="M23.5774 34.3133C22.988 34.3133 22.5454 34.096 22.228 33.8333C21.264 33.0386 21.3907 31.8333 21.492 30.864C21.5627 30.188 21.6294 29.548 21.3534 29.2373C21.2747 29.1493 21.1347 29.056 20.9867 28.9573C20.8467 28.864 20.6867 28.7573 20.532 28.6253C19.6627 27.8746 19.296 26.6146 19.4694 24.98C19.9227 20.728 22.664 16.7773 26.6267 14.672C30.2987 12.72 34.988 12.4026 39.1734 13.8213C42.236 14.864 44.2254 16.8506 44.4974 19.1333C44.5494 19.572 44.236 19.9706 43.7974 20.0226C43.3587 20.0746 42.9614 19.7613 42.908 19.3226C42.616 16.8666 39.5814 15.6506 38.6574 15.336C34.8827 14.0573 30.6654 14.3373 27.376 16.0853C23.876 17.9453 21.456 21.4186 21.0587 25.1506C20.9787 25.9106 21.0014 26.92 21.5734 27.4133C21.652 27.48 21.7587 27.552 21.8707 27.6266C22.0854 27.7693 22.3307 27.932 22.5467 28.176C23.292 29.016 23.1747 30.1346 23.0814 31.032C22.996 31.8533 22.964 32.3693 23.244 32.6C23.7174 32.9906 24.8347 32.2333 25.1654 31.992L30.46 28.132C32.124 26.9226 34.008 25.552 36.2347 25.0533C38.976 24.44 41.2174 25.1573 42.384 27.02C42.6187 27.3946 42.5054 27.888 42.1307 28.1226C41.756 28.3573 41.2627 28.244 41.028 27.8693C39.9134 26.0893 37.548 26.3986 36.584 26.6146C34.6814 27.04 33.0134 28.252 31.4014 29.4253L26.108 33.2853C25.0627 34.048 24.2294 34.3133 23.5774 34.3133Z" fill="rgb(0, 0, 0)" class="stroke"></path>
<path d="M54.788 42.5306C54.7494 42.5306 54.712 42.5293 54.6747 42.5253C54.2854 42.4906 53.956 42.2826 53.7694 41.9546C53.552 41.5706 53.6867 41.0826 54.0707 40.864C54.2907 40.7386 54.5467 40.7306 54.764 40.8186C54.78 40.7813 54.7974 40.7413 54.8147 40.7026C54.8787 40.552 54.9507 40.38 55.0627 40.2053C55.5507 39.4426 56.3814 39.2 57.048 39.0053C57.5107 38.8706 57.948 38.7426 58.14 38.496C58.2907 38.304 58.3414 37.9786 58.4014 37.6013C58.464 37.2066 58.5334 36.7586 58.748 36.328C59.1534 35.5173 59.888 35.0906 60.536 34.7133C60.7894 34.5666 61.028 34.4266 61.2334 34.2746C61.828 33.8333 62.2387 33.1093 62.36 32.288C62.4814 31.4666 62.2974 30.6546 61.856 30.0613C61.7 29.852 61.508 29.6493 61.304 29.436C61.0174 29.1346 60.72 28.8226 60.4707 28.436C60.0107 27.7266 59.832 26.956 59.66 26.2106C59.5787 25.8613 59.5027 25.532 59.4 25.2213C58.96 23.8866 57.9214 22.6426 56.4747 21.72C55.02 20.7906 53.344 20.2666 51.896 19.8746C49.1174 19.1226 47.3814 19.2866 46.092 20.424C45.76 20.716 45.2547 20.684 44.9627 20.352C44.6707 20.02 44.7027 19.5146 45.0347 19.2226C47.2374 17.2826 50.0814 17.7266 52.3134 18.3293C53.8774 18.752 55.6974 19.3253 57.3347 20.3706C59.0907 21.492 60.364 23.036 60.9187 24.72C61.044 25.1 61.132 25.4813 61.2174 25.8506C61.3654 26.4893 61.5054 27.0933 61.812 27.5666C61.9814 27.828 62.2147 28.0733 62.4614 28.3333C62.688 28.572 62.924 28.8186 63.1374 29.1066C63.8307 30.0386 64.124 31.2826 63.9414 32.5213C63.7587 33.76 63.1187 34.868 62.1854 35.56C61.9094 35.7653 61.62 35.9333 61.34 36.096C60.82 36.3986 60.3694 36.6613 60.1787 37.0426C60.0747 37.2506 60.0294 37.5413 59.98 37.8493C59.8987 38.3693 59.8054 38.96 59.4 39.48C58.8894 40.1333 58.1494 40.3493 57.496 40.54C57.0014 40.684 56.5747 40.8093 56.4107 41.0666C56.372 41.128 56.3307 41.224 56.288 41.3266C56.204 41.5266 56.0987 41.7746 55.9067 42.0066C55.636 42.332 55.2067 42.5306 54.788 42.5306Z" fill="rgb(0, 0, 0)" class="stroke"></path>
<path d="M50.0547 37.6C49.6667 37.6 49.3254 37.3173 49.2654 36.9213C49.216 36.6026 48.864 36.276 48.188 35.924L48.0827 35.8693C47.3814 35.5053 46.508 35.052 46.1027 34.1426C45.7014 33.244 45.9347 32.3426 46.14 31.5466C46.3 30.9253 46.4387 30.3893 46.264 30.0013C46.136 29.7173 45.78 29.4773 45.3374 29.3746C44.8587 29.264 44.3174 29.312 43.744 29.3626L43.704 29.3666C43.2627 29.4066 42.876 29.0813 42.836 28.6413C42.7974 28.2013 43.1214 27.8133 43.5614 27.7733L43.6014 27.7693C44.2427 27.712 44.9707 27.6466 45.6974 27.816C46.644 28.0346 47.3814 28.5906 47.72 29.3413C48.128 30.2426 47.8947 31.148 47.688 31.9466C47.5347 32.5413 47.3894 33.1026 47.5627 33.4906C47.7414 33.8893 48.2894 34.1746 48.8187 34.4493L48.9267 34.5053C49.6667 34.8906 50.6694 35.536 50.844 36.6786C50.9107 37.116 50.612 37.524 50.1747 37.5906C50.136 37.5973 50.096 37.6 50.0547 37.6Z" fill="rgb(0, 0, 0)" class="stroke"></path>
<path d="M45.2787 52.3186C44.8681 52.3186 44.5174 52.004 44.4827 51.5853C44.3134 49.5773 44.7041 48.6586 45.5334 46.9306C45.8374 46.3 46.4121 46.1613 46.7561 46.0786C46.8307 46.06 46.9014 46.044 46.9627 46.024C47.2801 45.924 47.5934 45.8093 47.8961 45.6813C48.5081 45.428 49.0827 45.1013 49.6107 44.7093C50.6747 43.9053 51.4161 42.824 51.6907 41.6666C51.8321 41.084 52.0241 39.668 50.7747 39.0373C50.2294 38.7613 49.6947 38.6533 48.2294 39.9413C47.8974 40.2333 47.3921 40.2 47.1001 39.868C46.8081 39.536 46.8414 39.0306 47.1734 38.7386C49.2774 36.8893 50.4934 37.1026 51.4947 37.608C53.0467 38.392 53.7174 40.0893 53.2454 42.0386C52.8854 43.5533 51.9347 44.9573 50.5694 45.988C49.9321 46.4613 49.2414 46.8533 48.5134 47.1546C48.1681 47.3 47.8067 47.4333 47.4427 47.5466C47.3321 47.5813 47.2254 47.608 47.1321 47.6306C47.0734 47.6453 46.9974 47.6626 46.9481 47.6786C46.1814 49.2786 45.9441 49.88 46.0774 51.448C46.1147 51.888 45.7881 52.2746 45.3481 52.312C45.3241 52.3173 45.3014 52.3186 45.2787 52.3186Z" fill="rgb(0, 0, 0)" class="stroke"></path>
<path d="M35.8854 53.4986C35.4601 53.4986 35.1067 53.164 35.0867 52.7346C35.0441 51.796 35.0347 51.324 35.0614 50.68C33.4587 50.9893 31.8267 50.7053 30.5681 50.4853C28.5347 50.1266 26.9547 49.4026 25.7374 48.2706C23.5001 46.1866 22.4561 42.808 22.8721 38.9986C23.0281 37.5866 23.6094 35.4853 24.4294 33.3773C24.5894 32.9653 25.0534 32.7613 25.4654 32.9213C25.8774 33.0813 26.0814 33.5453 25.9214 33.9573C25.0121 36.296 24.5721 38.1853 24.4627 39.1733C24.1014 42.4733 24.9627 45.3626 26.8281 47.0986C27.8254 48.0266 29.1014 48.6013 30.8441 48.908C32.6254 49.2186 34.2161 49.428 35.6214 48.8533C35.8761 48.7493 36.1667 48.784 36.3907 48.944C36.6147 49.1053 36.7401 49.3693 36.7227 49.644C36.6374 50.9853 36.6227 51.2813 36.6867 52.6573C36.7067 53.0986 36.3654 53.4733 35.9241 53.4933C35.9094 53.4986 35.8974 53.4986 35.8854 53.4986Z" fill="rgb(0, 0, 0)" class="stroke"></path>
<path d="M29.124 37.3467C29.6395 37.3467 30.0573 36.8393 30.0573 36.2134C30.0573 35.5874 29.6395 35.08 29.124 35.08C28.6085 35.08 28.1907 35.5874 28.1907 36.2134C28.1907 36.8393 28.6085 37.3467 29.124 37.3467Z" fill="black"></path>
<path d="M33.6573 37.66C34.1728 37.66 34.5907 37.1526 34.5907 36.5266C34.5907 35.9007 34.1728 35.3933 33.6573 35.3933C33.1419 35.3933 32.724 35.9007 32.724 36.5266C32.724 37.1526 33.1419 37.66 33.6573 37.66Z" fill="black"></path>
</svg>