<svg xmlns="http://www.w3.org/2000/svg" viewBox="0 0 80 80" fill="none">
<path d="M25.8867 32.244C26.6573 30.4573 27.8467 28.8813 29.3533 27.6493C30.2333 26.932 31.248 26.328 32.3707 26.16C33.4933 25.992 34.7373 26.3253 35.4507 27.2093L36.7453 27.9853C38.5893 27.008 40.9267 26.9333 42.756 27.9387C44.5853 28.944 45.7933 31.056 45.576 33.1387C45.4547 34.3027 44.9267 35.3947 44.7947 36.5573C44.6627 37.72 45.112 39.112 45.6267 39.2787L45.0933 51.256C45.804 51.4533 45.9107 51.4773 46.016 51.5C47.5267 52.4573 48.6093 53.9627 49.036 55.7C49.2307 56.5227 49.4213 57.5667 50.236 57.7773C51.3027 58.0587 52.0813 56.5693 53.1867 56.4627C54.4187 56.344 55.224 57.9533 56.4587 58.0347C58.008 58.1347 58.6187 55.9747 59.98 55.2347C60.78 54.7973 61.7493 54.9027 62.66 54.876C63.5707 54.8493 64.612 54.5773 64.996 53.752C65.38 52.9267 64.8973 51.9227 64.204 51.3267C63.5107 50.7307 62.636 50.3933 61.8933 49.86C60.0533 48.5333 59.244 46.2187 58.6667 44.028C58.156 42.0933 57.7413 40.1387 57.4253 38.1613C57.1 36.1373 56.8773 34.0867 56.3013 32.1187C55.42 29.1187 53.7547 26.408 51.476 24.2667C49.8093 22.7053 47.58 21.424 45.3427 21.8533L42.7533 20.52C41.828 19.2147 39.9987 18.892 38.4133 19.1107C36.828 19.3293 35.3227 19.9707 33.7333 20.1613C32.6667 20.2947 31.5787 20.212 30.52 20.3987C29.1733 20.6347 27.9293 21.2907 26.8213 22.092C21.8453 25.692 19.5373 32.2027 19.904 38.3307C19.984 39.68 20.1787 41.052 19.884 42.372C19.0027 46.32 14.2933 48.1987 12.5507 51.848C12.0427 52.9147 10.1733 54.5413 11.2987 54.8867C12.14 55.1453 13.032 54.4493 13.8907 54.62C14.6613 54.772 15.124 55.5373 15.52 56.22C15.9893 57.02 16.5173 57.82 17.2787 58.344C18.04 58.868 19.0893 59.08 19.904 58.6373C20.7187 58.1947 21.2373 57.1413 22.1707 57.0267C23.224 56.8933 23.8093 57.7493 24.8667 57.6667C25.2667 57.636 25.8653 57.2493 26.2 57.0267C27.296 56.2947 28.3093 55.8627 29.0893 54.8L33.6707 50" fill="rgb(0, 0, 0)" class="head"></path>
<path d="M45.2667 52.3333C45.1133 50.5093 45.4813 48.9373 46.2747 47.2867C46.4533 46.9133 46.8413 46.9173 47.224 46.796C47.5627 46.6893 47.8987 46.5667 48.2267 46.428C48.8947 46.1507 49.5253 45.792 50.1067 45.3613C51.256 44.4933 52.1507 43.2747 52.488 41.8613C52.7933 40.58 52.5787 39.0547 51.148 38.3333C50.1453 37.8267 49.2453 38.0067 47.716 39.3507L46.232 39.4493C45.1133 39.1093 44.664 37.716 44.796 36.5547C44.928 35.3933 45.456 34.3 45.5773 33.136C45.7947 31.06 44.5867 28.948 42.7573 27.936C40.928 26.924 38.5907 27.0027 36.7467 27.9827L35.452 27.2067C34.7387 26.3227 33.4947 25.988 32.372 26.1573C31.2493 26.3267 30.2387 26.9293 29.3547 27.6467C27.848 28.8787 26.6587 30.4547 25.888 32.2413L25.3333 33.4667C24.5333 34.6667 24.4 36.1333 24 37.6C24 38.0213 22.3787 43.712 26.1333 47.4667C27.4667 48.8 29.2 49.3333 31 49.7333C32.6147 49.9827 34.3787 50.2333 35.9333 49.6C35.844 50.988 35.8307 51.9787 35.8947 53.368" fill="rgb(255, 255, 255)" class="skin"></path>
<path d="M46.232 40.252C46.1547 40.252 46.076 40.2413 45.9987 40.2173C44.46 39.7493 43.8293 37.9773 44 36.4667C44.0733 35.8253 44.2467 35.2267 44.4147 34.6467C44.5747 34.0947 44.7267 33.5733 44.78 33.0547C44.96 31.3333 43.9693 29.5173 42.3707 28.6387C41.0213 27.8973 39.7867 28.0093 37.82 29.052C37.4293 29.2587 36.9453 29.1107 36.7387 28.72C36.532 28.3293 36.68 27.8453 37.0707 27.6387C40.1213 26.0213 41.852 26.528 43.1413 27.2373C45.288 28.4173 46.616 30.8773 46.372 33.2213C46.3027 33.8827 46.124 34.4973 45.952 35.0933C45.796 35.632 45.648 36.1413 45.5907 36.648C45.4947 37.4907 45.796 38.484 46.464 38.6867C46.8867 38.8147 47.1253 39.2627 46.9973 39.6853C46.892 40.0293 46.5747 40.252 46.232 40.252Z" fill="rgb(0, 0, 0)" class="stroke"></path>
<path d="M25.8867 33.044C25.7813 33.044 25.6733 33.0227 25.5707 32.9787C25.1653 32.804 24.9773 32.3333 25.1533 31.9267C25.972 30.0293 27.2493 28.336 28.848 27.0293C30.0133 26.08 31.1267 25.5373 32.2533 25.368C33.7613 25.1427 35.2253 25.6547 36.0747 26.7067C36.352 27.0507 36.2987 27.5547 35.9547 27.832C35.6107 28.1093 35.1067 28.056 34.8293 27.712C34.344 27.1107 33.4253 26.812 32.4907 26.952C31.656 27.0773 30.796 27.508 29.86 28.2707C28.4587 29.416 27.34 30.9 26.6227 32.5627C26.4907 32.8627 26.196 33.044 25.8867 33.044Z" fill="rgb(0, 0, 0)" class="stroke"></path>
<path d="M18.9107 59.6747C18.208 59.6747 17.4707 59.4467 16.8253 59.0027C15.9413 58.3947 15.344 57.5 14.8307 56.624C14.552 56.144 14.1733 55.4907 13.736 55.404C13.512 55.3587 13.196 55.4467 12.8627 55.54C12.3573 55.68 11.728 55.8547 11.064 55.6507C10.4813 55.472 10.2747 55.076 10.2027 54.856C9.95333 54.0867 10.5387 53.3107 11.1587 52.488C11.4253 52.1334 11.7027 51.768 11.828 51.504C12.6707 49.74 14.1107 48.396 15.5027 47.0974C17.1307 45.5787 18.6693 44.144 19.1027 42.1974C19.316 41.2427 19.24 40.2294 19.1587 39.156C19.1387 38.896 19.12 38.636 19.104 38.3773C18.6907 31.4653 21.4667 24.976 26.3507 21.4427C27.7347 20.4414 29.0533 19.8427 30.38 19.6094C31.0213 19.496 31.6573 19.4747 32.272 19.4533C32.7453 19.4373 33.1933 19.4214 33.632 19.3667C34.3973 19.2747 35.144 19.0707 35.9347 18.8533C36.696 18.6453 37.4827 18.4294 38.3013 18.3174C40.508 18.0134 42.416 18.6627 43.4027 20.056C43.6587 20.416 43.5733 20.916 43.212 21.1707C42.852 21.4267 42.352 21.3414 42.0973 20.98C41.348 19.924 39.7587 19.7294 38.52 19.9C37.804 19.9987 37.1013 20.1907 36.3573 20.3947C35.5453 20.6174 34.7053 20.8467 33.8267 20.952C33.32 21.0147 32.816 21.0333 32.3267 21.0493C31.7413 21.0693 31.1893 21.0893 30.656 21.1827C29.572 21.372 28.4707 21.8814 27.2867 22.736C22.8427 25.952 20.3173 31.9067 20.6987 38.2787C20.7133 38.5293 20.732 38.7814 20.752 39.032C20.8373 40.1734 20.9267 41.3547 20.6613 42.5414C20.1187 44.9707 18.3253 46.644 16.5907 48.2627C15.248 49.5147 13.98 50.6974 13.2693 52.188C13.0747 52.5987 12.748 53.0294 12.4333 53.448C12.2933 53.6334 12.0987 53.8907 11.9507 54.1134C12.1 54.0867 12.264 54.0413 12.432 53.9947C12.908 53.8627 13.448 53.712 14.044 53.8307C15.1907 54.0574 15.804 55.1147 16.2093 55.8134C16.6933 56.6374 17.1373 57.272 17.7293 57.68C18.2227 58.02 18.968 58.2294 19.5187 57.9294C19.7453 57.8054 19.9773 57.5774 20.2213 57.336C20.6747 56.888 21.24 56.3293 22.0693 56.228C22.8293 56.132 23.4067 56.3947 23.8707 56.6067C24.2533 56.7813 24.5027 56.8867 24.8 56.864C24.8533 56.8574 25.0813 56.8027 25.752 56.356C26.0307 56.1694 26.3 56.0054 26.5613 55.8454C27.3027 55.392 27.9427 55 28.44 54.3227C28.7013 53.9667 29.2027 53.8894 29.5587 54.1507C29.9147 54.412 29.992 54.912 29.7307 55.2694C29.048 56.2 28.2093 56.7147 27.3973 57.2107C27.1493 57.3627 26.8933 57.5187 26.64 57.688C26.0747 58.064 25.476 58.4174 24.924 58.46C24.2013 58.516 23.6493 58.2654 23.2067 58.0627C22.8053 57.88 22.564 57.7774 22.2667 57.816C21.976 57.852 21.684 58.14 21.3453 58.4747C21.0467 58.7694 20.708 59.104 20.2813 59.336C19.872 59.5654 19.4 59.6747 18.9107 59.6747Z" fill="rgb(0, 0, 0)" class="stroke"></path>
<path d="M56.564 58.824C56.5093 58.824 56.4533 58.8227 56.3973 58.8187C55.5667 58.764 54.9467 58.2787 54.3987 57.8493C53.9627 57.508 53.584 57.212 53.256 57.244C52.9867 57.2707 52.6467 57.5293 52.3187 57.78C51.728 58.2307 50.9933 58.7933 50.0227 58.5347C48.784 58.2093 48.4813 56.8827 48.2813 56.0053L48.2493 55.8653C47.8827 54.376 46.9773 53.088 45.696 52.2347L45.52 52.196C45.088 52.1027 44.8147 51.676 44.908 51.244C45.0013 50.812 45.428 50.5387 45.86 50.632L46.1787 50.7013C46.2707 50.7213 46.3573 50.7573 46.4373 50.808C48.1307 51.8813 49.3267 53.5453 49.8053 55.492L49.8413 55.648C49.9627 56.1787 50.1293 56.9067 50.432 56.9867C50.6307 57.04 50.924 56.8307 51.348 56.508C51.8307 56.1387 52.3787 55.72 53.104 55.6507C54.0707 55.5573 54.8 56.1293 55.3853 56.588C55.7867 56.9013 56.1653 57.1987 56.5053 57.22C56.984 57.252 57.3667 56.808 57.948 56.08C58.392 55.5253 58.896 54.896 59.5893 54.516C60.4093 54.068 61.3107 54.0667 62.1053 54.0653C62.2813 54.0653 62.456 54.0653 62.6293 54.06C62.9453 54.0507 63.996 53.9733 64.2653 53.3973C64.476 52.9467 64.1187 52.2987 63.676 51.916C63.34 51.6267 62.9307 51.396 62.4973 51.1533C62.1427 50.9547 61.776 50.748 61.4213 50.4947C59.3747 49.0307 58.4853 46.504 57.8853 44.228C57.3693 42.276 56.9467 40.276 56.628 38.284C56.556 37.832 56.488 37.3773 56.42 36.924C56.1933 35.3973 55.9587 33.8173 55.5253 32.34C54.6853 29.4813 53.092 26.8907 50.92 24.8507C49.8467 23.8413 47.7133 22.2133 45.4853 22.64C45.052 22.7227 44.632 22.4387 44.5493 22.004C44.4667 21.5707 44.7507 21.1507 45.1853 21.068C47.3533 20.6533 49.78 21.5813 52.0173 23.684C54.3973 25.92 56.1413 28.7573 57.0627 31.8893C57.5267 33.4747 57.7693 35.108 58.004 36.6893C58.0707 37.1373 58.1373 37.5853 58.2093 38.032C58.52 39.972 58.932 41.92 59.4347 43.8213C59.9893 45.924 60.7267 48.0293 62.356 49.196C62.6387 49.3987 62.9507 49.5747 63.2827 49.76C63.7667 50.032 64.2667 50.312 64.724 50.7067C65.9813 51.792 66.12 53.2147 65.7187 54.076C65.2627 55.052 64.1853 55.6147 62.6827 55.6613C62.4947 55.6667 62.3027 55.668 62.112 55.668C61.4493 55.6693 60.824 55.6693 60.3613 55.9227C59.9493 56.148 59.5853 56.6027 59.2013 57.0827C58.5733 57.8613 57.8027 58.824 56.564 58.824Z" fill="rgb(0, 0, 0)" class="stroke"></path>
<path d="M45.2787 52.3187C44.868 52.3187 44.5173 52.004 44.4827 51.5853C44.3133 49.5773 44.704 48.6587 45.5333 46.9307C45.8373 46.3 46.412 46.1613 46.756 46.0787C46.8307 46.06 46.9013 46.044 46.9627 46.024C47.28 45.924 47.5933 45.8093 47.896 45.6813C48.508 45.428 49.0827 45.1013 49.6107 44.7093C50.6747 43.9053 51.416 42.824 51.6907 41.6667C51.832 41.084 52.024 39.668 50.7747 39.0373C50.2293 38.7613 49.6947 38.6533 48.2293 39.9413C47.8973 40.2333 47.392 40.2 47.1 39.868C46.808 39.536 46.8413 39.0307 47.1733 38.7387C49.2773 36.8893 50.4933 37.1027 51.4947 37.608C53.0467 38.392 53.7173 40.0893 53.2453 42.0387C52.8853 43.5533 51.9347 44.9573 50.5693 45.988C49.932 46.4613 49.2413 46.8533 48.5133 47.1547C48.168 47.3 47.8067 47.4333 47.4427 47.5467C47.332 47.5813 47.2253 47.608 47.132 47.6307C47.0733 47.6453 46.9973 47.6627 46.948 47.6787C46.1813 49.2787 45.944 49.88 46.0773 51.448C46.1147 51.888 45.788 52.2747 45.348 52.312C45.324 52.3173 45.3013 52.3187 45.2787 52.3187Z" fill="rgb(0, 0, 0)" class="stroke"></path>
<path d="M35.8853 53.4987C35.46 53.4987 35.1067 53.164 35.0867 52.7347C35.044 51.796 35.0347 51.324 35.0613 50.68C33.4587 50.9893 31.8267 50.7053 30.568 50.4853C28.5347 50.1267 26.9547 49.4027 25.7373 48.2707C23.5 46.1867 22.456 42.808 22.872 38.9987C23.028 37.5867 23.6093 35.4853 24.4293 33.3773C24.5893 32.9653 25.0533 32.7613 25.4653 32.9213C25.8773 33.0813 26.0813 33.5453 25.9213 33.9573C25.012 36.296 24.572 38.1853 24.4627 39.1733C24.1013 42.4733 24.9627 45.3627 26.828 47.0987C27.8253 48.0267 29.1013 48.6013 30.844 48.908C32.6253 49.2187 34.216 49.428 35.6213 48.8533C35.876 48.7493 36.1667 48.784 36.3907 48.944C36.6147 49.1053 36.74 49.3693 36.7227 49.644C36.6373 50.9853 36.6227 51.2813 36.6867 52.6573C36.7067 53.0987 36.3653 53.4733 35.924 53.4933C35.9093 53.4987 35.8973 53.4987 35.8853 53.4987Z" fill="rgb(0, 0, 0)" class="stroke"></path>
<path d="M29.124 37.3467C29.6395 37.3467 30.0573 36.8393 30.0573 36.2134C30.0573 35.5874 29.6395 35.08 29.124 35.08C28.6085 35.08 28.1907 35.5874 28.1907 36.2134C28.1907 36.8393 28.6085 37.3467 29.124 37.3467Z" fill="black"></path>
<path d="M33.6573 37.66C34.1728 37.66 34.5907 37.1526 34.5907 36.5267C34.5907 35.9008 34.1728 35.3933 33.6573 35.3933C33.1419 35.3933 32.724 35.9008 32.724 36.5267C32.724 37.1526 33.1419 37.66 33.6573 37.66Z" fill="black"></path>
</svg>