<svg xmlns="http://www.w3.org/2000/svg" viewBox="0 0 80 80" fill="none" >
<g clip-path="url(#clip0_2_1786)">
<path d="M45.2493 1.53555e-05C45.3693 1.34668 45.92 4.38935 47.9693 3.93335L48.1893 4.26668C48.0893 6.35602 47.0307 7.82935 45.372 9.35602C43.6867 10.8827 41.5373 11.8 39.2693 11.9613C37.2693 12.108 35.1427 11.6294 33.6467 10.288C32.1507 8.94668 31.364 7.08802 32.3547 5.49468H32.4987C32.9493 5.50802 33.364 5.27202 33.7453 5.03202C34.2307 4.72535 34.1973 3.22668 34.496 2.86402C34.896 2.34535 36.0933 0.620015 36.2987 -0.00131798H45.2493V1.53555e-05Z" fill="rgb(255, 255, 255)" class="skin"></path>
<path d="M52.692 58.408C51.408 58.8227 49.8413 60.088 50.928 61.512C51.5253 62.2973 52.428 62.72 53.256 63.2133C53.8933 63.592 54.0627 64.872 54.3093 65.5493C54.9333 67.2613 56.1453 68.6667 58.1333 68.5333C60.1547 68.4 61.412 66.6787 61.796 64.8227C62.212 62.8093 61.764 60.4013 61.4293 58.4107L52.692 58.408Z" fill="rgb(255, 255, 255)" class="skin"></path>
<path d="M16.8467 54.62C15.9133 54.968 15.1133 55.768 15.38 56.8347C17.1133 58.568 16.7133 61.1014 16.58 63.2347C16.58 65.092 18.3053 65.2734 19.7053 65.216C20.5907 65.172 21.4187 64.816 21.8747 64.0934C22.3307 63.3707 22.3187 62.4507 22.5893 61.6334C23.2107 59.7667 23.732 57.8614 23.4733 55.6147L16.8467 54.62Z" fill="rgb(255, 255, 255)" class="skin"></path>
<path d="M26.6267 41.7013C26.2653 45.3213 25.7013 48.9173 24.9333 52.4733C24.2653 52.176 23.544 52.0147 22.8133 52L21.08 51.8867C19.7253 51.7213 18.6373 51.5573 17.2827 51.3933C17.844 45.2 18.564 39.0227 19.4427 32.86C20.2067 27.4933 21.096 22.1253 22.6747 16.94C24.0773 12.332 26.3027 7.56667 30.528 5.256L31.02 4.49467L35.12 1.188C35.3667 1.59467 35.1773 2.12133 35.0307 1.988L34.4773 3.964C34.4053 4.16667 34.3773 4.38267 34.392 4.59733C34.4827 5.21867 35.2227 5.47467 35.836 5.604L36.4 5.65467C39.004 4.588 40.9653 3.6 42.9253 2.61067C44.4027 1.86533 45.928 1.10667 47.5787 0.98L48.208 3.2C50.5667 3.832 52.396 5.64933 53.8693 7.51067C55.476 9.54267 56.736 11.8253 57.6 14.2667C58.084 15.6307 58.8493 17.1653 59.1653 18.576L59.5867 19.8667C62.2187 31.2 62.3573 42.9453 62.4827 54.5813L50.8747 54.3907C50.36 50.472 49.9547 46.5427 49.6587 42.6L49.1427 42.6173C43.9667 43.2773 38.6587 42.7253 33.6587 42.0907C31.0067 42.4093 28.2973 42.2107 25.7813 41.4" fill="rgb(255, 255, 255)" class="body"></path>
<path d="M51.5413 54.4987C51.3307 55.5187 51.2613 56.5613 51.3333 57.6C51.3307 57.66 51.3387 57.72 51.36 57.776C51.3813 57.832 51.4133 57.884 51.4547 57.928C51.5387 57.9787 51.6373 58.0013 51.7347 57.9907L60.8013 57.9653C60.9387 57.976 61.076 57.9507 61.2013 57.8933C61.4573 57.748 61.4773 57.3933 61.468 57.0933L61.372 54.636L51.5413 54.4987Z" fill="rgb(255, 255, 255)" class="body"></path>
<path d="M17.7107 51.492C17.284 52.3933 17.1773 53.58 17.092 54.5733C18.4453 54.9853 21.9787 55.1587 23.56 55.4093C23.596 55.42 23.6347 55.4147 23.668 55.3973C23.688 55.38 23.7027 55.3573 23.7093 55.332C24.0733 54.4373 24.556 53.0933 24.6333 52.132L17.7107 51.492Z" fill="rgb(255, 255, 255)" class="body"></path>
<path d="M36.4 5.65601L37.6773 11.2C39.708 10.4867 41.744 9.77201 43.6773 8.82668C44.3733 8.48668 45.072 8.10268 45.576 7.51468C46.172 6.82002 46.4387 5.91468 46.6907 5.03068C47.0693 3.69735 47.4507 2.36401 47.576 0.981348C45.9253 1.10801 44.4 1.86668 42.9227 2.61201C40.9613 3.60001 39 4.59068 36.4 5.65601Z" fill="rgb(255, 255, 255)" class="body"></path>
<path d="M35.0267 1.98935L34.4733 3.96535C34.4013 4.16802 34.3733 4.38402 34.388 4.59868C34.4787 5.22002 35.2187 5.47602 35.832 5.60535C35.1427 7.26002 34.1467 8.77068 32.8987 10.0574C32.208 9.31602 31.6827 8.43735 31.3573 7.47735C31.032 6.51735 30.916 5.50002 31.0147 4.49202L35.1147 1.18535C35.3627 1.59202 35.1733 2.11202 35.0267 1.98935Z" fill="rgb(255, 255, 255)" class="body"></path>
<path d="M59.164 19.376C58.7973 19.376 58.468 19.1227 58.384 18.7507C58.192 17.8947 57.8066 16.9507 57.4333 16.0374C57.2293 15.54 57.02 15.0254 56.8453 14.5347C56.0093 12.1694 54.796 9.97335 53.2413 8.00669C52.108 6.57335 50.3307 4.59735 48 3.97202C47.5733 3.85735 47.32 3.41869 47.4347 2.99202C47.5493 2.56535 47.988 2.31335 48.4146 2.42669C51.2026 3.17335 53.2213 5.40269 54.496 7.01335C56.16 9.11869 57.4586 11.4694 58.3533 13.9987C58.5146 14.4534 58.7093 14.928 58.9146 15.4307C59.3133 16.4054 59.724 17.4134 59.9453 18.4C60.0413 18.8307 59.7706 19.2587 59.34 19.356C59.2813 19.3694 59.2226 19.376 59.164 19.376Z" fill="rgb(0, 0, 0)" class="stroke"></path>
<path d="M57.8813 69.3414C55.944 69.3414 54.3787 68.0747 53.5587 65.8227C53.4853 65.62 53.4227 65.3934 53.3573 65.1547C53.264 64.8147 53.0467 64.0187 52.848 63.9014C52.7067 63.8174 52.5653 63.736 52.4227 63.6547C51.7013 63.2427 50.884 62.7747 50.292 61.996C49.6507 61.156 49.6987 60.3987 49.8507 59.912C50.1933 58.8187 51.3827 58.084 52.3827 57.7614C52.8027 57.6254 53.2547 57.856 53.3893 58.2773C53.5253 58.6973 53.2947 59.1494 52.8733 59.284C52.132 59.524 51.5027 59.9894 51.376 60.3907C51.352 60.4667 51.2893 60.668 51.5627 61.0267C51.9587 61.5467 52.568 61.896 53.2147 62.2653C53.3653 62.352 53.516 62.4374 53.664 62.5254C54.4173 62.972 54.684 63.948 54.8987 64.732C54.956 64.9387 55.0093 65.1347 55.06 65.2747C55.492 66.46 56.364 67.8454 58.0787 67.7347C59.2053 67.66 60.5653 66.8134 61.012 64.66C61.3547 63.0027 61.044 61.2173 60.744 59.4907C60.708 59.2827 60.672 59.076 60.6373 58.8707C60.564 58.4347 60.8573 58.0227 61.2933 57.948C61.7293 57.8733 62.1413 58.168 62.216 58.604C62.2507 58.8067 62.2853 59.012 62.3213 59.216C62.6467 61.0894 62.984 63.0267 62.58 64.9827C62.0627 67.4814 60.3387 69.188 58.1867 69.3294C58.084 69.3387 57.9813 69.3414 57.8813 69.3414Z" fill="rgb(0, 0, 0)" class="stroke"></path>
<path d="M19.3013 66.0254C18.392 66.0254 17.28 65.888 16.5347 65.1733C16.0347 64.6933 15.78 64.0413 15.78 63.236C15.78 63.22 15.78 63.2027 15.7813 63.1867C15.7947 62.9653 15.812 62.7387 15.8293 62.5093C15.968 60.636 16.1107 58.6987 14.8147 57.4014C14.712 57.2987 14.64 57.1707 14.604 57.0293C14.272 55.7013 15.0613 54.432 16.568 53.8707C16.9813 53.716 17.4427 53.9267 17.5973 54.3413C17.752 54.7547 17.5413 55.216 17.1267 55.3707C16.9453 55.4387 16.104 55.7894 16.1307 56.464C17.748 58.2614 17.5693 60.6747 17.4253 62.6267C17.4093 62.84 17.3933 63.052 17.3813 63.2587C17.3867 63.7733 17.58 63.9573 17.644 64.0187C17.9627 64.3253 18.6467 64.4587 19.6747 64.4173C20.3627 64.3827 20.9213 64.1093 21.2 63.6667C21.5733 63.076 21.688 62.284 21.8 61.5187L22.6773 55.5C22.7413 55.0627 23.1467 54.7587 23.584 54.824C24.0213 54.888 24.324 55.2934 24.26 55.7307L23.3827 61.7493C23.26 62.5933 23.1067 63.6427 22.5533 64.5213C21.992 65.4107 20.9693 65.9547 19.7467 66.016C19.6053 66.0213 19.456 66.0254 19.3013 66.0254Z" fill="rgb(0, 0, 0)" class="stroke"></path>
<path d="M37.6773 12C37.544 12 37.4107 11.9667 37.292 11.9013C37.092 11.792 36.9493 11.6013 36.8987 11.38L35.6213 5.83599C35.5333 5.45466 35.7347 5.06532 36.0973 4.91599C38.6413 3.87332 40.604 2.88532 42.5026 1.92799L42.564 1.89732C44.0253 1.15999 45.6827 0.323992 47.516 0.183992C47.7507 0.165325 47.9813 0.251992 48.1467 0.419992C48.312 0.587992 48.3947 0.819992 48.3733 1.05333C48.2427 2.49732 47.8507 3.87599 47.472 5.20932L47.4613 5.24799C47.2147 6.11466 46.9067 7.19199 46.184 8.03466C45.592 8.72532 44.7987 9.16932 44.0293 9.54399C42.0587 10.5067 39.9747 11.24 37.9587 11.948L37.9427 11.9533C37.856 11.9853 37.7666 12 37.6773 12ZM37.332 6.13466L38.256 10.148C39.9653 9.54266 41.7027 8.90132 43.3253 8.10799C43.8987 7.82799 44.544 7.48799 44.968 6.99466C45.4627 6.41732 45.696 5.60132 45.9213 4.81199L45.932 4.77332C46.2067 3.80532 46.4707 2.87599 46.6387 1.93999C45.4827 2.21733 44.368 2.77866 43.2826 3.32666L43.2213 3.35732C41.4533 4.24799 39.6307 5.16666 37.332 6.13466Z" fill="rgb(0, 0, 0)" class="stroke"></path>
<path d="M32.8987 10.8574C32.896 10.8574 32.8933 10.8574 32.8907 10.8574C32.672 10.8547 32.4627 10.7627 32.3133 10.6027C31.54 9.77335 30.964 8.80802 30.6 7.73336C30.236 6.66002 30.108 5.54269 30.2187 4.41336C30.24 4.20002 30.3453 4.00269 30.5133 3.86802L34.6133 0.561356C34.7933 0.417356 35.0253 0.356022 35.252 0.396022C35.4787 0.436022 35.6773 0.570689 35.7973 0.768023C36.148 1.34269 36.1 2.13069 35.704 2.53602L35.244 4.18002C35.2387 4.19736 35.2333 4.21336 35.228 4.23069C35.1987 4.31469 35.184 4.40136 35.184 4.48936C35.2093 4.52536 35.364 4.68802 35.9973 4.82136C36.2307 4.87069 36.4293 5.02136 36.54 5.23202C36.6507 5.44269 36.6627 5.69202 36.5707 5.91202C35.8387 7.66669 34.7973 9.24935 33.4733 10.6134C33.3227 10.7694 33.1147 10.8574 32.8987 10.8574ZM31.7867 4.89736C31.7493 5.68669 31.86 6.46802 32.1147 7.22136C32.3107 7.80002 32.584 8.34002 32.9307 8.83202C33.6427 7.99336 34.2453 7.07602 34.732 6.09069C34.0653 5.78136 33.684 5.32002 33.5947 4.71469C33.592 4.69469 33.5893 4.67602 33.588 4.65602C33.5653 4.33869 33.6053 4.02669 33.708 3.72669L33.8453 3.23602L31.7867 4.89736Z" fill="rgb(0, 0, 0)" class="stroke"></path>
<path d="M33.6933 42.42C33.6787 42.42 33.6653 42.42 33.6507 42.4187C33.2093 42.396 32.8707 42.0187 32.8947 41.5773C33.2187 35.448 33.636 29.2107 34.0387 23.1787C34.4067 17.668 34.788 11.9693 35.0987 6.35599C35.1227 5.91466 35.5013 5.57866 35.9413 5.60133C36.3827 5.62533 36.72 6.00266 36.696 6.44399C36.3853 12.0667 36.004 17.7707 35.6347 23.2853C35.232 29.312 34.8147 35.544 34.492 41.6613C34.468 42.0893 34.1147 42.42 33.6933 42.42Z" fill="rgb(0, 0, 0)" class="stroke"></path>
<path d="M62.4827 55.376C62.4787 55.376 62.4733 55.376 62.4693 55.376L50.8613 55.1853C50.4653 55.1787 50.1333 54.8827 50.0813 54.4893C48.5013 42.4587 47.9493 30.2107 48.4413 18.0867C48.4587 17.6453 48.832 17.3013 49.2733 17.32C49.7147 17.3373 50.0587 17.7107 50.04 18.152C49.5613 29.956 50.0787 41.8773 51.5787 53.5973L61.6733 53.7627C61.6653 52.9053 61.6587 52.0547 61.6507 51.2107C61.568 41.1653 61.4907 31.676 59.1373 21.5347C59.0373 21.104 59.3053 20.6747 59.736 20.5747C60.1653 20.4747 60.596 20.7427 60.696 21.1733C63.088 31.4867 63.1667 41.0613 63.2507 51.1973C63.26 52.3093 63.2693 53.4307 63.2813 54.5667C63.284 54.7827 63.1987 54.9907 63.0453 55.1427C62.8973 55.292 62.6933 55.376 62.4827 55.376Z" fill="rgb(0, 0, 0)" class="stroke"></path>
<path d="M51.6893 58.7933C51.4613 58.7933 51.2347 58.7306 51.0387 58.612C50.9787 58.576 50.924 58.532 50.876 58.4813C50.7587 58.3573 50.668 58.2146 50.6093 58.0546C50.5573 57.916 50.532 57.7693 50.532 57.62C50.4587 56.5213 50.5347 55.4173 50.7573 54.3386C50.8467 53.9053 51.2707 53.628 51.7027 53.7173C52.136 53.8066 52.4133 54.2293 52.324 54.6626C52.152 55.4946 52.0813 56.344 52.112 57.192L60.6693 57.168C60.6693 57.1533 60.6693 57.1373 60.668 57.12L60.572 54.6666C60.5547 54.2253 60.8987 53.8533 61.34 53.836C61.784 53.8146 62.1533 54.1626 62.1707 54.604L62.2667 57.0613C62.276 57.344 62.3013 58.188 61.596 58.588C61.576 58.5986 61.556 58.6093 61.5347 58.62C61.2987 58.728 61.0373 58.7786 60.7773 58.7653L51.7667 58.7906C51.7413 58.792 51.7147 58.7933 51.6893 58.7933Z" fill="rgb(0, 0, 0)" class="stroke"></path>
<path d="M43.56 43.7533C40.4733 43.7533 37.188 43.4666 33.64 42.8906C30.832 43.2133 28.032 42.9586 25.536 42.1533C25.16 42.032 24.628 41.8146 24.3333 41.3306C24.04 40.848 24.0893 40.3173 24.1187 40C24.7093 33.66 25.3027 27.32 25.896 20.9813C26.0227 19.6266 26.0453 17.9866 25.0853 17.324C24.7213 17.0733 24.6307 16.5746 24.8827 16.2106C25.1333 15.8466 25.632 15.756 25.996 16.008C27.6373 17.144 27.6573 19.3426 27.4893 21.1306C26.896 27.4706 26.3027 33.8093 25.712 40.1493C25.7053 40.224 25.688 40.4093 25.7013 40.4906C25.736 40.5146 25.8227 40.5653 26.0267 40.6306C28.3373 41.3746 30.944 41.6026 33.5613 41.288C33.636 41.2786 33.712 41.28 33.7853 41.2933C39.4893 42.2266 44.4787 42.3973 49.0387 41.816C49.476 41.7613 49.8773 42.0706 49.9333 42.508C49.9893 42.9466 49.6787 43.3466 49.2413 43.4026C47.4187 43.6373 45.5293 43.7533 43.56 43.7533Z" fill="rgb(0, 0, 0)" class="stroke"></path>
<path d="M24.9333 53.2733C24.908 53.2733 24.8827 53.272 24.8573 53.2693C24.352 53.2213 23.8093 53.1253 23.2853 53.0333C22.92 52.9693 22.5747 52.908 22.28 52.8707L20.3013 52.5893C19.632 52.508 19.184 52.4453 18.7507 52.3867C18.292 52.324 17.8587 52.264 17.1787 52.1813C16.7493 52.1293 16.4387 51.7453 16.4787 51.3147C17.0387 45.132 17.7667 38.8827 18.644 32.74C19.3853 27.5333 20.2933 21.9867 21.9027 16.7C23.816 10.4387 26.4333 6.57867 30.1413 4.55067C30.5293 4.33867 31.0147 4.48134 31.2267 4.86934C31.4387 5.25734 31.296 5.74267 30.908 5.95467C27.5907 7.76934 25.2147 11.332 23.432 17.1667C21.8547 22.3493 20.9587 27.8227 20.2267 32.9653C19.3907 38.8267 18.6893 44.784 18.1413 50.688C18.4507 50.728 18.712 50.764 18.9693 50.8C19.3987 50.8587 19.8413 50.92 20.5027 51.0013C20.508 51.0013 20.5133 51.0027 20.5187 51.004L22.4947 51.2853C22.816 51.3267 23.1787 51.3907 23.5627 51.4587C23.8093 51.5027 24.0587 51.5467 24.3027 51.5853C24.984 48.3027 25.4973 44.9547 25.8293 41.624C25.8733 41.184 26.2653 40.864 26.704 40.9067C27.144 40.9507 27.464 41.3427 27.4213 41.7827C27.0587 45.4187 26.4853 49.072 25.7133 52.644C25.6347 53.0133 25.3067 53.2733 24.9333 53.2733Z" fill="rgb(0, 0, 0)" class="stroke"></path>
<path d="M23.6 56.2147C23.536 56.2147 23.472 56.208 23.408 56.1947C22.844 56.1067 22.008 56.0267 21.1227 55.9413C19.4813 55.784 17.7853 55.62 16.8587 55.3387C16.4987 55.2293 16.264 54.884 16.2947 54.5093C16.376 53.5027 16.468 52.3613 16.964 51.316C17.1533 50.9173 17.6307 50.748 18.0307 50.9373C18.4293 51.1267 18.6 51.604 18.4093 52.004C18.132 52.588 18.0187 53.2653 17.9493 53.952C18.8253 54.1133 20.112 54.2373 21.276 54.3493C21.956 54.4147 22.608 54.4773 23.1493 54.5453C23.3773 53.8733 23.5213 53.1773 23.5787 52.468C23.6147 52.028 24.0013 51.7 24.4413 51.736C24.8813 51.772 25.2093 52.1573 25.1733 52.5987C25.0893 53.6347 24.8493 54.648 24.46 55.6107C24.4053 55.7627 24.3133 55.8987 24.1907 56.0053C24.148 56.0427 24.1013 56.0747 24.0533 56.1013C23.912 56.176 23.7573 56.2147 23.6 56.2147Z" fill="rgb(0, 0, 0)" class="stroke"></path>
</g>
<defs>
<clipPath id="clip0_2_1786">
<rect width="80" height="80" fill="white"></rect>
</clipPath>
</defs>
</svg>