<svg xmlns="http://www.w3.org/2000/svg" viewBox="0 0 80 80" fill="none">
<path d="M28.7027 7.97066L28.9493 7.20532C28.168 7.41866 27.5787 8.05199 27.0827 8.68932C25.54 10.6613 24.7253 13.1627 24.3413 15.636C22.82 25.44 20.1707 41.9213 18.4293 54.964C17.9987 54.912 17.5613 54.9867 17.1707 55.176C16.78 55.3653 16.452 55.664 16.2267 56.0347C16.0013 56.4053 15.8853 56.8333 15.896 57.2667C15.9053 57.7013 16.04 58.1227 16.2827 58.4827C16.4267 58.6933 16.6067 58.8826 16.7387 59.0987C17.076 59.6613 17.0573 60.3613 17.0173 61.0173C16.9427 62.2427 16.8453 63.5333 17.372 64.6427C17.8987 65.752 19.3067 66.548 20.3853 65.9613C21.1373 65.5507 21.46 64.6573 21.7187 63.8413C22.0827 62.764 22.392 61.668 22.644 60.5587C22.9307 59.192 24.1107 53.128 24.2253 51.7347L23.156 51.2107C23.156 51.2107 26.9973 22.5133 28.7027 7.97066Z" fill="rgb(255, 255, 255)" class="skin"></path>
<path d="M50.0853 21.3333L50.2707 21.544C50.1267 33.688 51.756 45.8187 52.9427 58.3213C52.48 58.36 52.04 58.54 51.6853 58.8386C51.3293 59.1373 51.0747 59.5386 50.9573 59.988C50.8387 60.4373 50.864 60.912 51.0267 61.3466C51.1893 61.7813 51.484 62.1546 51.868 62.416C52.2813 62.696 52.7773 62.832 53.2013 63.0973C55.1453 64.3093 54.912 67.652 56.9667 68.6626C58.4827 69.408 60.3827 68.2706 61.0693 66.7253C61.756 65.18 61.568 63.408 61.364 61.7306C60.4933 54.5946 58.4173 33.692 58.0547 29.3173C58.0547 29.3173 56.316 13.1466 55.868 11.2893C55.42 9.43198 53.9013 7.84265 52.5173 6.52532L52.2187 6.33198C51.284 8.69598 48.7107 18.8253 50.0853 21.3333Z" fill="rgb(255, 255, 255)" class="skin"></path>
<path d="M45.2493 0C45.3693 1.34667 45.92 4.38933 47.9693 3.93333L48.1893 4.26667C48.0893 6.356 47.0306 7.82933 45.372 9.356C43.6866 10.8827 41.5373 11.8 39.2693 11.9613C37.2693 12.108 35.1426 11.6293 33.6466 10.288C32.1506 8.94667 31.364 7.088 32.3546 5.49467H32.4986C32.9493 5.508 33.364 5.272 33.7453 5.032C34.2306 4.72533 35.232 3.468 35.532 3.10667C35.932 2.588 36.0946 0.621333 36.3 0H45.2493V0Z" fill="rgb(255, 255, 255)" class="skin"></path>
<path d="M50.0853 21.3334C48.7107 18.8254 51.284 8.69602 52.2173 6.33202C52.312 6.15068 52.1827 6.27335 52.1613 6.07068C52.096 5.76002 49.4227 4.07202 48.2253 3.93335C47.9987 6.20002 47.0493 7.81468 45.3707 9.35602C43.6853 10.8827 41.536 11.8 39.268 11.9613C37.268 12.108 35.1413 11.6294 33.6453 10.288C32.1493 8.94668 31.4453 6.64802 32.436 5.05868L29.7333 6.29868C29.412 6.44535 29.0667 6.60802 28.884 6.90802C28.7013 7.20802 28.7507 7.60935 28.7107 7.97468C27 22.5174 22.668 50.392 23.0547 50.4347C31.9987 51.4934 43.556 52.4467 52.224 49.9987H52.2453C51.5333 40.3987 50.1667 30.98 50.2813 21.5467" fill="rgb(255, 255, 255)" class="body"></path>
<path d="M38.8307 52.3347C33.3773 52.3347 27.82 51.804 22.96 51.2293C22.7387 51.2027 22.5307 51.08 22.3987 50.9C22.1813 50.6013 22.092 50.4773 22.5947 45.4667C22.9093 42.3307 23.3693 38.2987 23.892 34.1133C24.5293 28.9987 26.1973 16.216 27.9187 7.85468C27.924 7.78801 27.928 7.71201 27.9307 7.63334C27.944 7.30001 27.9613 6.88668 28.2 6.49334C28.5147 5.97601 29.048 5.73334 29.4 5.57201L32.1027 4.33334C32.424 4.18668 32.804 4.26668 33.036 4.53201C33.2693 4.79734 33.3013 5.18401 33.1147 5.48401C32.3973 6.63601 32.8747 8.52401 34.1787 9.69468C35.384 10.776 37.2173 11.312 39.2093 11.1653C41.2907 11.0173 43.288 10.1653 44.8333 8.76534C46.456 7.27601 47.2333 5.80668 47.428 3.85601C47.4493 3.64268 47.556 3.44668 47.7227 3.31201C47.8893 3.17734 48.104 3.11601 48.316 3.14001C49.1747 3.24001 50.376 3.87601 51.016 4.24668C52.5307 5.12401 52.8253 5.53734 52.9107 5.78534C53.0533 6.00134 53.112 6.30401 52.948 6.65468C52.5427 7.69601 51.676 10.6933 51.0707 13.9267C50.0947 19.144 50.6053 20.6213 50.7853 20.9493C50.9973 21.3373 50.856 21.8227 50.468 22.036C50.08 22.248 49.5947 22.1067 49.3813 21.7187C48.6893 20.4573 48.728 17.736 49.4973 13.632C50.032 10.7787 50.8227 7.83068 51.3467 6.36801C50.8987 6.01068 49.7547 5.31734 48.88 4.95468C48.5013 6.86001 47.5613 8.42934 45.9107 9.94401C44.0973 11.5867 41.76 12.5853 39.324 12.7587C36.9027 12.9347 34.6387 12.252 33.1107 10.8827C31.932 9.82534 31.1067 8.13068 31.184 6.51201L30.0653 7.02534C29.9 7.10134 29.6253 7.22668 29.5653 7.32401C29.54 7.37601 29.5333 7.56934 29.528 7.69734C29.524 7.80801 29.5187 7.93334 29.504 8.06134C29.5013 8.08668 29.4973 8.11201 29.492 8.13601C26.888 20.7627 24.0493 45.5013 23.832 49.72C32.7147 50.748 43.7573 51.5573 52.0053 49.228C52.4307 49.108 52.872 49.356 52.992 49.78C53.112 50.2053 52.8653 50.6467 52.44 50.768C48.352 51.924 43.6307 52.3347 38.8307 52.3347ZM23.1427 49.64C23.1467 49.64 23.1507 49.6413 23.156 49.6413C23.1507 49.64 23.1467 49.64 23.1427 49.64Z" fill="rgb(0, 0, 0)" class="stroke"></path>
<path d="M57.9893 69.6947C57.5067 69.6947 57.0387 69.5893 56.6133 69.38C55.2773 68.7227 54.736 67.3547 54.2573 66.1467C53.8653 65.1573 53.496 64.2227 52.7773 63.7747C52.624 63.6787 52.4387 63.596 52.2427 63.508C51.9867 63.3933 51.6947 63.264 51.4187 63.076C50.8947 62.72 50.5 62.2187 50.2773 61.6253C50.0547 61.032 50.0227 60.3947 50.184 59.7827C50.3453 59.1707 50.6867 58.632 51.172 58.224C51.4453 57.9947 51.752 57.8173 52.0813 57.6973C51.8467 55.2653 51.5947 52.8227 51.3507 50.4533C50.3267 40.5187 49.3587 31.1347 49.472 21.5347C49.4773 21.0933 49.8427 20.7427 50.2813 20.744C50.7227 20.7493 51.0773 21.112 51.072 21.5533C50.9587 31.0627 51.9227 40.4013 52.9413 50.2893C53.2093 52.888 53.4867 55.576 53.74 58.2453C53.76 58.4587 53.6947 58.6707 53.5573 58.8347C53.42 58.9987 53.2227 59.1013 53.0093 59.1187C52.7093 59.1427 52.4307 59.2587 52.2 59.452C51.9693 59.6453 51.808 59.9 51.732 60.1907C51.656 60.4813 51.6707 60.784 51.776 61.0653C51.8813 61.3467 52.0693 61.584 52.3173 61.7533C52.476 61.8613 52.68 61.952 52.896 62.048C53.1227 62.1493 53.3787 62.264 53.6267 62.4187C54.792 63.1453 55.2987 64.4267 55.7467 65.5587C56.1547 66.588 56.5387 67.56 57.32 67.944C57.8173 68.188 58.328 68.0933 58.6693 67.9693C59.3733 67.7147 60.028 67.0987 60.3387 66.4C60.912 65.1107 60.7893 63.6293 60.5707 61.8267C59.708 54.7587 57.6373 33.9573 57.2587 29.3933C56.6587 23.816 55.4347 12.9067 55.092 11.4773C54.708 9.88267 53.364 8.43334 51.968 7.10667C51.648 6.80267 51.6347 6.296 51.94 5.976C52.244 5.656 52.7507 5.64267 53.0707 5.948C54.644 7.444 56.1667 9.10534 56.648 11.104C57.1013 12.9907 58.78 28.5707 58.8507 29.2333C58.8507 29.24 58.852 29.2467 58.852 29.2533C59.228 33.788 61.2973 54.576 62.1587 61.636C62.3547 63.2493 62.5987 65.256 61.8013 67.052C61.316 68.1453 60.3253 69.0733 59.216 69.476C58.8053 69.62 58.392 69.6947 57.9893 69.6947Z" fill="rgb(0, 0, 0)" class="stroke"></path>
<path d="M47.8133 4.9C47.7973 4.9 47.7813 4.9 47.7653 4.89867C46.2787 4.81067 45.7973 3.95334 45.412 3.26534C45.312 3.088 45.2093 2.904 45.088 2.724C44.8413 2.35734 44.9387 1.86 45.304 1.61334C45.6707 1.36667 46.168 1.464 46.4147 1.82934C46.5733 2.064 46.6973 2.28534 46.8067 2.48134C47.1533 3.09867 47.2453 3.264 47.86 3.30134C48.3013 3.328 48.6373 3.70667 48.6107 4.14667C48.5853 4.572 48.2333 4.9 47.8133 4.9Z" fill="rgb(0, 0, 0)" class="stroke"></path>
<path d="M19.5893 66.9587C19.3027 66.9587 19.0093 66.912 18.7187 66.8173C17.8427 66.532 17.0493 65.8307 16.6493 64.9867C16.0493 63.724 16.136 62.3187 16.212 61.0773L16.2187 60.9693C16.2533 60.404 16.2667 59.868 16.052 59.5107C16.0067 59.436 15.9333 59.344 15.856 59.2453C15.7827 59.1533 15.7 59.0493 15.6213 58.9347C15.2893 58.4427 15.108 57.8747 15.0947 57.2853C15.0813 56.6973 15.236 56.12 15.5427 55.6173C15.8493 55.1147 16.2907 54.7133 16.82 54.456C17.108 54.316 17.4147 54.2227 17.728 54.1773C19.1373 43.8333 20.9933 31.9493 22.4907 22.3613C22.88 19.8653 23.2413 17.556 23.556 15.5147C24.016 12.5333 24.992 10.0707 26.4573 8.19734C27.0133 7.48268 27.72 6.71334 28.744 6.43468C29.1707 6.31868 29.6107 6.56934 29.7267 6.99601C29.8427 7.42268 29.592 7.86268 29.1653 7.97868C28.596 8.13468 28.1147 8.67468 27.72 9.18268C26.424 10.84 25.556 13.052 25.1373 15.76C24.8227 17.8027 24.4613 20.1133 24.072 22.6093C22.5427 32.4013 20.64 44.588 19.2227 55.0707C19.164 55.504 18.768 55.808 18.336 55.7573C18.056 55.724 17.7747 55.772 17.5213 55.8947C17.268 56.0173 17.056 56.2093 16.9107 56.4507C16.764 56.6907 16.6907 56.9667 16.696 57.248C16.7027 57.5293 16.7893 57.8013 16.9467 58.0347C16.9907 58.0987 17.0493 58.1733 17.1107 58.2507C17.2093 58.376 17.3213 58.516 17.4213 58.68C17.8733 59.4347 17.864 60.272 17.816 61.064L17.8093 61.1733C17.7413 62.272 17.672 63.408 18.0947 64.2973C18.3107 64.7507 18.7493 65.1427 19.2147 65.2933C19.42 65.36 19.724 65.408 20.004 65.256C20.48 64.996 20.736 64.2933 20.9573 63.5973C20.9587 63.592 20.96 63.588 20.9627 63.5827C21.316 62.5373 21.6187 61.4613 21.864 60.3853C22.1587 58.9747 23.3187 51.848 23.4293 50.5027C23.4653 50.0627 23.8533 49.736 24.292 49.7707C24.732 49.8067 25.06 50.1933 25.024 50.6333C24.9067 52.0627 23.7333 59.2613 23.428 60.72C23.4267 60.724 23.4267 60.7293 23.4253 60.7333C23.168 61.8627 22.8507 62.9907 22.48 64.0867C22.244 64.832 21.848 66.0707 20.7693 66.66C20.408 66.86 20.0053 66.9587 19.5893 66.9587Z" fill="rgb(0, 0, 0)" class="stroke"></path>
<path d="M32.3547 6.29466C31.9613 6.29466 31.6173 6.00399 31.5627 5.60266C31.5027 5.16533 31.8093 4.76133 32.2467 4.70133C33.1947 4.57199 33.808 4.016 34.2147 3.64933L34.2627 3.60533C34.7773 3.14133 34.832 3.01733 34.9413 2.76799C34.9573 2.73066 34.9747 2.69333 34.992 2.65333C35.1747 2.25066 35.648 2.07199 36.0507 2.25466C36.4533 2.43733 36.632 2.91066 36.4493 3.31333L36.4053 3.412C36.2173 3.84 36.052 4.14799 35.3333 4.79466L35.2867 4.83599C34.8013 5.27466 33.9 6.09066 32.4613 6.28799C32.428 6.292 32.3907 6.29466 32.3547 6.29466Z" fill="rgb(0, 0, 0)" class="stroke"></path>
</svg>