<svg xmlns="http://www.w3.org/2000/svg" viewBox="0 0 80 80" fill="none">
<path d="M45.2493 0C45.3693 1.34667 45.92 4.38933 47.9693 3.93333L48.1893 4.26667C48.0893 6.356 47.0306 7.82933 45.372 9.356C43.6866 10.8827 41.5373 11.8 39.2693 11.9613C37.2693 12.108 35.1426 11.6293 33.6466 10.288C32.1506 8.94667 31.364 7.088 32.3546 5.49467H32.4986C32.9493 5.508 33.364 5.272 33.7453 5.032C34.2306 4.72533 35.232 3.468 35.532 3.10667C35.932 2.588 36.0946 0.621333 36.3 0H45.2493V0Z" fill="rgb(255, 255, 255)" class="skin"></path>
<path d="M56.9453 16.4227C56.6547 16.892 56.34 17.3453 56.004 17.7827C54.8533 19.268 53.3533 20.544 51.56 21.116L51.3013 21.5267C51.1573 33.6707 51.756 45.824 52.9427 58.3267C52.4813 58.3653 52.044 58.5467 51.6893 58.8453C51.3347 59.144 51.0813 59.544 50.964 59.992C50.8467 60.44 50.8693 60.9133 51.032 61.3467C51.1933 61.78 51.4853 62.1533 51.868 62.4147C52.2813 62.6947 52.7773 62.8307 53.2013 63.096C55.1453 64.308 54.912 67.6507 56.9667 68.6613C58.4827 69.4067 60.3827 68.2693 61.0693 66.724C61.756 65.1787 61.568 63.4067 61.364 61.7293C60.4933 54.5933 58.4173 33.6907 58.0547 29.316L57.0347 17.0133L56.9453 16.4227Z" fill="rgb(255, 255, 255)" class="skin"></path>
<path d="M23.3333 16.7827C21.352 29.4107 19.388 41.7453 18.4293 54.964C17.9987 54.912 17.5613 54.9867 17.1707 55.176C16.78 55.3653 16.452 55.664 16.2267 56.0347C16.0013 56.4053 15.8853 56.8333 15.896 57.2667C15.9053 57.7013 16.04 58.1227 16.2827 58.4827C16.4267 58.6933 16.6067 58.8827 16.7387 59.0987C17.076 59.6613 17.0573 60.3613 17.0173 61.0173C16.9427 62.2427 16.8453 63.5333 17.372 64.6427C17.8987 65.752 19.3067 66.548 20.3853 65.9613C21.1373 65.5507 21.46 64.6573 21.7187 63.8413C22.0827 62.764 22.392 61.668 22.644 60.5587C22.9307 59.192 23.044 57.7947 23.1587 56.4013L23.8253 48.2307L25.3333 19.356C24.9267 18.272 24.268 17.3013 23.412 16.5213L23.3333 16.7827Z" fill="rgb(255, 255, 255)" class="skin"></path>
<path d="M58.944 38.596C60.5306 41.872 61.8 45.116 61.8 45.116C61.9293 45.5013 61.924 45.9187 61.7853 46.3C61.4213 47.0453 60.1653 47.0747 59.7653 46.3493L58.944 38.596Z" fill="rgb(255, 255, 255)" class="body"></path>
<path d="M25.3333 19.356C24.6933 17.656 23.444 16.2547 21.8293 15.4227C23.3307 14.4893 24.088 12.756 24.992 11.2347C27.1773 7.58533 30.5533 4.8 34.5507 3.348C34.168 3.768 33.532 4.51466 33.6173 5.37733C33.6733 5.98 34.0893 6.50533 34.6053 6.82266C35.1213 7.14 35.7253 7.27733 36.324 7.36533C38.844 7.724 41.4133 7.284 43.6693 6.10666C44.8693 5.47466 46.0347 4.54133 46.3107 3.088C48.1253 2.71466 50 3.60533 51.3493 4.87466C52.6987 6.144 53.6507 7.76533 54.732 9.27466C55.8133 10.784 57.1053 12.2333 58.828 12.916C57.9987 14.6027 57.1613 16.3013 56.0107 17.788C54.86 19.2747 53.36 20.5493 51.5667 21.1213L51.308 21.532C51.204 30.3067 51.488 39.0853 52.1 47.9973L52.0933 48.072C50.3893 49.492 47.8747 49.296 45.7307 48.7267C43.5867 48.1573 41.4227 47.284 39.2267 47.6013C38.1427 47.7587 37.1187 48.2027 36.04 48.3893C32.5947 48.9853 29.0787 46.9227 25.6507 47.604C24.5013 47.8347 23.3093 48.368 22.2093 47.9653C20.9053 47.4893 20.4067 45.5893 21.3093 44.5347C23.212 36.4933 24.628 28.3453 25.5493 20.1347L25.3333 19.356Z" fill="rgb(255, 255, 255)" class="body"></path>
<path d="M48.6733 49.9573C47.7187 49.9573 46.664 49.804 45.5133 49.4987C45.0773 49.3827 44.636 49.2533 44.2107 49.1293C42.516 48.632 40.9147 48.1627 39.3293 48.392C38.8147 48.4667 38.3027 48.6173 37.76 48.776C37.2493 48.9253 36.72 49.0813 36.1653 49.1773C34.3213 49.496 32.5067 49.124 30.752 48.7627C29.0173 48.4067 27.38 48.0707 25.7973 48.388C25.5373 48.44 25.2733 48.508 24.9933 48.5813C24.0547 48.8267 22.9907 49.104 21.9253 48.716C21.0653 48.4013 20.4013 47.6347 20.148 46.6653C19.9147 45.772 20.0693 44.86 20.56 44.1787C22.676 35.2147 24.1933 26.024 25.0707 16.856C25.1133 16.416 25.504 16.0947 25.9427 16.136C26.3827 16.1787 26.7053 16.5693 26.6627 17.008C25.772 26.3053 24.2293 35.628 22.076 44.716C22.0467 44.84 21.988 44.9547 21.9053 45.052C21.6533 45.3467 21.5747 45.7973 21.6947 46.2587C21.816 46.7213 22.1067 47.0773 22.472 47.212C23.0667 47.4293 23.8053 47.236 24.588 47.032C24.8787 46.956 25.1787 46.8773 25.4827 46.8173C27.3827 46.436 29.2587 46.8213 31.0733 47.1947C32.756 47.54 34.3467 47.8667 35.892 47.6C36.3573 47.52 36.82 47.384 37.3093 47.24C37.8813 47.072 38.472 46.8987 39.1 46.808C41.032 46.528 42.8773 47.0693 44.6613 47.5933C45.0773 47.7147 45.508 47.8413 45.924 47.952C48.4653 48.6267 50.364 48.46 51.5693 47.456C51.9093 47.1733 52.4133 47.2187 52.696 47.5587C52.9787 47.8987 52.9333 48.4027 52.5933 48.6853C51.5773 49.532 50.2653 49.9573 48.6733 49.9573Z" fill="rgb(0, 0, 0)" class="stroke"></path>
<path d="M51.5667 21.9214C51.228 21.9214 50.9133 21.704 50.8053 21.364C50.6707 20.9427 50.904 20.4934 51.324 20.3587C53.1733 19.7694 54.5493 18.368 55.3787 17.2973C56.3213 16.08 57.06 14.6814 57.752 13.2907C56.1293 12.4014 54.952 10.9547 54.0827 9.74002C53.8133 9.36402 53.5507 8.97868 53.296 8.60668C52.5053 7.44935 51.7587 6.35735 50.8027 5.45735C49.604 4.32935 48.196 3.73468 46.9453 3.80935C46.532 5.00668 45.5587 6.01602 44.0427 6.81335C41.62 8.07735 38.9133 8.54135 36.212 8.15602C35.6213 8.06935 34.86 7.91735 34.1867 7.50268C33.4067 7.02268 32.896 6.25602 32.8213 5.44935C32.8133 5.37068 32.8093 5.29468 32.8093 5.22135C29.7533 6.72402 27.312 8.91602 25.6787 11.644C25.52 11.9107 25.3667 12.1827 25.2053 12.472C24.6387 13.48 24.0573 14.5147 23.2187 15.336C24.5147 16.2667 25.512 17.56 26.0827 19.072C26.2387 19.4853 26.0293 19.9467 25.616 20.1027C25.2027 20.2587 24.7413 20.0494 24.5853 19.636C24.0133 18.1187 22.9053 16.8747 21.464 16.132C21.208 16 21.0427 15.7414 21.0307 15.4534C21.0187 15.1654 21.1627 14.8934 21.408 14.7414C22.4613 14.0867 23.1173 12.9214 23.8107 11.6867C23.9707 11.4027 24.136 11.1094 24.3053 10.824C26.4787 7.19335 29.9333 4.43868 34.296 2.85335C34.6427 2.72802 35.0293 2.85469 35.2333 3.16002C35.4373 3.46535 35.408 3.87202 35.16 4.14402C35.0933 4.21735 35.02 4.29202 34.944 4.36935C34.56 4.75868 34.3827 4.97735 34.4133 5.29735C34.4413 5.60402 34.676 5.92535 35.024 6.14002C35.4467 6.40002 35.9773 6.50535 36.44 6.57335C38.804 6.91068 41.1773 6.50268 43.2987 5.39735C44.612 4.70535 45.3413 3.90002 45.524 2.93869C45.584 2.62002 45.8307 2.36935 46.1493 2.30402C48.0173 1.92002 50.1653 2.66268 51.8973 4.29202C52.98 5.31068 53.812 6.52802 54.616 7.70535C54.8653 8.07068 55.124 8.44802 55.3827 8.80935C56.2587 10.032 57.476 11.52 59.1227 12.1734C59.3307 12.256 59.4933 12.4214 59.5747 12.6294C59.6547 12.8374 59.6453 13.0694 59.5467 13.2707C58.712 14.9667 57.8507 16.7213 56.644 18.2787C55.256 20.072 53.5853 21.3187 51.8107 21.884C51.7293 21.9094 51.6467 21.9214 51.5667 21.9214Z" fill="rgb(0, 0, 0)" class="stroke"></path>
<path d="M60.7547 47.676C60.0307 47.676 59.3867 47.3187 59.064 46.7347C58.8507 46.348 58.9907 45.8614 59.3787 45.648C59.7653 45.4347 60.252 45.5747 60.4653 45.9627C60.504 46.032 60.6307 46.08 60.7693 46.076C60.8907 46.0734 61.0027 46.0307 61.0507 45.972C61.108 45.7814 61.1067 45.576 61.0467 45.3867C60.936 45.1054 59.712 42.0187 58.224 38.944C58.032 38.5467 58.1973 38.068 58.5947 37.8747C58.992 37.6827 59.4707 37.848 59.664 38.2467C61.2453 41.5134 62.532 44.7907 62.5453 44.824C62.5507 44.836 62.5547 44.848 62.5587 44.8614C62.744 45.416 62.7373 46.024 62.5373 46.5734C62.528 46.6 62.516 46.6254 62.504 46.6507C62.204 47.264 61.5547 47.6574 60.8093 47.676C60.792 47.676 60.7733 47.676 60.7547 47.676Z" fill="rgb(0, 0, 0)" class="stroke"></path>
<path d="M57.9893 69.6947C57.5067 69.6947 57.0387 69.5894 56.6133 69.38C55.2773 68.7227 54.736 67.3547 54.2573 66.1467C53.8653 65.1574 53.496 64.2227 52.7773 63.7747C52.624 63.6787 52.4387 63.596 52.2427 63.508C51.9867 63.3934 51.6947 63.264 51.4187 63.076C50.8947 62.72 50.5 62.2187 50.2773 61.6254C50.0547 61.032 50.0227 60.3947 50.184 59.7827C50.3453 59.1707 50.6867 58.632 51.172 58.224C51.4453 57.9947 51.7533 57.8174 52.0827 57.6974C50.884 44.844 50.368 33 50.504 21.5107C50.5093 21.072 50.8667 20.72 51.304 20.72C51.3067 20.72 51.3107 20.72 51.3133 20.72C51.7547 20.7254 52.1093 21.088 52.104 21.5294C51.9667 33.1694 52.5013 45.1787 53.7413 58.244C53.7613 58.4574 53.696 58.6694 53.5587 58.8334C53.4213 58.9974 53.224 59.1 53.0107 59.1174C52.7107 59.1414 52.432 59.2574 52.2013 59.4507C51.9707 59.644 51.8093 59.8987 51.7333 60.1894C51.6573 60.48 51.672 60.7827 51.7773 61.064C51.8827 61.3454 52.0707 61.5827 52.3187 61.752C52.4773 61.86 52.6813 61.9507 52.8973 62.0467C53.124 62.148 53.38 62.2627 53.628 62.4174C54.7933 63.144 55.3 64.4254 55.748 65.5574C56.156 66.5867 56.54 67.5587 57.3213 67.9427C57.8187 68.1867 58.3293 68.092 58.6707 67.968C59.3747 67.7134 60.0293 67.0974 60.34 66.3987C60.9133 65.1094 60.7907 63.628 60.572 61.8254C59.7093 54.752 57.636 33.9254 57.26 29.3814L56.24 17.0787C56.204 16.6387 56.5307 16.252 56.9707 16.2147C57.4107 16.18 57.7973 16.5054 57.8347 16.9454L58.8547 29.248C59.2307 33.7827 61.3 54.5707 62.1613 61.6307C62.3573 63.244 62.6013 65.2507 61.804 67.0467C61.3187 68.14 60.328 69.068 59.2187 69.4707C58.8053 69.62 58.392 69.6947 57.9893 69.6947Z" fill="rgb(0, 0, 0)" class="stroke"></path>
<path d="M19.5893 66.9587C19.3027 66.9587 19.0093 66.912 18.7187 66.8173C17.8427 66.532 17.0493 65.8307 16.6493 64.9867C16.0493 63.724 16.136 62.3187 16.212 61.0773L16.2187 60.9693C16.2533 60.404 16.2667 59.868 16.052 59.5107C16.0067 59.436 15.9333 59.344 15.856 59.2467C15.7827 59.1547 15.7 59.0493 15.6213 58.936C15.2893 58.444 15.108 57.876 15.0947 57.2867C15.0813 56.6987 15.236 56.1213 15.5427 55.6187C15.8493 55.116 16.2907 54.7147 16.82 54.4573C17.0947 54.324 17.3853 54.2333 17.684 54.1853C18.6373 41.536 20.464 29.896 22.3973 17.5867L22.5427 16.6587C22.6107 16.2227 23.02 15.9253 23.4573 15.992C23.8933 16.06 24.192 16.4693 24.124 16.9067L23.9787 17.8347C22.0147 30.344 20.16 42.1613 19.228 55.0227C19.212 55.2413 19.108 55.4427 18.9387 55.5813C18.7707 55.72 18.552 55.7853 18.3347 55.7587C18.0547 55.7253 17.7733 55.7733 17.52 55.896C17.2667 56.0187 17.0547 56.2107 16.9093 56.452C16.7627 56.692 16.6893 56.968 16.6947 57.2493C16.7013 57.5307 16.788 57.8027 16.9453 58.036C16.9893 58.1 17.048 58.1747 17.1093 58.252C17.208 58.3773 17.32 58.5173 17.42 58.6813C17.872 59.436 17.8627 60.2733 17.8147 61.0653L17.808 61.1747C17.74 62.2733 17.6707 63.4093 18.0933 64.2987C18.3093 64.752 18.748 65.144 19.2133 65.2947C19.4187 65.3613 19.7227 65.4093 20.0027 65.2573C20.4787 64.9973 20.7347 64.2947 20.956 63.5987C20.9573 63.5933 20.9587 63.5893 20.9613 63.584C21.3147 62.5387 21.6173 61.464 21.8627 60.3867C22.136 59.0827 22.2493 57.7053 22.3587 56.3733L23.028 48.1653C23.064 47.7253 23.4507 47.396 23.8907 47.4333C24.3307 47.4693 24.6587 47.856 24.6227 48.296L23.9533 56.5053C23.84 57.8893 23.7213 59.32 23.428 60.7227C23.4267 60.7267 23.4267 60.732 23.4253 60.736C23.168 61.8653 22.8507 62.9933 22.48 64.0893C22.244 64.8347 21.848 66.0733 20.7693 66.6627C20.408 66.86 20.0053 66.9587 19.5893 66.9587Z" fill="rgb(0, 0, 0)" class="stroke"></path>
</svg>