<svg xmlns="http://www.w3.org/2000/svg" viewBox="0 0 80 80" fill="none">
<path d="M45.2493 0C45.3693 1.34667 45.92 4.38933 47.9693 3.93333L48.1893 4.26667C48.0893 6.356 47.0306 7.82933 45.372 9.356C43.6866 10.8827 41.5373 11.8 39.2693 11.9613C37.2693 12.108 35.1426 11.6293 33.6466 10.288C32.1506 8.94667 31.364 7.088 32.3546 5.49467H32.4986C32.9493 5.508 33.364 5.272 33.7453 5.032C34.2306 4.72533 34.644 3.348 34.944 2.98667C35.344 2.468 36.0933 0.621333 36.2986 0H45.2493V0Z" fill="rgb(255, 255, 255)" class="skin"></path>
<path d="M58.9773 37.1813C61.9307 46.3253 63.9853 53.3387 66.684 62.164C66.8173 62.6147 67.3507 64.208 67.104 64.6067C66.9387 64.8733 66.6613 65.044 66.3907 65.1973C64.9107 66.0387 63.2947 66.1093 61.6253 66.4453L55.4293 67.6787C46.5613 69.2693 37.6613 69.6587 28.7773 68.16L27.1013 67.964L21.368 66.8667C20.8507 66.768 20.2827 66.636 19.98 66.2C19.7294 65.8427 19.7307 65.372 19.7493 64.936C19.8253 63.2027 20.0253 61.4827 20.2253 59.7613L21.8027 46.1613C22.4787 40.3347 23.156 34.4987 24.0773 28.708L24.0133 28.688C22.4627 28.1547 20.936 27.5627 19.408 26.9693C19.1973 26.9093 19.008 26.792 18.8587 26.632C18.5587 26.2453 18.816 25.6907 19.0733 25.2733C21.3453 21.58 23.288 17.6947 24.8813 13.6613C26.0973 10.5813 27.3667 7.116 30.3347 5.648L36.5373 6.356L48.208 3.2C50.2493 3.74667 51.924 5.21067 53.2987 6.81733C55.036 8.848 56.4133 11.1613 57.3733 13.656C59.4973 19.18 59.4987 25.4067 62.06 30.7427C60.8453 31.1027 59.612 31.392 58.3653 31.612L58.9773 37.1813Z" fill="rgb(255, 255, 255)" class="body"></path>
<path d="M36.2067 7.13202C36.3067 8.50402 36.6813 9.84135 37.3067 11.0667C37.36 11.1947 37.4467 11.3054 37.5573 11.388C37.7533 11.508 38.008 11.4347 38.224 11.356C40.1747 10.648 42.0627 9.77602 43.8667 8.75069C44.7867 8.22802 45.7173 7.63335 46.2667 6.73069C46.7867 5.87869 46.9107 4.85202 47.0227 3.86135L47.2613 1.74535C47.284 1.63735 47.2733 1.52535 47.2293 1.42535C47.112 1.22269 46.8093 1.26935 46.588 1.34402C43.0133 2.55869 39.5773 4.19069 36.2067 7.13202Z" fill="rgb(255, 255, 255)" class="body"></path>
<path d="M35.0667 2.12C34.6787 2.82933 34.2787 3.59466 34.348 4.4C34.4174 5.20533 35.1787 6 35.9587 5.78933C36.004 6.74533 35.3294 7.56533 34.6947 8.28133L33.044 10.148C32.9827 10.2307 32.9 10.2947 32.804 10.332C32.5747 10.3973 32.3827 10.1547 32.2707 9.94266C31.572 8.624 31.0547 7.21733 30.7334 5.76C30.66 5.55733 30.652 5.33733 30.708 5.12933C30.7654 4.92133 30.884 4.736 31.0507 4.59866C31.8987 3.63333 32.8854 2.79733 33.8987 2.00666C34.1454 1.81333 34.432 1.60666 34.7414 1.64666C35.0507 1.68666 35.3 2.104 35.0667 2.12Z" fill="rgb(255, 255, 255)" class="body"></path>
<path d="M51.8413 32.2413C52.0893 40.948 52.7493 49.6293 53.8226 58.2867C52.9413 58.3413 52.028 58.5533 51.36 59.1293C50.692 59.7053 50.3533 60.7293 50.768 61.512C51.3293 62.5667 52.8693 62.6893 53.5893 63.6453C54.0613 64.2707 54.0813 65.112 54.3213 65.8627C54.536 66.5307 54.932 67.124 55.4653 67.5787C55.9986 68.0333 56.648 68.3307 57.3413 68.4373C58.0346 68.544 58.7426 68.4547 59.388 68.1813C60.0333 67.908 60.5893 67.4587 60.9946 66.8867C62.0506 65.3947 61.8933 63.3947 61.692 61.5787C60.6026 51.7267 59.512 41.8787 58.4226 32.036L51.8413 32.2413Z" fill="rgb(255, 255, 255)" class="skin"></path>
<path d="M20.2307 59.7667C20.0307 61.488 19.8307 63.2107 19.7547 64.9413L19.6547 65.2867C18.6294 65.1027 17.5014 64.7987 16.9574 63.9107C16.0734 62.468 17.2907 60.5147 16.6907 58.932C16.2747 57.824 14.996 56.852 15.4294 55.7507C15.7907 54.8333 17.052 54.7267 17.7934 54.0773C18.5347 53.428 18.652 52.372 18.7334 51.4107L20.7187 27.7747L20.7734 27.508C21.848 27.9213 22.9254 28.3253 24.0147 28.6987L24.076 28.7347C23.156 34.5213 22.476 40.352 21.8094 46.172" fill="rgb(255, 255, 255)" class="skin"></path>
<path d="M52.5173 32.932C50.904 32.932 49.2853 32.8187 47.6653 32.5907C47.2613 32.5333 46.9653 32.1827 46.9773 31.776L47.3413 19C47.3533 18.5587 47.7213 18.2067 48.164 18.2227C48.6053 18.2347 48.9533 18.604 48.9413 19.0453L48.5973 31.0987C52.756 31.5947 56.904 31.3013 60.9493 30.2253C59.7707 27.4533 59.1787 24.4813 58.604 21.5973C58.0933 19.032 57.5653 16.3813 56.628 13.9453C55.6987 11.5293 54.3747 9.30666 52.692 7.33999C51.1173 5.49999 49.5827 4.39866 48.0027 3.97599C47.576 3.86133 47.3227 3.42266 47.4373 2.99599C47.552 2.56933 47.9907 2.31599 48.4173 2.43066C50.32 2.93999 52.1173 4.20666 53.9093 6.30133C55.7107 8.40666 57.128 10.7867 58.1227 13.3733C59.108 15.9373 59.6507 18.6573 60.1747 21.288C60.8187 24.5187 61.4253 27.5707 62.784 30.4013C62.8853 30.6133 62.8893 30.8573 62.7933 31.072C62.6973 31.2867 62.5133 31.448 62.2893 31.5147C59.0827 32.456 55.812 32.932 52.5173 32.932Z" fill="rgb(0, 0, 0)" class="stroke"></path>
<path d="M24.0187 29.4973C23.932 29.4973 23.8453 29.4827 23.7587 29.4533C22.204 28.92 20.6547 28.3187 19.156 27.736L19.1533 27.7347C18.8187 27.6307 18.516 27.4413 18.2773 27.184C18.2613 27.1667 18.2467 27.1493 18.232 27.1307C17.776 26.5427 17.832 25.78 18.3973 24.8613C20.6373 21.2187 22.5707 17.3533 24.1427 13.3747L24.2813 13.0213C25.4867 9.95734 26.8533 6.48534 29.9853 4.93734C30.3813 4.74134 30.8613 4.90401 31.0573 5.30001C31.2533 5.69601 31.0907 6.17601 30.6947 6.37201C28.1173 7.64534 26.924 10.676 25.7707 13.6067L25.6307 13.9613C24.0253 18.0267 22.0493 21.976 19.76 25.6987C19.608 25.9453 19.556 26.0907 19.5387 26.1653C19.568 26.1827 19.6 26.1973 19.6347 26.2067C19.6587 26.2133 19.6813 26.2213 19.704 26.2293L19.736 26.2413C21.22 26.8173 22.7547 27.4133 24.2787 27.936C24.696 28.08 24.9187 28.5347 24.776 28.952C24.6613 29.2893 24.3507 29.4973 24.0187 29.4973Z" fill="rgb(0, 0, 0)" class="stroke"></path>
<path d="M26.0227 68.5654C25.9733 68.5654 25.9227 68.56 25.872 68.5507L21.2227 67.6614C20.6973 67.556 19.832 67.3814 19.3307 66.6694C18.9387 66.1107 18.9307 65.468 18.9547 64.9107C19.032 63.148 19.2373 61.384 19.4347 59.6787L21.0507 45.744C22.1493 36.34 23.284 26.6147 25.4947 17.232C25.596 16.8027 26.0253 16.5347 26.4573 16.6374C26.8867 16.7387 27.1533 17.1694 27.052 17.6C24.8627 26.8934 23.7333 36.572 22.64 45.932L21.024 59.8654C20.8293 61.544 20.628 63.2787 20.552 64.9827C20.5427 65.1947 20.5253 65.592 20.6387 65.752C20.772 65.9414 21.2467 66.0374 21.5293 66.0934L26.1707 66.9814C26.604 67.064 26.8893 67.484 26.8053 67.9174C26.7347 68.2987 26.4 68.5654 26.0227 68.5654Z" fill="rgb(0, 0, 0)" class="stroke"></path>
<path d="M40.2627 69.9053C36.2773 69.9053 32.4213 69.5867 28.6453 68.9493C28.2093 68.876 27.916 68.4627 27.9893 68.028C28.0627 67.592 28.4747 67.2973 28.9107 67.372C37.1307 68.7587 45.7587 68.6013 55.288 66.892C55.7227 66.8133 56.1387 67.1027 56.216 67.5387C56.2947 67.9733 56.0053 68.3893 55.5693 68.4667C50.2213 69.4253 45.1453 69.9053 40.2627 69.9053Z" fill="rgb(0, 0, 0)" class="stroke"></path>
<path d="M61.624 67.2453C61.2507 67.2453 60.9174 66.9826 60.84 66.6026C60.7534 66.1693 61.0334 65.748 61.4667 65.66C61.8894 65.5746 62.3054 65.5066 62.708 65.4413C63.8867 65.248 65 65.0666 65.9934 64.5013C66.1027 64.4386 66.272 64.344 66.368 64.2493C66.3654 64.052 66.2854 63.5986 65.972 62.5773C65.9494 62.504 65.9294 62.44 65.9147 62.3906C65.1787 59.984 64.4854 57.696 63.816 55.4826C62.0374 49.6106 60.3587 44.064 58.2147 37.4266C58.0787 37.0066 58.3094 36.5546 58.7307 36.42C59.1507 36.2853 59.6014 36.5146 59.7374 36.936C61.8854 43.5866 63.5667 49.14 65.348 55.0186C66.0174 57.2306 66.7107 59.5173 67.448 61.9293C67.464 61.9826 67.4814 62.04 67.5027 62.1066C67.952 63.568 68.1294 64.4667 67.784 65.0267C67.52 65.4533 67.1294 65.6973 66.784 65.8933C65.5427 66.5986 64.2334 66.8133 62.9667 67.0213C62.5774 67.0853 62.176 67.1506 61.7827 67.2306C61.7294 67.24 61.6774 67.2453 61.624 67.2453Z" fill="rgb(0, 0, 0)" class="stroke"></path>
<path d="M57.9067 69.28C57.6733 69.28 57.44 69.2627 57.2067 69.2267C56.3667 69.0973 55.5813 68.7373 54.9347 68.184C54.288 67.632 53.8093 66.912 53.5493 66.1027C53.46 65.82 53.4 65.5453 53.344 65.2787C53.244 64.8093 53.156 64.404 52.944 64.1213C52.7187 63.824 52.3013 63.608 51.8587 63.38C51.2093 63.0453 50.4733 62.6667 50.056 61.8827C49.4973 60.8253 49.832 59.38 50.836 58.5187C51.376 58.0547 52.0787 57.7427 52.9307 57.5867C51.9253 49.2067 51.2987 40.6893 51.0667 32.26C51.0547 31.8187 51.4027 31.4507 51.844 31.4387C51.852 31.4387 51.8587 31.4387 51.8667 31.4387C52.2987 31.4387 52.6547 31.7827 52.6667 32.216C52.904 40.8627 53.56 49.6 54.616 58.1867C54.6427 58.4053 54.5787 58.6253 54.4373 58.796C54.296 58.9653 54.092 59.0693 53.872 59.0827C52.988 59.1373 52.3173 59.356 51.88 59.732C51.444 60.1067 51.2613 60.7347 51.472 61.132C51.6533 61.4733 52.0893 61.6973 52.5933 61.9573C53.148 62.244 53.7773 62.568 54.2227 63.1573C54.6493 63.7227 54.788 64.3707 54.9107 64.9427C54.9627 65.1827 55.0107 65.4093 55.076 65.616C55.244 66.14 55.556 66.608 55.976 66.968C56.396 67.3267 56.908 67.5613 57.4533 67.6453C58 67.7293 58.5573 67.66 59.0667 67.4453C59.576 67.2293 60.0133 66.8773 60.3333 66.4267C61.1987 65.2067 61.0933 63.48 60.8947 61.668L57.6547 32.124C57.6067 31.6853 57.924 31.2893 58.3627 31.2413C58.8027 31.1933 59.1973 31.5107 59.2453 31.9493L62.4853 61.4933C62.6613 63.1027 62.928 65.5347 61.6387 67.352C61.1467 68.0453 60.4733 68.5867 59.6907 68.9187C59.1227 69.1587 58.5173 69.28 57.9067 69.28Z" fill="rgb(0, 0, 0)" class="stroke"></path>
<path d="M19.66 66.0827C19.6133 66.0827 19.5653 66.0787 19.5173 66.0693C18.312 65.8533 16.9853 65.4773 16.2787 64.324C15.6533 63.3067 15.812 62.172 15.952 61.172C16.0547 60.4427 16.1507 59.7533 15.9453 59.2093C15.8347 58.912 15.62 58.596 15.3947 58.26C14.8853 57.504 14.252 56.564 14.688 55.4533C15.0293 54.592 15.8213 54.224 16.456 53.928C16.7747 53.78 17.0747 53.64 17.2707 53.4693C17.7573 53.0453 17.864 52.22 17.9387 51.3387L19.924 27.7027C19.9613 27.2627 20.3507 26.936 20.788 26.972C21.228 27.0093 21.5547 27.396 21.5187 27.836L19.5333 51.472C19.4347 52.6453 19.26 53.8587 18.3213 54.6747C17.9547 54.9933 17.5173 55.1973 17.1307 55.3773C16.6747 55.5893 16.2813 55.772 16.176 56.04C16.056 56.344 16.3027 56.744 16.7213 57.3653C16.9893 57.7627 17.2653 58.1733 17.4427 58.6453C17.7907 59.5707 17.6547 60.5387 17.536 61.392C17.4187 62.232 17.3173 62.9573 17.6413 63.4853C18.0187 64.1 18.9427 64.34 19.7987 64.4933C20.2333 64.5707 20.5227 64.9867 20.4453 65.4213C20.3773 65.8107 20.04 66.0827 19.66 66.0827Z" fill="rgb(0, 0, 0)" class="stroke"></path>
<path d="M37.8 12.2507C37.5907 12.2507 37.3613 12.2054 37.14 12.0694C37.12 12.0574 37.1013 12.044 37.0827 12.0307C36.864 11.8694 36.692 11.6534 36.5827 11.4054C35.912 10.0854 35.5173 8.66669 35.4093 7.18936C35.3907 6.93869 35.492 6.69336 35.6813 6.52802C38.6973 3.89602 41.9827 2.06269 46.332 0.585358C47.1573 0.306691 47.6947 0.629358 47.9227 1.02269C47.9373 1.04936 47.9507 1.07602 47.9627 1.10269C48.068 1.34402 48.0987 1.60536 48.0533 1.86402L47.8187 3.94936C47.7093 4.92002 47.572 6.12669 46.9507 7.14536C46.288 8.23469 45.216 8.90269 44.2627 9.44402C42.424 10.4894 40.4853 11.384 38.4973 12.1054C38.3653 12.156 38.104 12.2507 37.8 12.2507ZM37.0413 7.46936C37.1667 8.56002 37.4773 9.61069 37.9667 10.5987C39.864 9.90936 41.716 9.05336 43.472 8.05602C44.2507 7.61336 45.12 7.07869 45.584 6.31602C46.0227 5.59869 46.1267 4.67069 46.228 3.77336L46.3987 2.25736C42.6253 3.58402 39.7067 5.20936 37.0413 7.46936Z" fill="rgb(0, 0, 0)" class="stroke"></path>
<path d="M32.792 11.1987C32.4707 11.1987 31.9934 11.0613 31.6294 10.3733C30.9 8.99733 30.36 7.528 30.0227 6.00666C29.9454 5.72266 29.9267 5.432 29.9667 5.14133C29.972 5.104 29.98 5.068 29.9894 5.032C30.0894 4.67866 30.28 4.356 30.5387 4.09733C31.432 3.12 32.42 2.22133 33.4774 1.42533C33.752 1.212 34.256 0.82133 34.9134 0.90933C35.4307 0.978663 36.1707 1.49866 36.1494 2.15866C36.1414 2.39866 36.04 2.61066 35.876 2.76C35.8374 2.82666 35.7987 2.89333 35.76 2.96133C35.472 3.46 35.1734 3.976 35.208 4.39333C35.224 4.58666 35.364 4.80533 36.2614 5.08533C36.5827 5.18533 36.8067 5.476 36.8227 5.812C36.884 7.14933 35.9294 8.228 35.3587 8.872L33.7254 10.7173C33.5787 10.904 33.384 11.0493 33.1627 11.136C33.1374 11.1453 33.112 11.1547 33.0867 11.1613C33.0267 11.176 32.9227 11.1987 32.792 11.1987ZM31.548 5.416C31.5454 5.476 31.5534 5.53466 31.5694 5.59333C31.5734 5.60933 31.5774 5.62533 31.5814 5.64133C31.8587 6.90133 32.2894 8.12133 32.864 9.27466L34.1627 7.808C34.5734 7.344 34.976 6.86 35.1454 6.38133C34.4894 6.1 33.7054 5.576 33.6174 4.52533C33.576 4.03066 33.6854 3.57733 33.8587 3.16C33.0934 3.78266 32.3734 4.46266 31.7094 5.19066C31.6987 5.20266 31.688 5.21333 31.676 5.22533C31.62 5.28 31.576 5.34533 31.548 5.416Z" fill="rgb(0, 0, 0)" class="stroke"></path>
<path d="M35 13.6C35.405 13.6 35.7334 13.2717 35.7334 12.8667C35.7334 12.4617 35.405 12.1333 35 12.1333C34.595 12.1333 34.2667 12.4617 34.2667 12.8667C34.2667 13.2717 34.595 13.6 35 13.6Z" fill="rgb(0, 0, 0)" class="stroke"></path>
<path d="M34.4667 18.6667C34.8717 18.6667 35.2 18.3383 35.2 17.9333C35.2 17.5283 34.8717 17.2 34.4667 17.2C34.0617 17.2 33.7333 17.5283 33.7333 17.9333C33.7333 18.3383 34.0617 18.6667 34.4667 18.6667Z" fill="rgb(0, 0, 0)" class="stroke"></path>
</svg>