<svg xmlns="http://www.w3.org/2000/svg" viewBox="0 0 80 80" fill="none">
<path d="M45.2493 0C45.3693 1.34667 45.92 4.38933 47.9693 3.93333L48.1893 4.26667C48.0893 6.356 47.0306 7.82933 45.372 9.356C43.6866 10.8827 41.5373 11.8 39.2693 11.9613C37.2693 12.108 35.1426 11.6293 33.6466 10.288C32.1506 8.94667 31.364 7.088 32.3546 5.49467H32.4986C32.9493 5.508 33.364 5.272 33.7453 5.032C34.2306 4.72533 35.232 3.468 35.532 3.10667C35.932 2.588 36.0946 0.621333 36.3 0H45.2493V0Z" fill="rgb(255, 255, 255)" class="skin"></path>
<path d="M48.252 3.188C50.2933 3.73333 51.968 5.2 53.3427 6.8C55.08 8.83067 56.4573 11.144 57.4173 13.6387C59.5413 19.1627 59.5427 25.3893 62.104 30.7253C60.7133 31.1373 59.2987 31.4573 57.8667 31.6853L59.0213 37.1613C61.9747 46.3053 64.0293 53.3187 66.728 62.144C66.8613 62.5947 67.3946 64.188 67.148 64.5867C66.9827 64.8533 66.7053 65.024 66.4347 65.1773C64.9547 66.0187 63.3386 66.0893 61.6693 66.4253L55.4733 67.6587C46.6053 69.2493 37.7053 69.6387 28.8213 68.14L27.1453 67.944L21.412 66.8467C20.8947 66.748 20.3267 66.616 20.024 66.18C19.7733 65.8227 19.7747 65.352 19.7933 64.916C19.8693 63.1827 20.0693 61.4627 20.2693 59.7413L21.8467 46.1413C22.5333 40.332 23.2 34.4987 24.1333 28.7093L24.0693 28.6827C22.5187 28.1493 20.992 27.5573 19.464 26.964C19.2533 26.904 19.064 26.7867 18.9147 26.6267C18.6147 26.24 18.872 25.6853 19.1293 25.268C21.4 21.5747 23.3413 17.6893 24.9333 13.656C26.1493 10.576 27.4187 7.11067 30.3867 5.64267L33.7507 4.23467C33.4653 4.72133 33.8267 6.10933 34.212 6.52133C34.5973 6.93333 35.1453 7.14933 35.6787 7.32133C37.468 7.87867 39.412 8.02667 41.228 7.588C43.044 7.14933 44.7413 6.084 45.808 4.54133C46.0747 4.16267 46.2973 3.752 46.628 3.43067C46.9587 3.10933 47.428 2.88267 47.8773 2.98267L48.252 3.188Z" fill="rgb(255, 255, 255)" class="body"></path>
<path d="M51.8667 32.2374C52.1053 40.948 52.7573 49.6307 53.8213 58.284C52.94 58.3387 52.0267 58.5507 51.3573 59.1254C50.688 59.7 50.3493 60.7253 50.7627 61.5067C51.324 62.5613 52.8627 62.6867 53.5827 63.64C54.0547 64.2667 54.0733 65.1067 54.312 65.8587C54.5267 66.5267 54.9213 67.1214 55.4547 67.576C55.988 68.0307 56.6373 68.3294 57.3293 68.436C58.0227 68.5427 58.7307 68.4547 59.376 68.1814C60.0213 67.908 60.5787 67.46 60.984 66.8894C62.0413 65.3987 61.8867 63.3974 61.688 61.5814L58.448 32.0374L51.8667 32.2374Z" fill="rgb(255, 255, 255)" class="skin"></path>
<path d="M20.7227 27.7707L18.7373 51.4067C18.656 52.372 18.5267 53.4387 17.7973 54.0733C17.068 54.708 15.7973 54.8293 15.4333 55.7467C15 56.848 16.2787 57.82 16.6947 58.928C17.2907 60.5107 16.0733 62.464 16.9613 63.9067C17.5053 64.7947 18.6333 65.0987 19.6587 65.2827L19.7587 64.9373C19.8347 63.204 20.0347 61.484 20.2347 59.7627L21.812 46.1627C22.528 39.996 23.2453 33.8187 24.252 27.6947L20.7227 27.7707Z" fill="rgb(255, 255, 255)" class="skin"></path>
<path d="M52.5173 32.932C50.904 32.932 49.2853 32.8187 47.6653 32.5907C47.2613 32.5333 46.9653 32.1827 46.9773 31.776L47.3413 19C47.3533 18.5587 47.7227 18.2067 48.164 18.2227C48.6053 18.2347 48.9533 18.604 48.9413 19.0453L48.5973 31.0987C52.756 31.5947 56.904 31.3013 60.9493 30.2253C59.7707 27.4533 59.1787 24.4813 58.604 21.5973C58.0933 19.032 57.5653 16.3813 56.628 13.9453C55.6987 11.5293 54.3747 9.30666 52.692 7.33999C51.1173 5.49999 49.5827 4.39866 48.0027 3.97599C47.576 3.86133 47.3227 3.42266 47.4373 2.99599C47.552 2.56933 47.9907 2.31599 48.4173 2.43066C50.32 2.93999 52.1173 4.20666 53.9093 6.30133C55.7107 8.40666 57.128 10.7867 58.1227 13.3733C59.108 15.9373 59.6507 18.6573 60.1747 21.288C60.8187 24.5187 61.4253 27.5707 62.784 30.4013C62.8853 30.6133 62.8893 30.8573 62.7933 31.072C62.6973 31.2867 62.5133 31.448 62.2893 31.5147C59.0827 32.456 55.812 32.932 52.5173 32.932Z" fill="rgb(0, 0, 0)" class="stroke"></path>
<path d="M24.0187 29.4973C23.932 29.4973 23.8453 29.4827 23.7587 29.4533C22.204 28.92 20.6547 28.3187 19.156 27.736L19.1533 27.7347C18.8187 27.6307 18.516 27.4413 18.2773 27.184C18.2613 27.1667 18.2467 27.1493 18.232 27.1307C17.776 26.5427 17.832 25.78 18.3973 24.8613C20.6373 21.2187 22.5707 17.3533 24.1427 13.3747L24.2813 13.0213C25.4867 9.95734 26.8533 6.48534 29.9853 4.93734C30.3813 4.74134 30.8613 4.904 31.0573 5.3C31.2533 5.69601 31.0907 6.176 30.6947 6.372C28.1173 7.64534 26.924 10.676 25.7707 13.6067L25.6307 13.9613C24.0253 18.0267 22.0493 21.976 19.76 25.6987C19.608 25.9453 19.556 26.0907 19.5387 26.1653C19.568 26.1827 19.6 26.1973 19.6347 26.2067C19.6587 26.2133 19.6813 26.2213 19.704 26.2293L19.736 26.2413C21.22 26.8173 22.7547 27.4133 24.2787 27.936C24.696 28.08 24.9187 28.5347 24.776 28.952C24.6613 29.2893 24.3507 29.4973 24.0187 29.4973Z" fill="rgb(0, 0, 0)" class="stroke"></path>
<path d="M26.2507 68.6093C26.2013 68.6093 26.1507 68.604 26.1 68.5947L21.224 67.6613C20.6987 67.556 19.8333 67.3813 19.332 66.6693C18.94 66.1107 18.932 65.468 18.956 64.9107C19.0333 63.148 19.2387 61.384 19.436 59.6787L21.052 45.744C22.1507 36.34 23.2853 26.6147 25.496 17.232C25.5973 16.8027 26.0267 16.5347 26.4587 16.6373C26.888 16.7387 27.1547 17.1693 27.0533 17.6C24.864 26.8933 23.7347 36.572 22.6413 45.932L21.0253 59.8653C20.8307 61.544 20.6293 63.2787 20.5533 64.9827C20.544 65.1947 20.5267 65.592 20.64 65.752C20.7733 65.9414 21.248 66.0373 21.5307 66.0933L26.4 67.0253C26.8333 67.108 27.1187 67.528 27.0347 67.9613C26.9627 68.3427 26.6267 68.6093 26.2507 68.6093Z" fill="rgb(0, 0, 0)" class="stroke"></path>
<path d="M40.2627 69.9053C36.2773 69.9053 32.4213 69.5867 28.6453 68.9493C28.2093 68.876 27.916 68.4627 27.9893 68.028C28.0627 67.592 28.4747 67.2973 28.9107 67.372C37.1307 68.7587 45.7587 68.6013 55.288 66.892C55.7227 66.8133 56.1387 67.1027 56.216 67.5387C56.2947 67.9733 56.0053 68.3893 55.5693 68.4667C50.2213 69.4253 45.1453 69.9053 40.2627 69.9053Z" fill="rgb(0, 0, 0)" class="stroke"></path>
<path d="M61.624 67.2453C61.2507 67.2453 60.9174 66.9826 60.84 66.6026C60.7534 66.1693 61.0334 65.748 61.4667 65.66C61.8894 65.5747 62.3054 65.5066 62.708 65.4413C63.8867 65.248 65 65.0666 65.9934 64.5013C66.1027 64.4386 66.272 64.344 66.368 64.2493C66.3654 64.052 66.2854 63.5986 65.972 62.5773C65.9494 62.504 65.9294 62.44 65.9147 62.3906C65.1787 59.984 64.4854 57.696 63.816 55.4826C62.0374 49.6106 60.3587 44.064 58.2147 37.4267C58.0787 37.0067 58.3094 36.5546 58.7307 36.42C59.152 36.2853 59.6014 36.5146 59.7374 36.936C61.8854 43.5866 63.5667 49.14 65.348 55.0186C66.0174 57.2306 66.7107 59.5173 67.448 61.9293C67.464 61.9826 67.4814 62.04 67.5027 62.1066C67.952 63.568 68.1294 64.4666 67.784 65.0266C67.52 65.4533 67.1294 65.6973 66.784 65.8933C65.5427 66.5986 64.2334 66.8133 62.9667 67.0213C62.5774 67.0853 62.176 67.1506 61.7827 67.2306C61.7294 67.24 61.6774 67.2453 61.624 67.2453Z" fill="rgb(0, 0, 0)" class="stroke"></path>
<path d="M57.9067 69.28C57.6733 69.28 57.44 69.2627 57.2067 69.2267C56.3667 69.0973 55.5813 68.7373 54.9347 68.184C54.288 67.632 53.8093 66.912 53.5493 66.1027C53.46 65.82 53.4 65.5453 53.344 65.2787C53.244 64.8093 53.156 64.404 52.944 64.1213C52.7187 63.824 52.3013 63.608 51.8587 63.38C51.2093 63.0453 50.4733 62.6667 50.056 61.8827C49.4973 60.8253 49.832 59.38 50.836 58.5187C51.376 58.0547 52.0787 57.7427 52.9307 57.5867C51.9253 49.2067 51.2987 40.6893 51.0667 32.26C51.0547 31.8187 51.4027 31.4507 51.844 31.4387C51.852 31.4387 51.8587 31.4387 51.8667 31.4387C52.2987 31.4387 52.6547 31.7827 52.6667 32.216C52.904 40.8627 53.56 49.6 54.616 58.1867C54.6427 58.4053 54.5787 58.6253 54.4373 58.796C54.296 58.9653 54.092 59.0693 53.872 59.0827C52.988 59.1373 52.3173 59.356 51.88 59.732C51.444 60.1067 51.2613 60.7347 51.472 61.132C51.6533 61.4733 52.0893 61.6973 52.5933 61.9573C53.148 62.244 53.7773 62.568 54.2227 63.1573C54.6493 63.7227 54.788 64.3707 54.9107 64.9427C54.9627 65.1827 55.0107 65.4093 55.076 65.616C55.244 66.14 55.556 66.608 55.976 66.968C56.396 67.3267 56.908 67.5613 57.4533 67.6453C58 67.7293 58.5573 67.66 59.0667 67.4453C59.576 67.2293 60.0133 66.8773 60.3333 66.4267C61.1987 65.2067 61.0933 63.48 60.8947 61.668L57.6547 32.124C57.6067 31.6853 57.924 31.2893 58.3627 31.2413C58.804 31.1933 59.1973 31.5107 59.2453 31.9493L62.4853 61.4933C62.6613 63.1027 62.928 65.5347 61.6387 67.352C61.1467 68.0453 60.4733 68.5867 59.6907 68.9187C59.1227 69.1587 58.5173 69.28 57.9067 69.28Z" fill="rgb(0, 0, 0)" class="stroke"></path>
<path d="M19.66 66.0827C19.6133 66.0827 19.5653 66.0787 19.5173 66.0693C18.312 65.8533 16.9853 65.4773 16.2787 64.324C15.6533 63.3067 15.812 62.172 15.952 61.172C16.0547 60.4427 16.1507 59.7533 15.9453 59.2093C15.8347 58.912 15.62 58.596 15.3947 58.26C14.8853 57.504 14.252 56.564 14.688 55.4533C15.0293 54.592 15.8213 54.224 16.456 53.928C16.7747 53.78 17.0747 53.64 17.2707 53.4693C17.7573 53.0453 17.864 52.22 17.9387 51.3387L19.924 27.7027C19.9613 27.2627 20.3493 26.936 20.788 26.972C21.228 27.0093 21.5547 27.396 21.5187 27.836L19.5333 51.472C19.4347 52.6453 19.26 53.8587 18.3213 54.6747C17.9547 54.9933 17.5173 55.1973 17.1307 55.3773C16.6747 55.5893 16.2813 55.772 16.176 56.04C16.056 56.344 16.3027 56.744 16.7213 57.3653C16.9893 57.7627 17.2653 58.1733 17.4427 58.6453C17.7907 59.5707 17.6547 60.5387 17.536 61.392C17.4187 62.232 17.3173 62.9573 17.6413 63.4853C18.0187 64.1 18.9427 64.34 19.7987 64.4933C20.2333 64.5707 20.5227 64.9867 20.4453 65.4213C20.3773 65.8107 20.04 66.0827 19.66 66.0827Z" fill="rgb(0, 0, 0)" class="stroke"></path>
<path d="M31.6267 5.88135C31.332 5.88135 31.048 5.71735 30.9093 5.43601C30.7133 5.04001 30.876 4.56001 31.272 4.36401L33.4307 3.29735C33.8267 3.10135 34.3067 3.26401 34.5027 3.66001C34.6987 4.05601 34.536 4.53601 34.14 4.73201L31.9813 5.79868C31.8654 5.85468 31.7453 5.88135 31.6267 5.88135Z" fill="rgb(0, 0, 0)" class="stroke"></path>
<path d="M38.9654 8.65865C37.7947 8.65865 36.5894 8.47198 35.3947 8.09864C34.7507 7.89065 34.0907 7.62531 33.5814 7.08131C32.9107 6.36398 32.7534 5.33465 33.1987 4.57731C33.4227 4.19598 33.9134 4.06931 34.2934 4.29331C34.6747 4.51731 34.8014 5.00798 34.5774 5.38798C34.4974 5.52398 34.5774 5.80398 34.7494 5.98798C35.0094 6.26665 35.4454 6.43331 35.8774 6.57331C37.6307 7.11998 39.4014 7.20664 40.9934 6.82398C42.6907 6.41598 44.188 5.42264 45.1027 4.09998C45.176 3.99464 45.2427 3.89331 45.3094 3.79198C45.5027 3.49731 45.7227 3.16265 46.0227 2.87065C46.5974 2.31198 47.3374 2.06798 48.004 2.21598C48.4347 2.31198 48.7067 2.73865 48.6107 3.17064C48.5147 3.60131 48.088 3.87331 47.656 3.77731C47.528 3.74931 47.3107 3.85064 47.1387 4.01864C46.964 4.18798 46.8107 4.42264 46.648 4.67064C46.572 4.78664 46.496 4.90264 46.416 5.01598C45.284 6.65198 43.444 7.87998 41.3694 8.37998C40.5947 8.56664 39.7894 8.65865 38.9654 8.65865Z" fill="rgb(0, 0, 0)" class="stroke"></path>
<path d="M39.388 10.5787C38.7534 10.5787 38.1507 10.552 37.6027 10.5174C36.4573 10.4467 35.14 10.316 33.9947 9.64935C32.8227 8.96802 31.5414 8.12002 31.176 6.68135C31.0667 6.25335 31.3254 5.81735 31.7547 5.70935C32.1827 5.60002 32.6187 5.85869 32.7267 6.28802C32.94 7.12535 33.908 7.74935 34.7987 8.26669C35.6413 8.75735 36.7387 8.86135 37.7 8.92135C39.3507 9.02269 41.2867 9.05335 43.116 8.51335C44.988 7.96135 46.2534 6.09335 46.8414 5.02935C47.0547 4.64269 47.5413 4.50269 47.928 4.71602C48.3147 4.92935 48.4547 5.41602 48.2414 5.80269C47.5347 7.08135 45.988 9.33469 43.568 10.048C42.1667 10.4627 40.7067 10.5787 39.388 10.5787Z" fill="rgb(0, 0, 0)" class="stroke"></path>
<path d="M46.508 4.30402C46.2747 4.30402 46.044 4.20269 45.8854 4.00669C45.696 3.77202 45.5507 3.51335 45.4107 3.26402C45.3107 3.08669 45.208 2.90269 45.0867 2.72269C44.84 2.35602 44.9374 1.85869 45.3027 1.61202C45.6694 1.36535 46.1667 1.46269 46.4134 1.82802C46.572 2.06269 46.696 2.28535 46.8054 2.48135C46.9227 2.69069 47.024 2.87069 47.128 3.00002C47.4054 3.34402 47.3534 3.84669 47.0094 4.12535C46.8627 4.24669 46.6854 4.30402 46.508 4.30402Z" fill="rgb(0, 0, 0)" class="stroke"></path>
<path d="M33.748 5.80932C33.472 5.80932 33.204 5.66665 33.056 5.41065C32.8334 5.02932 32.964 4.53865 33.3454 4.31732C33.7147 4.10265 34.004 3.83999 34.216 3.64932L34.2654 3.60532C34.7414 3.17599 34.8227 3.00665 34.924 2.79332C34.9534 2.73199 34.9827 2.67199 35.016 2.60799C35.2227 2.21732 35.7067 2.06799 36.0974 2.27332C36.488 2.47999 36.6374 2.96399 36.432 3.35465C36.4094 3.39865 36.3894 3.43999 36.3694 3.48265C36.1947 3.84799 35.996 4.19865 35.3387 4.79199L35.292 4.83465C35.0427 5.05999 34.6667 5.40132 34.152 5.69999C34.0227 5.77465 33.884 5.80932 33.748 5.80932Z" fill="rgb(0, 0, 0)" class="stroke"></path>
</svg>