<svg xmlns="http://www.w3.org/2000/svg" viewBox="0 0 80 80" fill="none">
<g clip-path="url(#clip0_2_1901)">
<path d="M45.2494 0C45.3694 1.34667 45.92 4.38933 47.9694 3.93333L48.1894 4.26667C48.0894 6.356 47.0307 7.82933 45.372 9.356C43.6867 10.8827 41.5374 11.8 39.2694 11.9613C37.2694 12.108 35.1427 11.6293 33.6467 10.288C32.1507 8.94667 31.364 7.088 32.3547 5.49467H32.4987C32.9494 5.508 33.364 5.272 33.7454 5.032C34.2307 4.72533 35.232 3.468 35.532 3.10667C35.932 2.588 36.0947 0.621333 36.3 0H45.2494V0Z" fill="rgb(255, 255, 255)" class="skin"></path>
<path d="M16.94 54.632C16.0067 54.98 15.2067 55.78 15.4734 56.8467C17.2067 58.58 16.8067 61.1133 16.6734 63.2467C16.944 63.8413 17.376 64.348 17.9187 64.7107C18.4627 65.0733 19.096 65.2773 19.7494 65.2987L20.8667 55.116L16.94 54.632Z" fill="rgb(255, 255, 255)" class="skin"></path>
<path d="M48.3013 3.21467C50.66 3.84667 52.4893 5.664 53.9627 7.524C55.5693 9.55733 56.8307 11.8413 57.696 14.284C58.18 15.6467 58.9453 17.1827 59.2613 18.5933L59.6827 19.8747C61.9493 29.6507 62.368 39.7307 62.52 49.784L62.6533 50.1067C63.4667 53.1133 66.5333 60.7133 67.2 63.9133C67.2213 64.1867 67.176 64.4613 67.0667 64.7133C65.7333 66.3133 63.4667 65.9133 61.7133 66.456L55.5173 67.6907C46.6493 69.2813 43.4827 70.4693 34.6 68.972L34.2 68.872C33.616 63.96 33.1853 58.856 32.936 53.7133L32.8747 53.98C32.0333 58.8973 31.2453 63.4467 31.08 68.432L31.0547 68.644C29.144 68.2787 23.368 67.2453 21.4547 66.88C20.9373 66.78 20.3693 66.6493 20.0667 66.2133C19.816 65.856 19.8173 65.3853 19.836 64.9493C19.912 63.216 20.112 61.4947 20.312 59.7733L21.2267 51.8947H21.1573C19.8027 51.7307 18.7147 51.5667 17.36 51.4027C17.9213 45.208 18.6413 39.0307 19.52 32.8693C20.2853 27.5027 21.1733 22.1347 22.752 16.9493C24.1547 12.3413 27.8467 6.24267 32.072 3.932L34.7027 4.352C36.436 6.07467 39.352 6.44 41.4507 5.196L48.3013 3.21467Z" fill="rgb(255, 255, 255)" class="body"></path>
<path d="M52.8813 58C51.5973 58.4147 49.936 60.0987 51.0213 61.5227C51.6187 62.308 52.5213 62.7307 53.3493 63.2227C53.988 63.6027 54.156 64.8813 54.4027 65.56C55.0267 67.2707 56.2387 68.6707 58.224 68.5413C60.2453 68.408 61.5027 66.6867 61.8867 64.8293C62.304 62.816 61.636 59.896 61.3013 57.904L52.8813 58Z" fill="rgb(255, 255, 255)" class="skin"></path>
<path d="M51.6347 54.5106C51.4267 55.5306 51.3573 56.5733 51.4307 57.612C51.428 57.672 51.4373 57.732 51.4573 57.788C51.4787 57.844 51.5107 57.896 51.552 57.94C51.636 57.9906 51.7347 58.0133 51.832 58.0013L60.8987 57.976C61.036 57.9866 61.1733 57.9626 61.2987 57.9053C61.5533 57.76 61.5733 57.4053 61.5653 57.112L61.4667 54.6546L51.6347 54.5106Z" fill="rgb(255, 255, 255)" class="body"></path>
<path d="M17.78 51.6707C17.3533 52.572 17.2653 53.5907 17.1853 54.5853C18.32 54.9307 19.4986 55.1107 20.684 55.1187L21.0453 52.0267L17.78 51.6707Z" fill="rgb(255, 255, 255)" class="body"></path>
<path d="M34.2773 25.1386L34.3813 5.39064C34.3813 4.61864 34.5333 1.91198 34.7693 1.53731C33.036 2.67331 31.9787 4.55598 30.9813 6.36664C30.4093 7.40531 29.8187 8.51864 29.8973 9.69998C30.008 11.3853 31.4347 12.7333 31.6787 14.404C31.96 16.3293 30.6227 18.1293 30.4787 20.0693C30.4053 21.1093 30.8133 23.4026 31.0867 24.4133L33.0787 31.768L33.0107 38.4733C35.3253 33.6466 38.0293 29.016 41.0973 24.6293C42.052 23.2613 43.0973 21.7413 42.892 20.0853C42.7587 19.0186 42.1213 17.9453 42.484 16.9333C42.6387 16.5013 42.96 16.1533 43.272 15.8173L47.78 10.9826C48.088 10.652 48.4053 10.3053 48.54 9.87331C48.692 9.37998 48.584 8.84798 48.4747 8.34264L47.1013 2.01464C46.98 1.45598 46.7467 0.783976 46.1813 0.69331C44.8253 1.58664 43.6213 2.91864 42.5667 4.31331C37.9893 10.3733 35.848 17.7866 34.3 25.296" fill="rgb(255, 255, 255)" class="body"></path>
<path d="M41.4506 5.196C39.352 6.44 36.436 6.07467 34.7026 4.352V21.9333L41.4506 5.196Z" fill="rgb(255, 255, 255)" class="body"></path>
<path fill-rule="evenodd" clip-rule="evenodd" d="M34.4721 69.76C37.4014 70.2547 39.7201 70.4614 41.8201 70.4614C45.2107 70.4614 48.0334 69.9213 51.94 69.172L52.2538 69.1122C53.2671 68.9189 54.3186 68.7184 55.4861 68.508C56.2036 69.0585 57.0481 69.3493 57.9787 69.3493C58.0774 69.3493 58.176 69.3466 58.272 69.3386C59.6841 69.245 60.9119 68.478 61.7355 67.2557C61.8068 67.2537 61.8781 67.2416 61.9494 67.2187C62.4467 67.064 63.0161 66.9933 63.6187 66.9187C65.0054 66.7467 66.5761 66.5507 67.6814 65.224C67.7307 65.1653 67.7707 65.1 67.8014 65.0293C67.9601 64.66 68.0281 64.252 67.9974 63.8507C67.9947 63.8173 67.9894 63.7827 67.9827 63.7493C67.5895 61.859 66.4339 58.6238 65.3138 55.4879L65.2764 55.3834C64.4937 53.192 63.7565 51.1283 63.4227 49.8973C63.4012 49.8182 63.3686 49.7451 63.3269 49.6792C63.2264 39.9406 62.9879 30.6381 60.7147 20.8373C60.6147 20.4067 60.1854 20.1387 59.7547 20.2387C59.3241 20.3387 59.0561 20.768 59.1561 21.1987C61.5601 31.5653 61.6521 41.4413 61.7481 51.8973L61.7483 51.9293C61.7536 52.5428 61.7588 53.1588 61.7654 53.7773L51.6707 53.612C50.1707 41.892 49.6534 29.9693 50.132 18.1667C50.1507 17.7253 49.8067 17.352 49.3654 17.3347C48.9227 17.3187 48.5507 17.66 48.5334 18.1013C48.0414 30.2253 48.5934 42.472 50.1734 54.504C50.2145 54.8147 50.4303 55.0647 50.7144 55.1593C50.6033 55.9774 50.5756 56.8052 50.6307 57.6307C50.6294 57.7787 50.656 57.924 50.708 58.0667C50.7667 58.2253 50.856 58.368 50.972 58.4907C50.9835 58.5024 50.9952 58.5138 51.0072 58.5248C50.5225 58.8905 50.1207 59.3589 49.944 59.9226C49.7907 60.4093 49.744 61.1666 50.384 62.0066C50.9774 62.7866 51.796 63.2546 52.5187 63.6666L52.6205 63.7251C52.7277 63.7865 52.8348 63.8479 52.94 63.9106C53.1373 64.0285 53.3531 64.8144 53.4474 65.1582L53.4494 65.1653C53.5147 65.4053 53.5774 65.6306 53.6507 65.8346C53.8211 66.3021 54.0238 66.7271 54.2554 67.1071C53.3163 67.2807 52.4399 67.4479 51.64 67.6014L51.6376 67.6018C45.5498 68.7669 42.1724 69.4132 34.9347 68.2147C34.3994 63.6041 34.0107 58.8995 33.7726 54.225L33.7947 54.0973C33.8214 53.9413 33.8012 53.7882 33.7442 53.6525C33.5052 48.7065 33.4352 43.7998 33.5387 39.08C33.6187 39.0107 33.6867 38.924 33.7361 38.8214C36.0241 34.048 38.7227 29.428 41.7574 25.0894C42.7254 23.7027 43.9307 21.976 43.6907 19.992C43.6387 19.5654 43.5254 19.164 43.4147 18.776C43.24 18.1614 43.0894 17.6307 43.2414 17.2054C43.3402 16.9275 43.6003 16.647 43.8521 16.3754L43.8614 16.3654L48.3694 11.5307L48.3717 11.5282C48.7046 11.17 49.1192 10.7239 49.3081 10.112C49.5258 9.40684 49.3733 8.70033 49.2614 8.18222L48.3682 4.06728C50.5628 4.76682 52.2451 6.64487 53.3347 8.02002C54.8907 9.98802 56.104 12.1854 56.9414 14.552C57.116 15.0414 57.3254 15.5547 57.528 16.0507L57.5338 16.0648C57.9053 16.9751 58.289 17.9151 58.48 18.768C58.564 19.14 58.8934 19.3934 59.26 19.3934C59.3187 19.3934 59.3774 19.3867 59.436 19.3734C59.8667 19.276 60.1374 18.848 60.0414 18.4174C59.82 17.4294 59.408 16.42 59.0094 15.444C58.804 14.9427 58.6107 14.4694 58.4494 14.016C57.5534 11.484 56.2547 9.13335 54.5894 7.02669C53.3134 5.41602 51.2947 3.18802 48.508 2.44135C48.3405 2.39633 48.1712 2.40804 48.0203 2.46468L47.8867 1.84936C47.6374 0.688023 47.1067 0.0346898 46.3107 -0.0933102C46.1134 -0.12531 45.9107 -0.0826436 45.744 0.0280231C44.4894 0.853356 43.2427 2.09869 41.9307 3.83336C41.7899 4.01977 41.6514 4.20745 41.5151 4.39634C41.3598 4.38627 41.2 4.42131 41.0561 4.50667C39.3532 5.51686 36.9459 5.2644 35.4597 3.95234C35.6013 3.44338 35.7611 2.97858 35.8467 2.83067C36.048 2.51201 35.9987 2.09734 35.7307 1.83334C35.4627 1.56934 35.0467 1.52801 34.732 1.73467C33.9628 2.23891 33.2536 2.72021 32.6115 3.2457C32.522 3.25945 32.4334 3.28873 32.3494 3.33466C27.6987 5.87866 23.356 12.2613 22 16.716C20.3947 21.9893 19.4854 27.5413 18.7414 32.756C17.8654 38.9 17.136 45.148 16.576 51.3307C16.5533 51.5752 16.6437 51.8048 16.8047 51.967C16.5865 52.6361 16.4951 53.3229 16.4346 53.9735C15.0765 54.5735 14.3825 55.7803 14.6974 57.04C14.7334 57.1813 14.8054 57.3093 14.9081 57.412C16.2041 58.7093 16.0614 60.6467 15.9227 62.52L15.92 62.5564C15.9036 62.7733 15.8874 62.9877 15.8747 63.1973C15.8667 63.328 15.8907 63.4587 15.9454 63.5787C16.2774 64.3093 16.8067 64.9307 17.4747 65.376C17.9762 65.712 18.5402 65.9363 19.1306 66.0382C19.1883 66.2588 19.2807 66.4765 19.4254 66.6827C19.922 67.3896 20.7536 67.5595 21.3149 67.6742L21.3174 67.6747C22.1752 67.8382 23.8253 68.1389 25.5235 68.4483L27.285 68.7694C28.7674 69.0397 30.1603 69.2937 30.9174 69.4387C30.9667 69.448 31.016 69.4534 31.0667 69.4534C31.2347 69.4534 31.4014 69.4 31.54 69.2973C31.72 69.1667 31.836 68.9667 31.8627 68.7467L31.888 68.5347C31.8907 68.512 31.892 68.4894 31.8934 68.4667C31.9775 65.9286 32.255 63.4975 32.6203 61.062C32.8365 63.7134 33.1002 66.3553 33.4107 68.9654C33.4494 69.2947 33.6881 69.5667 34.0107 69.6467L34.4107 69.7467C34.4279 69.7512 34.446 69.7549 34.4634 69.7583L34.4721 69.76ZM29.4776 7.61351C26.7368 10.422 24.4218 14.2512 23.5294 17.1813C22.0427 22.0627 21.1734 27.028 20.324 32.9813C19.488 38.8427 18.7867 44.8013 18.24 50.704C18.5695 50.7464 18.8868 50.7889 19.1982 50.8305L19.3787 50.8547C19.754 50.9049 20.1377 50.9562 20.5378 51.0076L21.1093 46.08C22.2129 36.5713 23.3542 26.7378 25.592 17.2427C25.6934 16.8133 26.124 16.5467 26.5547 16.648C26.984 16.7493 27.2507 17.18 27.1494 17.6107C24.9323 27.0177 23.7963 36.806 22.6977 46.2718L21.12 59.8747C20.9254 61.552 20.724 63.288 20.648 64.9933C20.6387 65.2054 20.6214 65.6027 20.7347 65.7627C20.8659 65.9483 21.3187 66.0416 21.6227 66.1042L21.628 66.1053C22.5677 66.2851 24.5071 66.638 26.3987 66.9822L26.4894 66.9987C27.8747 67.2507 29.296 67.5093 30.3227 67.7C30.5174 63.5587 31.1894 59.716 31.8987 55.66C31.9356 55.4478 31.9727 55.2352 32.01 55.0219L32.0108 55.017L32.0112 55.0151C32.0622 54.7229 32.1135 54.4296 32.1643 54.1352C31.7779 46.4329 31.7976 38.814 32.2414 31.8254C32.2431 31.8042 32.2453 31.7831 32.2484 31.762L30.3147 24.6227C30.0414 23.6133 29.596 21.2107 29.6814 20.0133C29.7507 19.076 30.052 18.2107 30.344 17.3733L30.3449 17.371C30.6926 16.3718 31.0213 15.4273 30.888 14.52C30.792 13.8627 30.452 13.2227 30.092 12.5453L30.0889 12.5394C29.6365 11.6866 29.1692 10.8055 29.1 9.75201C29.0489 8.98962 29.2205 8.27253 29.4776 7.61351ZM33.8787 31.7502L33.9427 31.4174C35.572 22.5334 37.4188 12.4639 43.2067 4.79602C44.2414 3.42669 45.216 2.40269 46.1694 1.68269C46.2161 1.79069 46.2707 1.94936 46.3214 2.18536L47.6947 8.51336L47.6964 8.52107C47.7786 8.90316 47.8714 9.33408 47.7774 9.63869C47.697 9.8997 47.4471 10.1685 47.2044 10.4297L47.1961 10.4387L42.6867 15.2747L42.6795 15.2825C42.3501 15.6385 41.9412 16.0803 41.732 16.6654C41.4067 17.5734 41.6547 18.4454 41.8734 19.2134C41.972 19.5574 42.0641 19.8814 42.1001 20.184C42.2667 21.5614 41.2987 22.9494 40.444 24.1734C37.944 27.7494 35.6667 31.5134 33.6547 35.396C33.7031 34.2646 33.7618 33.1461 33.8307 32.0429C33.8644 31.9505 33.8813 31.8514 33.8787 31.7502ZM32.9237 28.1375L31.8587 24.2053C31.5814 23.1787 31.2134 21.0133 31.276 20.1293C31.3293 19.4047 31.5836 18.6747 31.8526 17.9022L31.854 17.8981C32.2498 16.7601 32.6586 15.5846 32.4694 14.2893C32.3336 13.36 31.9119 12.5662 31.5044 11.7992L31.4961 11.7835C31.1079 11.0508 30.7411 10.3586 30.6947 9.64801C30.6347 8.73601 31.0854 7.83601 31.6814 6.75334C32.2067 5.80001 32.8787 5.08401 33.7014 4.42134C33.628 4.78934 33.5814 5.12934 33.5814 5.38667L33.4774 25.1347C33.4771 25.1792 33.4805 25.2229 33.4873 25.2655C33.2898 26.229 33.1034 27.1876 32.9237 28.1375ZM35.1126 18.4503C36.2739 14.3273 37.8149 10.2751 40.0621 6.58704C39.6115 6.6841 39.1505 6.73201 38.6894 6.73201C37.4578 6.73201 36.2225 6.3918 35.1796 5.73553L35.1126 18.4503ZM18.0414 53.9907C18.0985 53.4186 18.1836 52.8519 18.3697 52.3369C18.6263 52.3706 18.8768 52.4041 19.1241 52.4371L19.3934 52.473L19.3944 52.4731L19.3954 52.4732C19.7064 52.5146 20.0238 52.5568 20.3532 52.5992L20.1556 54.3029C19.4427 54.265 18.7348 54.1603 18.0414 53.9907ZM17.1499 55.4092C18.0708 55.6738 19.016 55.8369 19.9709 55.8949L19.5252 59.7385C19.3497 61.2547 19.169 62.8166 19.0783 64.3834C18.8262 64.3067 18.5857 64.1931 18.3641 64.0453C17.9974 63.8 17.6961 63.4707 17.4867 63.084C17.4927 62.99 17.4997 62.896 17.5067 62.8014L17.5098 62.7599L17.5189 62.6352C17.6629 60.6836 17.8408 58.2713 16.2241 56.4747C16.2 55.8656 16.8834 55.5205 17.1499 55.4092ZM53.4763 58.7955C53.3968 59.0246 53.2144 59.2151 52.9654 59.2946C52.224 59.5333 51.5947 59.9986 51.4694 60.4C51.4454 60.476 51.3827 60.6786 51.656 61.0373C52.0484 61.5538 52.6527 61.9001 53.2926 62.267L53.3107 62.2773C53.46 62.3626 53.6094 62.448 53.7561 62.5346C54.5107 62.984 54.7774 63.96 54.9907 64.7426C55.0467 64.9493 55.1014 65.1453 55.1521 65.2866C55.5827 66.468 56.46 67.856 58.1694 67.7426C59.2947 67.668 60.6547 66.8213 61.1014 64.6666C61.4437 63.0152 61.1354 61.2374 60.8371 59.5166L60.836 59.5106C60.7989 59.3 60.7632 59.0906 60.7274 58.8813L60.7267 58.8773C60.721 58.843 60.7175 58.8089 60.7161 58.7751L53.4763 58.7955ZM62.1109 58.2106C62.2088 58.3197 62.2779 58.4569 62.304 58.612C62.3337 58.7896 62.3642 58.9672 62.395 59.1457L62.4107 59.2373L62.4119 59.2441C62.7355 61.1114 63.0702 63.0423 62.6654 64.9906C62.633 65.1469 62.5959 65.3001 62.5543 65.45C62.8448 65.4037 63.1359 65.3676 63.4227 65.332L63.4243 65.3318C64.625 65.1826 65.667 65.053 66.3694 64.296C66.3961 64.2067 66.4081 64.112 66.4054 64.0187C66.0201 62.216 64.8387 58.9107 63.7947 55.992L63.7773 55.9432C63.6348 55.5441 63.4937 55.1491 63.3562 54.7621C63.3235 54.9108 63.2486 55.0484 63.1387 55.1573C62.9894 55.3067 62.7854 55.3907 62.5747 55.3907H62.5614L62.2961 55.3863L62.364 57.0787C62.3699 57.2888 62.3838 57.7978 62.1109 58.2106ZM60.6942 55.36L52.322 55.2225C52.2237 55.8766 52.1868 56.5387 52.2107 57.2L60.768 57.176C60.768 57.1671 60.768 57.1576 60.7676 57.1479C60.7674 57.1431 60.7671 57.1382 60.7667 57.1333L60.6942 55.36Z" fill="rgb(0, 0, 0)" class="stroke"></path>
</g>
<defs>
<clipPath id="clip0_2_1901">
<rect width="80" height="80" fill="white"></rect>
</clipPath>
</defs>
</svg>