<svg xmlns="http://www.w3.org/2000/svg" viewBox="0 0 80 80" fill="none">
<path d="M45.2494 0C45.3694 1.34667 45.92 4.38933 47.9694 3.93333L48.1894 4.26667C48.0894 6.356 47.0307 7.82933 45.372 9.356C43.6867 10.8827 41.5374 11.8 39.2694 11.9613C37.2694 12.108 35.1427 11.6293 33.6467 10.288C32.1507 8.94667 31.364 7.088 32.3547 5.49467H32.4987C32.9494 5.508 33.364 5.272 33.7454 5.032C34.2307 4.72533 35.232 3.468 35.532 3.10667C35.932 2.588 36.0947 0.621333 36.3 0H45.2494V0Z" fill="rgb(255, 255, 255)" class="skin"></path>
<path d="M19.6547 65.2867C19.0013 65.2653 18.368 65.0613 17.824 64.6987C17.28 64.336 16.8493 63.8293 16.5787 63.2347C16.712 61.1013 17.112 58.568 15.3787 56.8347C15.112 55.768 15.912 54.968 16.8453 54.62L20.5893 55.1053L19.6547 65.2867Z" fill="rgb(255, 255, 255)" class="skin"></path>
<path d="M20.5907 55.1054C19.4054 55.0974 18.2267 54.9174 17.092 54.572C17.172 53.5787 17.2587 52.5587 17.6867 51.6587L20.984 52.0267L20.5907 55.1054Z" fill="rgb(255, 255, 255)" class="body"></path>
<path d="M51.5413 54.4987C51.3306 55.5187 51.2613 56.5613 51.3333 57.6C51.3306 57.66 51.3386 57.72 51.36 57.776C51.3813 57.832 51.4133 57.884 51.4546 57.928C51.5386 57.9787 51.6373 58.0013 51.7346 57.9907L60.8013 57.9653C60.9386 57.976 61.076 57.9507 61.2013 57.8933C61.4573 57.748 61.4773 57.3933 61.468 57.0933L61.372 54.636L51.5413 54.4987Z" fill="rgb(255, 255, 255)" class="body"></path>
<path d="M21.076 51.8813C19.7787 51.6347 18.5787 51.6347 17.2454 51.368C18.1787 42.0347 18.9787 33.1013 20.9787 23.6347C22.0454 18.8347 22.9787 14.4347 25.512 10.168C25.512 10.168 26.472 8.79466 26.8454 8.37466L27.52 7.25999C27.3414 6.73866 27.5574 6.13999 27.948 5.75199C28.3387 5.36399 28.8814 5.15866 29.4147 5.04399C29.6627 4.99066 29.9374 4.94266 30.096 4.74533C30.1894 4.60799 30.2467 4.44799 30.264 4.28266C30.4587 3.19733 30.7454 1.88266 31.7947 1.54666C32.6507 1.27199 33.5734 1.86266 34.0614 2.61999C34.5494 3.37733 34.728 4.28266 35.072 5.11333C35.416 5.94399 36.0054 6.76933 36.884 6.96666L38.46 7.45999C41.372 6.65999 43.604 4.39999 45.964 2.51599C46.5907 2.01733 47.2494 1.53066 48.0134 1.29066C48.7774 1.05066 49.672 1.09199 50.3054 1.58266C50.9387 2.07333 51.18 3.07599 50.6947 3.71599C51.0587 3.50933 51.4707 3.40266 51.8894 3.40666C52.308 3.41066 52.7174 3.52399 53.0774 3.73733C53.4374 3.95066 53.7347 4.25466 53.94 4.61866C54.1454 4.98266 54.2507 5.39599 54.2454 5.81333L54.512 8.37333C56.576 11.5053 58.0427 14.972 59.1627 18.5853L59.5867 19.8667C61.8654 29.676 62.2747 39.7933 62.4254 49.8813L62.5587 50.0987C63.38 53.104 66.4467 60.704 67.1134 63.904C67.1347 64.1773 67.0894 64.452 66.98 64.704C65.6467 66.304 63.38 65.904 61.6267 66.448L55.4307 67.6813C46.5627 69.272 37.6627 69.6613 28.7787 68.1627L27.1027 67.9667L21.3694 66.8693C20.852 66.7707 20.284 66.6387 19.9814 66.2027C19.7307 65.8453 19.732 65.3747 19.7507 64.9387C19.8267 63.2053 20.0267 61.4853 20.2267 59.764L21.14 51.8893L21.076 51.8813Z" fill="rgb(255, 255, 255)" class="body"></path>
<path d="M52.6293 58.1333C51.344 58.548 49.8413 60.092 50.928 61.516C51.5253 62.3013 52.428 62.724 53.256 63.2173C53.8933 63.596 54.0626 64.876 54.3093 65.5533C54.9333 67.2613 56.1453 68.6667 58.1333 68.5333C60.1546 68.4 61.412 66.6787 61.796 64.8227C62.212 62.8093 61.5026 60.1667 61.168 58.176L52.6293 58.1333Z" fill="rgb(255, 255, 255)" class="skin"></path>
<path d="M41.2107 12.2587C41.2387 12.6827 41.5907 13.0067 42.008 13.0067C42.0267 13.0067 42.044 13.0067 42.06 13.0027C45.6267 12.7693 49.1187 11.652 52.16 9.77466C52.7881 9.38765 53.3146 8.98289 53.7386 8.56175C53.7599 8.64708 53.7957 8.73034 53.8467 8.808C55.692 11.608 57.1814 14.8827 58.4014 18.8173C58.508 19.1613 58.824 19.3813 59.1654 19.3813C59.244 19.3813 59.324 19.3693 59.4014 19.3453C59.824 19.2147 60.06 18.7667 59.9294 18.344C58.664 14.2627 57.112 10.856 55.1827 7.928C55.0323 7.69913 54.7847 7.57318 54.5302 7.56822C54.8634 7.01126 55.035 6.43029 55.0427 5.82799C55.0494 5.26933 54.908 4.71733 54.6347 4.23066C54.3614 3.74399 53.9627 3.33599 53.4814 3.05199C53.0014 2.76799 52.452 2.61599 51.8934 2.61066C51.84 2.61066 51.788 2.61066 51.7347 2.61333C51.6574 1.98666 51.3334 1.37333 50.792 0.954659C50.004 0.343993 48.8734 0.185326 47.7707 0.531993C46.8627 0.817326 46.104 1.38399 45.4627 1.89466C44.7593 2.45581 44.1704 3.00654 43.6009 3.53915L43.5787 3.55996C42.23 4.82201 41.1647 5.81884 39.292 6.33333C38.8654 6.45066 38.6147 6.89066 38.732 7.31733C38.8494 7.74399 39.2907 7.99466 39.716 7.87733C41.9707 7.25866 43.284 6.02933 44.6734 4.72799L44.695 4.70773C45.2416 4.19668 45.8074 3.66776 46.46 3.14666C47.012 2.70799 47.604 2.26133 48.2507 2.05866C48.8454 1.87199 49.444 1.93333 49.8134 2.21999C50.1294 2.46533 50.2507 2.97866 50.0547 3.23733C49.8254 3.53999 49.84 3.96266 50.0907 4.24799C50.3414 4.53333 50.7574 4.60399 51.088 4.41733C51.3254 4.28266 51.5947 4.21199 51.8667 4.21199H51.88C52.1574 4.21333 52.4307 4.28933 52.6694 4.43066C52.908 4.57199 53.1054 4.77333 53.2414 5.01599C53.3774 5.25866 53.448 5.53199 53.444 5.80933C53.4334 6.67733 52.7187 7.55333 51.3214 8.41466C48.5014 10.156 45.2627 11.1907 41.956 11.408C41.516 11.4373 41.1814 11.8173 41.2107 12.2587Z" fill="rgb(0, 0, 0)" class="stroke"></path>
<path fill-rule="evenodd" clip-rule="evenodd" d="M26.072 68.576C26.0227 68.576 25.972 68.5707 25.9214 68.5614L21.2227 67.6614C20.6974 67.556 19.832 67.3813 19.3307 66.6693C19.1862 66.4634 19.0939 66.246 19.0361 66.0258C18.4466 65.9237 17.8831 65.6995 17.3814 65.364C16.7134 64.9186 16.184 64.2973 15.852 63.5666C15.7974 63.4466 15.7734 63.316 15.7814 63.1853C15.794 62.9757 15.8102 62.7613 15.8266 62.5443L15.8294 62.508C15.968 60.6346 16.1107 58.6973 14.8147 57.4C14.712 57.2973 14.64 57.1693 14.604 57.028C14.2891 55.7683 14.9831 54.5614 16.3413 53.9615C16.4018 53.3116 16.4933 52.6256 16.7099 51.9586C16.5288 51.7932 16.4271 51.5479 16.4533 51.288C16.5113 50.7101 16.5685 50.133 16.6254 49.5576L16.6663 49.1443C17.529 40.458 18.344 32.2515 20.2 23.468L20.2867 23.0773C21.32 18.42 22.2973 14.0213 24.828 9.75731C24.8387 9.73998 24.8493 9.72398 24.86 9.70798L24.8746 9.68715C25.0278 9.4693 25.8734 8.26614 26.252 7.84131C26.3941 7.68111 26.5863 7.59164 26.7841 7.57547C26.7772 7.55716 26.7705 7.53866 26.764 7.51998C26.496 6.73998 26.74 5.82398 27.3854 5.18398C27.8374 4.73598 28.4454 4.43465 29.248 4.26131L29.2947 4.25064C29.3467 4.23998 29.416 4.22531 29.468 4.21064C29.468 4.20864 29.4684 4.20698 29.4687 4.20531C29.469 4.20364 29.4694 4.20198 29.4694 4.19998C29.472 4.17864 29.4747 4.15865 29.4787 4.13865L29.4794 4.13502C29.6741 3.06661 29.9991 1.28341 31.552 0.783978C32.4774 0.487978 33.868 0.803978 34.7414 2.19331C34.8357 2.34335 34.9195 2.49575 34.9954 2.64957C35.1532 2.30594 35.5391 2.11237 35.9187 2.20934C36.3467 2.31735 36.6067 2.75335 36.4973 3.18134C36.3768 3.66022 36.1838 3.9804 35.6839 4.46982C35.7255 4.58395 35.7682 4.69566 35.8134 4.80531C36.0014 5.25731 36.4134 6.03864 37.0614 6.18531C37.492 6.28265 37.7627 6.71065 37.6667 7.14131C37.5694 7.57198 37.1414 7.84265 36.7107 7.74664C35.708 7.52131 34.864 6.69465 34.3347 5.41998C34.2041 5.10531 34.096 4.78931 33.9934 4.48265L33.9884 4.46793C33.8116 3.94803 33.6443 3.45611 33.3854 3.04531C33.0854 2.56798 32.5 2.16131 32.04 2.30798C31.456 2.49598 31.2254 3.48131 31.0574 4.39865C31.0227 4.68265 30.92 4.95598 30.76 5.19331C30.748 5.21065 30.7347 5.22798 30.7214 5.24531C30.3944 5.652 29.9363 5.75002 29.631 5.81535L29.628 5.81598L29.5854 5.82531C29.0987 5.93064 28.7387 6.09598 28.5134 6.31865C28.3147 6.51598 28.2134 6.80931 28.2787 6.99998C28.34 7.17865 28.5427 7.37065 28.732 7.53331C30.4494 9.03731 32.5387 10.044 34.7787 10.4466C35.2134 10.5253 35.5027 10.9413 35.424 11.376C35.352 11.7626 35.0147 12.0346 34.636 12.0346C34.5894 12.0346 34.5414 12.0306 34.4934 12.0213C31.9681 11.5666 29.612 10.432 27.6814 8.74131C27.6527 8.7166 27.6238 8.69132 27.5947 8.66542C27.561 8.75123 27.5117 8.83259 27.4467 8.90531C27.172 9.21331 26.4613 10.2106 26.188 10.6C23.7987 14.636 22.8507 18.904 21.848 23.424L21.7627 23.8066C19.9245 32.5057 19.1138 40.6783 18.2554 49.3317L18.2547 49.3386C18.2093 49.792 18.164 50.2466 18.1187 50.7026C18.5173 50.7586 18.912 50.8 19.3213 50.8413L19.3429 50.8435C19.7027 50.8803 20.0695 50.9177 20.4448 50.9683L21.0553 45.7051C22.1525 36.3132 23.2871 26.6017 25.4947 17.232C25.596 16.8027 26.0267 16.5347 26.4574 16.6373C26.8867 16.7387 27.1534 17.1693 27.052 17.6C24.8651 26.8831 23.7359 36.5506 22.6437 45.9009L21.0232 59.8724C20.8288 61.5488 20.6279 63.2811 20.552 64.9827C20.5427 65.1947 20.5254 65.592 20.6387 65.752C20.772 65.9414 21.2467 66.0374 21.5294 66.0934L26.22 66.9907C26.6534 67.0733 26.9387 67.4934 26.8547 67.9267C26.784 68.3094 26.4494 68.576 26.072 68.576ZM16.1307 56.4626C16.1066 55.8535 16.79 55.5085 17.0565 55.3972C17.9766 55.6615 18.9209 55.8246 19.8749 55.8828L19.4291 59.7268C19.2537 61.2428 19.0729 62.8049 18.9823 64.3705C18.7312 64.2939 18.4915 64.1805 18.2707 64.0333C17.904 63.788 17.6027 63.4586 17.3934 63.072C17.3993 62.978 17.4063 62.8839 17.4133 62.7892C17.4174 62.7352 17.4215 62.6799 17.4254 62.6253L17.4255 62.6232C17.5695 60.6716 17.7474 58.2593 16.1307 56.4626ZM20.2604 52.5585L20.0595 54.2908C19.3471 54.2529 18.6397 54.1482 17.9467 53.9787C18.0034 53.4096 18.0886 52.8468 18.2716 52.3368C18.573 52.3737 18.8682 52.4039 19.1587 52.4333L19.2202 52.4397C19.574 52.4763 19.9173 52.5118 20.2604 52.5585Z" fill="rgb(0, 0, 0)" class="stroke"></path>
<path fill-rule="evenodd" clip-rule="evenodd" d="M28.6453 68.9493C32.4213 69.5867 36.2773 69.9053 40.2627 69.9053C45.0913 69.9053 50.109 69.4359 55.3918 68.4983C56.1087 69.05 56.9522 69.3413 57.8814 69.3413C57.9814 69.3413 58.084 69.3387 58.1867 69.3307C59.6004 69.2378 60.8294 68.4695 61.6529 67.2449C61.7227 67.2424 61.7933 67.2307 61.864 67.2107C62.3613 67.056 62.932 66.984 63.5347 66.9093C64.92 66.7373 66.4893 66.5413 67.5947 65.2147C67.644 65.156 67.684 65.0907 67.7147 65.02C67.8733 64.6507 67.9413 64.2427 67.9107 63.8413C67.908 63.8067 67.9027 63.7733 67.896 63.74C67.4987 61.8337 66.3297 58.5651 65.1993 55.4043L65.1987 55.4027C64.4107 53.2027 63.668 51.124 63.3293 49.8867C63.3065 49.8028 63.2712 49.7257 63.2259 49.6568C63.0944 40.0163 62.7409 30.7386 60.472 20.9586C60.372 20.528 59.9427 20.26 59.512 20.36C59.0814 20.46 58.8134 20.8893 58.9134 21.32C61.4451 32.2362 61.5547 42.5926 61.6707 53.5567L61.6707 53.56L61.6734 53.7626L51.5787 53.5973C50.0787 41.8773 49.5614 29.956 50.04 18.152C50.0587 17.7106 49.7147 17.3373 49.2734 17.32C48.832 17.304 48.4587 17.6453 48.4414 18.0866C47.9494 30.2106 48.5014 42.4586 50.0814 54.4893C50.1223 54.7988 50.3365 55.048 50.6189 55.1435C50.5062 55.9625 50.4768 56.7921 50.532 57.6186C50.532 57.768 50.5573 57.9146 50.6093 58.0546C50.6693 58.2146 50.7587 58.3586 50.876 58.4813C50.8871 58.4931 50.8987 58.5045 50.9105 58.5155C50.4272 58.8808 50.027 59.3483 49.8507 59.9107C49.6987 60.3973 49.652 61.1547 50.292 61.9947C50.884 62.7733 51.7014 63.2413 52.4227 63.6533C52.5654 63.7347 52.7067 63.816 52.848 63.9C53.0453 64.0165 53.261 64.8024 53.3554 65.1463L53.3574 65.1533C53.4227 65.3933 53.4854 65.62 53.5587 65.8227C53.7279 66.2872 53.9287 66.7099 54.1581 67.0881C45.0747 68.6114 36.8046 68.7036 28.9107 67.372C28.4747 67.2973 28.0627 67.592 27.9893 68.028C27.916 68.4627 28.2093 68.876 28.6453 68.9493ZM53.3838 58.7848C53.3041 59.0134 53.1219 59.2032 52.8734 59.2827C52.132 59.5227 51.5027 59.988 51.3774 60.3893C51.3534 60.4653 51.2907 60.6667 51.564 61.0253C51.9598 61.5451 52.57 61.8943 53.215 62.2634L53.216 62.264L53.325 62.3265C53.4391 62.3919 53.5532 62.4573 53.6654 62.524C54.4175 62.97 54.6845 63.9435 54.899 64.7256L54.9 64.7294C54.956 64.936 55.0107 65.132 55.0614 65.2733C55.4934 66.4587 56.3654 67.844 58.08 67.7334C59.2067 67.6587 60.5667 66.812 61.0134 64.6587C61.3557 63.0032 61.0461 61.2213 60.7464 59.4965L60.7297 59.4001C60.6989 59.2226 60.6683 59.046 60.6387 58.8693C60.6328 58.8342 60.6292 58.7991 60.628 58.7644L53.3838 58.7848ZM62.0166 58.1952C62.1178 58.3055 62.1894 58.4454 62.216 58.604C62.2507 58.808 62.2854 59.012 62.3214 59.2173L62.3225 59.224C62.6475 61.0953 62.9836 63.0303 62.58 64.984C62.548 65.1388 62.5113 65.2906 62.4702 65.4392C62.7595 65.3929 63.0493 65.3567 63.3347 65.3213C64.5347 65.172 65.5787 65.0413 66.28 64.2853C66.3067 64.196 66.3187 64.1013 66.316 64.008C65.9286 62.2002 64.7437 58.8864 63.6956 55.9552L63.6536 55.8377L63.6519 55.833C63.5206 55.4655 63.3905 55.1017 63.2634 54.7447C63.2311 54.8944 63.1559 55.0331 63.0454 55.1426C62.8974 55.292 62.6934 55.376 62.4827 55.376H62.4694L62.2007 55.3716L62.2667 57.0613C62.2735 57.2691 62.289 57.7801 62.0166 58.1952ZM60.5986 55.3452L52.2262 55.2077C52.1261 55.864 52.088 56.5284 52.112 57.192L60.6693 57.168C60.6693 57.1586 60.6693 57.1486 60.669 57.1381C60.6688 57.1323 60.6685 57.1262 60.668 57.12L60.5986 55.3452Z" fill="rgb(0, 0, 0)" class="stroke"></path>
</svg>