<svg xmlns="http://www.w3.org/2000/svg" viewBox="0 0 80 107" fill="none">
<path d="M42.8347 88.3303C42.6547 90.027 41.7813 92.4834 40.5213 94.833C40.2333 95.367 35.6893 99.5896 38.388 102.443C41.8547 104.579 47.188 103.377 49.588 100.04C50.388 98.838 50.9213 97.77 51.188 96.435C51.988 93.765 51.4547 91.095 51.5613 88.4718" fill="black"></path>
<path d="M29.6507 86.1288C28.5213 88.5585 25.588 90.561 23.588 92.163L22.388 93.3645C22.2547 93.765 21.988 94.032 21.7213 94.299C21.332 95.036 21.192 95.8784 21.3213 96.702C21.588 97.3695 22.2547 97.9035 22.9213 97.9035C26.9213 98.571 31.3213 98.7045 34.6547 95.901C35.7213 94.9665 36.388 93.6315 36.788 92.2965C37.3213 90.4275 37.188 88.4251 37.3413 86.528" fill="black"></path>
<path d="M39.824 88.4024C43.1053 87.6561 46.5227 88.2836 49.8893 88.2902C55.7133 88.2996 61.356 86.4426 66.888 84.6056L63.22 70.9659C62.5453 68.4575 61.8667 65.949 61.4507 63.3778C61.3987 63.0654 61.4507 63.578 61.344 63.0988C60.4933 59.0898 59.9547 55.0207 59.7333 50.9289C59.4293 44.2379 58.876 37.5349 57.8507 30.7531C56.5173 22.0756 54.784 13.7986 53.3053 5.24121L25.7213 5.42277C20.8173 33.4831 21.9307 62.0108 22.2547 66.252C22.7 72.2836 22.0973 78.3471 20.4707 84.1718C25.2947 85.4987 31.7787 85.715 36.78 85.5962C38.236 85.5615 38.6 85.5815 39.968 85.3946" fill="rgb(0, 0, 0)" class="bottom"></path>
<path fill-rule="evenodd" clip-rule="evenodd" d="M39.2573 88.9684C39.4093 89.1206 39.6133 89.2034 39.824 89.2034C39.8827 89.2034 39.9427 89.1967 40.004 89.1887C40.644 89.0431 41.289 88.9524 41.9409 88.9005C41.6459 90.4417 40.8687 92.4894 39.828 94.4339C39.784 94.4967 39.6453 94.6582 39.5227 94.801C38.4107 96.1 35.028 100.054 37.808 102.994C37.856 103.043 37.9107 103.089 37.9693 103.125C39.236 103.904 40.7853 104.31 42.408 104.31C43.116 104.31 43.8387 104.233 44.5587 104.077C46.904 103.565 48.9747 102.265 50.2373 100.508L50.2533 100.484C51.2 99.0623 51.6973 97.9423 51.9653 96.6286C52.533 94.7086 52.4614 92.8258 52.3921 91.0044L52.392 91.0016C52.3654 90.3118 52.3405 89.6518 52.3485 88.9978C57.4652 88.5864 62.3707 86.9563 67.1367 85.3726L67.1427 85.3706C67.544 85.2371 67.7733 84.8126 67.6627 84.4027L63.972 70.6789C63.3213 68.2546 62.6493 65.7488 62.2413 63.251C62.188 62.9332 62.104 62.5114 61.9933 61.9987C61.2 58.3555 60.7107 54.6202 60.5373 50.8969C60.1987 43.4396 59.58 36.8126 58.6467 30.6356C57.8347 25.353 56.86 20.1358 55.9173 15.0908C55.308 11.8335 54.6787 8.46391 54.0987 5.10906C54.0227 4.67251 53.6093 4.38148 53.1733 4.45624C52.7373 4.531 52.4467 4.94619 52.5213 5.3814C53.0992 8.71894 53.7242 12.0657 54.3288 15.3031L54.344 15.3846C55.284 20.4162 56.256 25.62 57.064 30.8759C57.9893 36.9955 58.6027 43.5677 58.9387 50.969C59.116 54.7831 59.6173 58.6078 60.4293 62.3365C60.5333 62.8158 60.6133 63.2229 60.6613 63.5086C61.0819 66.0793 61.7629 68.6193 62.4218 71.077L65.92 84.085C60.752 85.7991 55.4187 87.4906 49.9347 87.4906H49.892C48.8764 87.4879 47.8269 87.4263 46.8119 87.3668L46.7827 87.3651C44.828 87.2489 42.816 87.1301 40.8267 87.4078C41.2707 84.4481 40.8787 81.5285 40.4973 78.6942L40.4886 78.6297C40.4422 78.2869 40.3959 77.9451 40.352 77.6022C40.268 76.9654 40.1853 76.3406 40.1027 75.7252L40.1016 75.7175C39.4754 71.0283 38.9347 66.9797 39.056 62.1603C39.0667 61.7184 38.7173 61.3499 38.276 61.3393C37.8333 61.3339 37.4667 61.6783 37.456 62.1202C37.3307 67.0675 37.88 71.1779 38.5159 75.9369C38.5397 76.1161 38.5638 76.297 38.588 76.4783C38.6464 76.9166 38.7055 77.3605 38.764 77.8092C38.8075 78.1491 38.8534 78.4902 38.8994 78.8324L38.9103 78.9136C39.1532 80.7226 39.401 82.5674 39.4187 84.4078C39.3472 84.4216 39.2763 84.4455 39.208 84.4801C38.0173 85.0822 36.564 85.165 35.2947 85.1957C30.6267 85.3065 25.9733 84.7698 21.4533 83.6044C22.948 77.9186 23.4867 72.0646 23.052 66.1906C22.5933 60.1858 21.836 32.3003 26.5093 5.56027C26.5853 5.12506 26.2933 4.70987 25.8587 4.63378C25.424 4.55768 25.0093 4.85005 24.9333 5.28526C20.232 32.1895 20.996 60.2672 21.4573 66.3121C21.8973 72.2689 21.3053 78.2056 19.7 83.9568C19.6427 84.1624 19.6693 84.3813 19.7747 84.5669C19.8787 84.7525 20.0533 84.8886 20.2587 84.9447C22.9447 85.6826 25.6788 86.2035 28.4378 86.5045C28.42 86.5328 28.4038 86.5624 28.3893 86.5935C27.6237 88.24 26.1706 89.2833 24.6315 90.3884L24.6253 90.3929C24.1147 90.7586 23.588 91.1365 23.0853 91.5396C23.0627 91.5583 23.0413 91.577 23.02 91.5984L21.82 92.7999C21.732 92.8866 21.6653 92.9948 21.6267 93.1123C21.5573 93.3232 21.4013 93.4861 21.1533 93.7344C21.0973 93.7904 21.0493 93.8545 21.012 93.9253C20.5453 94.809 20.3733 95.8397 20.5293 96.8276C20.5387 96.8863 20.5547 96.9437 20.5773 96.9998C20.9693 97.9783 21.8947 98.6685 22.8467 98.7032C24.2053 98.9275 25.6933 99.1117 27.2147 99.1117C29.9453 99.1117 32.784 98.5203 35.168 96.5138C35.17 96.5118 35.172 96.5101 35.174 96.5085L35.1763 96.5066L35.18 96.5032C36.2427 95.5713 37.0413 94.2337 37.556 92.5155C37.9557 91.1176 38.0053 89.685 38.0532 88.299L38.0533 88.2956L38.0538 88.2822C38.0736 87.6958 38.0923 87.1419 38.1373 86.5921C38.1391 86.5699 38.1399 86.5478 38.1398 86.5259C38.5498 86.4383 38.9582 86.3215 39.3579 86.1651C39.3005 86.8543 39.2 87.5412 39.044 88.2235C38.9827 88.4918 39.0627 88.7735 39.2573 88.9684ZM50.7479 89.0851C50.4778 89.0927 50.2072 89.0966 49.936 89.0966H49.8907C48.8284 89.0939 47.7557 89.031 46.7179 88.9701L46.6893 88.9684C45.6265 88.9052 44.5905 88.8439 43.5744 88.842C43.299 90.6095 42.4397 92.9496 41.2267 95.2122C41.144 95.3644 41.0173 95.5153 40.7373 95.8423C39.1053 97.75 37.4333 100.144 38.9 101.816C40.36 102.678 42.2907 102.931 44.2173 102.511C46.1773 102.083 47.8933 101.017 48.9307 99.583C49.756 98.3415 50.1827 97.3829 50.404 96.2775L50.4054 96.271C50.4103 96.249 50.4154 96.226 50.4227 96.2041C50.9253 94.526 50.8613 92.8439 50.7933 91.0617L50.7912 91.0055C50.7677 90.376 50.7436 89.7312 50.7479 89.0851ZM34.1 86.8124C32.6832 86.8124 31.2687 86.7548 29.8596 86.64C29.9364 86.8365 29.9361 87.0628 29.84 87.269C28.896 89.2982 27.1987 90.517 25.5573 91.6945C25.076 92.0389 24.58 92.3954 24.12 92.7625L23.0707 93.8131C22.8893 94.231 22.6173 94.53 22.3747 94.7757C22.1213 95.303 22.0227 95.9011 22.0947 96.4818C22.264 96.8262 22.6253 97.1039 22.9187 97.1039C22.9627 97.1039 23.0067 97.1079 23.0507 97.1146C26.512 97.6926 30.9 98.0064 34.132 95.2936C34.9613 94.5647 35.5973 93.478 36.02 92.0669C36.3627 90.8668 36.4093 89.5318 36.4533 88.2408C36.4702 87.7495 36.488 87.245 36.5218 86.7447C36.115 86.7739 35.7163 86.7875 35.3333 86.7963C34.9213 86.807 34.5107 86.8124 34.1 86.8124Z" fill="rgb(0, 0, 0)" class="stroke"></path>
<path d="M38.2533 60.7906C37.8347 60.7906 37.4827 60.4635 37.456 60.0403C37.1653 55.3998 36.8013 50.3896 36.4147 45.083L36.3999 44.8803C36.0312 39.8117 35.6503 34.5765 35.324 29.4808C35.2227 28.4128 34.3653 27.3061 33.1587 27.3822C32.7173 27.4075 32.3387 27.0725 32.312 26.6306C32.2853 26.1887 32.6213 25.8096 33.0627 25.7829C35.2333 25.656 36.7533 27.5304 36.9187 29.346L36.9188 29.3491L36.9193 29.3567C36.9197 29.3603 36.92 29.364 36.92 29.3673C37.2456 34.4474 37.6254 39.6699 37.9934 44.7289L38.0121 44.986C38.3982 50.2881 38.763 55.2974 39.0533 59.9402C39.0813 60.382 38.7453 60.7625 38.3053 60.7892C38.2881 60.7906 38.2706 60.7906 38.2533 60.7906Z" fill="rgb(0, 0, 0)" class="stroke"></path>
</svg>