<svg xmlns="http://www.w3.org/2000/svg" viewBox="0 0 80 107" fill="none">
<path d="M42.4747 86.5941C42.6547 88.5216 42.4067 89.7565 41.7213 91.8626C40.8613 94.678 35.7213 97.1902 38.9213 100.344C39.0547 100.472 41.448 102.303 45.588 101.115C45.888 100.963 46.2 100.834 46.5213 100.729C46.9747 100.517 47.396 100.245 47.772 99.9208C50 98.1026 51.444 95.5493 51.8213 92.7595C52.1067 90.7279 52.3453 88.2813 52.1747 86.5414" fill="black"></path>
<path d="M29.6 84.1115C29.5907 84.4186 29.5907 84.8041 29.4573 85.0611C29.324 85.3181 29.1907 85.7036 29.0573 85.9606C27.324 88.1451 25.0573 89.4301 22.924 91.2291C21.5907 92.3856 20.3907 94.5701 21.9907 95.9836C25.104 97.347 30.044 96.5297 31.0573 96.1121C31.9907 95.7266 32.924 95.4696 33.724 94.9556C37.4573 92.3856 37.1907 87.7596 37.484 83.9342" fill="black"></path>
<path d="M40.3173 83.284C40.388 84.2863 40.5213 85.1858 40.5213 86.2138C44.9213 86.4708 49.4547 86.5993 53.8547 86.3423C55.7493 86.1907 57.6013 85.7126 59.3213 84.9288C61.3213 72.2073 61.4547 59.2288 60.2547 46.2503C60.2547 45.8648 60.388 45.3508 60.2547 44.9653C60.1213 44.3228 60.1213 43.8088 59.988 43.1663V41.8813C58.6547 29.9308 56.788 18.3658 54.388 6.80078C45.0547 7.05778 35.8547 7.57178 26.5213 7.82878C22.396 25.9164 20.9147 44.4718 22.1213 62.9553C22.0987 63.5579 22.144 64.1606 22.2547 64.7543C22.5053 68.351 23.0867 71.9207 23.988 75.4198C24.2547 76.3193 24.5213 77.3473 24.9213 78.2468C25.588 79.9173 26.5213 81.5878 27.188 83.2583C29.7213 83.9008 32.388 84.0293 35.0547 83.9008C36.5213 83.7723 38.1213 83.7723 39.652 83.4112L40.3173 83.284Z" fill="rgb(0, 0, 0)" class="bottom"></path>
<path fill-rule="evenodd" clip-rule="evenodd" d="M53.652 6.93697C58.5343 31.8015 62.5105 58.3871 58.6353 84.4018C55.9709 85.5462 52.8479 85.6789 50.1173 85.71C47.1947 85.7409 44.2387 85.6689 41.32 85.4967C41.056 82.5502 40.776 79.5793 40.504 76.6996C39.2947 63.8881 38.0453 50.6411 38.104 37.6536C38.1267 33.0854 37.64 28.5738 33.9667 26.5049C33.5853 26.2903 33.0947 26.4137 32.872 26.7812C32.648 27.1487 32.7773 27.6216 33.1587 27.8362C36.132 29.5105 36.524 33.5403 36.504 37.6459C36.4453 50.7055 37.6984 63.9886 38.9103 76.835L39.0031 77.8223C39.1531 79.418 39.3053 81.037 39.4551 82.6598C35.601 83.261 31.6975 83.2729 27.8427 82.6954C23.6507 74.7117 22.9867 66.7511 22.696 59.9008C21.9613 42.5019 23.4893 25.0413 27.2373 8.00607C27.3293 7.58973 27.0533 7.1811 26.6213 7.09243C26.1893 7.00377 25.7653 7.26976 25.6733 7.6861C21.8973 24.8473 20.3587 42.4364 21.0973 59.9638C21.3987 67.0788 22.0987 75.3696 26.6053 83.7504C26.7213 83.9663 26.936 84.1166 27.184 84.1565C27.718 84.2418 28.2528 84.3164 28.7883 84.3802C28.7812 84.5168 28.7678 84.6578 28.74 84.7154C28.6648 84.8616 28.5964 85.0254 28.5296 85.1854L28.5133 85.2243C28.4653 85.3412 28.4146 85.4607 28.3707 85.5545C27.2654 86.9268 25.9241 87.9343 24.5042 89.0007L24.472 89.0249C23.7913 89.5366 23.0864 90.0664 22.388 90.656C21.4427 91.4758 20.4306 92.87 20.424 94.3247C20.42 95.1856 20.7746 95.9553 21.4493 96.5516C21.5106 96.6068 21.5813 96.6518 21.6587 96.6852C23.076 97.3059 24.7933 97.5166 26.4 97.5166C28.6547 97.5166 30.6906 97.1015 31.372 96.8227C31.6333 96.7148 31.9053 96.6133 32.168 96.5156L32.1764 96.5125C32.8431 96.2641 33.532 96.0076 34.1666 95.5994C34.171 95.5961 34.1759 95.5933 34.1806 95.5903C34.1831 95.5887 34.1856 95.5871 34.188 95.5852C37.7541 93.1309 37.9837 89.0706 38.1863 85.4881L38.1939 85.3538C38.2127 85.0208 38.2309 84.6994 38.252 84.3829C38.7007 84.3295 39.1488 84.2684 39.5962 84.1995C39.6597 84.8967 39.7224 85.5935 39.784 86.2883C39.8187 86.6686 40.1333 86.9667 40.528 86.9924C40.9214 87.018 41.3155 87.0417 41.7102 87.0635C41.8122 88.6797 41.5596 89.7857 40.9587 91.6313C40.9573 91.6352 40.956 91.6403 40.9547 91.6442C40.7093 92.446 39.968 93.3185 39.2507 94.1615L39.2429 94.1706C38.4453 95.1097 37.6215 96.0796 37.2653 97.1543C36.8253 98.4842 37.1893 99.7397 38.356 100.888C38.3747 100.908 39.9707 102.287 42.888 102.287C43.7507 102.287 44.7293 102.166 45.8173 101.852C45.8666 101.838 45.9147 101.819 45.96 101.796C46.2227 101.663 46.4973 101.549 46.7786 101.458C46.8093 101.447 46.8413 101.436 46.8706 101.422C47.388 101.18 47.868 100.87 48.2973 100.502C50.6786 98.5562 52.212 95.8423 52.6146 92.8624C52.9449 90.5153 53.0803 88.5996 53.019 87.1526C55.215 87.0045 57.4957 86.6365 59.572 85.6843C59.6528 85.6471 59.7241 85.5985 59.785 85.5415C59.9827 85.4264 60.1271 85.2302 60.1627 84.993C64.1653 58.6351 60.1546 31.7632 55.224 6.65041C55.1427 6.2315 54.724 5.9578 54.2893 6.03619C53.8547 6.11586 53.5693 6.51806 53.652 6.93697ZM36.6379 84.5419C35.6038 84.6226 34.5679 84.6628 33.532 84.6628C32.4808 84.6628 31.43 84.6211 30.3809 84.5381C30.3615 84.8218 30.313 85.1285 30.1693 85.4055C30.1211 85.4985 30.0648 85.6324 30.009 85.7652L29.996 85.7961L29.9797 85.835C29.9129 85.995 29.8445 86.1588 29.7693 86.305C29.7466 86.3487 29.72 86.3898 29.6893 86.4283C28.4493 87.9909 26.9427 89.123 25.4853 90.2178L25.4427 90.2498C24.7826 90.7461 24.1006 91.2589 23.448 91.8099C22.7453 92.419 22.0267 93.4406 22.0227 94.3324C22.0213 94.7217 22.1587 95.0507 22.4427 95.3347C25.32 96.5156 29.9227 95.7407 30.7413 95.4041C31.0108 95.2922 31.278 95.1928 31.5373 95.0962L31.5906 95.0764C32.2013 94.8489 32.78 94.6331 33.268 94.3221C36.2 92.2956 36.3973 88.7889 36.588 85.3978C36.6037 85.1155 36.6199 84.8279 36.6379 84.5419ZM43.3165 87.1422C43.4025 88.8924 43.1031 90.1922 42.4867 92.0875C42.1498 93.1845 41.3066 94.1764 40.4918 95.1349L40.488 95.1394C38.68 97.2661 38.0347 98.3519 39.4747 99.7859C39.62 99.8965 41.696 101.4 45.2893 100.396C45.588 100.25 45.8986 100.123 46.2146 100.016C46.5853 99.8386 46.9307 99.6125 47.2387 99.3465C47.2413 99.3439 47.244 99.3417 47.2467 99.3394C47.2493 99.3372 47.252 99.3349 47.2547 99.3323C49.3347 97.6349 50.6746 95.2653 51.028 92.6593C51.3412 90.4322 51.4738 88.5743 51.4197 87.2273C50.9845 87.2399 50.5558 87.2471 50.136 87.252C49.684 87.2559 49.2307 87.2584 48.7773 87.2584C46.9599 87.2584 45.1344 87.2197 43.3165 87.1422Z" fill="rgb(0, 0, 0)" class="stroke"></path>
</svg>