<svg xmlns="http://www.w3.org/2000/svg" viewBox="0 0 80 107" fill="none">
<path d="M42.2187 90.7373C43.5694 91.4555 45.2134 91.4408 46.6867 91.027C48.16 90.6131 49.4987 89.8375 50.82 89.0672L51.516 88.6293C51.5427 90.027 51.5667 91.4275 51.5867 92.8305C51.612 94.6421 51.476 99.2025 47.5147 101.902C47.0374 102.244 46.5227 102.531 45.9814 102.759C44.14 103.491 42.0467 103.633 40.188 102.985C39.4747 102.739 38.884 102.226 38.5414 101.555C38.1974 100.883 38.1267 100.104 38.344 99.3801C38.8147 97.8288 40.0627 96.3963 40.52 95.7649C41.9667 93.7624 41.72 92.6383 41.72 91.5529C41.72 91.1738 41.7174 90.796 41.7134 90.4182L42.2187 90.7373Z" fill="black"></path>
<path d="M29.4666 87.034C28.96 88.3223 27.8346 89.4704 27.06 90.0271C25.1933 91.3621 21.4453 92.1818 21.6053 95.5006C21.6586 96.6006 22.2066 97.8795 23.5933 98.1706C25.4253 98.5537 27.2093 98.2627 29.1933 97.9036C31.308 97.5204 34.6306 96.5005 35.8266 94.008C36.4933 92.621 36.836 91.1004 37.016 89.5718C37.1306 88.6026 37.2333 87.6307 37.324 86.6575" fill="black"></path>
<path d="M40.7014 60.876C40.8734 64.8636 41.0867 69.5535 41.248 73.5331L42.0414 73.943C42.676 74.4556 43.4094 74.8308 44.196 75.043C44.9827 75.2553 45.8054 75.302 46.6107 75.1792C47.416 75.0564 48.188 74.7667 48.8747 74.3275C49.5627 73.8896 50.1507 73.3129 50.604 72.6333L51.1947 72.0993C51.1414 68.3734 51.116 64.2549 51.1507 60.4982" fill="rgb(255, 255, 255)" class="skin"></path>
<path d="M29.2413 58.5224C29.3387 62.7237 29.568 68.1131 29.712 72.4585L30.416 72.7629C32.0533 73.0926 32.4347 73.2875 34.2827 73.2568C35.584 73.2354 36.9187 72.911 37.9453 72.11L38.18 71.9325C38.3267 68.4268 38.648 61.6703 38.9 58.174" fill="rgb(255, 255, 255)" class="skin"></path>
<path d="M37.1827 86.7203C34.1813 88.0486 32.3107 87.879 29.4493 87.0513L29.456 87.034C29.604 86.6695 29.692 86.2824 29.716 85.8886C29.928 81.4724 29.856 76.9561 29.7067 72.4585L30.4107 72.7628C31.688 73.0192 32.976 73.2781 34.2773 73.2568C35.5787 73.2354 36.9133 72.911 37.94 72.11L38.1747 71.9325C37.968 76.8599 37.7747 81.7808 37.3133 86.6575L37.1827 86.7203Z" fill="black"></path>
<path d="M42.2187 90.7373C43.5693 91.4555 45.2133 91.4408 46.6867 91.027C48.16 90.6131 49.4987 89.8375 50.82 89.0672L51.516 88.6293C51.412 83.1078 51.272 77.6102 51.1947 72.0927L50.604 72.6267C50.152 73.3049 49.5627 73.8816 48.8747 74.3208C48.1867 74.7587 47.416 75.0497 46.6107 75.1725C45.8053 75.2953 44.9827 75.25 44.196 75.0364C43.4093 74.8241 42.6747 74.449 42.0413 73.9363L41.248 73.5265C41.476 79.1588 41.6613 84.7872 41.7093 90.4169L42.2187 90.7373Z" fill="black"></path>
<path d="M53.3093 5.24121L57.8746 30.972C59.4746 39.9859 60.376 58.4917 60.376 58.4917C52.4013 61.2645 43.8426 61.912 35.5426 60.37L35.0906 58.5825C30.6186 59.2126 26.0693 58.9896 21.68 57.9283C21.3893 57.8576 21.0813 57.7735 20.88 57.5532C20.6133 57.2608 20.604 56.8203 20.6133 56.4224C20.972 39.3158 22.6813 22.2625 25.724 5.42544" fill="rgb(0, 0, 0)" class="bottom"></path>
<path fill-rule="evenodd" clip-rule="evenodd" d="M39.9409 61.7848C39.7973 61.7718 39.6538 61.7581 39.5102 61.7439C39.2616 65.2594 39.1113 68.8415 38.9657 72.312L38.9613 72.4188C38.7239 78.092 38.4786 83.9574 37.8053 89.6639C37.5893 91.5022 37.176 93.0361 36.5427 94.3538C35.1573 97.2414 31.4293 98.3094 29.3307 98.6899C27.912 98.9448 26.6467 99.1478 25.408 99.1478C24.7453 99.1478 24.0907 99.089 23.424 98.9502C22.2227 98.6979 20.904 97.6686 20.8 95.5353C20.6547 92.5248 23.1893 91.2125 25.0413 90.254L25.0432 90.253C25.6252 89.9517 26.1738 89.6676 26.5893 89.3702C27.4547 88.7495 28.8547 87.2436 28.9213 85.8445C29.2114 79.8138 28.9637 73.5292 28.7242 67.451L28.7188 67.3133C28.6199 64.7978 28.5178 62.2009 28.4582 59.697C26.1185 59.5924 23.7899 59.2614 21.4893 58.704L21.4861 58.7032C21.1764 58.627 20.664 58.5009 20.2893 58.0925C19.788 57.5425 19.8027 56.8016 19.8107 56.4024C20.1693 39.3051 21.8933 22.1049 24.9333 5.27859C25.012 4.84338 25.428 4.55368 25.8627 4.63245C26.2973 4.71121 26.5867 5.12773 26.508 5.56294C23.4827 22.3065 21.768 39.4212 21.4093 56.4345C21.4013 56.847 21.436 56.9751 21.4667 57.0085C21.5155 57.0587 21.7611 57.12 21.8553 57.1435L21.8653 57.146C26.1629 58.1861 30.5627 58.4025 34.9428 57.7899C35.5842 49.0609 35.771 40.2281 35.4973 31.4953C35.4627 30.3419 35.404 29.398 35.0093 28.593C34.676 27.9122 33.9533 27.2767 33.2187 27.3769C32.78 27.4369 32.3773 27.1299 32.3173 26.692C32.2573 26.2541 32.564 25.8496 33.0013 25.7895C34.5547 25.5773 35.876 26.728 36.4453 27.8868C37.024 29.067 37.064 30.3859 37.096 31.4459C37.3907 40.835 37.156 50.3402 36.3987 59.7092C44.1293 61.0242 52.104 60.4114 59.5453 57.9283C59.3733 54.6723 58.4973 39.0621 57.0867 31.1122L52.5213 5.38139C52.444 4.94618 52.7347 4.52966 53.1693 4.45223C53.604 4.37347 54.02 4.66583 54.0973 5.10104L58.6627 30.8318C60.2533 39.7924 61.1667 58.2674 61.1747 58.453C61.192 58.8081 60.9733 59.1325 60.6387 59.2486C57.8061 60.2335 54.8949 60.9548 51.9462 61.4091C51.8919 68.4456 52.0414 75.5219 52.1862 82.3733L52.1893 82.5217C52.2613 85.8926 52.3347 89.3782 52.3853 92.8239C52.428 95.8637 51.696 100.021 47.9707 102.564C47.448 102.937 46.8827 103.253 46.2907 103.503C46.2853 103.505 46.28 103.507 46.276 103.509C45.1013 103.971 43.888 104.206 42.704 104.206C41.7453 104.206 40.8053 104.053 39.9213 103.744C39.012 103.43 38.2653 102.783 37.8253 101.923C37.3853 101.062 37.296 100.078 37.5747 99.1531C38.0107 97.718 39.0027 96.4297 39.596 95.6594C39.704 95.5206 39.7973 95.3991 39.8693 95.299C40.9853 93.765 40.9573 92.8986 40.9267 91.9801L40.924 91.891C40.9207 91.7802 40.9173 91.6708 40.9173 91.5623C40.8734 82.9488 40.4868 74.1796 40.1127 65.6969L40.1107 65.6499C40.0533 64.3624 39.9971 63.0736 39.9409 61.7848ZM41.5478 61.9042C42.4998 61.9592 43.4528 61.9867 44.4053 61.9867C46.3903 61.9867 48.3741 61.8672 50.3445 61.6292C50.3204 65.0433 50.3434 68.4632 50.3901 71.8604C50.2123 71.91 50.0507 72.0213 49.94 72.1875C49.5467 72.7775 49.044 73.2701 48.4467 73.6506C47.8493 74.0311 47.1907 74.2794 46.4907 74.3862C45.7907 74.493 45.0893 74.453 44.4053 74.2687C43.7213 74.0832 43.096 73.7641 42.544 73.3182C42.3939 73.1971 42.2134 73.1389 42.0346 73.1405C41.9311 70.6028 41.8197 68.0792 41.7093 65.5805C41.6547 64.3555 41.6012 63.1294 41.5478 61.9042ZM34.8173 59.4244C33.2406 59.6303 31.6598 59.7332 30.0813 59.7332L30.0599 59.7332C30.1193 62.2342 30.2223 64.8333 30.3227 67.3481C30.3831 68.875 30.444 70.4147 30.4968 71.9608C30.5222 71.9634 30.5478 71.9673 30.5733 71.9725L30.5813 71.9739L30.593 71.9762C31.862 72.2303 33.061 72.4704 34.2693 72.4505C35.1527 72.4361 36.4047 72.2609 37.3976 71.5159C37.5352 68.239 37.6837 64.8742 37.9191 61.5592C37.0756 61.4474 36.2343 61.3136 35.396 61.1577C34.992 61.0829 34.7107 60.7131 34.7453 60.3033C34.7698 60.0105 34.7938 59.7175 34.8173 59.4244ZM30.5494 73.6016C30.6718 77.7219 30.7157 81.87 30.5213 85.9219C30.512 86.1147 30.488 86.3057 30.4512 86.4941C32.6485 87.0614 34.2251 87.0931 36.565 86.1152C36.9463 81.8921 37.1415 77.6068 37.3181 73.413C36.2506 73.9029 35.1374 74.0387 34.296 74.0525C34.2413 74.0538 34.1853 74.0538 34.1307 74.0538C32.9039 74.0538 31.7091 73.8324 30.5494 73.6016ZM36.3921 87.898C36.3373 88.4253 36.2791 88.9513 36.2173 89.4757C36.0213 91.1338 35.6573 92.5021 35.1013 93.6582C34.7293 94.4339 33.3933 96.3242 29.0467 97.1119C26.9787 97.4857 25.388 97.7247 23.7533 97.3829C22.572 97.1346 22.4187 95.8463 22.4 95.4578C22.3107 93.6129 23.68 92.7625 25.7773 91.6771L25.8144 91.6578C26.4354 91.3353 27.0219 91.0305 27.5213 90.6732C28.173 90.2064 29.2166 89.2242 29.8864 88.0021C31.0441 88.3082 32.0815 88.4918 33.1293 88.4918C34.1642 88.4918 35.2101 88.3136 36.3921 87.898ZM50.5903 82.5369C50.5312 79.7587 50.4712 76.9432 50.4243 74.1074C50.0867 74.4433 49.7128 74.7423 49.3053 75.0016C48.5187 75.5023 47.6533 75.828 46.732 75.9695C46.3947 76.0189 46.0573 76.0456 45.7213 76.0456C45.1387 76.0456 44.5587 75.9682 43.988 75.8147C43.3157 75.6332 42.6859 75.3526 42.1078 74.978C42.3021 79.9655 42.4573 84.997 42.5057 89.9902C42.5358 90.0019 42.5655 90.0154 42.5947 90.031C43.6373 90.5864 45.0147 90.6665 46.4707 90.2567C47.8627 89.8655 49.1613 89.1086 50.4173 88.3756C50.5095 88.3218 50.608 88.2885 50.7076 88.2744C50.6748 86.5615 50.639 84.855 50.6037 83.1745L50.5903 82.5369ZM42.5265 91.9231C42.5246 91.8641 42.5228 91.8053 42.5212 91.747C43.19 91.9919 43.9247 92.115 44.696 92.115C45.4067 92.115 46.1507 92.0095 46.9013 91.7986C48.2936 91.4077 49.5813 90.7089 50.7402 90.0396C50.7567 90.976 50.772 91.9122 50.7853 92.8452C50.8387 96.698 49.5867 99.5242 47.0627 101.244L47.048 101.254C46.6227 101.56 46.1613 101.818 45.6773 102.022C43.9413 102.71 42.036 102.787 40.4467 102.232C39.9253 102.053 39.5013 101.684 39.2507 101.194C39 100.703 38.948 100.144 39.1067 99.6177C39.4573 98.4656 40.3373 97.3215 40.864 96.638C40.9827 96.4844 41.0853 96.3509 41.164 96.2415C42.6016 94.2659 42.5601 92.9714 42.5268 91.9318L42.5267 91.9294L42.5265 91.9231Z" fill="rgb(0, 0, 0)" class="stroke"></path>
</svg>