<svg xmlns="http://www.w3.org/2000/svg" viewBox="0 0 80 107" fill="none">
<path d="M51.188 90.4502C50.3787 92.2899 48.8813 93.737 47.016 94.4819C45.152 95.2269 43.0693 95.2108 41.2187 94.4352L41.108 94.3898C40.3187 96.6593 39.1427 98.802 38.6453 101.152C38.568 101.511 38.512 101.905 38.684 102.23C38.9307 102.696 39.5253 102.827 40.0467 102.898C41.8533 103.165 43.7293 103.385 45.4787 102.862C48.4 101.994 50.4 99.1558 51.1627 96.1987C51.7213 94.0414 51.7467 91.8026 51.6533 89.5651L51.188 90.4502Z" fill="black"></path>
<path d="M36.6134 89.6839C35.472 90.8214 34.0814 91.6771 32.5534 92.1844C31.0254 92.6917 29.4 92.8372 27.8054 92.6076C27.3067 92.5529 26.824 92.3993 26.3867 92.1537C25.9614 91.8867 25.6174 91.4582 25.5667 90.9602V90.4743C23.7694 91.9962 21.9587 93.4887 21.348 95.6941C21.2267 96.1347 21.164 96.6206 21.356 97.0291C21.72 97.8101 22.752 97.9436 23.612 97.9636C25.8707 98.0344 28.1614 98.0971 30.3574 97.5711C32.5534 97.0451 34.684 95.8276 35.824 93.8745C36.7307 92.3246 36.936 90.4743 37.1067 88.6867L36.6134 89.6839Z" fill="black"></path>
<path d="M41.9614 77.2618C42.0214 79.865 42.0654 83.8033 42.0947 86.4065C42.1174 88.5679 42.1254 90.7546 41.6147 92.8546C41.4894 93.3726 41.3334 93.8799 41.1587 94.3818L41.2694 94.4272C43.1214 95.2015 45.2027 95.2189 47.0667 94.4739C48.9307 93.729 50.428 92.2819 51.2387 90.4422L51.6987 89.4437C51.664 88.652 51.6147 87.859 51.5654 87.0714C51.4107 84.2879 51.316 80.1667 51.2667 77.3793" fill="rgb(255, 255, 255)" class="skin"></path>
<path d="M29.9747 77.8786C29.988 78.2136 30.0013 80.2135 30.0147 80.5486C30.088 82.4176 30.148 84.3693 29.4093 86.0915C28.6387 87.8857 27.1107 89.2007 25.5773 90.497L25.6147 90.9522C25.6653 91.4502 26.0147 91.8867 26.436 92.1457C26.8733 92.3913 27.3547 92.5449 27.8533 92.5996C29.448 92.8292 31.0747 92.685 32.604 92.1777C34.1333 91.6704 35.524 90.8134 36.6667 89.676L37.16 88.6881C37.4573 85.5735 37.708 80.7889 37.9107 77.6676" fill="rgb(255, 255, 255)" class="skin"></path>
<path d="M55.3134 3.22269C58.8374 27.9669 61.9174 52.6604 66.1507 77.2965C66.1507 77.2965 64.32 78.4352 63.2254 77.8625C62.7267 77.5955 62.292 77.195 61.7587 77.0442C61.092 76.8546 60.396 77.0709 59.736 77.2645C55.5454 78.482 51.1454 78.7997 46.824 78.199C45.408 78 43.9334 77.709 42.5787 78.1669C41.5387 78.518 40.6387 79.295 39.5467 79.4098C38.0454 79.566 36.7094 78.4312 35.2134 78.227C32.4934 77.8559 29.5987 80.5459 27.248 79.1268C26.08 78.4219 25.524 76.872 24.2414 76.4101C22.812 75.8961 20.9334 76.916 19.8414 75.8667C19.4414 75.4769 19.276 74.9015 19.1534 74.3528C18.1414 69.8338 18.3907 65.1413 18.648 60.5155C19.704 41.5078 20.82 22.3345 25.892 3.9823" fill="rgb(0, 0, 0)" class="bottom"></path>
<path fill-rule="evenodd" clip-rule="evenodd" d="M26.8346 79.813C27.472 80.1975 28.1346 80.3417 28.7986 80.3417C28.9339 80.3417 29.0692 80.3357 29.2045 80.3246L29.2146 80.5793L29.2151 80.5921C29.2804 82.2777 29.3543 84.1878 28.6733 85.7738C27.9633 87.4263 26.512 88.6551 24.9763 89.9554L24.972 89.959L24.969 89.9615C23.1592 91.4947 21.2876 93.0802 20.6253 95.4725C20.4186 96.2228 20.436 96.8409 20.68 97.3602C21.2978 98.6853 22.9898 98.7418 23.6319 98.7632L23.6346 98.7633L23.7339 98.7663C24.4642 98.7881 25.2016 98.8101 25.944 98.8101C27.488 98.8101 29.0493 98.7166 30.5973 98.3401C33.2946 97.6846 35.4146 96.2388 36.5653 94.2697C37.5186 92.6357 37.7573 90.8041 37.952 88.7535C38.2228 85.9115 38.4567 83.0294 38.6508 80.1724C38.9674 80.2222 39.2946 80.2382 39.632 80.2028C40.2071 80.1424 40.711 79.9478 41.1859 79.7181C41.2338 81.9439 41.2706 84.1917 41.2946 86.4159L41.2948 86.4309C41.3148 88.391 41.3374 90.6104 40.8373 92.6664C40.5218 93.963 40.0087 95.1911 39.4655 96.4909L39.4491 96.5302C38.8566 97.9482 38.244 99.4141 37.912 100.977L37.911 100.981C37.8426 101.309 37.7015 101.985 38.028 102.596C38.4935 103.478 39.5375 103.621 39.9781 103.681L39.9813 103.681C41.0106 103.834 42.076 103.97 43.1373 103.97C44.0186 103.97 44.9 103.875 45.7586 103.617C49.2373 102.576 51.2573 99.1985 51.9866 96.3843C52.744 93.4607 52.568 90.4302 52.3973 87.4999L52.3693 87.0193C52.2312 84.5293 52.1372 81.9916 52.083 79.2805C54.7376 79.1991 57.3728 78.7817 59.9626 78.0294L60.0213 78.0121L60.0243 78.0112C60.5872 77.846 61.1167 77.6906 61.5426 77.8118C61.7653 77.8746 62.0093 78.0361 62.2666 78.207L62.2767 78.2136C62.4562 78.3317 62.6413 78.4535 62.856 78.5688C64.312 79.3311 66.3466 78.1149 66.5733 77.9734C66.8506 77.8025 66.9946 77.4794 66.94 77.1577C63.8666 59.2714 61.3573 41.0353 58.9306 23.4C58.016 16.7517 57.0693 9.87501 56.1053 3.10656C56.0426 2.66868 55.6373 2.3643 55.2 2.42705C54.7626 2.48979 54.4586 2.89563 54.5213 3.33351C55.4694 9.98763 56.3994 16.7463 57.3 23.2909L57.3453 23.6202C59.748 41.082 62.232 59.1325 65.2653 76.8613C64.684 77.1323 63.9586 77.3406 63.604 77.155C63.4586 77.0763 63.308 76.9775 63.1493 76.872C62.816 76.6517 62.44 76.4034 61.9786 76.2726C61.1093 76.0256 60.292 76.2659 59.5706 76.4782L59.5146 76.4942C55.4066 77.6877 51.1733 77.9934 46.9373 77.4047C46.7946 77.3846 46.6493 77.3633 46.5053 77.3419C45.1373 77.1403 43.7226 76.9334 42.3253 77.406C41.8584 77.5631 41.4385 77.7843 41.0319 77.9984L41.0186 78.0054C40.48 78.2898 39.9706 78.5581 39.4653 78.6115C38.8026 78.6809 38.1026 78.3886 37.3613 78.0775L37.3452 78.0708C36.7102 77.8058 36.0538 77.532 35.3226 77.4327C33.958 77.2461 32.6493 77.693 31.3844 78.125L31.3786 78.1269L31.372 78.1292C29.9228 78.6235 28.6731 79.0498 27.6613 78.4393C27.2601 78.1967 26.918 77.7842 26.5555 77.347L26.5451 77.3344C26.0218 76.7025 25.4276 75.985 24.5133 75.6558C23.7412 75.3774 22.9257 75.4479 22.204 75.5104L22.1893 75.5116C21.2986 75.5891 20.7346 75.6131 20.4 75.2914C20.1573 75.0551 20.0333 74.6159 19.9346 74.1766C18.9379 69.7272 19.197 65.0712 19.4475 60.5682L19.448 60.5596C20.4813 41.9444 21.552 22.695 26.664 4.19592C26.7826 3.77006 26.532 3.32817 26.1066 3.21069C25.68 3.09188 25.24 3.34286 25.1226 3.76872C19.964 22.4347 18.8893 41.7708 17.8506 60.4715C17.5933 65.0866 17.328 69.8579 18.3733 74.5277C18.5253 75.2086 18.7413 75.9121 19.288 76.4448C20.1744 77.2963 21.318 77.1965 22.3271 77.1084C22.9431 77.0536 23.5253 77.0028 23.9706 77.163C24.4738 77.3443 24.8627 77.8143 25.3124 78.3578L25.3146 78.3605C25.728 78.8611 26.1973 79.4285 26.8346 79.813ZM50.4825 79.2889C49.2292 79.2636 47.9728 79.1638 46.716 78.9893L46.2733 78.9252C45.0373 78.7437 43.8706 78.5728 42.836 78.9226C42.8139 78.93 42.7918 78.9378 42.7697 78.9458C42.8255 81.4175 42.868 83.9226 42.8946 86.3985C42.916 88.4571 42.94 90.7893 42.392 93.0455C42.322 93.3335 42.2431 93.6186 42.1573 93.9008C43.6658 94.3802 45.2819 94.3236 46.7693 93.729C48.4493 93.0575 49.776 91.7759 50.5053 90.1192C50.5886 89.9307 50.7355 89.7903 50.9096 89.7121C50.8818 89.0076 50.8411 88.304 50.8006 87.6063L50.772 87.1114C50.6322 84.5937 50.5368 82.0293 50.4825 79.2889ZM37.0788 79.692C36.9653 79.6456 36.8537 79.5988 36.744 79.5527C36.1746 79.3137 35.636 79.0894 35.1066 79.0173C34.1188 78.8816 33.0435 79.2488 31.9058 79.6374L31.896 79.6408C31.5375 79.7642 31.1684 79.8909 30.7928 80.0021L30.8133 80.5152C30.8866 82.3749 30.9693 84.4828 30.144 86.4066C29.3551 88.2422 27.8875 89.5813 26.406 90.8433C26.4073 90.8524 26.4084 90.8616 26.4093 90.8708C26.4306 91.0737 26.5986 91.302 26.84 91.4555C27.1813 91.6438 27.5506 91.7613 27.9386 91.804L27.9474 91.8052L27.9653 91.808C29.4293 92.0189 30.9466 91.8841 32.3506 91.4182C33.7546 90.9522 35.052 90.1539 36.1013 89.1086C36.1678 89.0426 36.243 88.9906 36.3233 88.9526C36.3348 88.8364 36.3461 88.7193 36.3573 88.6013C36.6387 85.6506 36.8811 82.656 37.0788 79.692ZM50.9188 92.5367C50.8666 93.7092 50.7271 94.8659 50.4373 95.9838C49.492 99.6324 47.164 101.527 45.3 102.085C43.7213 102.556 41.9933 102.36 40.2053 102.095C39.5906 102.013 39.4666 101.895 39.44 101.844C39.416 101.798 39.4013 101.668 39.4773 101.31C39.7786 99.89 40.3386 98.551 40.932 97.1333C41.1682 96.5693 41.4077 95.9971 41.6314 95.4143C42.4764 95.6879 43.3495 95.825 44.2226 95.825C45.2853 95.825 46.348 95.6234 47.3626 95.2176C48.7861 94.6486 50.0041 93.7232 50.9188 92.5367ZM22.1666 95.8997C22.6042 94.319 23.7733 93.1177 25.1239 91.9373C25.3336 92.2882 25.6392 92.598 26.016 92.8293L26.044 92.8453C26.5746 93.143 27.1493 93.3272 27.752 93.3953C28.272 93.4687 28.7986 93.5061 29.324 93.5061C30.5213 93.5061 31.72 93.3139 32.856 92.9387C33.9717 92.5685 35.0299 92.0178 35.9782 91.3188C35.8058 92.095 35.5602 92.8122 35.1813 93.4607C34.2653 95.028 32.456 96.2388 30.216 96.7835C28.104 97.2972 25.8589 97.2282 23.6882 97.1615L23.684 97.1613C22.7746 97.132 22.2653 96.9744 22.128 96.6807C22.0773 96.5726 22.0426 96.3483 22.1666 95.8997Z" fill="rgb(0, 0, 0)" class="stroke"></path>
</svg>