<svg xmlns="http://www.w3.org/2000/svg" viewBox="0 0 80 107" fill="none">
<path d="M51.188 90.4502C50.3787 92.2899 48.8813 93.737 47.016 94.4819C45.152 95.2269 43.0707 95.2108 41.2187 94.4352L41.108 94.3898C40.3187 96.6593 39.1427 98.802 38.6453 101.152C38.568 101.511 38.512 101.905 38.684 102.23C38.9307 102.696 39.5253 102.827 40.0467 102.898C41.8533 103.165 43.7293 103.385 45.4787 102.862C48.4 101.994 50.4 99.1558 51.1627 96.1987C51.7213 94.0414 51.7467 91.8026 51.6533 89.5651L51.188 90.4502Z" fill="black"></path>
<path d="M36.6134 89.6839C35.472 90.8214 34.0814 91.6771 32.5534 92.1844C31.0254 92.6917 29.4 92.8372 27.8054 92.6076C27.3067 92.5529 26.824 92.3993 26.3867 92.1537C25.9614 91.8867 25.6174 91.4582 25.5667 90.9602V90.4743C23.7694 91.9962 21.9587 93.4887 21.348 95.6941C21.2267 96.1347 21.164 96.6206 21.356 97.0291C21.72 97.8101 22.752 97.9436 23.612 97.9636C25.8707 98.0344 28.1614 98.0971 30.3574 97.5711C32.5534 97.0451 34.684 95.8276 35.824 93.8745C36.7307 92.3246 36.936 90.4743 37.1067 88.6867L36.6134 89.6839Z" fill="black"></path>
<path d="M28.5333 40.094C28.8 46.9159 29.5027 66.8541 29.876 76.8506L30.4187 77.0348C31.6187 77.2751 32.8893 77.5515 34.2853 77.5288C35.5867 77.5074 36.9213 77.183 37.948 76.382L38.016 76.2058C38.532 67.005 39.0213 56.122 39.5547 48.8717C39.6653 47.3658 39.688 41.6934 39.808 40.5479" fill="rgb(255, 255, 255)" class="skin"></path>
<path d="M39.6693 40.3985C40.0866 47.7303 40.9333 65.8289 41.3333 77.7918L42.3026 78.7463C42.9373 79.259 43.6706 79.6341 44.4573 79.8464C45.244 80.0586 46.0666 80.1054 46.872 79.9825C47.6773 79.8597 48.4493 79.5687 49.1373 79.1308C49.8253 78.6929 50.4133 78.1162 50.8666 77.4367L51.26 76.7332C51.0666 64.4805 51.1586 46.8852 51.3333 39.5788" fill="rgb(255, 255, 255)" class="skin"></path>
<path d="M41.268 94.4272C43.12 95.2015 45.2013 95.2189 47.0653 94.474C48.9293 93.729 50.4267 92.2819 51.2373 90.4423L51.704 89.6293C51.6693 88.7749 51.6173 87.9204 51.5707 87.0714C51.4373 84.5709 51.332 80.9304 51.2667 76.7332L50.8733 77.4367C50.4213 78.1162 49.832 78.6929 49.144 79.1308C48.456 79.5687 47.6853 79.8584 46.88 79.9825C46.0747 80.1054 45.252 80.06 44.4653 79.8464C43.6787 79.6341 42.944 79.259 42.3107 78.7463L41.3347 77.7918C41.452 81.2628 41.5333 84.2719 41.556 86.4066C41.5787 88.5679 42.12 90.7547 41.6093 92.8546C41.484 93.3713 41.328 93.8786 41.1533 94.3805L41.268 94.4272Z" fill="black"></path>
<path d="M25.6147 90.9522C25.6654 91.4502 26.0147 91.8867 26.436 92.1457C26.8734 92.3913 27.3547 92.5449 27.8534 92.5996C29.448 92.8292 31.0747 92.685 32.604 92.1777C34.1334 91.6704 35.524 90.8134 36.6667 89.676L37.16 88.6881C37.46 85.5455 37.7427 81.1146 38.0174 76.2058L37.9494 76.382C36.9227 77.183 35.588 77.5074 34.2867 77.5288C32.9854 77.5502 31.6974 77.2912 30.42 77.0348L29.8774 76.8506C29.9307 78.3018 29.9787 79.5567 30.0187 80.5472C30.092 82.4162 30.152 84.368 29.4134 86.0901C28.6374 87.8964 27.0934 89.2167 25.5467 90.5237L25.6147 90.9522Z" fill="black"></path>
<path d="M26.788 7.46265C24.1054 17.8623 21.82 28.3541 19.9333 38.9393C33.1787 41.5519 46.8267 41.3142 59.972 38.2424C58.0347 28.0096 56.1014 17.7769 54.1707 7.54408" fill="rgb(0, 0, 0)" class="bottom"></path>
<path d="M43.136 103.97C42.0733 103.97 41.0093 103.834 39.98 103.681C39.5413 103.621 38.4933 103.48 38.0267 102.596C37.6987 101.982 37.8427 101.304 37.912 100.977C38.2453 99.4081 38.8613 97.937 39.456 96.5138C40.0027 95.2055 40.52 93.9707 40.8373 92.6664C41.148 91.3901 41.028 90.0484 40.9 88.6293C40.836 87.9084 40.768 87.1635 40.7613 86.4159C40.6613 76.872 39.3747 49.8796 38.872 40.9498C38.8467 40.5079 39.184 40.1301 39.6253 40.1048C40.0667 40.0794 40.444 40.4172 40.4693 40.859C40.9733 49.8009 42.26 76.8306 42.3613 86.3986C42.368 87.0821 42.4293 87.7643 42.4947 88.4852C42.628 89.9724 42.7653 91.5103 42.392 93.0442C42.0453 94.4713 41.48 95.8237 40.932 97.132C40.3387 98.5497 39.7787 99.8887 39.4773 101.309C39.4013 101.667 39.416 101.796 39.44 101.843C39.4667 101.894 39.5907 102.011 40.2053 102.094C41.9947 102.358 43.7227 102.555 45.3013 102.083C48.144 101.233 49.8187 98.3748 50.4387 95.9825C51.1333 93.3032 50.964 90.3995 50.8013 87.5934L50.7733 87.1101C50.2373 77.5034 50.2973 50.1533 50.532 40.1275C50.5427 39.6856 50.912 39.3318 51.3507 39.3451C51.792 39.3558 52.1427 39.7229 52.132 40.1648C51.8987 50.1707 51.8373 77.4514 52.3707 87.0193L52.3987 87.4999C52.5693 90.4316 52.7453 93.462 51.988 96.3857C51.2587 99.1999 49.2387 102.577 45.76 103.619C44.8987 103.875 44.0173 103.97 43.136 103.97Z" fill="rgb(0, 0, 0)" class="stroke"></path>
<path d="M38.344 41.5372C32.12 41.5372 25.8827 40.9285 19.7787 39.7256C19.3507 39.6415 19.0693 39.229 19.1453 38.7991C21.0267 28.2433 23.3373 17.634 26.0133 7.26242C26.124 6.83389 26.56 6.57623 26.988 6.68704C27.416 6.79784 27.6733 7.23439 27.5627 7.66292C24.9627 17.7395 22.7093 28.0444 20.86 38.3025C27.1507 39.488 33.5787 40.0327 39.976 39.9219C46.3813 39.8111 52.792 39.0408 59.0427 37.635C57.1787 27.784 55.2747 17.7155 53.3853 7.69363C53.3027 7.25842 53.5893 6.84056 54.0227 6.75779C54.4573 6.67502 54.8747 6.96205 54.9573 7.39592C56.896 17.6741 58.848 28.0016 60.7587 38.0942C60.8387 38.5161 60.572 38.926 60.1547 39.0234C53.5573 40.5653 46.7787 41.4064 40.004 41.5239C39.4507 41.5332 38.8973 41.5372 38.344 41.5372Z" fill="rgb(0, 0, 0)" class="stroke"></path>
<path d="M45.988 80.8516C45.4053 80.8516 44.8253 80.7742 44.2547 80.6207C43.3547 80.3777 42.532 79.9572 41.8053 79.3711C41.4613 79.0934 41.408 78.5888 41.6853 78.2444C41.9627 77.8999 42.4667 77.8465 42.8107 78.1242C43.3627 78.5701 43.988 78.8892 44.672 79.0747C45.356 79.259 46.0573 79.299 46.7573 79.1922C47.4573 79.0854 48.116 78.8384 48.7133 78.4566C49.3107 78.0762 49.8133 77.5835 50.2067 76.9935C50.452 76.625 50.9493 76.5262 51.316 76.7719C51.684 77.0175 51.7827 77.5155 51.5373 77.8826C51.02 78.6582 50.3587 79.307 49.572 79.8077C48.7853 80.3083 47.92 80.634 46.9987 80.7755C46.6613 80.8249 46.324 80.8516 45.988 80.8516Z" fill="rgb(0, 0, 0)" class="stroke"></path>
<path d="M34.1307 78.3258C32.804 78.3258 31.5147 78.0668 30.2667 77.8171C29.8333 77.7304 29.5493 77.3072 29.636 76.8733C29.7227 76.4394 30.1413 76.1564 30.5733 76.2445L30.5813 76.2458C31.8547 76.5008 33.0587 76.7425 34.2693 76.7224C35.1693 76.7078 36.452 76.5262 37.4533 75.7452C37.8013 75.4729 38.304 75.5356 38.576 75.8841C38.848 76.2325 38.7853 76.7358 38.4373 77.0081C37.0867 78.0614 35.44 78.3057 34.296 78.3244C34.2413 78.3258 34.1853 78.3258 34.1307 78.3258Z" fill="rgb(0, 0, 0)" class="stroke"></path>
<path d="M44.2227 95.825C43.116 95.825 42.0093 95.6047 40.96 95.1655C40.552 94.9946 40.36 94.526 40.5307 94.1175C40.7013 93.709 41.1693 93.5168 41.5773 93.6877C43.2453 94.3859 45.0893 94.4005 46.7693 93.729C48.4493 93.0575 49.776 91.7759 50.5053 90.1192C50.684 89.7147 51.156 89.5318 51.56 89.7094C51.964 89.8882 52.148 90.3608 51.9693 90.7653C51.0693 92.8079 49.4333 94.3899 47.3627 95.2176C46.348 95.6234 45.2853 95.825 44.2227 95.825Z" fill="rgb(0, 0, 0)" class="stroke"></path>
<path d="M25.948 98.81C25.172 98.81 24.4013 98.786 23.6387 98.7633C22.9987 98.7419 21.3027 98.6872 20.684 97.3602C20.44 96.8409 20.4227 96.2228 20.6293 95.4725C21.292 93.0789 23.1653 91.4929 24.976 89.959C26.5133 88.6573 27.9667 87.4278 28.6773 85.7724C29.36 84.1811 29.284 82.2667 29.2187 80.5779C29.0547 76.5062 28.7453 67.9341 28.4467 59.6438C28.1653 51.8367 27.9 44.4635 27.752 40.7215C27.7347 40.2796 28.0787 39.9071 28.52 39.8898C28.9573 39.8764 29.3333 40.2169 29.3507 40.6587C29.4987 44.4034 29.7653 51.778 30.0467 59.5864C30.3453 67.8741 30.6547 76.4448 30.8173 80.5152C30.8907 82.3748 30.9733 84.4815 30.148 86.4065C29.288 88.4077 27.6213 89.8188 26.0093 91.1832C24.308 92.6236 22.7013 93.9827 22.1707 95.8997C22.0467 96.3483 22.0813 96.5726 22.132 96.6807C22.2693 96.9757 22.7787 97.1319 23.688 97.1613C25.86 97.228 28.1067 97.2975 30.22 96.7835C32.46 96.2388 34.2693 95.028 35.1853 93.4607C35.9747 92.1096 36.1853 90.4609 36.3613 88.6013C36.8427 83.5416 37.288 74.9909 37.7187 66.722C38.156 58.3301 38.608 49.6526 39.0933 44.7906C39.1373 44.35 39.528 44.031 39.9693 44.0737C40.4093 44.1177 40.7293 44.5102 40.6853 44.9508C40.204 49.7741 39.7533 58.4329 39.316 66.8061C38.884 75.0924 38.4373 83.6604 37.9533 88.7535C37.7587 90.804 37.52 92.6356 36.5667 94.2697C35.416 96.2388 33.296 97.6846 30.5987 98.3401C29.0533 98.7166 27.492 98.81 25.948 98.81Z" fill="rgb(0, 0, 0)" class="stroke"></path>
<path d="M29.324 93.5061C28.7987 93.5061 28.272 93.4687 27.752 93.3953C27.1493 93.3272 26.5747 93.143 26.044 92.8453C26.0347 92.8399 26.0253 92.8346 26.016 92.8292C25.3373 92.4127 24.8893 91.7412 24.8173 91.0337C24.772 90.5931 25.092 90.2006 25.532 90.1552C25.9707 90.1098 26.364 90.4302 26.4093 90.8708C26.4307 91.0737 26.5987 91.302 26.84 91.4555C27.1813 91.6438 27.5507 91.7612 27.9387 91.804C27.948 91.8053 27.9573 91.8066 27.9653 91.808C29.4307 92.0189 30.9467 91.8841 32.3507 91.4181C33.7547 90.9522 35.052 90.1539 36.1 89.1099C36.4133 88.7975 36.92 88.7989 37.232 89.1126C37.544 89.4263 37.5427 89.9336 37.2293 90.246C36.0053 91.4649 34.492 92.3967 32.8547 92.94C31.72 93.3138 30.5213 93.5061 29.324 93.5061Z" fill="rgb(0, 0, 0)" class="stroke"></path>
</svg>