<svg xmlns="http://www.w3.org/2000/svg" viewBox="0 0 80 107" fill="none">
<path d="M51.188 90.4502C50.3787 92.2899 48.8813 93.737 47.016 94.4819C45.152 95.2269 43.0707 95.2108 41.2187 94.4352L41.108 94.3898C40.3187 96.6593 39.1427 98.802 38.6453 101.152C38.568 101.511 38.512 101.905 38.684 102.23C38.9307 102.696 39.5253 102.827 40.0467 102.898C41.8533 103.165 43.7293 103.385 45.4787 102.862C48.4 101.994 50.4 99.1558 51.1627 96.1987C51.7213 94.0414 51.7467 91.8026 51.6533 89.5651L51.188 90.4502Z" fill="black"></path>
<path d="M36.6134 89.6839C35.472 90.8214 34.0814 91.6771 32.5534 92.1844C31.0254 92.6917 29.4 92.8372 27.8054 92.6076C27.3067 92.5529 26.824 92.3993 26.3867 92.1537C25.9614 91.8867 25.6174 91.4582 25.5667 90.9602V90.4743C23.7694 91.9962 21.9587 93.4887 21.348 95.6941C21.2267 96.1347 21.164 96.6206 21.356 97.0291C21.72 97.8101 22.752 97.9436 23.612 97.9636C25.8707 98.0344 28.1614 98.0971 30.3574 97.5711C32.5534 97.0451 34.684 95.8276 35.824 93.8745C36.7307 92.3246 36.936 90.4743 37.1067 88.6867L36.6134 89.6839Z" fill="black"></path>
<path d="M41.136 57.9911C41.6747 67.4535 41.9933 76.9254 42.0933 86.4065C42.116 88.5679 42.124 90.7546 41.6133 92.8546C41.4987 93.3272 41.3587 93.7891 41.2027 94.2523L41.268 94.4272C43.12 95.2015 45.2013 95.2189 47.0653 94.4739C48.9293 93.729 50.4267 92.2819 51.2373 90.4422L51.6133 89.7227C51.5787 88.8496 51.6133 87.9391 51.5693 87.0714C51.0227 77.2738 51.2333 67.4469 51.4627 57.6413" fill="rgb(255, 255, 255)" class="skin"></path>
<path d="M29.0853 57.1113L30.0187 80.5472C30.092 82.4162 30.152 84.368 29.4133 86.0901C28.6493 87.8697 27.1387 89.178 25.6187 90.4649V90.9522C25.6693 91.4501 26.0187 91.8867 26.44 92.1457C26.8773 92.3913 27.3587 92.5448 27.8573 92.5996C29.452 92.8279 31.0773 92.6837 32.6053 92.1764C34.1333 91.6691 35.524 90.8133 36.6667 89.6759C36.808 89.5584 36.9333 89.4236 37.0427 89.2754C37.1187 89.0912 37.1587 88.8936 37.16 88.6934C38.1387 78.4366 38.6067 68.1344 38.5613 57.8255" fill="rgb(255, 255, 255)" class="skin"></path>
<path d="M53.4853 6.82452C56.7906 23.0247 59.2186 39.3919 60.7586 55.8551C56.0626 56.851 51.3333 57.8509 46.5333 58.0244C42.968 58.1579 39.404 57.8229 35.8506 57.4904L19.9266 56.0126C19.9266 56.0126 21.2706 22.8832 26.5333 7.64288" fill="rgb(0, 0, 0)" class="bottom"></path>
<path fill-rule="evenodd" clip-rule="evenodd" d="M39.3611 58.6056C39.6984 58.6322 40.0364 58.6574 40.3748 58.6809C40.8879 67.8792 41.1982 77.2068 41.2946 86.4159L41.2948 86.4309C41.3147 88.391 41.3373 90.6103 40.8373 92.6663C40.5218 93.963 40.0086 95.1911 39.4655 96.491L39.4491 96.5303C38.8565 97.9483 38.244 99.4141 37.912 100.977C37.8426 101.304 37.6988 101.982 38.0266 102.596C38.4922 103.478 39.5362 103.621 39.9767 103.681L39.98 103.681C41.0093 103.834 42.0733 103.97 43.136 103.97C44.0173 103.97 44.8986 103.875 45.76 103.62C49.2386 102.579 51.2586 99.2012 51.988 96.387C52.7453 93.4633 52.5693 90.4329 52.3986 87.5012L52.3706 87.0206C51.8261 77.243 52.0427 67.2003 52.2507 58.2809C55.1877 57.8526 58.086 57.2381 60.9253 56.636C61.3227 56.5519 61.5933 56.1821 61.556 55.7776C60.0187 39.3518 57.568 22.8258 54.2693 6.66163C54.1813 6.22775 53.7587 5.94874 53.3253 6.03685C52.892 6.12496 52.6133 6.54815 52.7013 6.98203C55.94 22.8578 58.36 39.0821 59.8947 55.2169C55.52 56.1434 51.012 57.0592 46.5027 57.2221C43.0027 57.3543 39.4227 57.0192 35.9613 56.6948L20.76 55.2837C20.868 53.0115 21.244 45.9066 22.0533 37.6109C23.348 24.3477 25.1587 14.0749 27.2893 7.90318C27.4333 7.48532 27.212 7.02875 26.7947 6.88457C26.3773 6.74039 25.9213 6.962 25.7773 7.37986C20.5373 22.5575 19.1827 54.6215 19.128 55.9792C19.1107 56.4051 19.4293 56.7709 19.8533 56.8096L28.3033 57.5938L29.2191 80.591C29.2843 82.2766 29.3582 84.1852 28.6773 85.7724C27.9673 87.4263 26.516 88.6551 24.9802 89.9553L24.976 89.959L24.973 89.9615C23.1632 91.4946 21.2916 93.0802 20.6293 95.4725C20.4226 96.2228 20.44 96.8409 20.684 97.3602C21.3017 98.6853 22.9938 98.7418 23.6359 98.7632L23.6386 98.7633L23.7392 98.7663L23.7406 98.7663C24.4699 98.7881 25.2065 98.81 25.948 98.81C27.492 98.81 29.0533 98.7166 30.5986 98.3388C33.296 97.6833 35.416 96.2375 36.5666 94.2683C37.52 92.6343 37.7586 90.8027 37.9533 88.7521C38.9053 78.7732 39.379 68.6347 39.3611 58.6056ZM44.892 58.8548C43.9217 58.8548 42.951 58.8259 41.9827 58.7776C42.492 67.9392 42.7989 77.228 42.8946 86.3998C42.916 88.4571 42.94 90.7893 42.392 93.0455C42.322 93.3335 42.2431 93.6186 42.1572 93.9008C43.6658 94.3802 45.2818 94.3236 46.7693 93.729C48.4493 93.0575 49.776 91.7759 50.5053 90.1192C50.5888 89.9302 50.7362 89.7896 50.9109 89.7115C50.8831 89.0066 50.8423 88.3027 50.8019 87.6048L50.7733 87.1114C50.2299 77.3625 50.4387 67.3809 50.6449 58.4949C49.2909 58.6574 47.9295 58.7731 46.5627 58.8228C46.0067 58.8454 45.4493 58.8548 44.892 58.8548ZM40.932 97.1333C41.1682 96.5693 41.4076 95.9971 41.6314 95.4143C42.4764 95.6879 43.3495 95.825 44.2226 95.825C45.2853 95.825 46.348 95.6234 47.3626 95.2175C48.7868 94.6483 50.0053 93.7222 50.9202 92.5349C50.868 93.708 50.7286 94.8654 50.4386 95.9838C49.4933 99.6324 47.1653 101.527 45.3013 102.085C43.7226 102.556 41.9946 102.36 40.2053 102.095C39.5906 102.013 39.4666 101.895 39.44 101.844C39.416 101.798 39.4013 101.668 39.4773 101.31C39.7786 99.89 40.3386 98.551 40.932 97.1333ZM35.8162 58.2917L35.815 58.2916L35.8133 58.2914L35.776 58.2874L29.9104 57.743L30.8173 80.5152C30.8906 82.3748 30.9733 84.4815 30.148 86.4065C29.3585 88.2436 27.8892 89.5835 26.4064 90.8463C26.4075 90.8544 26.4084 90.8626 26.4093 90.8708C26.4306 91.0737 26.5986 91.302 26.84 91.4555C27.1813 91.6437 27.5506 91.7612 27.9386 91.8039C27.948 91.8053 27.9573 91.8066 27.9653 91.808C29.4293 92.0189 30.9466 91.884 32.3506 91.4181C33.7546 90.9522 35.052 90.1539 36.1 89.1099C36.168 89.0421 36.2451 88.9891 36.3274 88.9508C36.3389 88.8351 36.3502 88.7186 36.3613 88.6013C37.3125 78.627 37.7836 68.4942 37.7608 58.4705C37.1092 58.4125 36.4607 58.3519 35.8162 58.2917ZM35.9829 91.3157C35.8104 92.0931 35.5647 92.8113 35.1853 93.4607C34.2693 95.028 32.46 96.2388 30.22 96.7835C28.108 97.2971 25.8629 97.2281 23.6922 97.1614L23.688 97.1613C22.7786 97.1319 22.2693 96.9757 22.132 96.6807C22.0813 96.5726 22.0466 96.3483 22.1706 95.8997C22.6079 94.32 23.7758 93.1192 25.1252 91.9396C25.3349 92.2896 25.64 92.5985 26.016 92.8292L26.044 92.8452C26.5746 93.143 27.1493 93.3272 27.752 93.3953C28.272 93.4687 28.7986 93.5061 29.324 93.5061C30.5213 93.5061 31.72 93.3138 32.8546 92.94C33.9727 92.569 35.033 92.0168 35.9829 91.3157Z" fill="rgb(0, 0, 0)" class="stroke"></path>
</svg>