<svg xmlns="http://www.w3.org/2000/svg" viewBox="0 0 80 107" fill="none">
<path d="M51.188 90.4502C50.3787 92.2899 48.8813 93.737 47.016 94.4819C45.152 95.2269 43.0707 95.2108 41.2187 94.4352L41.108 94.3898C40.3187 96.6593 39.1427 98.802 38.6453 101.152C38.568 101.511 38.512 101.905 38.684 102.23C38.9307 102.696 39.5253 102.827 40.0467 102.898C41.8533 103.165 43.7293 103.385 45.4787 102.862C48.4 101.994 50.4 99.1558 51.1627 96.1987C51.7213 94.0414 51.7467 91.8026 51.6533 89.5651L51.188 90.4502Z" fill="black"></path>
<path d="M36.6134 89.6839C35.472 90.8214 34.0814 91.6771 32.5534 92.1844C31.0254 92.6917 29.4 92.8372 27.8054 92.6076C27.3067 92.5529 26.824 92.3993 26.3867 92.1537C25.9614 91.8867 25.6174 91.4582 25.5667 90.9602V90.4743C23.7694 91.9962 21.9587 93.4887 21.348 95.6941C21.2267 96.1347 21.164 96.6206 21.356 97.0291C21.72 97.8101 22.752 97.9436 23.612 97.9636C25.8707 98.0344 28.1614 98.0971 30.3574 97.5711C32.5534 97.0451 34.684 95.8276 35.824 93.8745C36.7307 92.3246 36.936 90.4743 37.1067 88.6867L36.6134 89.6839Z" fill="black"></path>
<path d="M42.2586 78.7543C42.8933 79.2669 43.6266 79.6421 44.4133 79.8543C45.2 80.0666 46.0226 80.1133 46.828 79.9905C47.6333 79.8677 48.4053 79.578 49.092 79.1401C49.78 78.7022 50.3693 78.1255 50.8213 77.446L51.2386 76.9814C51.172 68.7164 51.3866 53.7044 51.5466 46.8945L41.2186 48.7128C41.6186 55.7336 41.824 70.4867 41.944 78.5033L42.2586 78.7543Z" fill="rgb(255, 255, 255)" class="skin"></path>
<path d="M38.0733 76.1978C38.5253 68.8072 38.804 59.3514 38.776 52.89L28.776 50.4456C29.0427 57.1206 29.4987 69.125 29.82 76.8493L30.3733 77.0429C31.6493 77.3005 32.9373 77.5595 34.24 77.5368C35.5427 77.5141 36.876 77.191 37.904 76.39L38.0733 76.1978Z" fill="rgb(255, 255, 255)" class="skin"></path>
<path d="M27.256 7.25308C24.2014 20.4642 21.1854 33.6834 18.208 46.9119C17.6334 49.4658 17.532 52.9515 19.996 53.8246C22.04 54.5495 24.0254 52.7312 26.1067 52.1238C30.252 50.9116 34.3827 54.6256 38.692 54.3252C42.0614 54.0902 44.9894 51.4256 48.364 51.5671C50.4334 51.6539 52.2907 52.7913 54.2574 53.4361C56.224 54.0809 58.736 54.0929 59.9827 52.4362C60.9747 51.1172 60.772 49.2842 60.516 47.6515C58.496 34.4577 56.4734 21.2612 54.4507 8.06343L27.256 7.25308Z" fill="rgb(0, 0, 0)" class="bottom"></path>
<path d="M41.2187 94.4353C43.0707 95.2109 45.152 95.2269 47.016 94.482C48.88 93.7371 50.3774 92.2886 51.188 90.4503L51.6414 89.3008C51.608 88.337 51.5747 88.0393 51.5214 87.0794C51.3534 84.0703 51.2694 80.5913 51.24 76.9334L50.8227 77.4474C50.3694 78.1256 49.7814 78.7023 49.0934 79.1415C48.4054 79.5794 47.6347 79.8691 46.828 79.9932C46.0227 80.116 45.2 80.0707 44.4134 79.8571C43.6267 79.6448 42.892 79.2697 42.2587 78.757L41.944 78.4647C41.9867 81.2682 42.0187 83.9595 42.044 86.4172C42.0667 88.5786 42.076 90.7667 41.5654 92.8666C41.4387 93.3846 41.2827 93.8946 41.1067 94.3979L41.2187 94.4353Z" fill="black"></path>
<path d="M25.5666 90.9602C25.6173 91.4582 25.9666 91.8947 26.3866 92.1537C26.8239 92.3994 27.3066 92.5529 27.8053 92.6076C29.3999 92.8359 31.0253 92.6917 32.5533 92.1844C34.0813 91.6771 35.4719 90.8214 36.6133 89.684L37.0559 89.2301L37.1079 88.6961C37.4693 84.9047 37.7973 80.6687 38.0653 76.314L37.8973 76.3887C36.8693 77.1897 35.5359 77.5141 34.2333 77.5355C32.9306 77.5568 31.6439 77.2992 30.3666 77.0415L29.8173 76.9628C29.8706 78.2404 29.9199 79.4472 29.9639 80.5553C30.0386 82.4243 30.0973 84.3747 29.3599 86.0982C28.5599 87.9458 26.9599 89.2862 25.3879 90.6225L25.5666 90.9602Z" fill="black"></path>
<path fill-rule="evenodd" clip-rule="evenodd" d="M26.3307 52.8927C26.8777 52.7325 27.4303 52.6708 27.9893 52.6819C28.1488 56.6737 28.3735 61.8841 28.5923 66.9544L28.6027 67.1959C28.8094 71.9592 29.0214 76.884 29.1707 80.5899L29.1708 80.5927C29.2375 82.2782 29.313 84.1887 28.6307 85.7844C27.92 87.4385 26.468 88.668 24.9294 89.9697C23.1174 91.5022 21.244 93.0882 20.5814 95.4819C20.3747 96.2335 20.3934 96.8503 20.636 97.3682C21.2614 98.7099 22.9587 98.75 23.592 98.7646L23.6185 98.7655C24.3449 98.7879 25.1044 98.8114 25.8787 98.8114C27.4094 98.8114 29.0054 98.7193 30.548 98.3481C33.204 97.7127 35.38 96.2281 36.5187 94.2777C37.5487 92.5179 37.7478 90.4368 37.9077 88.7646L37.908 88.7615C38.9504 77.8286 39.6027 64.6446 39.5814 55.0218C39.8705 54.9719 40.1556 54.9081 40.4373 54.8334C40.9635 64.3366 41.1502 77.3942 41.2454 86.4226C41.2667 88.389 41.2894 90.6185 40.7894 92.6744C40.4753 93.9696 39.9622 95.1962 39.4191 96.4945L39.4094 96.5179C38.812 97.9423 38.196 99.4148 37.864 100.982C37.7574 101.477 37.6867 102.055 37.9774 102.605C38.4426 103.485 39.4858 103.629 39.9255 103.689L39.9294 103.689C40.9614 103.843 42.028 103.979 43.0907 103.979C43.972 103.979 44.8507 103.886 45.7094 103.627C49.1947 102.591 51.2134 99.2132 51.94 96.3964C52.696 93.4647 52.52 90.4249 52.3494 87.4852L52.3227 87.0313C51.7913 77.5367 52.104 63.3199 52.3313 53.5583C52.8753 53.7837 53.4355 54.0098 54.0067 54.197C55.18 54.5815 56.4147 54.723 57.484 54.5948C58.832 54.4333 59.916 53.8526 60.62 52.9181C61.788 51.3641 61.5867 49.3216 61.3054 47.53C59.4595 35.4734 57.6113 23.4145 55.763 11.3545L55.24 7.94191C55.1734 7.50537 54.7654 7.20633 54.328 7.27174C53.892 7.33849 53.592 7.747 53.6587 8.18489C55.6786 21.3647 57.6972 34.5432 59.7158 47.7217L59.724 47.7756C59.9654 49.3122 60.1347 50.9009 59.3427 51.9542C58.3147 53.3199 56.0947 53.1957 54.5054 52.6751C53.904 52.4775 53.316 52.2332 52.6934 51.9742C51.3427 51.4122 49.944 50.8315 48.3974 50.766C46.4147 50.6846 44.6227 51.4576 42.8907 52.2065C41.4414 52.834 40.072 53.4254 38.6374 53.5255C36.8562 53.6494 35.0857 53.0149 33.2117 52.3433L33.2027 52.34C30.8427 51.4936 28.4014 50.6192 25.884 51.3548C25.1347 51.5724 24.42 51.9222 23.7307 52.2612L23.727 52.2631C22.4352 52.8964 21.319 53.4437 20.264 53.0689C18.012 52.2719 18.7187 48.2896 18.9894 47.0881C21.952 33.9223 24.996 20.5817 28.036 7.43328C28.136 7.00207 27.868 6.5722 27.4374 6.47208C27.0067 6.37195 26.5774 6.64029 26.4774 7.0715C23.4374 20.2226 20.392 33.5672 17.428 46.7357C16.5107 50.8114 17.3707 53.7431 19.7294 54.5788C21.4174 55.1782 23.02 54.3932 24.4334 53.7004C25.0907 53.3773 25.7134 53.0729 26.3307 52.8927ZM32.6614 53.8486C34.3756 54.464 36.1406 55.0969 37.9816 55.1411C37.9917 61.1356 37.7407 68.5035 37.2976 75.8379C36.3135 76.5497 35.089 76.719 34.22 76.7345C33.0227 76.7568 31.7882 76.5116 30.5933 76.2703C30.4879 73.7735 30.37 71.0376 30.2527 68.3168L30.1965 67.0133C29.9809 62.0186 29.7588 56.8738 29.5988 52.888C30.5956 53.1073 31.6148 53.473 32.6614 53.8486ZM34.248 78.3352C35.3308 78.3167 36.3224 78.1123 37.1786 77.7365C36.9363 81.4634 36.6457 85.15 36.316 88.6106L36.3154 88.6174C36.3048 88.7277 36.294 88.84 36.2828 88.9539C36.1983 88.9923 36.1191 89.0461 36.0494 89.1152C35.0014 90.1592 33.7054 90.9575 32.3014 91.4235C30.8974 91.8894 29.3827 92.0242 27.9187 91.8146L27.892 91.8106C27.504 91.7679 27.1347 91.6504 26.7934 91.4622C26.552 91.3086 26.384 91.0804 26.3627 90.8774C26.3619 90.8697 26.361 90.862 26.36 90.8543C27.8417 89.5925 29.312 88.2527 30.1014 86.4146C30.9279 84.4844 30.8401 82.29 30.7694 80.5252C30.7366 79.7106 30.7007 78.8364 30.6624 77.9186C31.7669 78.1379 32.9021 78.3392 34.0734 78.3392C34.132 78.3392 34.1908 78.3392 34.248 78.3352ZM25.0788 91.947C23.7293 93.1263 22.5613 94.328 22.124 95.9077C22 96.3576 22.0347 96.5806 22.0854 96.6874C22.2227 96.9824 22.744 97.1413 23.636 97.1626L23.6421 97.1628C25.8136 97.2309 28.0527 97.301 30.176 96.7915C32.4094 96.2562 34.2187 95.0453 35.1387 93.47C35.5219 92.815 35.7691 92.0728 35.9384 91.3165C34.9882 92.0188 33.9268 92.5723 32.8067 92.944C31.6694 93.3218 30.4694 93.5127 29.272 93.5127C28.748 93.5127 28.224 93.4767 27.7054 93.4019C27.1014 93.3338 26.5267 93.1496 25.996 92.8519C25.9867 92.8466 25.9774 92.8412 25.9667 92.8345C25.5924 92.6036 25.288 92.2956 25.0788 91.947ZM48.3294 52.3667C49.1462 52.4013 49.9402 52.6235 50.7453 52.9201C50.5883 59.6279 50.3814 68.611 50.4415 76.7403C50.3306 76.8004 50.2323 76.8877 50.1574 77.0002C49.764 77.5902 49.2614 78.0828 48.664 78.4633C48.0667 78.8438 47.408 79.0908 46.708 79.1976C46.008 79.3044 45.3067 79.2643 44.6227 79.0801C43.9387 78.8945 43.312 78.5755 42.7614 78.1296C42.7542 78.1238 42.7469 78.1181 42.7396 78.1126C42.6183 70.2809 42.4107 61.4121 42.02 54.4814C42.0168 54.4245 42.0077 54.3694 41.9933 54.3166C42.5116 54.1155 43.0206 53.8954 43.524 53.6777L43.5272 53.6763C45.1647 52.9679 46.7118 52.2987 48.3294 52.3667ZM42.8454 86.4039C42.8248 84.4502 42.7999 82.3079 42.7682 80.0536C43.2208 80.2994 43.7011 80.4912 44.2054 80.6274C44.776 80.7822 45.356 80.8596 45.94 80.8596C46.276 80.8596 46.612 80.8343 46.9494 80.7809C47.8707 80.6407 48.736 80.315 49.5227 79.8143C49.8612 79.5984 50.1764 79.3555 50.467 79.087C50.5088 81.9681 50.5898 84.6965 50.7254 87.1221L50.7526 87.589C50.7934 88.2951 50.8346 89.0073 50.8624 89.7205C50.6874 89.7986 50.5396 89.9393 50.456 90.1285C49.7267 91.7852 48.4 93.0682 46.72 93.7397C45.2337 94.3331 43.6168 94.3895 42.1079 93.9101C42.1943 93.6265 42.2737 93.3402 42.344 93.0509C42.8909 90.8046 42.8668 88.4746 42.8455 86.4165L42.8454 86.4039ZM41.5817 95.4232C41.3587 96.0037 41.1203 96.5735 40.8854 97.1346L40.8829 97.1405C40.2905 98.5561 39.7303 99.8947 39.4294 101.315C39.352 101.671 39.3667 101.804 39.3934 101.853C39.4174 101.899 39.5427 102.017 40.156 102.101C41.9467 102.365 43.676 102.563 45.252 102.091C47.12 101.536 49.4494 99.6444 50.3907 95.9959C50.6793 94.8767 50.8184 93.7187 50.8708 92.545C49.9559 93.7323 48.7374 94.6576 47.3134 95.2269C46.2987 95.6314 45.236 95.8343 44.1747 95.8343C43.3012 95.8343 42.4277 95.6971 41.5817 95.4232Z" fill="rgb(0, 0, 0)" class="stroke"></path>
</svg>