<svg xmlns="http://www.w3.org/2000/svg" viewBox="0 0 80 107" fill="none">
<path d="M42.2186 90.7373C43.5693 91.4555 45.2133 91.4408 46.6866 91.027C48.16 90.6131 49.4986 89.8375 50.82 89.0672L51.6906 89.5358C51.72 92.4301 51.9866 95.5006 50.6533 98.1706C49.5866 100.173 47.9866 101.909 45.9866 102.843C43.72 103.778 40.7866 103.911 38.92 102.176C38.6533 101.397 38.6533 100.551 38.92 99.7726C39.8533 97.7701 40.7866 95.7676 41.5866 93.7651C41.8533 92.9641 41.72 92.0296 41.7306 91.1218L42.2186 90.7373Z" fill="black"></path>
<path d="M37.1826 85.1423C35.088 87.2556 31.8106 88.1073 28.9533 87.2783L29.068 87.1928C28.788 87.6214 28.5213 88.0219 28.2546 88.4224C27.988 88.5559 27.8546 88.8229 27.588 89.0899C25.188 91.3594 20.6546 93.0949 21.4546 96.9664C23.188 98.9689 26.2546 97.9009 28.5213 98.1679C31.188 97.7674 33.8546 97.0999 35.4546 94.8304C37.4546 91.8934 37.0546 88.4224 37.4666 85.2838L37.1826 85.1423Z" fill="black"></path>
<path d="M38.8 69.926C34 71.0701 28.8 70.4026 24.1333 68.5336C25.8667 59.9896 25.4667 51.0451 24.6667 42.3676C24.644 41.2515 24.5547 40.1368 24.4 39.0301V37.6951C23.8667 33.2896 23.6 29.0176 23.7333 24.6121C23.7333 22.6096 23.7333 20.7406 23.8667 18.7381C24 17.2696 24.1333 15.8011 24.4 14.3326C24.9333 11.7961 25.3333 9.25956 26.4 6.85656C35.6 6.05556 44.8 6.32256 54 5.78856C57.7333 19.5391 57.0667 33.8236 56.1333 47.9746C56 48.6421 56 49.1761 55.8667 49.8436C55.8667 50.9116 55.7333 52.1131 55.7333 53.1811C55.3333 59.1886 54.1333 65.3296 55.1627 71.2757C54.3253 71.1608 55.1107 70.8204 55.1627 71.2757C54.8 71.2036 54.2667 71.0701 53.8667 71.0701C50 71.6041 46.1333 70.9366 42.2667 71.2036C41.8667 71.2036 41.3333 71.3371 40.9333 71.3371C40 71.2036 38.6667 71.0701 38.8 69.8859V69.926Z" fill="rgb(0, 0, 0)" class="bottom"></path>
<path d="M29.6507 70.4279C30.1213 75.342 29.8547 80.148 29.7213 85.0875C29.648 85.8712 29.3813 86.6255 28.9467 87.2809H28.9533C31.8107 88.1073 35.0867 87.2556 37.1827 85.1449L37.5493 84.9087C37.564 84.6603 37.5773 84.4094 37.588 84.1557C37.988 79.3497 38.1213 74.6772 38.2547 70.0461V70.0287C35.4107 70.5307 32.504 70.5467 29.6547 70.0795" fill="rgb(255, 255, 255)" class="skin"></path>
<path d="M41.7706 90.3795C41.8013 87.0967 41.6946 83.8674 41.5879 80.5512C41.4546 77.4807 41.1879 74.4102 41.1279 71.3931V71.1916C44.4919 71.305 47.8573 71.3424 51.2239 71.301V71.7416C51.5866 76.1471 51.4533 80.5526 51.5866 84.9581C51.5866 86.2517 51.6373 87.1768 51.6733 88.4718L50.8199 89.0712C49.4973 89.8415 48.1533 90.6185 46.6866 91.031C45.2199 91.4435 43.5693 91.4595 42.2186 90.7413L41.7706 90.3795Z" fill="rgb(255, 255, 255)" class="skin"></path>
<path fill-rule="evenodd" clip-rule="evenodd" d="M39.9014 71.9445C40.0757 71.9513 40.2501 71.958 40.4246 71.9644C40.4751 73.1233 40.5257 74.282 40.5774 75.4397C40.5774 75.4397 40.8733 82.9328 40.9173 91.5623C40.9173 91.6708 40.9207 91.7801 40.924 91.8909L40.9267 91.9801C40.9573 92.8986 40.9853 93.765 39.8693 95.299C39.7973 95.3991 39.704 95.5206 39.596 95.6594C39.0027 96.4297 38.0107 97.718 37.5747 99.1531C37.296 100.078 37.3853 101.062 37.8253 101.923C38.2653 102.783 39.012 103.43 39.9213 103.744C40.8053 104.053 41.7453 104.206 42.704 104.206C43.888 104.206 45.1013 103.971 46.276 103.509C46.28 103.507 46.2853 103.505 46.2907 103.503C46.8827 103.253 47.448 102.936 47.9707 102.564C51.696 100.021 52.428 95.8637 52.3853 92.8239C52.3347 89.3782 52.2613 85.8925 52.1893 82.5217L52.0007 72.0882C52.9325 72.0739 53.8624 72.0537 54.7894 72.0272L55.0147 72.0646C55.268 72.106 55.5254 72.0246 55.708 71.8443C55.8907 71.6641 55.976 71.4065 55.9374 71.1528C55.3214 67.1349 55.68 62.9928 56.0266 58.9882L56.0267 58.987C57.556 41.3222 59.1374 23.0554 54.8214 5.62968C54.7147 5.19981 54.2814 4.93815 53.852 5.04495C53.4227 5.15175 53.1614 5.58563 53.268 6.0155C57.5197 23.1822 55.951 41.3112 54.4338 58.8451L54.4314 58.8728C54.1053 62.6542 53.769 66.5551 54.228 70.4399C49.4894 70.5614 44.6934 70.5294 39.9614 70.3438L39.9335 70.3425C39.8353 70.338 39.6349 70.3289 39.5747 70.3024C39.5652 70.282 39.5567 70.2512 39.5495 70.2101C39.6012 70.0747 39.6167 69.9238 39.5867 69.7711C39.5721 69.6967 39.5477 69.6267 39.5152 69.5623C39.2412 58.7048 39.3091 47.6953 39.72 36.834L39.7202 36.8303C39.8908 32.32 40.1032 26.7069 36.928 22.6216C36.6574 22.2718 36.1534 22.2104 35.8054 22.4814C35.4574 22.7537 35.3934 23.2557 35.6654 23.6055C38.4827 27.2313 38.2827 32.5219 38.1214 36.7739C37.7146 47.5593 37.6427 58.4899 37.9083 69.2719C33.5581 69.991 29.1217 69.5563 24.9933 68.0049C26.9533 58.752 26.1294 49.1387 25.332 39.8365L25.3146 39.6324L25.3145 39.6313L25.3134 39.6188C25.2516 38.8959 25.1899 38.1741 25.1293 37.4534C24.2813 27.3181 23.74 16.6154 27.1547 6.98474C27.3027 6.56822 27.084 6.11031 26.668 5.96213C26.252 5.81394 25.7947 6.03288 25.6467 6.4494C22.1267 16.3805 22.6733 27.2781 23.5347 37.5883C23.6013 38.3821 23.6693 39.1772 23.7372 39.9723L23.7373 39.9736C24.544 49.3813 25.3773 59.1085 23.2853 68.3253C23.1973 68.7085 23.4013 69.0969 23.764 69.2451C25.4108 69.9146 27.1072 70.4146 28.8308 70.743C28.8434 71.0716 28.8691 71.7331 28.9214 73.064C28.9322 73.339 28.9427 73.6029 28.9527 73.8566C29.1653 79.2237 29.1989 80.0738 28.9214 85.8445C28.9111 86.0595 28.8694 86.2771 28.8029 86.4935C28.5172 86.549 28.2717 86.7592 28.1853 87.058C28.1272 87.259 28.1517 87.4646 28.2386 87.6383C27.7444 88.3799 27.0807 89.0177 26.5894 89.3702C26.1739 89.6676 25.6253 89.9516 25.0434 90.2529L25.0414 90.254C23.1894 91.2125 20.6547 92.5248 20.8 95.5352C20.904 97.6686 22.2227 98.6979 23.424 98.9502C24.0907 99.089 24.7454 99.1478 25.408 99.1478C26.6467 99.1478 27.912 98.9448 29.3307 98.6899C31.4294 98.3094 35.1574 97.2414 36.5427 94.3538C37.176 93.0361 37.5894 91.5022 37.8054 89.6639C38.4786 83.9574 38.724 78.092 38.9613 72.4187L38.9614 72.4171L38.9729 71.7822C39.3239 71.9233 39.6784 71.9363 39.9014 71.9445ZM37.3891 70.9706C36.197 71.1323 35.0009 71.2129 33.808 71.2129C32.6817 71.2129 31.5578 71.1415 30.4421 70.9991C30.457 71.3811 30.4814 71.9993 30.5214 73C30.5316 73.2577 30.5415 73.5058 30.551 73.7451C30.7677 79.1932 30.8024 80.0648 30.5214 85.9219C30.5079 86.2018 30.4633 86.4778 30.3938 86.7478C32.6425 86.9856 35.0239 86.1831 36.616 84.5789C36.6432 84.5516 36.6718 84.5267 36.7016 84.5041C37.0241 80.4465 37.1954 76.3498 37.3627 72.349L37.3891 70.9706ZM36.5062 86.7505C34.9579 87.8223 33.0905 88.3983 31.2133 88.3983C30.7168 88.3983 30.2197 88.3582 29.7278 88.2761C29.0605 89.3703 28.1236 90.2418 27.5214 90.6732C27.0219 91.0306 26.4353 91.3353 25.8143 91.6579L25.7774 91.6771C23.68 92.7625 22.3107 93.6128 22.4 95.4578C22.4187 95.8463 22.572 97.1346 23.7534 97.3829C25.388 97.7247 26.9787 97.4857 29.0467 97.1119C33.3934 96.3242 34.7294 94.4339 35.1014 93.6582C35.6574 92.5021 36.0214 91.1338 36.2174 89.4757C36.3239 88.5716 36.4196 87.6627 36.5062 86.7505ZM42.176 75.3703C42.176 75.3703 42.0904 73.4276 42.0287 72.0177C44.2085 72.0821 46.3981 72.114 48.5854 72.114C49.191 72.114 49.7964 72.1116 50.4013 72.1068L50.5907 82.555L50.6037 83.1748C50.639 84.8552 50.6748 86.5618 50.7076 88.2747C50.6086 88.2889 50.5106 88.3221 50.4187 88.3757C49.1627 89.1086 47.8627 89.8655 46.472 90.2567C45.0147 90.6665 43.6374 90.5864 42.5947 90.0311C42.5658 90.0156 42.5364 90.0022 42.5066 89.9906C42.4383 82.0081 42.176 75.3703 42.176 75.3703ZM46.9027 91.7986C48.2944 91.4078 49.5816 90.7095 50.7402 90.0405C50.7567 90.9765 50.772 91.9125 50.7853 92.8452C50.8387 96.698 49.5867 99.5242 47.0627 101.244L47.048 101.254C46.6227 101.56 46.1613 101.818 45.6773 102.022C43.9413 102.71 42.036 102.787 40.4467 102.232C39.9253 102.053 39.5013 101.684 39.2507 101.194C39 100.703 38.948 100.144 39.1067 99.6177C39.4573 98.4656 40.3373 97.3215 40.864 96.638C40.9827 96.4844 41.0853 96.3509 41.164 96.2415C42.6016 94.2658 42.5601 92.9714 42.5268 91.9318L42.5267 91.9294L42.5265 91.9232C42.5246 91.8641 42.5228 91.8053 42.5212 91.747C43.1901 91.992 43.9248 92.115 44.696 92.115C45.4067 92.115 46.1507 92.0095 46.9027 91.7986Z" fill="rgb(0, 0, 0)" class="stroke"></path>
</svg>