<svg xmlns="http://www.w3.org/2000/svg" viewBox="0 0 80 80" fill="none">
<path d="M40.1016 13.3003C41.9016 10.6003 44.6016 8.60025 47.3016 6.70025C49.7016 5.00025 52.1016 3.20025 55.0016 2.60025C58.6016 1.90025 62.3016 3.30025 65.7016 4.70025C66.9016 5.20025 68.2016 5.80025 68.8016 6.90025C69.6016 8.30025 69.1016 10.2003 68.6016 11.7003C67.8016 14.3003 66.9016 16.9003 66.1016 19.4003L59.4016 22.5003C59.4016 22.5003 53.4016 18.6003 51.3016 17.6003C48.6016 16.3003 40.1016 13.3003 40.1016 13.3003Z" fill="#CF2323"></path>
<path d="M59.4008 23.4008C59.2008 23.4008 59.1008 23.4008 59.0008 23.3008C58.9008 23.3008 53.0008 19.4008 51.0008 18.4008C48.4008 17.1008 40.0008 14.1008 39.9008 14.1008C39.7008 14.0008 39.5008 13.8008 39.4008 13.6008C39.3008 13.4008 39.4008 13.1008 39.5008 12.9008C41.4008 10.0008 44.3008 7.90078 46.8008 6.10078C49.1008 4.40078 51.7008 2.50078 54.8008 1.90078C58.6008 1.10078 62.4008 2.50078 66.0008 4.00078C67.4008 4.60078 68.7008 5.20078 69.5008 6.60078C70.5008 8.30078 69.9008 10.3008 69.4008 12.1008L66.9008 19.8008C66.8008 20.0008 66.7008 20.2008 66.5008 20.3008L59.8008 23.4008C59.6008 23.3008 59.5008 23.4008 59.4008 23.4008ZM41.3008 12.9008C43.6008 13.7008 49.4008 15.8008 51.6008 16.9008C53.5008 17.8008 58.1008 20.8008 59.4008 21.7008L65.3008 19.0008L67.7008 11.6008C68.2008 10.1008 68.6008 8.60078 68.0008 7.40078C67.5008 6.50078 66.4008 6.00078 65.3008 5.50078C62.0008 4.00078 58.5008 2.70078 55.1008 3.40078C52.4008 3.90078 49.9008 5.70078 47.7008 7.30078C45.4008 9.00078 43.1008 10.7008 41.3008 12.9008Z" fill="rgb(0, 0, 0)" class="stroke"></path>
<path d="M34.2995 19.4008C34.1995 17.2008 35.1995 15.0008 38.1995 13.8008C44.0995 14.0008 49.4995 16.7008 54.7995 19.3008C56.2995 20.0008 57.7995 20.9008 58.4995 22.4008C59.4995 24.7008 57.8995 27.2008 56.3995 29.1008C49.6995 27.6008 43.0995 25.7008 36.6995 23.4008C35.8995 23.1008 35.0995 22.8008 34.4995 22.3008C33.8995 21.8008 33.5995 20.9008 34.2995 19.4008Z" fill="white"></path>
<path d="M56.3988 30C56.2988 30 56.2988 30 56.1988 30C49.4988 28.5 42.8988 26.6 36.3988 24.3C35.5988 24 34.6988 23.7 33.9988 23C33.2988 22.3 32.6988 21.2 33.4988 19.3C33.4988 16.5 34.9988 14.3 37.8988 13.1C37.9988 13.1 38.0988 13 38.1988 13C44.3988 13.2 50.0988 16.1 55.0988 18.6C56.3988 19.3 58.3988 20.3 59.1988 22.1C60.2988 24.7 58.5988 27.5 56.9988 29.6C56.8988 29.9 56.5988 30 56.3988 30ZM38.2988 14.6C35.4988 15.8 34.9988 17.8 35.0988 19.3C35.0988 19.4 35.0988 19.6 34.9988 19.7C34.2988 21.1 34.8988 21.6 34.9988 21.8C35.4988 22.3 36.1988 22.5 36.8988 22.8C43.0988 25 49.5988 26.9 55.9988 28.3C57.2988 26.5 58.3988 24.5 57.6988 22.8C57.1988 21.6 55.7988 20.8 54.3988 20.1C49.5988 17.6 44.0988 14.8 38.2988 14.6Z" fill="rgb(0, 0, 0)" class="stroke"></path>
<path d="M59.899 22.9986C59.599 21.9986 60.099 20.4986 61.099 19.9986C61.499 19.7986 62.099 19.7986 62.499 19.7986C64.099 19.7986 65.899 19.2986 66.999 20.4986C67.899 21.4986 67.499 23.2986 66.499 24.1986C65.399 25.0986 63.899 25.1986 62.599 25.0986C61.999 24.9986 61.299 24.8986 60.799 24.3986C60.299 23.8986 59.999 23.3986 59.899 22.9986Z" fill="white"></path>
<path d="M63.5006 25.9016C63.1006 25.9016 62.7006 25.9016 62.4006 25.8016C61.8006 25.7016 60.9006 25.5016 60.2006 24.9016C59.5006 24.3016 59.2006 23.6016 59.1006 23.2016C59.1006 23.2016 59.1006 23.2016 59.1006 23.1016C58.7006 21.6016 59.4006 19.8016 60.7006 19.1016C61.2006 18.8016 61.8006 18.8016 62.3006 18.8016H62.5006C62.8006 18.8016 63.1006 18.8016 63.3006 18.8016C64.8006 18.7016 66.4006 18.6016 67.6006 19.8016C68.1006 20.4016 68.4006 21.2016 68.3006 22.0016C68.2006 23.0016 67.7006 24.0016 67.0006 24.6016C66.0006 25.7016 64.7006 25.9016 63.5006 25.9016ZM60.6006 22.8016C60.7006 23.0016 60.8006 23.4016 61.3006 23.8016C61.6006 24.0016 62.0006 24.2016 62.7006 24.3016C63.5006 24.4016 65.0006 24.5016 66.0006 23.6016C66.4006 23.2016 66.7006 22.7016 66.8006 22.1016C66.8006 21.8016 66.8006 21.4016 66.5006 21.1016C65.9006 20.4016 64.7006 20.5016 63.5006 20.6016C63.2006 20.6016 62.9006 20.6016 62.6006 20.7016H62.4006C62.0006 20.7016 61.7006 20.7016 61.5006 20.8016C60.7006 21.1016 60.4006 22.1016 60.6006 22.8016Z" fill="rgb(0, 0, 0)" class="stroke"></path>
<path d="M61.1981 20.5004C60.7981 20.5004 60.3981 20.2004 60.3981 19.7004C60.2981 16.2004 59.8981 12.7004 59.3981 9.20041C59.2981 8.80041 59.5981 8.40041 60.0981 8.30041C60.4981 8.20041 60.8981 8.50041 60.9981 9.00041C61.5981 12.5004 61.8981 16.1004 62.0981 19.7004C61.9981 20.1004 61.6981 20.5004 61.1981 20.5004Z" fill="rgb(0, 0, 0)" class="stroke"></path>
</svg>