<svg xmlns="http://www.w3.org/2000/svg" viewBox="0 0 80 80" fill="none">
<g clip-path="url(#clip0_3489_42499)">
<path d="M27.3711 6.81117C27.0011 6.52117 24.8211 7.06117 24.8011 7.66117C24.7711 8.72117 26.6511 9.24117 27.6711 9.54117" fill="#FF5912"></path>
<path d="M27.6709 10.3393C27.5909 10.3393 27.5209 10.3293 27.4409 10.3093L27.3209 10.2693C26.0609 9.88929 23.9509 9.26929 24.0009 7.62929C24.0209 7.11929 24.3709 6.69929 25.0509 6.37929C25.0709 6.37929 27.0109 5.50929 27.8609 6.17929C28.2109 6.44929 28.2709 6.95929 28.0009 7.29929C27.7609 7.59929 27.3509 7.68929 27.0209 7.51929C26.7409 7.49929 26.0509 7.65929 25.6909 7.83929C25.8709 8.01929 26.3809 8.30929 27.7809 8.72929L27.9009 8.76929C28.3209 8.89929 28.5609 9.33929 28.4409 9.76929C28.3409 10.1193 28.0209 10.3393 27.6709 10.3393Z" fill="rgb(0, 0, 0)" class="stroke"></path>
<path d="M49.4511 9.07192C48.0711 9.97192 46.6011 10.7219 45.0111 11.1219C42.6611 11.7219 40.0011 11.4719 38.1011 9.96192C38.1911 9.85192 38.3011 9.69192 38.4211 9.50192C39.5211 7.77192 39.5911 5.55192 38.5211 3.80192C38.4711 3.72192 38.4211 3.64192 38.3711 3.57192C36.8711 1.51192 33.7711 0.101924 31.4711 1.17192C28.2811 2.65192 27.3111 6.31192 27.4711 7.44192C27.6611 8.84192 28.2111 9.80192 29.6511 10.7719L29.7411 11.4019L29.7711 11.6719C29.6011 11.9919 29.3311 12.2719 29.0011 12.4419C28.9611 12.5119 25.1311 16.0819 27.3111 19.7519C27.6611 20.3419 28.2211 21.2119 29.2811 21.6519C29.9111 21.7619 30.5211 22.0019 31.0511 22.3619V22.4819C35.9011 24.6719 40.5311 24.0519 45.0611 21.2819C48.8611 18.9619 51.4411 14.6619 51.5811 10.2619C51.6111 9.15192 50.3811 8.46192 49.4511 9.06192V9.07192Z" fill="#FFD412"></path>
<path d="M29.1598 22.4418C29.0498 22.4418 28.9398 22.4218 28.8298 22.3718C27.5998 21.8118 26.9198 20.6618 26.6198 20.1618C24.6398 16.8218 26.9198 13.3118 28.4098 11.9318C28.7298 11.6318 29.2398 11.6518 29.5398 11.9718C29.8398 12.2918 29.8298 12.8018 29.4998 13.1018C29.3598 13.2318 26.1698 16.2918 27.9898 19.3518C28.3498 19.9518 28.7998 20.6118 29.4898 20.9218C29.8898 21.1018 30.0698 21.5818 29.8898 21.9818C29.7598 22.2718 29.4698 22.4518 29.1598 22.4518V22.4418Z" fill="rgb(0, 0, 0)" class="stroke"></path>
<path d="M36.9102 24.6106C34.8502 24.6106 32.7902 24.1406 30.7202 23.2006C30.3202 23.0206 30.1402 22.5406 30.3202 22.1406C30.5002 21.7406 30.9802 21.5606 31.3802 21.7406C35.7702 23.7206 40.1102 23.3506 44.6302 20.5906C48.2302 18.3906 50.6402 14.3306 50.7602 10.2306C50.7602 9.92064 50.5602 9.77064 50.4702 9.71064C50.3802 9.66064 50.1402 9.56064 49.8702 9.73064C48.2202 10.8006 46.6902 11.5006 45.1902 11.8806C42.3702 12.6006 39.5202 12.1106 37.5802 10.5806C37.4102 10.4506 37.3102 10.2606 37.2802 10.0406C37.2602 9.83064 37.3202 9.62064 37.4502 9.45064C37.5302 9.35064 37.6202 9.22064 37.7202 9.06064C38.6702 7.58064 38.7002 5.67064 37.8102 4.21064C37.7702 4.14064 37.7302 4.08064 37.6902 4.03064C36.4102 2.26064 33.7302 0.980639 31.7802 1.88064C28.9602 3.19064 28.1202 6.46064 28.2302 7.32064C28.3802 8.40064 28.7202 9.20064 30.0702 10.0906C30.4402 10.3306 30.5402 10.8306 30.2902 11.2006C30.0502 11.5706 29.5502 11.6706 29.1802 11.4206C27.6102 10.3806 26.8702 9.25064 26.6402 7.53064C26.4602 6.18064 27.5202 2.09064 31.1002 0.420639C33.8502 -0.849361 37.3302 0.810639 38.9802 3.08064C39.0402 3.17064 39.1102 3.26064 39.1702 3.37064C40.3402 5.29064 40.3402 7.76064 39.1702 9.73064C40.6902 10.6206 42.7202 10.8506 44.7802 10.3206C46.1102 9.98064 47.4802 9.34064 48.9802 8.37064C49.6602 7.93064 50.5302 7.90064 51.2302 8.30064C51.9402 8.70064 52.3602 9.45064 52.3402 10.2606C52.2002 14.8806 49.4902 19.4706 45.4402 21.9406C42.5402 23.7106 39.7002 24.5906 36.8802 24.5906L36.9102 24.6106Z" fill="rgb(0, 0, 0)" class="stroke"></path>
<path d="M31.8607 6.52H31.8407C31.7607 6.52 31.0507 6.46 31.0707 5.57C31.0707 5.14 31.4207 4.76 31.8607 4.75C31.9607 4.75 32.3707 4.77 32.5807 5.17C32.6707 5.3 32.7207 5.47 32.7007 5.65C32.6407 6.47 32.0207 6.52 31.8707 6.52H31.8607Z" fill="rgb(0, 0, 0)" class="stroke"></path>
</g>
<defs>
<clipPath id="clip0_3489_42499">
<rect width="80" height="80" fill="white"></rect>
</clipPath>
</defs>
</svg>