<svg xmlns="http://www.w3.org/2000/svg" viewBox="0 0 80 80" fill="none">
<path d="M46.5888 13.5085C40.7688 13.4385 40.8188 18.4485 40.8188 18.4485C39.7888 16.6985 37.1588 16.1485 35.5088 17.3385C34.8588 17.8085 34.3488 18.6485 34.6388 19.3985C34.9088 20.1085 35.8388 20.5685 35.7588 21.3285C35.6588 22.2985 34.2788 22.2785 33.3088 22.1985C31.8488 22.0785 30.1088 22.7585 29.8488 24.1985C29.5988 25.5585 30.8388 26.7785 32.1488 27.1885C33.4588 27.5985 34.8788 27.4685 36.2488 27.6585C38.6688 28.0085 40.9188 29.4485 42.2388 31.5085C43.1288 32.8985 43.6288 34.5585 44.8288 35.6885C45.9188 36.7085 47.4188 37.1485 48.8788 37.4285C50.0688 37.6585 51.3188 37.8185 52.4988 37.5185C53.6788 37.2185 54.7888 36.3885 55.0988 35.2085C55.2388 34.6885 55.2288 34.0985 55.5688 33.6785C56.6088 32.3785 59.3188 34.1985 60.1988 32.7785C60.4088 32.4385 60.4088 32.0185 60.3788 31.6285C60.2288 29.8685 58.1788 28.4185 55.5388 27.1385C55.5388 27.1385 58.5788 25.6485 57.8888 21.5285" fill="#FFF5D6"></path>
<path d="M51.0709 38.5009C50.2409 38.5009 49.4409 38.3709 48.7209 38.2309C47.2309 37.9409 45.5409 37.4809 44.2709 36.2809C43.3909 35.4509 42.8609 34.4109 42.3509 33.4109C42.0909 32.8909 41.8409 32.4009 41.5509 31.9509C40.3509 30.0809 38.3209 28.7709 36.1209 28.4609C35.6409 28.3909 35.1609 28.3709 34.6409 28.3409C33.7409 28.2909 32.8209 28.2409 31.9009 27.9609C30.2709 27.4509 28.7109 25.9109 29.0509 24.0609C29.4009 22.1309 31.5309 21.2609 33.3709 21.4009C34.7309 21.5109 34.9509 21.2709 34.9609 21.2609C34.9709 21.1409 34.7509 20.8909 34.5809 20.7109C34.3309 20.4309 34.0509 20.1109 33.8809 19.6909C33.4309 18.5309 34.1609 17.3309 35.0309 16.7009C36.0009 16.0009 37.2809 15.7509 38.5509 16.0109C39.2009 16.1509 39.7909 16.4009 40.3009 16.7609C40.5309 16.0309 40.9409 15.1709 41.6909 14.4309C42.8309 13.2909 44.4409 12.7109 46.4709 12.7109C46.5109 12.7109 46.5509 12.7109 46.5909 12.7109C47.0309 12.7109 47.3909 13.0809 47.3809 13.5209C47.3809 13.9609 47.0309 14.3109 46.5709 14.3109C44.9009 14.2909 43.6609 14.7109 42.8109 15.5609C41.6209 16.7409 41.6009 18.4209 41.6009 18.4409C41.6009 18.8009 41.3609 19.1209 41.0109 19.2209C40.6609 19.3209 40.2909 19.1709 40.1109 18.8609C39.7309 18.2209 39.0409 17.7509 38.2109 17.5809C37.3809 17.4109 36.5609 17.5609 35.9609 18.0009C35.5709 18.2909 35.2409 18.7809 35.3709 19.1209C35.4309 19.2809 35.6009 19.4709 35.7709 19.6609C36.1309 20.0709 36.6209 20.6209 36.5409 21.4209C36.4209 22.6409 35.2909 23.1809 33.2309 23.0109C32.1109 22.9209 30.7909 23.4109 30.6209 24.3609C30.4609 25.2609 31.4009 26.1409 32.3709 26.4509C33.0909 26.6809 33.8809 26.7209 34.7209 26.7609C35.2509 26.7909 35.8009 26.8209 36.3409 26.8909C39.0009 27.2709 41.4409 28.8509 42.8909 31.1009C43.2209 31.6209 43.5009 32.1709 43.7709 32.7009C44.2409 33.6209 44.6809 34.4909 45.3609 35.1309C46.3409 36.0509 47.7609 36.4209 49.0209 36.6709C50.0409 36.8709 51.2309 37.0409 52.2909 36.7709C53.3109 36.5109 54.1009 35.8309 54.3109 35.0309C54.3509 34.9009 54.3709 34.7609 54.3909 34.6209C54.4709 34.1909 54.5609 33.6609 54.9209 33.2109C55.7109 32.2209 56.9609 32.3809 57.9809 32.5009C58.7909 32.6009 59.3309 32.6509 59.4909 32.3909C59.5909 32.2209 59.5609 31.8509 59.5509 31.7209C59.4509 30.5209 58.0109 29.2709 55.1609 27.8909C54.8809 27.7609 54.7109 27.4809 54.7109 27.1709C54.7109 26.8609 54.8809 26.5809 55.1609 26.4509C55.2609 26.4009 57.6509 25.1409 57.0709 21.6909C57.0009 21.2509 57.2909 20.8409 57.7309 20.7709C58.1709 20.7009 58.5809 20.9909 58.6509 21.4309C59.1009 24.1309 58.0909 26.0009 57.0209 27.0509C59.0309 28.1409 60.9809 29.6009 61.1509 31.6009C61.1909 32.0809 61.1909 32.6909 60.8609 33.2409C60.1409 34.4009 58.7809 34.2309 57.7809 34.1009C56.9809 34.0009 56.3909 33.9509 56.1709 34.2209C56.0609 34.3609 56.0109 34.6309 55.9609 34.9109C55.9309 35.0909 55.8909 35.2809 55.8509 35.4609C55.4809 36.8309 54.2709 37.9309 52.6709 38.3409C52.1309 38.4809 51.5909 38.5309 51.0609 38.5309L51.0709 38.5009Z" fill="rgb(0, 0, 0)" class="stroke"></path>
<path d="M61.5788 4.18134C57.1588 6.31134 52.9688 8.91134 49.0888 11.9113C48.4788 12.3813 47.8488 12.9113 47.6288 13.6413C47.3688 14.5213 47.7688 15.4513 48.2488 16.2213C49.8788 18.8313 52.6088 20.7213 55.6288 21.3313C56.0588 21.4213 56.5188 21.4713 56.9288 21.3313C57.5188 21.1213 57.8988 20.5513 58.2088 20.0013C60.5888 15.9513 62.4288 11.5913 63.6888 7.06134C63.9888 5.98134 64.2288 4.71134 63.5588 3.81134C62.7888 3.72134 61.9588 3.98134 61.5588 4.17134L61.5788 4.18134Z" fill="#F7931E"></path>
<path d="M56.3688 22.2213C56.0588 22.2213 55.7488 22.1713 55.4788 22.1213C52.2588 21.4813 49.3088 19.4413 47.5788 16.6513C46.8188 15.4313 46.5888 14.3713 46.8688 13.4213C47.1488 12.4713 47.8788 11.8413 48.6088 11.2813C52.5288 8.25129 56.7788 5.62129 61.2388 3.46129C61.7888 3.19129 62.7588 2.92129 63.6688 3.02129C63.8888 3.04129 64.0888 3.16129 64.2188 3.34129C65.0788 4.51129 64.8288 5.99129 64.4688 7.28129C63.1888 11.8813 61.3188 16.2913 58.9088 20.4113C58.5288 21.0713 58.0388 21.7913 57.1988 22.0913C56.9188 22.1913 56.6388 22.2213 56.3688 22.2213ZM61.9188 4.90129C57.5588 7.01129 53.3988 9.58129 49.5688 12.5413C49.0288 12.9613 48.5388 13.3713 48.3888 13.8713C48.2388 14.3613 48.4188 14.9913 48.9188 15.8113C50.4188 18.2213 52.9888 20.0013 55.7788 20.5513C56.0788 20.6113 56.4288 20.6613 56.6588 20.5813C56.9888 20.4613 57.2688 20.0313 57.5188 19.6013C59.8588 15.6113 61.6788 11.3213 62.9188 6.86129C63.1388 6.08129 63.3088 5.23129 63.0888 4.61129C62.6288 4.64129 62.1588 4.79129 61.9188 4.91129V4.90129Z" fill="rgb(0, 0, 0)" class="stroke"></path>
<path d="M54.8302 18.3415C54.7702 18.3415 54.7102 18.3415 54.6502 18.3215C54.4202 18.2715 54.1102 18.1215 53.9202 17.6715C53.2902 16.1015 52.8602 14.4715 52.6402 12.8215C52.5802 12.3815 52.8902 11.9815 53.3302 11.9215C53.7702 11.8615 54.1702 12.1715 54.2302 12.6115C54.4202 14.0015 54.7602 15.3715 55.2602 16.6915C55.6002 16.8715 55.8002 17.3215 55.6902 17.6915C55.5702 18.0815 55.2202 18.3315 54.8302 18.3315V18.3415Z" fill="rgb(0, 0, 0)" class="stroke"></path>
<path d="M56.9884 17.3611C56.6384 17.3611 56.3184 17.1311 56.2184 16.7811C55.6984 14.9311 55.2884 13.0311 54.9984 11.1311C54.9284 10.6911 55.2284 10.2811 55.6684 10.2211C56.1184 10.1511 56.5084 10.4511 56.5784 10.8911C56.8584 12.7211 57.2584 14.5611 57.7584 16.3511C57.8784 16.7811 57.6284 17.2211 57.2084 17.3411C57.1384 17.3611 57.0684 17.3711 56.9884 17.3711V17.3611Z" fill="rgb(0, 0, 0)" class="stroke"></path>
<path d="M52.5186 16.3982C52.1286 16.3982 51.7886 16.1082 51.7286 15.7182C51.6586 15.2782 51.9686 14.8782 52.3986 14.8082C53.7786 14.5982 56.6086 13.4482 58.0886 12.7382C58.4886 12.5482 58.9686 12.7182 59.1586 13.1082C59.3486 13.4982 59.1886 13.9882 58.7886 14.1782C57.2886 14.9082 54.2886 16.1482 52.6386 16.3882C52.5986 16.3882 52.5586 16.3882 52.5186 16.3882V16.3982Z" fill="rgb(0, 0, 0)" class="stroke"></path>
<path d="M50.039 29.8217C47.329 29.8217 45.179 28.3817 44.619 26.0617C44.519 25.6317 44.779 25.2017 45.209 25.0917C45.629 24.9917 46.069 25.2517 46.179 25.6817C46.629 27.5117 48.629 28.5217 51.049 28.1417C51.479 28.0717 51.899 28.3717 51.959 28.8117C52.019 29.2517 51.729 29.6617 51.289 29.7217C50.859 29.7917 50.439 29.8217 50.039 29.8217Z" fill="rgb(0, 0, 0)" class="stroke"></path>
</svg>