<svg xmlns="http://www.w3.org/2000/svg" viewBox="0 0 80 80" fill="none">
<path d="M39.291 23.9299C38.951 23.9299 38.641 23.7199 38.531 23.3799C36.921 18.5099 37.7911 12.5299 39.1411 8.5499C39.2811 8.1299 39.731 7.8999 40.151 8.0499C40.571 8.1899 40.791 8.6499 40.651 9.0599C39.061 13.7499 38.821 19.1699 40.041 22.8699C40.181 23.2899 39.951 23.7399 39.531 23.8799C39.451 23.9099 39.361 23.9199 39.281 23.9199L39.291 23.9299Z" fill="rgb(0, 0, 0)" class="stroke"></path>
<path d="M38.5593 10.481C38.1993 11.861 36.7493 13.101 35.8993 13.151C33.0693 13.301 32.4293 9.97095 34.8193 9.34095C35.4193 9.18095 36.0993 8.99095 36.3293 8.87095C36.3193 8.87095 34.6893 8.40095 33.7093 7.85095C32.8093 7.34095 32.2593 6.35095 32.3593 5.32095C32.4393 4.53095 33.1693 3.45095 34.6093 3.29095C35.7693 3.16095 37.4593 4.42095 37.5793 5.58095C37.6193 5.17095 37.6293 4.22095 37.6393 3.70095C37.6693 2.23095 38.9793 0.370954 40.9493 0.900954C43.5093 1.59095 41.8893 4.92095 41.4693 5.64095C42.9393 5.59095 46.5893 5.17095 46.6993 7.55095C46.7693 9.04095 45.2893 10.231 44.0793 10.071C43.5193 10.001 42.4693 9.51095 41.7293 9.28095C42.8893 9.47095 43.7593 11.391 43.3393 12.481C42.9193 13.571 41.6593 14.081 40.5693 13.661C39.4793 13.241 38.7993 11.671 38.5693 10.501L38.5593 10.481Z" fill="#FA2A0A"></path>
<path d="M41.3587 14.5897C40.9887 14.5897 40.6187 14.5197 40.2687 14.3897C39.4387 14.0597 38.8087 13.3097 38.3787 12.4497C37.6787 13.2897 36.7487 13.8997 35.9387 13.9497C33.9087 14.0597 32.7787 12.7597 32.5787 11.5097C32.3987 10.3897 32.9387 9.36965 33.9187 8.83965C33.6887 8.73965 33.4887 8.62965 33.3187 8.53965C32.1187 7.85965 31.4287 6.55965 31.5687 5.22965C31.6987 4.01965 32.7487 2.68965 34.5287 2.48965C35.2587 2.40965 36.1187 2.68965 36.8787 3.23965C37.0287 2.22965 37.5987 1.23965 38.3987 0.639655C39.1987 0.0396546 40.1787 -0.140345 41.1587 0.119655C42.2587 0.409655 42.7387 1.08965 42.9487 1.60965C43.3687 2.62965 43.0887 3.86965 42.7487 4.77965C44.0987 4.73965 45.7087 4.83965 46.6887 5.73965C47.1787 6.18965 47.4587 6.79966 47.4887 7.50965C47.5287 8.42966 47.1387 9.33965 46.4087 9.99965C45.7387 10.6097 44.8887 10.9297 44.0887 10.8697C44.2787 11.5397 44.2787 12.2197 44.0687 12.7697C43.7887 13.4797 43.2487 14.0397 42.5487 14.3597C42.1687 14.5297 41.7587 14.6097 41.3487 14.6097L41.3587 14.5897ZM38.5587 9.67966H38.5787C38.9487 9.68966 39.2687 9.95965 39.3387 10.3197C39.5487 11.3897 40.1387 12.6097 40.8487 12.8897C41.1887 13.0197 41.5787 13.0197 41.9087 12.8697C42.2187 12.7297 42.4587 12.4797 42.5887 12.1697C42.7187 11.8297 42.6087 11.2197 42.3287 10.7197C42.1787 10.4497 41.9787 10.2397 41.7987 10.1297C41.6887 10.0897 41.5887 10.0597 41.4987 10.0297C41.0987 9.89965 40.8587 9.48965 40.9587 9.07965C41.0587 8.66965 41.4487 8.40965 41.8687 8.47965C42.0587 8.50965 42.2587 8.56965 42.4387 8.65965C42.5987 8.71965 42.7687 8.77966 42.9387 8.84966C43.3887 9.01966 43.9387 9.22965 44.1987 9.25965C44.5587 9.30965 45.0087 9.12966 45.3587 8.80966C45.7387 8.46966 45.9387 8.01965 45.9187 7.56965C45.9087 7.27965 45.8187 7.07965 45.6387 6.90965C44.9087 6.24965 42.9887 6.34965 41.9587 6.39965L41.5187 6.41965C41.2387 6.43965 40.9487 6.27965 40.7987 6.02965C40.6487 5.77965 40.6487 5.46965 40.7987 5.21965C41.2387 4.46965 41.8087 2.99965 41.4887 2.20965C41.4187 2.03965 41.2687 1.79965 40.7587 1.65965C40.2487 1.51965 39.7787 1.60965 39.3687 1.90965C38.8487 2.29965 38.4687 3.03965 38.4487 3.70965V4.05965C38.4287 4.59965 38.4187 5.30965 38.3887 5.64965C38.3487 6.05965 38.0087 6.36965 37.5987 6.36965C37.1887 6.36965 36.8387 6.05965 36.7987 5.64965C36.7687 5.35965 36.4887 4.95965 36.0887 4.62965C35.6387 4.25965 35.0687 4.02965 34.7187 4.06965C33.6787 4.18965 33.2187 4.93965 33.1687 5.38965C33.0987 6.08965 33.4687 6.77965 34.1187 7.13965C34.9187 7.58965 36.3087 8.01965 36.5287 8.07965C36.8187 8.14965 37.0487 8.36965 37.1187 8.65965C37.2087 9.01965 37.0387 9.39965 36.6987 9.56965C36.5987 9.61965 36.3387 9.74966 35.0287 10.0997C34.0987 10.3497 34.1287 11.0397 34.1687 11.2497C34.2587 11.8297 34.8187 12.3997 35.8587 12.3397C36.2687 12.3197 37.4887 11.3997 37.7887 10.2697C37.8787 9.91966 38.1987 9.66965 38.5587 9.66965V9.67966Z" fill="rgb(0, 0, 0)" class="stroke"></path>
<path d="M39.1598 10.1009C38.0898 9.6609 36.8798 9.0809 36.7598 7.8109C36.7298 7.5309 36.7698 7.2609 36.8598 6.9909C37.1898 6.0409 37.7398 5.6609 38.6398 5.3609C39.0998 5.2009 40.9198 4.7609 41.5498 6.7809C41.7798 7.5209 41.8798 8.3809 41.4698 9.0509C40.9098 9.9609 39.6498 10.3009 39.1498 10.1009H39.1598Z" fill="#FFCC00"></path>
<path d="M39.4988 10.9489C39.2588 10.9489 39.0388 10.9089 38.8488 10.8289C37.8988 10.4389 36.1288 9.70887 35.9588 7.87887C35.9188 7.49887 35.9688 7.09887 36.0988 6.72887C36.5588 5.37887 37.4688 4.90887 38.3788 4.59887C38.6988 4.48887 39.8288 4.16887 40.8688 4.69887C41.5588 5.04887 42.0388 5.66887 42.3088 6.53887C42.6688 7.70887 42.6188 8.69887 42.1488 9.45887C41.5588 10.4089 40.3988 10.9389 39.4988 10.9389V10.9489ZM39.4488 9.35887C39.6588 9.39887 40.4488 9.20887 40.7888 8.63887C41.0588 8.19887 40.9388 7.51887 40.7888 7.02887C40.6488 6.57887 40.4388 6.28887 40.1488 6.13887C39.6488 5.87887 38.9688 6.09887 38.8988 6.11887C38.1188 6.38887 37.8288 6.63887 37.6188 7.25887C37.5688 7.41887 37.5388 7.58887 37.5588 7.73887C37.6288 8.45887 38.3088 8.87887 39.4488 9.35887Z" fill="rgb(0, 0, 0)" class="stroke"></path>
<path d="M38.9414 21.9286C39.4614 18.4086 44.2314 15.6986 47.4814 17.0486C46.0514 20.5086 43.1714 21.6986 38.9414 21.9286Z" fill="#27B500"></path>
<path d="M38.9413 22.7305C38.7213 22.7305 38.5013 22.6405 38.3513 22.4705C38.1913 22.2905 38.1213 22.0505 38.1513 21.8105C38.4313 19.9105 39.8113 18.0905 41.8213 16.9505C43.8113 15.8205 46.0413 15.5905 47.7813 16.3105C48.1913 16.4805 48.3813 16.9505 48.2113 17.3505C46.3913 21.7705 42.3213 22.5405 38.9813 22.7205C38.9713 22.7205 38.9513 22.7205 38.9413 22.7205V22.7305ZM45.6113 17.5005C44.6513 17.5005 43.6013 17.7905 42.6113 18.3505C41.4013 19.0305 40.4913 20.0005 40.0313 21.0505C43.2813 20.7005 45.2113 19.6405 46.3513 17.5605C46.1113 17.5205 45.8613 17.5005 45.6113 17.5005Z" fill="rgb(0, 0, 0)" class="stroke"></path>
<path d="M38.6501 21.0205C35.8301 14.9105 30.8101 16.5305 30.8101 16.5305C30.8101 16.5305 30.3201 20.9805 38.6501 21.0205Z" fill="#27B500"></path>
<path d="M38.6516 21.8197C35.0616 21.7997 32.5216 20.9997 31.1116 19.4197C29.8516 18.0097 30.0016 16.5097 30.0016 16.4397C30.0316 16.1297 30.2516 15.8597 30.5516 15.7697C30.6116 15.7497 36.2816 14.0097 39.3616 20.6797C39.4716 20.9297 39.4516 21.2197 39.3116 21.4497C39.1616 21.6797 38.9116 21.8197 38.6416 21.8197H38.6516ZM31.6616 17.1697C31.7416 17.4997 31.9216 17.9497 32.3316 18.3897C32.9916 19.1097 34.3816 19.9597 37.2816 20.1697C35.3516 17.0897 32.8116 17.0097 31.6616 17.1697Z" fill="rgb(0, 0, 0)" class="stroke"></path>
</svg>