<svg xmlns="http://www.w3.org/2000/svg" viewBox="0 0 80 80" fill="none">
<path d="M48.2709 22.8002C45.6209 23.6802 43.0009 23.1602 39.3309 23.1902C35.2109 23.2302 33.9409 23.1302 31.2409 21.7802C29.3009 17.5802 30.0809 15.4502 31.0009 10.9902C32.4909 12.4502 33.8009 13.4202 35.1709 14.9802C36.6309 12.8202 40.0209 10.1602 40.0209 10.1602L43.8209 14.9202C43.8209 14.9202 46.3509 14.0402 48.8909 12.1102C49.1709 16.7502 49.6209 18.5102 48.2809 22.8002H48.2709Z" fill="#FFD30D"></path>
<path d="M44.4815 24.1187C43.7915 24.1187 43.0815 24.0886 42.3315 24.0586C41.3915 24.0186 40.4115 23.9886 39.3315 23.9986C35.0515 24.0386 33.6715 23.8986 30.8715 22.5086C30.7115 22.4286 30.5815 22.2986 30.5015 22.1286C28.6415 18.1186 29.1315 15.8686 29.9315 12.1386C30.0215 11.7286 30.1115 11.2986 30.2015 10.8386C30.2615 10.5486 30.4715 10.3186 30.7515 10.2386C31.0315 10.1586 31.3315 10.2286 31.5415 10.4286C32.0915 10.9686 32.6215 11.4486 33.1415 11.9086C33.8015 12.4986 34.4415 13.0686 35.0915 13.7386C36.7515 11.7086 39.3815 9.62865 39.5115 9.52865C39.8615 9.25865 40.3615 9.31865 40.6315 9.65865L44.0615 13.9586C44.9015 13.6086 46.6515 12.7886 48.3915 11.4786C48.6315 11.2986 48.9415 11.2686 49.2115 11.3886C49.4815 11.5086 49.6615 11.7686 49.6715 12.0687C49.7115 12.8087 49.7615 13.4786 49.8115 14.0986C50.0515 17.3386 50.1915 19.2986 49.0315 23.0486C48.9515 23.2986 48.7615 23.4886 48.5215 23.5686C47.1915 24.0086 45.8815 24.1286 44.4815 24.1286V24.1187ZM39.7015 22.3986C40.6715 22.3986 41.5415 22.4286 42.4015 22.4686C44.4215 22.5486 46.0415 22.6086 47.6315 22.1686C48.5715 18.9786 48.4515 17.2486 48.2215 14.2186C48.2115 14.0186 48.1915 13.8086 48.1715 13.5886C46.0215 14.9886 44.1615 15.6486 44.0715 15.6786C43.7515 15.7886 43.3915 15.6786 43.1815 15.4186L39.8815 11.2986C38.8615 12.1586 36.8215 13.9486 35.8215 15.4386C35.6815 15.6486 35.4615 15.7786 35.2115 15.7886C34.9615 15.7986 34.7215 15.7087 34.5615 15.5187C33.7415 14.5887 32.9415 13.8686 32.0815 13.0986C31.8815 12.9186 31.6815 12.7386 31.4815 12.5586C30.7515 15.9386 30.3615 17.8586 31.8415 21.1986C34.1815 22.3286 35.3615 22.4386 39.3215 22.3986C39.4515 22.3986 39.5715 22.3986 39.7015 22.3986Z" fill="rgb(0, 0, 0)" class="stroke"></path>
<path d="M30.7492 13.1889C30.1892 13.2989 29.6292 12.9389 29.2592 12.4989C29.0492 12.2489 28.8692 11.9689 28.8192 11.6489C28.7292 11.0789 29.0692 10.5189 29.5192 10.1689C29.9692 9.81892 30.5392 9.65892 31.0892 9.49892C31.2892 9.43892 31.5092 9.37892 31.7092 9.43892C31.8892 9.48892 32.0292 9.62892 32.1692 9.75892C32.4292 10.0189 32.6892 10.2789 32.8392 10.6089C33.1092 11.1889 32.9692 11.9189 32.5692 12.4189C32.1692 12.9189 31.5392 13.2089 30.8992 13.2489C30.7492 13.2589 30.5592 13.2089 30.7392 13.1889H30.7492Z" fill="#FFD30D"></path>
<path d="M30.8408 14.0489C30.7208 14.0489 30.6008 14.0389 30.5008 14.0089C29.8408 13.9989 29.1708 13.6389 28.6408 13.0189C28.2908 12.6089 28.0908 12.1989 28.0208 11.7789C27.8908 10.9689 28.2808 10.1089 29.0308 9.53893C29.6108 9.09893 30.2708 8.90893 30.8608 8.73893C31.0908 8.66893 31.4908 8.54893 31.9308 8.67893C32.3108 8.78893 32.5708 9.03893 32.7308 9.19893C33.0608 9.51893 33.3708 9.84893 33.5708 10.2889C33.9508 11.1289 33.8108 12.1689 33.2008 12.9289C32.6808 13.5789 31.8608 13.9989 30.9608 14.0589C30.9208 14.0589 30.8808 14.0589 30.8408 14.0589V14.0489ZM30.7508 12.3889C30.8408 12.3889 30.9208 12.3989 31.0108 12.4289C31.4008 12.3689 31.7508 12.1789 31.9608 11.9089C32.1908 11.6189 32.2508 11.2189 32.1208 10.9289C32.0308 10.7289 31.8408 10.5289 31.6108 10.3089C31.5708 10.2689 31.5008 10.1989 31.4608 10.1789C31.4908 10.1989 31.3708 10.2389 31.3108 10.2489C30.8308 10.3889 30.3408 10.5289 29.9908 10.7989C29.7208 10.9989 29.5608 11.2889 29.6008 11.5089C29.6208 11.6389 29.7108 11.7889 29.8608 11.9689C30.1108 12.2589 30.4008 12.4289 30.5908 12.3889C30.6208 12.3889 30.6408 12.3889 30.6708 12.3789C30.6908 12.3789 30.7208 12.3789 30.7408 12.3789L30.7508 12.3889Z" fill="rgb(0, 0, 0)" class="stroke"></path>
<path d="M39.6298 11.34C39.0798 10.84 38.2498 10.52 38.1098 9.79001C38.0298 9.35001 38.2598 8.91001 38.5498 8.56001C39.0498 7.97001 39.9198 7.56001 40.5998 7.94001C40.8598 8.09001 41.4198 8.33001 41.5898 8.58001C41.8898 9.03001 42.2198 9.73001 42.0598 10.25C41.9298 10.69 41.1098 10.85 40.6998 11.06C40.4598 11.19 40.1898 11.29 39.9198 11.25C39.6498 11.21 39.3898 10.99 39.6198 11.33L39.6298 11.34Z" fill="#FFD30D"></path>
<path d="M39.6007 12.1303C39.4207 12.1303 39.2407 12.0703 39.0907 11.9303C38.9507 11.8103 38.7907 11.7003 38.6307 11.5903C38.1107 11.2303 37.4707 10.7703 37.3207 9.94032C37.2107 9.32032 37.4307 8.65031 37.9407 8.05031C38.6607 7.21031 39.9407 6.66031 40.9907 7.25031L41.1607 7.34031C41.6207 7.58031 42.0207 7.80031 42.2507 8.15031C42.5107 8.54031 43.1007 9.56031 42.8307 10.4903C42.6207 11.1903 41.9207 11.4503 41.4007 11.6503C41.2807 11.7003 41.1607 11.7403 41.0807 11.7803C40.8107 11.9203 40.4007 12.1103 39.9207 12.0603C39.8207 12.1103 39.7107 12.1303 39.6007 12.1303ZM39.6707 10.3603C39.7607 10.3703 39.8507 10.3903 39.9507 10.4303C40.0307 10.4603 40.1007 10.4703 40.3307 10.3503C40.4607 10.2803 40.6407 10.2103 40.8207 10.1403C40.9507 10.0903 41.1707 10.0103 41.2907 9.94032C41.2907 9.76032 41.1807 9.42031 40.9107 9.03031C40.8607 8.98031 40.5607 8.83031 40.4107 8.76031L40.1907 8.64031C39.9407 8.50031 39.4607 8.70031 39.1407 9.08031C38.9607 9.29031 38.8507 9.52032 38.8807 9.64032C38.9107 9.83032 39.2307 10.0503 39.5407 10.2703C39.5807 10.3003 39.6207 10.3203 39.6607 10.3503L39.6707 10.3603Z" fill="rgb(0, 0, 0)" class="stroke"></path>
<path d="M48.8803 13.0792C48.1703 13.1392 47.4403 12.6692 47.1903 11.9992C46.9403 11.3292 47.1903 10.4992 47.7703 10.0792C48.1303 9.81922 48.5703 9.70922 49.0203 9.69922C49.3803 9.69922 49.7703 9.75922 50.0103 10.0292C50.0403 10.0592 50.0803 10.1092 50.1203 10.1592C50.5203 10.5892 50.7903 11.1392 50.8603 11.7292C50.8603 11.8192 50.8703 11.8992 50.8703 11.9692C50.8503 12.3792 50.2703 12.7192 49.9603 12.9792C49.6503 13.2392 49.1603 13.3092 48.8903 13.0892L48.8803 13.0792Z" fill="#FFD30D"></path>
<path d="M49.3096 14.0204C49.0896 14.0204 48.8696 13.9804 48.6696 13.8904C47.6996 13.8504 46.7896 13.2104 46.4396 12.2904C46.0596 11.2804 46.4196 10.0804 47.2896 9.45038C47.7396 9.12038 48.3296 8.93038 48.9896 8.91038C49.8896 8.90038 50.3596 9.23038 50.6096 9.53038L50.6996 9.63038C51.2296 10.2004 51.5696 10.9204 51.6496 11.6604C51.6596 11.7904 51.6696 11.9104 51.6596 12.0204C51.6296 12.7104 51.0496 13.1604 50.6596 13.4604C50.5896 13.5104 50.5296 13.5604 50.4696 13.6104C50.1396 13.9004 49.7096 14.0504 49.2996 14.0504L49.3096 14.0204ZM48.8896 12.2804C49.0496 12.2804 49.1996 12.3304 49.3396 12.4204C49.3696 12.4204 49.4096 12.4004 49.4396 12.3704C49.5196 12.3104 49.5996 12.2404 49.6996 12.1604C49.8096 12.0804 49.9896 11.9404 50.0696 11.8404C50.0696 11.8304 50.0696 11.8204 50.0696 11.8104C50.0296 11.4104 49.8396 11.0204 49.5396 10.7004C49.4796 10.6404 49.4296 10.5804 49.3996 10.5404C49.3896 10.5404 49.2796 10.4804 49.0496 10.4904C48.8196 10.4904 48.4996 10.5404 48.2596 10.7204C47.9696 10.9304 47.8396 11.3804 47.9596 11.7204C48.0796 12.0604 48.4896 12.3004 48.8396 12.2804C48.8596 12.2804 48.8796 12.2804 48.8996 12.2804H48.8896Z" fill="rgb(0, 0, 0)" class="stroke"></path>
</svg>