<svg xmlns="http://www.w3.org/2000/svg" viewBox="0 0 80 80" fill="none">
<path d="M51.5218 29.9116C51.1118 29.9116 50.7718 29.6016 50.7318 29.1916C50.5018 26.9716 50.3818 24.7216 50.3518 22.4916C50.3118 19.2816 50.5318 15.9316 52.3818 13.2116C52.6318 12.8516 53.1318 12.7516 53.4918 13.0016C53.8618 13.2516 53.9518 13.7516 53.7018 14.1116C52.1018 16.4716 51.9118 19.5316 51.9518 22.4816C51.9818 24.6616 52.1018 26.8616 52.3218 29.0316C52.3618 29.4716 52.0418 29.8616 51.6118 29.9116C51.5818 29.9116 51.5618 29.9116 51.5318 29.9116H51.5218Z" fill="rgb(0, 0, 0)" class="stroke"></path>
<path d="M50.3898 8.18988C43.2698 5.45988 34.3298 4.99988 28.2198 7.12988C26.3898 7.75988 25.3398 8.57989 24.9398 9.77989C24.2898 11.6999 25.8498 13.4999 29.7798 14.3599C35.4198 15.5899 48.0998 17.1999 53.5398 15.1499C53.5398 15.1499 55.6498 14.1799 55.7098 13.1499C55.8198 11.2599 52.8698 9.13988 50.3898 8.18988ZM48.5698 13.2299C42.8398 13.3699 35.7598 12.8499 30.2298 11.5199C29.7698 11.4099 28.0298 10.9199 27.9198 10.4599C28.6498 9.99988 29.8698 9.55988 30.7098 9.36988C35.4198 8.24988 42.2098 8.54988 48.3898 10.3999C50.8598 11.1399 51.7198 12.6099 51.7198 12.6099C51.7198 12.6099 49.2698 13.2299 48.5698 13.2399V13.2299Z" fill="#FFD900"></path>
<path d="M45.8487 16.9201C39.9487 16.9201 33.1487 15.9101 29.6187 15.1401C26.9987 14.5701 25.2087 13.5501 24.4287 12.1801C23.9587 11.3601 23.8787 10.4401 24.1887 9.52009C24.6687 8.10009 25.8687 7.10009 27.9587 6.37009C34.2087 4.20009 43.3387 4.63009 50.6687 7.45009C53.0987 8.38009 56.6487 10.6801 56.4987 13.2001C56.4187 14.6101 54.4587 15.6101 53.8687 15.8801C51.8587 16.6401 48.9687 16.9201 45.8387 16.9201H45.8487ZM37.1387 6.59009C33.9787 6.59009 30.9787 7.02009 28.4787 7.89009C26.8687 8.45009 26.0087 9.11009 25.6987 10.0401C25.5387 10.5301 25.5687 10.9701 25.8187 11.4001C26.3587 12.3501 27.8287 13.1201 29.9587 13.5901C36.4687 15.0101 48.3787 16.2501 53.2687 14.4201C54.1087 14.0301 54.8987 13.3701 54.9187 13.1201C54.9887 11.9101 52.7387 9.96009 50.1087 8.95009C46.0687 7.40009 41.4587 6.60009 37.1487 6.60009L37.1387 6.59009ZM46.6987 14.0601C40.7987 14.0601 34.6887 13.4201 30.0387 12.3001C27.3887 11.6601 27.1987 10.9101 27.1387 10.6601C27.0487 10.3201 27.1987 9.97009 27.4887 9.78009C28.3287 9.25009 29.6487 8.79009 30.5187 8.59009C35.5487 7.40009 42.4787 7.80009 48.6087 9.63009C51.3487 10.4501 52.3587 12.1301 52.3987 12.2001C52.5287 12.4201 52.5487 12.6801 52.4487 12.9101C52.3487 13.1401 52.1487 13.3201 51.9087 13.3801C51.4887 13.4901 49.3287 14.0201 48.5887 14.0401C47.9587 14.0501 47.3287 14.0601 46.6987 14.0601ZM29.6587 10.5301C29.9087 10.6101 30.1687 10.6901 30.4087 10.7501C35.4287 11.9601 42.2087 12.5901 48.5487 12.4401C48.7987 12.4401 49.4587 12.3101 50.1687 12.1501C49.7187 11.8101 49.0587 11.4401 48.1587 11.1701C42.2787 9.42009 35.6587 9.03009 30.8887 10.1601C30.5387 10.2401 30.0987 10.3801 29.6587 10.5401V10.5301Z" fill="rgb(0, 0, 0)" class="stroke"></path>
</svg>