<svg xmlns="http://www.w3.org/2000/svg" viewBox="0 0 80 81" fill="none">
<g clip-path="url(#clip0_3495_43157)">
<g clip-path="url(#clip1_3495_43157)">
<path d="M41.98 24.8905C42.22 20.8205 41.66 16.7305 41.99 12.6705C42.32 8.61052 43.73 4.36051 46.99 1.92051C48.43 0.850515 50.41 0.190515 52.02 0.980515C52.83 1.38051 53.43 2.09051 53.93 2.84051C56.74 7.14051 56.26 12.9305 54.09 17.5805C52.61 20.7505 50.41 23.5805 47.7 25.8005" fill="white"></path>
<path d="M47.6983 26.41C47.5283 26.41 47.3482 26.33 47.2382 26.19C47.0282 25.93 47.0682 25.56 47.3182 25.35C49.9482 23.19 52.1082 20.42 53.5482 17.34C55.3882 13.39 56.3283 7.59999 53.4383 3.17999C52.8883 2.33999 52.3583 1.81999 51.7683 1.52999C50.3383 0.819991 48.5583 1.51999 47.3683 2.40999C43.7383 5.11999 42.8283 10.04 42.6083 12.72C42.4383 14.83 42.5083 17 42.5783 19.1C42.6383 21.01 42.7083 22.98 42.5983 24.93C42.5783 25.26 42.2982 25.51 41.9682 25.49C41.6382 25.47 41.3883 25.19 41.4083 24.86C41.5183 22.97 41.4482 21.02 41.3882 19.14C41.3182 17.01 41.2383 14.8 41.4183 12.63C41.8283 7.63999 43.6882 3.66999 46.6582 1.44999C48.1282 0.349991 50.3882 -0.490009 52.3082 0.459991C53.0982 0.849991 53.7783 1.50999 54.4483 2.52999C57.6083 7.35999 56.6283 13.61 54.6483 17.85C53.1283 21.1 50.8683 24.01 48.0983 26.28C47.9883 26.37 47.8482 26.42 47.7182 26.42L47.6983 26.41Z" fill="rgb(0, 0, 0)" class="stroke"></path>
<path d="M30.4878 25.1096C29.8178 24.1296 29.1278 22.9796 28.6978 21.8696L28.6278 21.9196C27.4178 22.6496 25.8978 22.8796 24.7078 22.1696C23.7878 21.6196 23.2178 20.6096 23.0078 19.5696C22.7978 18.5296 22.4378 17.2396 22.6278 16.1896C23.1778 13.2096 24.5678 8.18956 29.9878 6.56956C31.0978 6.23956 32.2978 6.03956 33.3878 6.41956C34.4078 6.76956 35.2178 7.57956 35.7578 8.50956C37.0078 10.6196 37.0178 13.2296 36.7978 15.6696C36.6278 17.5496 36.3478 19.4196 35.9578 21.2696C35.8578 21.7396 35.4178 22.8696 35.4978 22.9596" fill="white"></path>
<path d="M32.5208 13.2383C32.8408 13.9083 33.2708 18.0983 33.3008 18.8383C33.3308 19.6483 33.1208 20.9883 32.5508 21.5583C31.3408 22.7583 30.7908 21.0383 30.4908 20.5883C30.3808 20.4183 29.6708 17.2183 30.7508 14.7883C30.8908 14.4683 32.3508 12.8783 32.5308 13.2383H32.5208Z" fill="#FF9999"></path>
<path d="M31.7608 22.5779C31.6908 22.5779 31.6308 22.5779 31.5608 22.5579C30.7808 22.4379 30.3608 21.6279 30.1108 21.1479C30.0608 21.0579 30.0208 20.9679 29.9808 20.9179C29.7308 20.5479 29.0508 17.1079 30.1908 14.5479C30.3208 14.2479 31.6508 12.5979 32.4108 12.5879C32.7008 12.5879 32.9308 12.7379 33.0508 12.9779C33.4608 13.8179 33.8708 18.2979 33.8908 18.8279C33.9108 19.5779 33.7508 21.2079 32.9608 21.9879C32.5608 22.3779 32.1608 22.5779 31.7508 22.5779H31.7608ZM32.1408 14.0979C31.8008 14.4179 31.3808 14.8879 31.2908 15.0479C30.3508 17.1779 30.9408 20.0779 31.0408 20.3379C31.0508 20.3379 31.1208 20.4579 31.1908 20.5979C31.2908 20.7779 31.5808 21.3479 31.7608 21.3679C31.7808 21.3679 31.9208 21.3379 32.1308 21.1279C32.5208 20.7479 32.7308 19.6479 32.7108 18.8579C32.6908 18.1579 32.3908 15.3779 32.1508 14.0979H32.1408Z" fill="rgb(0, 0, 0)" class="stroke"></path>
<path d="M33.259 13.0893C32.859 14.2193 32.459 15.3493 32.069 16.4793C31.479 18.1593 30.849 19.9093 29.589 21.1793C28.329 22.4493 26.259 23.0893 24.719 22.1793C24.379 21.9693 24.049 21.5593 23.779 21.1193C23.279 20.3093 22.959 19.4193 22.789 18.4793C22.659 17.7293 22.529 16.7693 22.639 16.1993C22.809 14.4493 23.969 8.26932 29.999 6.57932C31.109 6.24932 32.309 6.04932 33.399 6.42932C34.419 6.77932 35.229 7.58932 35.769 8.51932C37.019 10.6293 37.029 13.2393 36.809 15.6793C36.639 17.5593 36.359 19.4293 35.969 21.2793C35.869 21.7493 35.429 22.8793 35.509 22.9693" fill="white"></path>
<path d="M35.5196 23.5486C35.3596 23.5486 35.1996 23.4886 35.0796 23.3586C34.7896 23.0486 34.8896 22.7286 35.1696 21.8586C35.2596 21.5886 35.3496 21.3086 35.3896 21.1386C35.7696 19.3186 36.0496 17.4586 36.2196 15.6086C36.4196 13.3786 36.4596 10.8286 35.2596 8.80863C34.7196 7.89863 33.9896 7.24863 33.2096 6.97863C32.4096 6.70863 31.4496 6.75863 30.1696 7.13863C24.2496 8.79863 23.3496 15.0186 23.2296 16.2486C23.1796 16.5186 23.1496 17.0886 23.3796 18.3686C23.5396 19.2586 23.8396 20.0786 24.2896 20.7986C24.6496 21.3786 24.8996 21.5886 25.0296 21.6586C26.3496 22.4486 28.1496 21.7786 29.1596 20.7586C30.3496 19.5586 30.9596 17.8186 31.4996 16.2886L32.6896 12.8986C32.7996 12.5886 33.1396 12.4186 33.4596 12.5286C33.7696 12.6386 33.9396 12.9786 33.8296 13.2986L32.6396 16.6886C32.0596 18.3386 31.3996 20.2186 30.0196 21.6086C28.6496 22.9886 26.2796 23.8086 24.4196 22.6986C24.0296 22.4686 23.6596 22.0486 23.2796 21.4286C22.7596 20.5786 22.3996 19.6286 22.2096 18.5886C21.9996 17.4586 21.9496 16.6186 22.0496 16.0786C22.1796 14.7686 23.1696 7.85863 29.8396 5.98863C31.3496 5.52863 32.5496 5.48863 33.5996 5.84863C34.6596 6.20863 35.6096 7.04863 36.2996 8.19863C37.6696 10.5186 37.6396 13.2986 37.4196 15.7186C37.2496 17.6186 36.9696 19.5286 36.5696 21.3886C36.5296 21.5886 36.4196 21.9186 36.3196 22.2286C36.2496 22.4386 36.1496 22.7486 36.1196 22.8886C36.1396 23.0686 36.0796 23.2486 35.9296 23.3886C35.8096 23.4986 35.6696 23.5486 35.5196 23.5486Z" fill="rgb(0, 0, 0)" class="stroke"></path>
<path d="M28.7031 21.8691C29.1331 22.9791 29.8131 24.1291 30.4931 25.1091Z" fill="white"></path>
<path d="M30.4915 25.7095C30.3015 25.7095 30.1115 25.6195 29.9915 25.4495C29.1415 24.2195 28.5215 23.0795 28.1415 22.0795C28.0215 21.7695 28.1815 21.4195 28.4915 21.3095C28.8015 21.1895 29.1515 21.3495 29.2615 21.6595C29.6115 22.5695 30.1915 23.6195 30.9815 24.7795C31.1715 25.0495 31.1015 25.4295 30.8215 25.6095C30.7215 25.6795 30.6015 25.7095 30.4815 25.7095H30.4915Z" fill="rgb(0, 0, 0)" class="stroke"></path>
<path d="M45.8303 23.3804C44.0203 22.9304 44.4603 14.1404 45.7603 9.40037C46.2603 7.57037 48.0303 3.65037 50.3403 4.31037C52.5303 4.93037 52.8503 8.65038 52.3803 11.1404C51.3803 16.3904 48.2303 23.9804 45.8303 23.3804Z" fill="#FF9999"></path>
<path d="M46.1091 24.0095C45.9691 24.0095 45.8291 23.9895 45.6891 23.9595C45.3191 23.8695 45.0091 23.6095 44.7691 23.1995C43.4391 20.9195 44.1091 13.1595 45.1891 9.23951C45.5991 7.75951 46.7591 4.98951 48.5091 3.99951C49.1591 3.62951 49.8391 3.53951 50.5091 3.72951C53.2091 4.48951 53.4491 8.74951 52.9691 11.2495C52.1691 15.4295 49.7491 22.0495 47.2791 23.6295C46.8791 23.8795 46.4891 24.0095 46.1091 24.0095ZM49.8291 4.82951C49.5891 4.82951 49.3491 4.89951 49.0991 5.03951C47.7991 5.76951 46.7191 8.19951 46.3391 9.55951C45.1191 13.9895 44.8291 20.9395 45.7991 22.5995C45.8891 22.7495 45.9591 22.7995 45.9691 22.7995C46.1491 22.8495 46.3691 22.7895 46.6191 22.6195C48.5391 21.3895 50.9191 15.4895 51.7791 11.0195C52.1991 8.83951 51.9691 5.38951 50.1691 4.86951C50.0491 4.83951 49.9291 4.81951 49.8191 4.81951L49.8291 4.82951Z" fill="rgb(0, 0, 0)" class="stroke"></path>
</g>
</g>
<defs>
<clipPath id="clip0_3495_43157">
<rect width="80" height="80" fill="white" transform="translate(0 0.0390625)"></rect>
</clipPath>
<clipPath id="clip1_3495_43157">
<rect width="34.47" height="26.37" fill="white" transform="translate(22 0.0390625)"></rect>
</clipPath>
</defs>
</svg>