<svg xmlns="http://www.w3.org/2000/svg" viewBox="0 0 80 80" fill="none">
<path d="M39.2589 25.9605C39.2589 25.9605 39.2289 25.9605 39.2089 25.9605C38.7689 25.9305 38.4289 25.5505 38.4589 25.1105C38.7989 19.4605 41.2889 14.1005 45.4489 10.0205C45.7689 9.71053 46.2689 9.72053 46.5789 10.0305C46.8889 10.3505 46.8789 10.8505 46.5689 11.1605C42.6889 14.9605 40.3789 19.9505 40.0589 25.2105C40.0289 25.6305 39.6789 25.9605 39.2589 25.9605Z" fill="rgb(0, 0, 0)" class="stroke"></path>
<path d="M45.8513 10.8903C44.9013 10.3603 44.4713 9.05034 44.9213 8.06034C45.3713 7.07034 46.6513 6.54034 47.6713 6.92034C48.6913 7.30034 49.3113 8.53034 49.0113 9.57034C48.9213 9.88034 48.7613 10.1703 48.5413 10.4003C47.9613 10.9803 47.0513 11.0603 46.2413 10.9203" fill="#FF0080"></path>
<path d="M46.9004 11.7808C46.6504 11.7808 46.3804 11.7608 46.1104 11.7108C46.0604 11.7108 46.0104 11.6908 45.9604 11.6708C45.7904 11.6908 45.6204 11.6708 45.4604 11.5808C44.1504 10.8508 43.5704 9.08081 44.1904 7.72081C44.8104 6.36081 46.5404 5.65081 47.9404 6.17081C49.3504 6.69081 50.1904 8.35081 49.7704 9.80081C49.6404 10.2508 49.4104 10.6608 49.0904 10.9708C48.5504 11.5008 47.7904 11.7808 46.8804 11.7808H46.9004ZM46.2404 10.1208C46.2404 10.1208 46.3304 10.1208 46.3704 10.1308C46.7104 10.1808 47.5404 10.2708 47.9804 9.83081C48.1004 9.71081 48.2004 9.54081 48.2504 9.35081C48.4404 8.70081 48.0304 7.90081 47.4004 7.66081C46.7704 7.43081 45.9404 7.77081 45.6604 8.38081C45.3904 8.96081 45.6304 9.76081 46.1604 10.1208C46.1904 10.1208 46.2204 10.1208 46.2504 10.1208H46.2404Z" fill="rgb(0, 0, 0)" class="stroke"></path>
<path d="M29.6606 25.8393H29.6306C29.1906 25.8293 28.8406 25.4593 28.8606 25.0093C28.9306 22.8993 28.2806 20.6793 26.9806 18.5993C25.8606 16.8093 24.2706 15.1193 22.2406 13.5793C21.8906 13.3093 21.8206 12.8093 22.0906 12.4593C22.3606 12.1093 22.8606 12.0393 23.2106 12.3093C25.3906 13.9693 27.1206 15.8093 28.3406 17.7593C29.8106 20.1093 30.5406 22.6393 30.4606 25.0693C30.4506 25.4993 30.0906 25.8393 29.6606 25.8393Z" fill="rgb(0, 0, 0)" class="stroke"></path>
<path d="M22.8619 13.1308C22.0919 14.0108 20.4319 13.6908 19.9519 12.6208C19.4719 11.5508 20.1919 10.1708 21.3119 9.83083C22.1919 9.57083 23.2419 9.92083 23.6919 10.7208C24.1419 11.5208 23.8319 12.6808 23.0019 13.0708" fill="#FF0080"></path>
<path d="M21.6595 14.4402C21.5295 14.4402 21.3895 14.4302 21.2495 14.4102C20.3395 14.2802 19.5695 13.7202 19.2195 12.9502C18.9095 12.2602 18.9295 11.4402 19.2695 10.7002C19.6295 9.91022 20.2995 9.31022 21.0795 9.07022C22.3495 8.69022 23.7695 9.23022 24.3895 10.3402C24.7195 10.9402 24.7895 11.6702 24.5695 12.3602C24.3595 13.0102 23.9095 13.5302 23.3395 13.8002C22.9095 14.2202 22.3095 14.4402 21.6695 14.4402H21.6595ZM21.9095 10.5402C21.7895 10.5402 21.6595 10.5602 21.5395 10.5902C21.1995 10.6902 20.8895 10.9802 20.7195 11.3502C20.5695 11.6802 20.5595 12.0202 20.6795 12.2902C20.7995 12.5602 21.1195 12.7702 21.4795 12.8202C21.7995 12.8702 22.0895 12.7902 22.2495 12.6002C22.3495 12.4902 22.4595 12.4102 22.5895 12.3702C22.6095 12.3602 22.6295 12.3502 22.6495 12.3402C22.8195 12.2602 22.9595 12.0802 23.0295 11.8602C23.1095 11.6002 23.0995 11.3202 22.9795 11.1102C22.7795 10.7602 22.3395 10.5402 21.8995 10.5402H21.9095Z" fill="rgb(0, 0, 0)" class="stroke"></path>
</svg>